<svg xmlns="http://www.w3.org/2000/svg" fill="#fff" width="192" height="199" version="1" viewBox="0 0 144 149">
  <path d="M1.1 1.12C4.67 1.12 8.24 1.12 11.81 1.11 11.77 11.85 11.79 22.6 11.8 33.34 8.24 33.33 4.68 33.33 1.12 33.34 1.11 22.6 1.15 11.86 1.1 1.12zM33.37 1.11C37 1.12 40.63 1.12 44.26 1.12 44.25 11.85 44.26 22.59 44.26 33.33 40.64 33.32 37.01 33.32 33.39 33.35 33.37 22.61 33.41 11.86 33.37 1.11zM51.33 1.11C54.97 1.12 58.61 1.12 62.25 1.11 62.24 6.37 62.24 11.63 62.25 16.89 58.61 16.88 54.97 16.88 51.32 16.89 51.36 11.63 51.36 6.37 51.33 1.11zM67.45 1.11C71.07 1.12 74.69 1.12 78.32 1.1 78.31 11.85 78.32 22.59 78.31 33.34 74.7 33.32 71.08 33.32 67.46 33.35 67.45 22.61 67.48 11.86 67.45 1.11zM83.58 1.1C87.2 1.12 90.82 1.12 94.44 1.1 94.43 6.36 94.43 11.63 94.44 16.9 90.82 16.88 87.2 16.88 83.57 16.9 83.59 11.63 83.59 6.36 83.58 1.1zM101.57 1.1C105.19 1.12 108.82 1.12 112.44 1.1 112.43 11.85 112.43 22.59 112.43 33.34 108.82 33.32 105.2 33.32 101.58 33.35 101.58 22.6 101.59 11.85 101.57 1.1zM133.76 1.13C137.17 1.12 140.59 1.12 144 1.1L144 33.35C140.59 33.33 137.18 33.33 133.77 33.32 133.76 22.59 133.78 11.86 133.76 1.13zM17.25 16.83C20.87 16.84 24.49 16.84 28.11 16.85 28.11 22.34 28.11 27.83 28.11 33.32 24.49 33.33 20.87 33.33 17.25 33.34 17.26 27.84 17.26 22.33 17.25 16.83zM117.73 16.84C121.34 16.84 124.95 16.84 128.57 16.85 128.54 22.35 128.55 27.85 128.54 33.35 124.94 33.33 121.33 33.32 117.73 33.33 117.73 27.83 117.73 22.33 117.73 16.84zM.58 41.22C2.76 41.24 4.93 41.25 7.1 41.26 8.87 48.51 11.28 55.63 12.17 63.07 14.19 55.9 15.5 48.55 17.13 41.29 19.21 41.26 21.29 41.24 23.37 41.23 25.03 48.34 26.23 55.57 28.19 62.62 29.86 55.47 31.64 48.35 33.46 41.24 35.57 41.25 37.67 41.25 39.77 41.26 36.7 51.55 33.88 61.91 30.87 72.22 28.97 72.22 27.07 72.23 25.17 72.24 23.39 64.9 21.87 57.51 20.12 50.17 18.84 57.59 17.01 64.9 15.32 72.24 13.44 72.23 11.56 72.24 9.68 72.24 6.57 61.92 3.7 51.54.58 41.22zM42.17 41.25C44.16 41.25 46.15 41.26 48.14 41.26 48.14 42.95 48.14 44.64 48.14 46.33 46.15 46.33 44.16 46.33 42.16 46.33 42.17 44.64 42.17 42.95 42.17 41.25zM52.77 41.23C54.76 41.24 56.76 41.25 58.75 41.26 58.62 51.61 58.83 61.96 58.63 72.3 56.68 72.26 54.73 72.22 52.78 72.19 52.77 61.87 52.78 51.55 52.77 41.23zM63.5 41.24C65.48 41.24 67.46 41.24 69.45 41.23 69.42 51.57 69.45 61.9 69.43 72.23 67.46 72.23 65.49 72.23 63.52 72.23 63.49 61.9 63.53 51.57 63.5 41.24zM74.23 41.25C76.2 41.25 78.17 41.25 80.14 41.26 80.15 42.94 80.15 44.63 80.16 46.31 78.18 46.32 76.2 46.33 74.23 46.34 74.23 44.65 74.23 42.95 74.23 41.25zM86.78 50.77C90.06 48.64 94.45 48.71 98.02 49.99 100.86 50.98 101.97 53.91 103.09 56.41 101.33 56.47 99.57 56.51 97.81 56.54 96.23 52.37 90.61 52.32 88.34 55.88 92.54 59.21 99.47 57.47 102.51 62.39 105.42 67.78 99.44 73.56 93.99 72.51 88.8 73.39 84.04 69.79 82.93 64.75 84.72 64.73 86.52 64.72 88.31 64.72 89.74 67.5 92.77 69.47 95.91 68.1 97.66 67.85 98.7 65.03 96.72 64.31 93.53 62.88 89.84 62.98 86.74 61.31 82.94 59.24 83.28 52.97 86.78 50.77zM42.18 49.69C44.17 49.69 46.15 49.69 48.14 49.7 48.13 57.2 48.14 64.71 48.13 72.22 46.16 72.22 44.19 72.23 42.22 72.23 42.18 64.72 42.23 57.2 42.18 49.69zM74.24 49.69C76.21 49.69 78.18 49.69 80.15 49.7 80.14 57.21 80.15 64.72 80.14 72.23 78.17 72.22 76.21 72.21 74.24 72.2 74.26 64.7 74.28 57.19 74.24 49.69zM.79 79.54C9.14 79.55 17.49 79.53 25.84 79.56 25.83 81.24 25.82 82.93 25.82 84.61 22.69 84.62 19.57 84.61 16.44 84.6 16.49 93.22 16.44 101.85 16.48 110.47 14.38 110.45 12.28 110.44 10.19 110.43 10.27 101.83 10.19 93.22 10.24 84.62 7.09 84.62 3.95 84.62.8 84.62.8 82.92.79 81.23.79 79.54z"/>
  <path d="M27.34 88.43C32.48 86.13 39.36 87.73 42.28 92.74 44.72 96.93 44.57 102.73 41.55 106.6 37.67 111.94 28.8 112.37 24.22 107.76 18.48 102.45 20.02 91.55 27.34 88.43M30.25 92.34C24.49 95.12 25.78 107.02 33.05 106.4 37.45 105.81 38.51 100.61 37.75 96.96 37.48 93.5 33.52 90.64 30.25 92.34zM44.72 88.11C46.71 88.12 48.7 88.12 50.7 88.13 51.94 92.89 53.22 97.63 54.16 102.45 55.51 97.7 56.75 92.92 58.02 88.14 59.73 88.12 61.44 88.11 63.15 88.09 64.53 92.82 65.78 97.59 67.1 102.34 68.35 97.6 69.54 92.84 70.88 88.12 72.82 88.11 74.76 88.11 76.7 88.1 74.41 95.52 72.24 102.98 70.01 110.42 68.25 110.44 66.49 110.46 64.72 110.49 63.31 105.55 62.07 100.56 60.77 95.6 59.22 100.53 57.99 105.55 56.51 110.5 54.76 110.47 53.02 110.45 51.28 110.42 49.11 102.98 46.98 95.52 44.72 88.11zM81.11 90.1C85.25 86.35 92.54 86.42 96.22 90.79 98.66 93.52 99.06 97.32 99.55 100.79 93.97 100.82 88.4 100.74 82.82 100.84 83.91 103.14 85.01 106.07 87.97 106.33 90.4 106.99 92.12 104.92 93.77 103.54 95.65 103.56 97.54 103.59 99.43 103.64 97.83 106.7 95.6 110.12 91.87 110.62 88.79 110.74 85.32 111.26 82.64 109.39 76.17 105.43 75.62 95.1 81.11 90.1M82.85 96.58C86.44 96.73 90.05 96.74 93.64 96.6 92.49 94.41 90.98 91.53 87.99 92.06 85.24 91.93 84.09 94.64 82.85 96.58zM102.67 88.12C104.57 88.11 106.47 88.1 108.37 88.09 108.35 88.92 108.29 90.59 108.26 91.42 110.04 89.15 112.36 87.51 115.35 87.41 115.37 89.21 115.39 91.01 115.4 92.81 112.7 93.1 109.47 93.97 108.9 97.08 108.28 101.51 108.73 106.01 108.64 110.47 106.65 110.46 104.66 110.45 102.67 110.45 102.69 103 102.69 95.56 102.67 88.12zM120.71 88.76C124.26 86.93 128.8 86.92 132.37 88.71 134.68 89.91 135.48 92.54 136.53 94.73 134.75 94.75 132.98 94.77 131.21 94.77 130.03 93.37 129.11 91.24 126.91 91.53 124.74 91.04 123.31 92.92 121.8 94.1 125.74 97.37 131.79 95.95 135.36 99.71 138.52 103.59 135.64 109.76 130.89 110.56 127.25 110.73 123.03 111.46 119.97 108.96 118.04 107.61 117.36 105.24 116.43 103.2 118.23 103.16 120.04 103.13 121.85 103.12 123.59 107.44 129.65 107.99 132.06 103.95 128.71 101.13 124.1 101.55 120.34 99.69 116.16 97.53 116.72 90.83 120.71 88.76zM1.04 117.82C3.18 117.81 5.32 117.81 7.46 117.8 9.48 124.97 11.31 132.2 12.92 139.48 14.53 132.25 15.94 124.98 17.66 117.77 19.71 117.8 21.77 117.83 23.83 117.86 25.45 125.12 26.79 132.44 28.76 139.61 30.05 132.25 32.13 125.07 33.91 117.82 36 117.82 38.09 117.81 40.17 117.81 37.19 128.11 34.33 138.45 31.32 148.74 29.41 148.73 27.49 148.73 25.58 148.74 23.89 141.4 22.05 134.09 20.84 126.66 19.14 133.99 17.51 141.33 15.85 148.67 13.9 148.69 11.95 148.7 10 148.71 7.07 138.4 4.06 128.11 1.04 117.82zM63.74 119.42C65.71 119.42 67.68 119.41 69.65 119.41 69.62 121.73 69.59 124.06 69.56 126.4 70.84 126.38 72.13 126.37 73.41 126.36 73.41 127.35 73.41 129.33 73.41 130.33 72.14 130.31 70.87 130.3 69.59 130.28 69.63 134.2 69.47 138.13 69.64 142.05 69.24 144.27 72.27 143.88 73.52 144.55 73.52 145.99 73.52 147.43 73.51 148.88 70.14 148.82 64.98 149.09 63.98 144.89 63.45 140.07 63.87 135.19 63.83 130.34 63.04 130.33 61.46 130.3 60.67 130.29 60.67 129.31 60.67 127.35 60.68 126.37 61.46 126.38 63.02 126.38 63.81 126.39 63.78 124.06 63.76 121.74 63.74 119.42zM44.35 126.49C49.02 124.8 56.48 125.41 57.98 131.09 58.84 136.94 58.03 142.91 58.65 148.79 56.92 148.77 55.19 148.75 53.46 148.74 53.21 147.99 52.95 147.24 52.7 146.49 51.57 147.34 50.44 148.19 49.28 149L43.16 149C38.51 147.42 36.4 140.83 40.44 137.5 44.45 134.98 49.5 135.06 53.81 133.15 52.35 131.99 51.2 129.84 49.04 130.05 46.71 129.66 45.28 131.76 43.8 133.14 42.13 133.15 40.46 133.15 38.79 133.15 40.08 130.57 41.25 127.35 44.35 126.49M45.03 140.1C43.94 140.86 43.93 142.4 44.37 143.53 45.83 145.54 48.89 145.15 50.82 144.09 53.16 142.73 52.65 139.76 52.97 137.48 50.31 138.29 47.49 138.75 45.03 140.1zM76.68 135.01C74.5 128.8 81.66 124.54 87.06 125.74 91.41 125.82 94.23 129.38 95.56 133.16 93.87 133.16 92.18 133.15 90.49 133.13 89.32 132.02 88.3 130.66 86.81 129.95 84.57 129.4 81.21 130.27 81.34 133.11 84.87 134.74 88.85 134.99 92.39 136.56 95.67 138.06 96.46 142.66 94.57 145.53 93.48 147.05 91.82 148 90.28 149L81.88 149C78.52 147.68 76.5 144.69 75.13 141.51 76.91 141.45 78.69 141.41 80.47 141.39 81.63 142.56 82.65 143.95 84.12 144.75 86.66 145.61 89.03 144.01 91.24 143.01 87.55 138.22 79.28 140.85 76.68 135.01zM98.04 140.9C96.16 134.87 99.71 127.5 106.07 126.08 113.01 123.85 121.03 129.55 120.79 136.93 121.34 142.29 117.65 147.04 112.85 149L105.64 149C102.19 147.43 98.92 144.78 98.04 140.9M107.4 130.5C101.66 132.91 102.25 144.17 108.99 144.7 113.5 145 115.49 139.72 114.75 135.98 114.68 132.35 111.03 129.05 107.4 130.5zM123.84 126.39C125.82 126.37 127.81 126.36 129.8 126.36 129.69 127.02 129.49 128.34 129.39 129 131.87 127.21 134.67 124.81 137.98 125.82 141.3 126.33 143.25 129.36 144 132.39L144 148.69C142.04 148.7 140.08 148.71 138.13 148.71 138.12 144.13 138.41 139.54 138.08 134.97 138 133.39 137.41 131.53 135.67 131.12 133.22 129.9 130.18 132.2 130 134.77 129.45 139.4 129.88 144.08 129.82 148.73 127.83 148.72 125.83 148.71 123.84 148.69 123.84 141.26 123.85 133.82 123.84 126.39z"/>
</svg>
