<svg xmlns="http://www.w3.org/2000/svg" fill="#fff"  width="516" height="532" version="1" viewBox="0 0 387 399">
  <path d="M 18.99 0.00 L 369.04 0.00 C 376.62 1.13 383.71 5.43 387.00 12.54 L 387.00 387.47 C 384.42 392.43 380.42 396.44 375.44 399.00 L 12.52 399.00 C 5.42 395.68 1.11 388.60 0.00 381.01 L 0.00 17.87 C 1.55 8.31 9.33 0.93 18.99 0.00 M 0.97 25.01 C 0.96 27.34 0.96 29.66 0.97 31.99 C 77.49 31.00 154.06 34.34 229.61 47.44 C 255.03 52.36 280.78 57.55 304.32 68.72 C 312.28 73.30 321.87 78.34 323.89 88.18 C 324.00 92.99 321.05 97.51 317.03 100.02 C 301.58 110.90 282.41 114.08 264.40 118.36 C 209.97 128.73 154.55 132.30 99.41 134.44 C 85.69 136.12 71.72 133.70 58.04 135.96 C 39.02 136.07 20.01 135.95 0.99 136.01 C 1.00 149.67 0.99 163.33 0.99 176.99 C 83.32 177.99 165.74 176.05 247.06 162.08 C 279.46 156.24 312.12 149.24 342.01 135.00 C 351.42 129.93 360.82 123.83 366.73 114.71 C 371.95 106.39 369.15 95.20 362.27 88.74 C 344.06 69.88 317.77 62.48 293.59 54.44 C 198.40 28.14 99.03 24.84 0.97 25.01 M 158.61 251.61 C 155.78 259.78 157.43 268.53 156.99 276.98 C 141.29 276.74 125.64 275.57 110.00 273.85 C 110.00 267.27 110.00 260.69 109.99 254.11 C 110.75 254.06 112.26 253.98 113.01 253.94 L 113.01 253.07 C 112.26 253.03 110.75 252.94 110.00 252.89 C 110.00 244.26 109.99 235.63 110.01 227.01 C 126.34 226.99 142.66 227.01 158.99 226.99 C 159.01 223.33 159.01 219.67 158.99 216.00 C 136.49 216.01 113.99 215.96 91.49 216.03 C 68.57 249.90 45.01 283.34 21.74 316.99 C 26.00 317.02 30.25 317.01 34.51 316.97 C 55.99 285.62 77.79 254.42 99.94 223.53 C 100.08 233.92 99.96 244.32 100.00 254.72 C 91.82 255.91 83.44 258.75 78.03 265.34 C 78.02 267.13 78.01 268.92 78.00 270.71 C 83.63 277.07 92.22 278.95 100.00 281.33 C 100.01 293.22 99.99 305.10 100.01 316.99 C 119.67 317.00 139.33 317.00 159.00 316.99 C 159.00 313.66 159.00 310.33 159.00 307.01 C 142.67 306.99 126.34 307.01 110.01 306.99 C 109.99 299.32 110.00 291.65 110.00 283.99 C 126.84 284.56 143.58 286.60 160.49 286.01 C 168.64 306.50 190.91 320.39 212.95 317.85 C 236.02 315.76 255.54 296.21 258.50 273.41 C 263.26 245.53 241.21 216.36 212.79 214.26 C 188.75 211.29 165.16 228.75 158.61 251.61 M 266.01 216.00 C 266.00 249.67 266.00 283.33 266.01 317.00 C 269.00 317.00 272.00 317.00 275.00 317.00 C 275.06 289.50 274.89 262.01 275.08 234.52 C 295.27 261.46 313.92 289.59 333.55 316.96 C 337.03 317.01 340.51 317.01 343.99 317.00 C 344.00 283.33 344.00 249.67 343.99 216.01 C 340.33 215.99 336.67 215.99 333.00 216.01 C 332.95 243.49 333.09 270.98 332.94 298.47 C 313.45 271.24 294.32 243.72 275.50 216.02 C 272.33 216.00 269.17 215.99 266.01 216.00 M 116.47 252.14 C 117.38 255.89 120.06 249.92 116.47 252.14 M 38.38 341.38 C 29.25 347.00 29.03 360.72 35.70 368.30 C 40.68 373.20 51.07 373.62 54.57 366.90 C 50.58 368.75 46.09 371.50 41.63 369.40 C 36.15 366.86 34.83 360.42 34.33 355.00 C 34.84 349.56 36.08 342.81 42.05 340.87 C 46.32 338.31 50.46 342.13 54.45 343.36 C 51.76 337.94 42.99 338.15 38.38 341.38 M 196.16 340.60 C 199.42 339.54 202.41 340.82 204.89 342.92 C 205.22 342.45 205.88 341.50 206.21 341.02 C 203.04 339.79 199.08 337.56 196.16 340.60 M 310.40 340.32 C 301.31 343.12 299.31 354.87 302.13 362.85 C 304.34 371.58 319.32 376.20 323.55 366.88 C 319.08 370.69 312.31 371.30 307.81 367.18 C 302.34 359.88 302.21 347.53 309.90 341.72 C 314.05 338.61 319.58 340.43 322.77 344.01 C 323.14 343.07 323.52 342.13 323.92 341.19 C 319.48 340.29 314.77 337.78 310.40 340.32 M 62.00 340.02 C 62.00 350.35 61.98 360.68 62.01 371.00 C 62.76 371.00 64.24 371.00 64.99 371.00 C 65.03 365.80 64.89 360.60 65.15 355.40 C 70.32 359.46 73.73 365.51 77.22 371.02 C 78.02 371.00 79.63 370.94 80.43 370.91 C 77.23 365.76 73.91 360.69 70.62 355.59 C 72.30 354.52 74.01 353.52 75.76 352.58 C 77.77 349.35 79.36 344.87 76.24 341.76 C 72.23 338.62 66.69 340.42 62.00 340.02 M 88.00 340.01 C 88.00 350.34 87.99 360.66 88.01 370.99 C 92.34 371.01 96.67 371.01 101.00 370.99 C 101.00 370.49 101.00 369.51 101.00 369.01 C 97.67 369.00 94.34 368.99 91.01 368.99 C 90.99 364.33 90.99 359.67 91.01 355.01 C 94.01 355.00 97.00 354.99 100.00 354.98 C 100.00 354.49 100.00 353.51 100.00 353.02 C 97.00 353.00 94.00 352.99 91.01 352.99 C 90.99 349.33 90.99 345.67 91.01 342.01 C 94.34 342.00 97.67 341.99 101.00 341.98 C 101.00 341.49 101.00 340.51 101.00 340.01 C 96.67 339.99 92.34 339.99 88.00 340.01 M 110.01 340.01 C 109.99 350.33 110.00 360.65 110.00 370.98 C 117.11 371.06 125.91 372.20 130.79 365.74 C 135.46 358.24 136.10 345.42 127.37 340.61 C 121.74 339.20 115.77 340.35 110.01 340.01 M 142.01 340.00 C 141.99 350.33 141.99 360.67 142.01 371.00 C 143.34 371.00 144.66 371.00 145.99 371.00 C 146.01 360.67 146.01 350.33 145.99 340.00 C 144.66 339.99 143.34 339.99 142.01 340.00 M 154.00 340.01 C 154.00 340.50 154.00 341.49 154.00 341.98 C 156.66 341.99 159.33 342.00 162.00 342.02 C 162.02 351.68 161.97 361.34 162.01 371.00 C 162.76 371.00 164.24 371.00 164.99 371.00 C 165.02 361.34 164.98 351.68 165.00 342.01 C 167.67 342.00 170.34 341.99 173.00 341.98 C 173.00 341.49 173.00 340.51 173.00 340.01 C 166.67 339.99 160.33 339.99 154.00 340.01 M 215.01 340.01 C 214.99 350.34 214.99 360.66 215.01 370.99 C 219.34 371.01 223.67 371.01 228.00 370.99 C 228.00 370.49 228.00 369.51 228.00 369.01 C 224.67 369.00 221.34 369.00 218.01 368.99 C 217.99 364.33 217.99 359.67 218.01 355.01 C 221.00 355.00 224.00 354.99 227.00 354.98 C 227.00 354.49 227.00 353.51 227.00 353.02 C 224.00 353.00 221.00 352.99 218.01 352.99 C 217.99 349.33 217.99 345.67 218.01 342.01 C 221.34 342.00 224.67 341.99 228.00 341.99 C 228.00 341.49 228.00 340.51 228.00 340.02 C 223.67 339.99 219.34 339.99 215.01 340.01 M 237.00 340.02 C 237.00 350.35 236.98 360.68 237.01 371.00 C 237.76 371.00 239.24 371.00 239.99 371.00 C 240.00 365.99 239.99 360.98 240.02 355.97 C 240.64 355.98 241.88 356.01 242.50 356.03 C 245.13 361.38 249.05 365.93 252.13 371.02 C 253.50 371.01 254.87 371.00 256.25 371.00 C 251.72 366.39 248.54 360.72 244.99 355.38 C 250.88 354.15 254.39 349.15 253.10 343.14 C 248.82 338.72 242.50 340.12 237.00 340.02 M 259.05 339.96 C 263.23 350.45 266.18 361.49 271.24 371.60 C 275.04 360.96 279.50 350.48 282.26 339.51 C 281.80 339.74 280.87 340.20 280.41 340.43 C 277.61 349.10 275.30 357.95 272.40 366.60 C 266.65 359.05 266.09 348.54 261.99 339.96 C 261.25 339.96 259.78 339.96 259.05 339.96 M 290.01 340.00 C 289.99 350.33 289.99 360.67 290.01 371.00 C 290.76 371.00 292.24 371.00 292.99 371.00 C 293.01 360.67 293.01 350.33 292.99 340.00 C 292.24 340.00 290.76 340.00 290.01 340.00 M 331.00 340.01 C 331.00 350.34 330.99 360.66 331.01 370.99 C 335.67 371.01 340.34 371.01 345.00 370.99 C 345.00 370.49 345.00 369.51 345.00 369.01 C 341.34 369.00 337.67 369.00 334.01 368.99 C 333.99 364.33 333.99 359.67 334.01 355.01 C 337.34 355.00 340.67 354.99 344.00 354.99 C 344.00 354.49 344.00 353.51 344.00 353.01 C 340.67 353.00 337.34 353.00 334.00 352.99 C 333.99 349.33 333.99 345.67 334.01 342.01 C 337.67 342.00 341.33 342.00 345.00 341.99 C 345.00 341.49 345.00 340.51 345.00 340.01 C 340.34 339.99 335.67 339.99 331.00 340.01 M 195.09 341.28 C 187.25 348.03 195.36 356.70 202.95 358.35 C 204.48 361.75 204.23 365.51 202.96 368.95 C 198.99 371.02 194.35 369.96 192.29 365.82 C 191.87 366.89 191.45 367.95 191.02 369.02 C 197.64 376.13 207.90 368.41 206.97 360.13 C 205.51 353.09 196.13 353.62 193.88 347.15 C 194.42 345.22 194.88 343.27 195.09 341.28 Z"/>
  <path d="M199.19 225.2C212.32 221.7 226.64 226.62 236.59 235.44 249.09 247.09 253.04 266.65 246.33 282.32 240.58 297.91 224.57 308.69 208 308.58 192.4 308.56 177.45 299.2 170.86 285.02 186.45 281.33 206.27 282.68 217.13 268.92 215.83 260.98 207.2 258.43 200.47 256.86 203.37 258.73 206.46 260.28 209.32 262.23 208.91 264.06 208.45 265.88 207.96 267.7 195.38 274.18 180.9 275.42 167.01 276.05 167.03 271.69 166.94 267.33 166.97 262.98 167.51 245.01 181.72 228.83 199.19 225.2zM89.07 267.72C85.36 260.62 95.93 258.05 100.95 256.69 101.03 261.84 101.01 266.99 100.99 272.14 96.84 271.18 92.88 269.6 89.07 267.72zM65.01 340.93C68.5 340.75 72.06 340.99 75.04 343.02 75 345.64 75 348.26 75.02 350.88 72.3 353.49 68.72 354.45 65.01 354.12 64.99 349.72 64.99 345.32 65.01 340.93zM113 341.02C118 341.19 124.26 339.61 127.8 344.22 131.93 349.8 131.73 357.64 128.72 363.71 126.34 369.66 118.42 370.83 112.99 368.82 113.01 359.56 112.99 350.29 113 341.02zM240.01 341.01C242.66 341 245.31 340.99 247.97 340.97 251.06 345 250.53 350.5 246.92 354 244.61 353.99 242.31 354 240.01 354 239.99 349.67 239.99 345.34 240.01 341.01z"/>
</svg>
