<svg xmlns="http://www.w3.org/2000/svg" fill="#fff"  width="307" height="103" version="1" viewBox="0 0 230 77">
  <path d="M134.87 0L143.44 0C149.04.71 155.1 1.66 159.53 5.46 161.93 7.42 162.9 11.25 160.87 13.81 158.7 16.79 154.76 17.03 151.46 17.7 152.69 15.6 154.93 13.71 154.7 11.05 154.57 7.18 151.03 4.53 147.65 3.41 140.49 1.05 132.13 2.37 126.27 7.2 118.39 13.55 112.79 22.28 104.67 28.39 116.62 30.69 128.76 33.66 141.01 32.34 145.43 31.94 149.33 29.75 153.28 27.95 150.05 34.88 142.18 37.97 134.97 38.39 122.7 39.04 110.75 35.58 99.12 32.11 92.12 36.02 84.26 39.19 76.08 38.38 72.76 38.01 68.79 37.48 66.73 34.53 65.09 31.58 67.94 28.63 70.56 27.61 78.4 24.37 87.16 25.43 95.33 26.59 101.97 19.83 107.85 12.07 116.04 7.04 121.74 3.39 128.24 1.21 134.87 0M72.64 32.98C73.44 35.65 76.63 36.16 79.02 36.16 83.97 36.09 88.1 32.94 91.78 29.97 86.95 28.84 81.95 27.45 76.96 28.33 74.79 28.76 72.16 30.41 72.64 32.98zM0 57.27C4.44 57.54 8.9 57.52 13.35 57.49 13.36 58.56 13.36 59.64 13.37 60.71 11.72 60.76 10.08 60.82 8.43 60.87 8.37 66.25 9.06 71.72 7.69 76.99 6.54 76.29 4.73 75.75 4.92 74.03 4.67 70.04 5.26 66.03 4.92 62.05 4.13 60.23 1.57 61.11 0 60.74L0 57.27zM35.57 57.5C39.37 57.49 43.17 57.49 46.97 57.48 47.02 58.24 47.14 59.75 47.2 60.5 44.59 60.54 41.98 60.58 39.37 60.62 39.38 62.15 39.38 63.68 39.39 65.22 41.59 65.22 43.79 65.22 46 65.22 46 65.96 46.01 67.44 46.01 68.18 43.84 68.26 41.42 67.35 39.41 68.41 38.68 69.95 38.61 72.02 39.4 73.55 42.04 74.46 44.97 73.66 47.71 73.57 47.74 74.71 47.75 75.85 47.74 77L47.22 77C46.95 76.84 46.42 76.53 46.15 76.37 42.63 76.37 39.11 76.66 35.58 76.68 35.57 70.29 35.58 63.9 35.57 57.5zM80.58 58.49C84.09 57.44 87.9 56.54 91.52 57.62 93.42 58.19 94.76 60.03 94.75 62.01 94.99 66.86 94.74 71.72 94.85 76.57 93.57 76.59 92.3 76.61 91.03 76.62 90.89 71.77 91.36 66.89 90.8 62.07 89.97 59.47 86.57 60.71 84.54 60.57 84.47 65.91 84.5 71.26 84.5 76.61 83.52 76.61 81.58 76.61 80.6 76.61 80.6 70.57 80.63 64.53 80.58 58.49zM99.43 58.25C103.05 57.42 107.18 56.28 110.58 58.41 117.48 62.9 115.6 76.29 106.66 77L104.01 77C102.47 76.6 100.95 76.13 99.43 75.68 99.4 69.87 99.4 64.06 99.43 58.25M103.38 60.28C103.28 64.78 103.28 69.28 103.35 73.78 105.36 73.58 107.84 74.07 109.29 72.28 111.34 69.49 111.34 65.37 109.72 62.39 108.46 60.05 105.6 60.41 103.38 60.28zM142.81 58.79C146.3 56.26 150.87 57.11 154.61 58.57 154.27 59.2 153.59 60.45 153.24 61.08 150.66 60.72 147.62 59.48 145.3 61.28 142.29 63.74 142.25 68.64 144.21 71.76 145.57 74.06 148.52 73.65 150.78 74.02 150.82 72.21 150.86 70.41 150.89 68.61 150 68.6 148.24 68.58 147.35 68.57 147.36 67.86 147.37 66.43 147.37 65.71 149.76 65.7 152.15 65.69 154.54 65.68 154.56 69.03 154.57 72.38 154.57 75.73 153.17 76.17 151.77 76.61 150.37 77L146.72 77C138.32 75.78 136.42 63.49 142.81 58.79zM159.11 58.19C162.64 57.42 166.6 56.33 170 58.13 172.76 59.52 173.71 63.35 172.22 65.98 171.36 67.13 170.22 68.02 169.18 68.99 170.68 71.53 172.18 74.06 173.67 76.61 172.15 76.6 170.63 76.6 169.11 76.6 167.5 73.54 165.88 70.49 164.15 67.51 166.28 66.77 169.69 65.97 169.09 62.93 168.76 59.72 165.06 60.01 162.71 60.34 162.77 65.79 162.79 71.24 162.69 76.69 161.76 76.66 159.89 76.6 158.95 76.58 159 70.45 158.83 64.31 159.11 58.19zM177.71 60.66C180.29 55.96 187.86 55.65 190.94 59.98 194.57 65.31 193.5 73.84 187.46 77L182.19 77C175.75 74.67 174.63 66.04 177.71 60.66M183.39 60.4C179.28 62.01 179.47 67.7 180.73 71.19 181.97 74.92 187.74 74.48 188.57 70.69 190.12 66.86 189 59.19 183.39 60.4zM216.15 58.16C220.85 56.94 227.14 56.06 230 61.04L230 65.45C228 69.2 223.63 69.49 219.88 69.71 219.87 72.01 219.86 74.31 219.86 76.62 218.59 76.61 217.33 76.6 216.06 76.6 216.08 70.45 216.02 64.31 216.15 58.16M220.19 60.33C219.73 62.41 219.85 64.54 219.81 66.65 221.45 66.45 223.17 66.49 224.76 65.91 226.55 65.14 226.79 62.6 225.59 61.21 224.12 59.89 221.99 60.17 220.19 60.33zM16.08 57.5C17.35 57.5 18.62 57.49 19.88 57.49 19.88 60.1 19.88 62.71 19.88 65.32 22.19 65.31 24.5 65.31 26.81 65.3 26.81 62.7 26.81 60.1 26.8 57.5 27.78 57.5 29.72 57.49 30.69 57.49 30.7 63.86 30.7 70.24 30.69 76.62 29.72 76.61 27.78 76.61 26.81 76.61 26.81 73.88 26.8 71.14 26.8 68.41 24.52 68.4 22.23 68.39 19.95 68.38 19.91 71.12 19.89 73.86 19.86 76.6 18.6 76.6 17.34 76.61 16.08 76.61 16.09 70.24 16.09 63.87 16.08 57.5zM58.29 57.49C59.26 57.49 61.21 57.5 62.18 57.5 62.18 62.74 62.18 67.99 62.18 73.24 64.45 73.24 66.72 73.24 68.99 73.23 68.99 74.08 69 75.77 69.01 76.61 65.43 76.62 61.86 76.62 58.29 76.61 58.28 70.24 58.28 63.86 58.29 57.49zM71.93 57.5C72.88 57.49 74.77 57.49 75.72 57.49 75.73 63.86 75.73 70.24 75.72 76.62 74.77 76.62 72.88 76.61 71.93 76.61 71.93 70.24 71.93 63.87 71.93 57.5zM118.52 57.49C122.36 57.49 126.2 57.49 130.04 57.5 130.01 58.27 129.96 59.83 129.93 60.61 127.39 60.58 124.85 60.58 122.32 60.57 122.31 62.12 122.31 63.67 122.31 65.22 124.52 65.22 126.73 65.22 128.93 65.22 128.93 65.96 128.94 67.46 128.94 68.2 126.72 68.21 124.51 68.21 122.29 68.21 122.31 69.99 122.32 71.76 122.34 73.53 124.97 73.53 127.59 73.53 130.22 73.54 130.21 74.31 130.2 75.84 130.19 76.61 126.3 76.62 122.41 76.62 118.52 76.61 118.51 70.24 118.51 63.87 118.52 57.49zM196.78 57.51C197.75 57.5 199.69 57.48 200.66 57.46 200.78 62.29 200.29 67.15 200.98 71.94 202.3 74.62 207.35 74.13 207.5 70.92 207.97 66.46 207.62 61.97 207.68 57.5 208.62 57.5 210.52 57.49 211.47 57.49 211.38 62.31 211.84 67.17 211.22 71.97 210.82 75.14 207.6 76.58 204.8 77L203.25 77C200.55 76.49 197.45 75.08 197.06 72.01 196.41 67.21 196.87 62.34 196.78 57.51z"/>
</svg>
