<svg xmlns="http://www.w3.org/2000/svg" fill="#fff"  width="240" height="139" version="1" viewBox="0 0 180 104">
  <path d="M85.76 0L91.14 0C102.04.84 112.57 5.69 119.75 14.02 124.42 4.87 134.81.63 144.59 0L151.21 0C160.9.96 170.69 3.82 178.34 10.06 174.9 14.87 171.4 19.63 167.87 24.37 160.9 19.67 152.46 16.38 143.93 17.35 141.14 17.55 138.06 19.99 138.89 23.06 139.23 25.73 142.12 26.82 144.35 27.55 153.69 30.34 163.87 31.28 172.19 36.77 176.06 39.15 178.73 43.1 180 47.42L180 58.39C177.76 67.85 168.99 74.26 159.75 75.88 146.04 78.35 131.16 76.03 119.34 68.48 123.21 63.93 126.42 58.79 128.06 53 136.16 58.02 146 61.53 155.58 59.33 158.89 58.69 160.74 54.21 158.21 51.71 154.82 48.9 150.24 48.41 146.12 47.31 140.7 46.11 135.35 44.57 130.17 42.57 129.65 38.27 129.62 33.84 127.9 29.8 127.97 34.84 129.02 39.9 127.85 44.9 125.78 58.74 115.09 70.57 101.89 74.86 85.3 80.71 64.87 75.1 54.8 60.35 48.57 51.49 46.72 39.95 49.23 29.48 50.12 25.61 52.06 22.12 53.6 18.49 46.07 27.46 43.85 40.24 46.57 51.5 38.31 54.82 29.19 54.63 20.45 54.31 20.56 61.42 20.66 68.54 20.39 75.65 13.59 75.69 6.8 75.66 0 75.67L0 1.45C11.01 1.5 22.03 1.36 33.04 1.51 42.48 1.72 52.33 4.86 58.39 12.48 65.54 5.01 75.53.8 85.76 0M66.05 12.23C71.82 20.56 79.43 27.46 85.77 35.35 87.24 37.72 86.7 40.96 84.86 42.98 78.53 50.06 72.08 57.03 66.04 64.37 70.35 67.9 75.88 69.52 81.11 71.19 83.32 71.47 86.2 73.18 87.86 70.86 96.37 62.36 104.02 53.05 112.31 44.34 114 42.66 115.31 40.42 115.22 37.97 114.96 35.1 112.63 33.16 110.88 31.11 102.63 22.55 95.08 13.34 86.62 4.97 79.32 5.77 72.39 8.6 66.05 12.23M20.4 18.67C20.35 25.18 21.03 31.75 20.15 38.23 25.69 38.19 31.57 39.3 36.86 37.19 43.69 34.57 44.21 23.59 37.78 20.21 32.4 17.55 26.16 19.01 20.4 18.67zM0 86.8C1.3 86.8 2.59 86.81 3.89 86.82 5.46 89.33 7.05 91.82 8.67 94.3 10.35 91.87 11.94 89.38 13.42 86.83 14.79 86.82 16.15 86.81 17.52 86.8 17.4 92.54 17.03 98.27 17.54 104L13.7 104C13.71 100.31 13.71 96.61 13.64 92.92 11.95 95.33 10.29 97.77 8.64 100.21 6.99 97.78 5.31 95.37 3.62 92.97 3.6 96.64 3.6 100.32 3.6 104L0 104 0 86.8zM27.16 86.8C27.97 86.79 29.59 86.76 30.39 86.75 33.12 92.41 35.46 98.25 38 104L34.21 104C33.63 102.82 33.1 101.63 32.56 100.43 30.08 100.42 27.6 100.41 25.12 100.4 24.51 101.6 23.9 102.81 23.25 104L19.45 104C22.31 98.4 24.34 92.42 27.16 86.8M28.8 91.13C27.9 93.14 27.02 95.17 26.16 97.2 27.84 97.19 29.53 97.19 31.21 97.18 30.44 95.15 29.64 93.13 28.8 91.13zM40.04 86.84C41.32 86.84 42.6 86.85 43.87 86.85 43.95 91.49 43.92 96.14 43.93 100.78 46.79 100.79 49.66 100.79 52.52 100.8 52.54 101.6 52.58 103.2 52.6 104L39.97 104C39.99 98.28 39.9 92.56 40.04 86.84zM53.87 104C56.68 98.33 58.72 92.31 61.69 86.71 62.49 86.74 64.09 86.82 64.89 86.85 67.62 92.48 69.8 98.36 72.52 104L68.59 104C68.01 102.81 67.47 101.61 66.93 100.41 64.38 100.41 61.83 100.42 59.29 100.41 58.8 101.61 58.32 102.81 57.8 104L53.87 104M60.65 97.21C62.35 97.2 64.05 97.18 65.74 97.15 64.97 95.35 64.23 93.55 63.48 91.75 61.71 92.97 61.55 95.4 60.65 97.21zM69.94 86.83C71.01 86.82 73.14 86.82 74.21 86.82 75.63 89.22 77.12 91.59 78.67 93.91 80.16 91.58 81.63 89.23 83.06 86.86 84.48 86.84 85.9 86.83 87.32 86.81 85.32 89.98 83.14 93.03 81.16 96.21 79.69 98.52 80.46 101.42 80.33 104L76.71 104C76.56 101.17 77.37 97.96 75.52 95.52 73.67 92.62 71.75 89.76 69.94 86.83zM90.49 87.55C93.74 85.76 97.66 86.87 100.67 88.63 100.24 89.33 99.37 90.73 98.94 91.43 96.83 90.6 94.59 89.5 92.27 90.22 91.25 91.62 91.51 92.58 93.06 93.08 95.83 94.44 100.29 94.28 101.12 97.97 101.9 100.52 100.24 102.66 98.24 104L91.01 104C89.78 103.35 88.57 102.68 87.36 102 88.02 101.1 88.69 100.2 89.35 99.3 91.94 100.87 96.29 102.69 98.09 99.13 95.67 97.51 92.77 96.97 90.15 95.81 86.93 94.25 87.54 89.08 90.49 87.55zM104.36 87.01C105.68 86.92 107 86.84 108.32 86.75 108.42 92.5 108.41 98.25 108.33 104L104.41 104C104.39 98.34 104.45 92.67 104.36 87.01zM118.32 86.96C119.5 86.88 120.69 86.81 121.89 86.74 124.58 92.42 126.87 98.28 129.47 104L125.66 104C125.15 102.85 124.66 101.69 124.19 100.53 121.57 100.41 118.96 100.39 116.34 100.43 115.83 101.62 115.32 102.82 114.78 104L110.99 104C113.47 98.34 115.98 92.69 118.32 86.96M117.69 97.17C119.33 97.18 120.98 97.19 122.62 97.18 121.89 95.17 121.09 93.18 120.2 91.23 119.23 93.15 118.4 95.14 117.69 97.17z"/>
</svg>
