<?xml version="1.0" encoding="UTF-8"?>
<svg width="220px" height="75px" viewBox="0 0 220 75" version="1.1" xmlns="http://www.w3.org/2000/svg" xmlns:xlink="http://www.w3.org/1999/xlink">
    <!-- Generator: Sketch 47 (45396) - http://www.bohemiancoding.com/sketch -->
    <title>Google_Play</title>
    <desc>Created with Sketch.</desc>
    <defs>
        <path d="M20.6945513,18.9079713 L0.744408319,0 C0.278971862,0.108115907 0,0.456267211 0,1.04217165 L0,18.9079713 L0,37.2204159 C0,37.717512 0.200390487,38.013272 0.446644991,38.1137059 L20.6945513,18.9079713 Z" id="path-1"></path>
        <path d="M1.8217971,20.0227036 L13.3529912,13.6882187 C16.1925775,12.1147634 18.446144,10.8660191 18.446144,10.8660191 L26.8318067,6.34933328 L21.2490169,0.924575791 L1.00134687,20.1327003 C1.22702586,20.2052817 1.62479174,20.1656086 1.93511271,20.0124487" id="path-3"></path>
        <path d="M2.05921173,1.16857935 C1.67515463,0.962887855 1.29356437,0.904046903 0.984883295,0.987209297 L20.9515896,19.9226858 L26.4754989,14.6952439 L18.1489985,10.0829708 C18.1489985,10.0829708 10.3010018,5.73481701 5.56233534,3.10931578 L2.05921173,1.16857935 Z" id="path-5"></path>
    </defs>
    <g id="Page-1" stroke="none" stroke-width="1" fill="none" fill-rule="evenodd">
        <g id="Desktop_HD" transform="translate(-502.000000, -714.000000)">
            <g id="Badges" transform="translate(263.000000, 714.000000)">
                <g id="Google_Play" transform="translate(239.103952, 0.000000)">
                    <g id="Play-Store">
                        <rect id="background" fill="#000000" x="0" y="0" width="219.898217" height="74.4408319" rx="10"></rect>
                        <g id="icon" transform="translate(7.935069, 25.651987)">
                            <path d="M18.8903179,10.0829708 C18.8903179,10.0829708 3.71847332,1.67706588 2.8274073,1.18321156 C1.93485863,0.689357228 1.04675789,0.988932526 1.04675789,2.02113256 L1.04675789,19.9659895 L1.04675789,38.2756758 C1.04675789,39.0483428 1.68132737,39.3835112 2.45674755,38.9549109 C3.2306851,38.5263106 18.8903179,29.8490083 18.8903179,29.8490083 C18.8903179,29.8490083 21.0176518,28.6709996 22.0813188,28.0819952 C23.793152,27.1340696 27.2168184,25.2382182 27.2168184,25.2382182 C27.2168184,25.2382182 34.2815931,21.3229766 35.2215863,20.8039105 C36.1600967,20.2833614 36.0696557,19.5700162 35.2779265,19.1592125 C34.4847147,18.7498918 27.2168184,14.6952439 27.2168184,14.6952439 L18.8903179,10.0829708 Z" id="orange" fill="#C4C4C4"></path>
                            <g id="blue" transform="translate(0.997831, 0.997831)">
                                <mask id="mask-2" fill="white">
                                    <use xlink:href="#path-1"></use>
                                </mask>
                                <use id="Clip-2" fill="#9B9B9B" xlink:href="#path-1"></use>
                            </g>
                            <g id="red" transform="translate(0.444174, 18.982989)">
                                <mask id="mask-4" fill="white">
                                    <use xlink:href="#path-3"></use>
                                </mask>
                                <g id="Clip-8"></g>
                                <path d="M18.4194565,-8.90337689 C18.390258,-8.83621756 3.22433035,-17.2575615 2.34023684,-17.6873951 C1.44141127,-18.2470842 0.553656876,-17.9469587 0.553656876,-16.9429867 L0.553656876,1.07169457 C0.553656876,1.06495316 0.553656876,18.6326967 0.553656876,19.3841392 C0.553656876,20.1823547 1.18797888,20.5181387 1.89359185,20.1285475 C2.73673237,19.6593637 18.390258,10.9661239 18.4194565,10.8978844 L26.7568297,6.2825528 C26.7135112,6.34686521 33.7755307,2.42443263 34.6475579,1.96498456 C35.6533017,1.38290792 35.562896,0.668252592 34.7964395,0.327286255 C33.9785731,-0.153378172 26.7135112,-4.21547312 26.7568297,-4.28804532 L18.4194565,-8.90337689 Z" id="Fill-7" fill="#747474" mask="url(#mask-4)"></path>
                            </g>
                            <g id="green" transform="translate(0.741319, -0.000000)">
                                <mask id="mask-6" fill="white">
                                    <use xlink:href="#path-5"></use>
                                </mask>
                                <use id="Clip-5" fill="#8A8A8A" xlink:href="#path-5"></use>
                                <path d="M26.4596841,14.6949439 L18.122311,10.0796123 C18.0931125,10.1467716 2.92718479,1.72542773 2.04309128,1.29559413 C1.14426571,0.735904968 0.256511315,1.03603049 0.256511315,2.04000245 L0.256511315,20.0546838 C0.256511315,20.0479423 0.256511315,37.6156858 0.256511315,38.3671284 C0.256511315,39.1653439 0.890833318,39.5011279 1.59644629,39.1115367 C2.43958681,38.6423528 18.0931125,29.9491131 18.122311,29.8808736 L26.4596841,25.265542 C26.4163657,25.3298544 33.4783852,21.4074218 34.3504123,20.9479737 C35.3561561,20.3658971 35.2657504,19.6512418 34.499294,19.3102754 C33.6814275,18.829611 26.4163657,14.7675161 26.4596841,14.6949439" id="Fill-4" mask="url(#mask-6)"></path>
                            </g>
                        </g>
                        <g id="Google-play" transform="translate(51.661937, 29.925214)" fill="#FFFFFF">
                            <path d="M98.9490271,22.015102 L97.3003567,23.5799328 C96.9193442,23.7905633 96.5403747,24.0351002 96.1624267,24.208742 C95.0173464,24.7317222 93.852858,24.8632378 92.8180976,24.8632378 C91.716941,24.8632378 89.990638,24.7913152 88.2296046,23.5100651 C85.7831573,21.7767299 84.7136666,18.7970783 84.7136666,16.2006717 C84.7136666,10.8249694 89.0641546,8.1884915 92.6127799,8.1884915 C93.852858,8.1884915 95.1266449,8.50084118 96.1624267,9.15944691 C97.8846438,10.3050715 98.3300096,11.7938698 98.577208,12.5911835 L90.4737985,15.8842121 L87.8199906,16.0917603 C88.6790562,20.4995896 91.6433944,23.0631173 94.9192842,23.0631173 C96.5556969,23.0631173 97.770238,22.5257526 98.8846738,21.9719484 C98.8846738,21.9719484 99.1083782,21.8548173 98.9490271,22.015102 L98.9490271,22.015102 Z M93.9978522,13.1726827 C94.6481996,12.930638 94.9865014,12.7216934 94.9865014,12.2355351 C94.9865014,10.8411918 93.4464707,9.23066315 91.6085323,9.23066315 C90.2472461,9.23066315 87.6912999,10.3167614 87.6912999,14.0881084 C87.6912999,14.6766703 87.7599701,15.3035041 87.7943053,15.930338 L93.9978522,13.1726827 L93.9978522,13.1726827 Z" id="Fill-1"></path>
                            <path d="M82.0376856,21.8265194 C82.0376856,23.1702417 82.2759297,23.3793335 83.4050436,23.4849044 C83.9935267,23.5546016 84.5799736,23.5853504 85.1603116,23.6550477 L83.8896767,24.4165928 L77.8348164,24.4165928 C78.6289632,23.3793335 78.7653935,23.2758126 78.7653935,22.5849896 L78.7653935,21.8131949 L78.7521578,1.24840106 L76.0785302,1.24840106 L78.6523803,0 L83.5659092,0 C82.500938,0.621125651 82.1822611,0.999335825 82.0458307,2.20981337 L82.0376856,21.8265194" id="Fill-2"></path>
                            <path d="M72.6436983,9.88540897 C73.4314612,10.5382152 75.0750904,11.923763 75.0750904,14.5513849 C75.0750904,17.1123938 73.6428866,18.3196241 72.1984852,19.4622912 C71.755305,19.9121843 71.2369062,20.3999955 71.2369062,21.1542583 C71.2369062,21.919794 71.755305,22.3348434 72.1283489,22.6443371 L73.3674237,23.6086866 C74.8738297,24.8907283 76.2470783,26.0661894 76.2470783,28.4540049 C76.2470783,31.7067629 73.1244878,34.987191 67.2238895,34.987191 C62.2533598,34.987191 59.8504288,32.6004003 59.8504288,30.041441 C59.8504288,28.7962926 60.4653921,27.0325885 62.4942627,25.8243334 C64.6207143,24.5135969 67.5013854,24.3383538 69.0443842,24.2358725 C68.5625782,23.6086866 68.0126689,22.9517812 68.0126689,21.8798262 C68.0126689,21.2936329 68.1875015,20.9441715 68.3562352,20.5321965 C67.9811584,20.568065 67.6030322,20.6049582 67.2594659,20.6049582 C63.621526,20.6049582 61.5652108,17.8687062 61.5652108,15.1724218 C61.5652108,13.5819113 62.2848703,11.8171824 63.7628151,10.5382152 C65.7185001,8.91491058 68.0502782,8.63513649 69.9032999,8.63513649 L76.9718201,8.63513649 L74.7742158,9.88540897 L72.6436983,9.88540897 L72.6436983,9.88540897 Z M70.2304743,25.1985602 C69.9466331,25.1610012 69.7765334,25.1610012 69.4342846,25.1610012 C69.1207272,25.1610012 67.2527044,25.2298594 65.805832,25.7243867 C65.0403832,26.0092093 62.8280621,26.8511576 62.8280621,29.3519633 C62.8280621,31.8475523 65.2166311,33.647256 68.911689,33.647256 C72.2317078,33.647256 73.9941869,32.027001 73.9941869,29.8454472 C73.9941869,28.0499168 72.8536989,27.1025945 70.2304743,25.1985602 L70.2304743,25.1985602 Z M71.2004543,18.5380426 C71.9899016,17.7421805 72.0587252,16.6428896 72.0587252,16.0186639 C72.0587252,13.5391295 70.5941993,9.67730814 67.7552253,9.67730814 C66.8696274,9.67730814 65.9101453,10.1258107 65.3656291,10.8195082 C64.7877132,11.5377252 64.614642,12.4694663 64.614642,13.3654497 C64.614642,15.6743693 65.9486056,19.5034979 68.882718,19.5034979 C69.7389647,19.5034979 70.6599866,19.0836015 71.2004543,18.5380426 L71.2004543,18.5380426 Z" id="Fill-3"></path>
                            <path d="M51.2654451,24.8632378 C45.8014313,24.8632378 42.8779191,20.5529207 42.8779191,16.6502107 C42.8779191,12.0901696 46.5531916,8.1884915 51.7808797,8.1884915 C56.8343793,8.1884915 59.9993105,12.196457 59.9993105,16.4046144 C59.9993105,20.5147397 56.8710506,24.8632378 51.2654451,24.8632378 L51.2654451,24.8632378 Z M55.5385845,22.0442223 C56.3726489,20.9265802 56.5750322,19.5315974 56.5750322,18.1717996 C56.5750322,15.0962142 55.1276852,9.23066315 50.8500387,9.23066315 C49.7123994,9.23066315 48.566583,9.68082453 47.7406957,10.4155707 C46.3935181,11.637733 46.1533157,13.1734559 46.1533157,14.680203 C46.1533157,18.1304054 47.8377988,23.8210662 52.0183421,23.8210662 C53.367564,23.8210662 54.7443835,23.1597946 55.5385845,22.0442223 L55.5385845,22.0442223 Z" id="Fill-4"></path>
                            <path d="M32.9524188,24.8632378 C27.4851094,24.8632378 24.5654745,20.5529207 24.5654745,16.6502107 C24.5654745,12.0901696 28.2432973,8.1884915 33.4711253,8.1884915 C38.5236732,8.1884915 41.6868658,12.196457 41.6868658,16.4046144 C41.6868658,20.5147397 38.5613788,24.8632378 32.9524188,24.8632378 L32.9524188,24.8632378 Z M37.2276767,22.0442223 C38.0560144,20.9265802 38.2625876,19.5315974 38.2625876,18.1717996 C38.2625876,15.0962142 36.8104399,9.23066315 32.5347852,9.23066315 C31.3924972,9.23066315 30.2583903,9.68082453 29.4300525,10.4155707 C28.0801687,11.637733 27.8408711,13.1734559 27.8408711,14.680203 C27.8408711,18.1304054 29.533339,23.8210662 33.7087751,23.8210662 C35.0555909,23.8210662 36.4310407,23.1597946 37.2276767,22.0442223 L37.2276767,22.0442223 Z" id="Fill-5"></path>
                            <path d="M22.2987489,23.8330376 L17.6706102,24.8996957 C15.795416,25.1972479 14.1115265,25.4587645 12.3284041,25.4587645 C3.40153875,25.4587645 0,18.8456905 0,13.669928 C0,7.34925834 4.81944332,1.48881664 13.073162,1.48881664 C14.8194557,1.48881664 16.4992532,1.74724441 18.0296899,2.16731823 C20.4552684,2.85302698 21.5897966,3.69832259 22.2987489,4.19355668 L19.6102545,6.76342008 L18.4767493,7.01875908 L19.2849344,5.72250186 C18.1903039,4.64657748 16.1780252,2.66049314 12.3590946,2.66049314 C7.25320594,2.66049314 3.40153875,6.56676788 3.40153875,12.2696819 C3.40153875,18.3947289 7.79949818,24.1563297 14.8532154,24.1563297 C16.9258522,24.1563297 17.9928612,23.7372855 18.9616604,23.3460403 L18.9616604,18.0951174 L14.0746978,18.3597228 L16.6649823,16.9594767 L23.5233029,16.9594767 L22.6844271,17.7718253 C22.4583399,17.9653888 22.4276493,18.0312827 22.3642221,18.2907401 C22.3304625,18.5872628 22.2987489,19.5303697 22.2987489,19.8618985 L22.2987489,23.8330376" id="Fill-6"></path>
                            <path d="M108.937073,22.1744013 L108.937073,30.9673861 L107.194798,30.9673861 L107.194798,8.59259028 L108.937073,8.59259028 L108.937073,11.1409702 C110.072052,9.49388401 112.146043,8.1884915 114.554812,8.1884915 C118.875286,8.1884915 121.785201,11.4734565 121.785201,16.6735428 C121.785201,21.8388459 118.875286,25.1923542 114.554812,25.1923542 C112.28077,25.1923542 110.243524,24.0168871 108.937073,22.1744013 L108.937073,22.1744013 Z M119.998621,16.8076037 C119.998621,12.8470237 117.952737,9.8261898 114.325058,9.8261898 C112.07223,9.8261898 109.917751,11.6126378 108.981378,13.1706107 L108.981378,20.4084129 C109.917751,21.9694873 112.07223,23.8210662 114.325058,23.8210662 C117.952737,23.8210662 119.998621,20.7743867 119.998621,16.8076037 L119.998621,16.8076037 Z" id="Fill-7"></path>
                            <polygon id="Fill-8" points="124.167308 2.38210662 125.953887 2.38210662 125.953887 24.8632378 124.167308 24.8632378"></polygon>
                            <path d="M145.377476,29.4191799 C145.750045,29.5859721 146.385964,29.6882985 146.789155,29.6882985 C147.854803,29.6882985 148.596878,29.2513645 149.263419,27.7082814 L150.534236,24.8216518 L143.670805,8.48625483 L145.614287,8.48625483 L151.501893,22.6420981 L157.332339,8.48625483 L159.30338,8.48625483 L150.932323,28.2495884 C150.063676,30.2858851 148.69691,31.2651494 146.819777,31.2651494 C146.25633,31.2651494 145.513234,31.1648694 145.078401,31.0308218 L145.377476,29.4191799" id="Fill-9"></path>
                            <path d="M140.460545,24.8410563 C140.343519,24.2762661 140.255236,23.7783455 140.190564,23.3627258 C140.137184,22.9481349 140.106388,22.5242851 140.106388,22.0932339 C139.505861,22.9769402 138.654858,23.7125048 137.56775,24.2916976 C136.479616,24.8750054 135.445888,25.1610012 134.028234,25.1610012 C132.321095,25.1610012 130.99583,24.7402377 130.050385,23.8863655 C129.10802,23.0335221 128.633757,21.8782227 128.633757,20.4163524 C128.633757,18.9565397 129.320514,17.7714063 130.689921,16.8650672 C132.059327,15.9546132 133.829085,15.5019581 136.019725,15.5019581 L140.106388,15.5019581 L140.106388,13.4783839 C140.106388,12.3127969 139.710143,11.3961703 138.918679,10.7315903 C138.124136,10.0659815 137.009311,9.72957645 135.563941,9.72957645 C134.242781,9.72957645 133.171072,10.0371762 132.354971,10.6359155 C131.546056,11.2469999 131.138519,12.0041685 131.138519,12.91668 L129.345151,12.91668 L129.308195,12.8292353 C129.243523,11.5988364 129.805042,10.5196654 130.99891,9.58760734 C132.187645,8.65657805 133.744909,8.1884915 135.661462,8.1884915 C137.571856,8.1884915 139.117828,8.64937672 140.282953,9.56908963 C141.447051,10.4795437 142.031153,11.7953298 142.031153,13.5154193 L142.031153,21.5500478 C142.031153,22.1271831 142.05887,22.6847719 142.130728,23.227958 C142.204639,23.7721729 142.322691,24.3153591 142.479752,24.8410563 L140.460545,24.8410563 L140.460545,24.8410563 Z M134.239048,23.6721845 C135.726262,23.6721845 136.795005,23.3371491 137.887338,22.6743166 C138.972491,22.0156204 139.71097,21.1563165 140.097646,20.1160521 L140.097646,16.9725097 L135.994986,16.9725097 C134.42777,16.9725097 133.130304,17.3220219 132.109768,18.0272509 C131.08718,18.7304117 130.569219,19.5814431 130.569219,20.5710385 C130.569219,21.5047947 130.897432,22.2513861 131.549755,22.8170169 C132.204129,23.3888521 133.098509,23.6721845 134.239048,23.6721845 L134.239048,23.6721845 Z" id="Fill-10"></path>
                        </g>
                        <g id="Get-it-on" transform="translate(51.066411, 11.910533)" fill="#FFFFFF">
                            <path d="M0.00632315946,5.25716149 C0.00632315946,2.05024061 2.56720274,-0.0126463189 5.7516365,-0.0126463189 C7.88587375,-0.0126463189 9.28169158,0.934831349 10.1513856,2.09508597 L8.59250012,2.93569808 C8.00176458,2.17141852 6.9669518,1.57697885 5.7516365,1.57697885 C3.5856062,1.57697885 1.9764672,3.10362967 1.9764672,5.25716149 C1.9764672,7.37920614 3.5856062,8.93734413 5.7516365,8.93734413 C6.86849588,8.93734413 7.85305511,8.46408238 8.34533473,8.02135364 L8.34533473,6.44794914 L5.06244504,6.44794914 L5.06244504,4.87454463 L10.2498415,4.87454463 L10.2498415,8.67781349 C9.18323566,9.79322275 7.63973394,10.5412817 5.7516365,10.5412817 C2.56720274,10.5412817 0.00632315946,8.44977003 0.00632315946,5.25716149" id="Fill-1"></path>
                            <polyline id="Fill-2" points="12.7331187 10.3860768 12.7331187 0.142558504 20.338155 0.142558504 20.338155 1.7255692 14.6803822 1.7255692 14.6803822 4.36583917 20.2217142 4.36583917 20.2217142 5.94789047 14.6803822 5.94789047 14.6803822 8.80402553 20.338155 8.80402553 20.338155 10.3860768 12.7331187 10.3860768"></polyline>
                            <polyline id="Fill-3" points="25.5100919 10.3860768 25.5100919 1.7255692 22.2006129 1.7255692 22.2006129 0.142558504 30.7368781 0.142558504 30.7368781 1.7255692 27.4273991 1.7255692 27.4273991 10.3860768 25.5100919 10.3860768"></polyline>
                            <polygon id="Fill-4" points="37.5658904 0.142558504 39.4283482 0.142558504 39.4283482 10.3860768 37.5658904 10.3860768"></polygon>
                            <polyline id="Fill-5" points="44.7565136 10.3860768 44.7565136 1.7255692 41.4460109 1.7255692 41.4460109 0.142558504 49.9822762 0.142558504 49.9822762 1.7255692 46.6738208 1.7255692 46.6738208 10.3860768 44.7565136 10.3860768"></polyline>
                            <path d="M56.345674,5.26479544 C56.345674,2.22044826 58.6880484,-0.0126463189 62.0111689,-0.0126463189 C65.3156086,-0.0126463189 67.6756261,2.22044826 67.6756261,5.26479544 C67.6756261,8.30818707 65.3156086,10.5412817 62.0111689,10.5412817 C58.6880484,10.5412817 56.345674,8.30818707 56.345674,5.26479544 L56.345674,5.26479544 Z M65.6579634,5.18671526 C65.6579634,3.09780803 64.222752,1.53940191 62.0111655,1.53940191 C59.7830824,1.53940191 58.3633367,3.09780803 58.3633367,5.18671526 C58.3633367,7.25954669 59.7830824,8.8340286 62.0111655,8.8340286 C64.222752,8.8340286 65.6579634,7.25954669 65.6579634,5.18671526 L65.6579634,5.18671526 Z" id="Fill-6"></path>
                            <polyline id="Fill-7" points="77.4648532 10.3860768 71.7640955 3.06105459 71.7640955 10.3860768 69.8484936 10.3860768 69.8484936 0.142558504 71.8142368 0.142558504 77.3993626 7.23828404 77.3993626 0.142558504 79.3159878 0.142558504 79.3159878 10.3860768 77.4648532 10.3860768"></polyline>
                        </g>
                    </g>
                </g>
            </g>
        </g>
    </g>
</svg>