<?xml version="1.0" encoding="UTF-8"?>
<svg width="220px" height="75px" viewBox="0 0 220 75" version="1.1" xmlns="http://www.w3.org/2000/svg" xmlns:xlink="http://www.w3.org/1999/xlink">
    <!-- Generator: Sketch 47 (45396) - http://www.bohemiancoding.com/sketch -->
    <title>Appstore</title>
    <desc>Created with Sketch.</desc>
    <defs></defs>
    <g id="Page-1" stroke="none" stroke-width="1" fill="none" fill-rule="evenodd">
        <g id="Desktop_HD" transform="translate(-263.000000, -714.000000)">
            <g id="Badges" transform="translate(263.000000, 714.000000)">
                <g id="Appstore">
                    <g id="App-Store">
                        <rect id="background" fill="#000000" x="0" y="0" width="219.898217" height="74.4408319" rx="10"></rect>
                        <g id="icon" transform="translate(19.354616, 13.101586)" fill="#FFFFFF">
                            <path d="M28.784895,22.4147642 C28.7369832,17.0899562 33.1448604,14.4994197 33.34642,14.3788143 C30.8500548,10.7391767 26.9807713,10.2418862 25.6210701,10.2022351 C22.3713346,9.86024467 19.2190747,12.1467896 17.5636426,12.1467896 C15.8751679,12.1467896 13.3259346,10.2352777 10.578446,10.29145 C7.0428924,10.3459703 3.73533244,12.3929567 1.92129606,15.5716507 C-1.82242566,22.0529482 0.969670414,31.5774653 4.55643998,36.8163627 C6.35065083,39.3837694 8.44720108,42.246907 11.1913854,42.1461272 C13.8760932,42.0370867 14.8789348,40.4345227 18.1187575,40.4345227 C21.328842,40.4345227 22.2705548,42.1461272 25.0692594,42.0800421 C27.9505704,42.0370867 29.7646068,39.5043747 31.4960368,36.9138383 C33.5694572,33.9763549 34.4021297,31.0768706 34.4351722,30.9281791 C34.3690871,30.9067014 28.8410673,28.7969341 28.784895,22.4147642" id="Fill-2"></path>
                            <path d="M23.4980858,6.75589643 C24.9420456,4.95012069 25.930018,2.49340657 25.6557648,0.000345638122 C23.5658231,0.0928647979 20.9521568,1.44595751 19.4470683,3.21208219 C18.1154533,4.76838662 16.9259212,7.31927203 17.233217,9.71816167 C19.5808907,9.89328722 21.9913452,8.533586 23.4980858,6.75589643" id="Fill-3"></path>
                        </g>
                        <g transform="translate(68.336684, 32.456203)" fill="#FFFFFF">
                            <path d="M18.6889609,22.4230864 L14.9369785,22.4230864 L12.8817315,15.9649186 L5.73793064,15.9649186 L3.78015913,22.4230864 L0.127304449,22.4230864 L7.2066723,0.436568913 L11.5782026,0.436568913 L18.6889609,22.4230864 L18.6889609,22.4230864 Z M12.2621835,13.2554289 L10.4035397,7.51593676 C10.2069365,6.92777925 9.83685984,5.54660036 9.29496191,3.37240011 L9.22887679,3.37240011 C9.01079592,4.30750447 8.66219694,5.68868336 8.18473199,7.51593676 L6.35747858,13.2554289 L12.2621835,13.2554289 L12.2621835,13.2554289 Z" id="Fill-4"></path>
                            <path d="M36.859063,14.3012259 C36.859063,16.9974985 36.1271704,19.1287434 34.661733,20.6933085 C33.3499435,22.0860523 31.7192933,22.7815981 29.7747388,22.7815981 C27.6748843,22.7815981 26.1648394,22.0331842 25.2479085,20.5314 L25.2479085,28.8498637 L21.7255719,28.8498637 L21.7255719,11.7800788 C21.7255719,10.0866477 21.6809644,8.35026133 21.5950538,6.5692675 L24.6927935,6.5692675 L24.8893967,9.0838061 L24.9554818,9.0838061 C26.1301447,7.18881545 27.9127907,6.24214619 30.3050718,6.24214619 C32.1752805,6.24214619 33.7365414,6.98064734 34.98555,8.45930177 C36.2329066,9.94126045 36.859063,11.8874671 36.859063,14.3012259 L36.859063,14.3012259 Z M33.2706413,14.4300918 C33.2706413,12.8870044 32.9236945,11.614866 32.2264965,10.6136765 C31.4648656,9.57118381 30.4421984,9.04745928 29.1601472,9.04745928 C28.291128,9.04745928 27.5014109,9.33823379 26.7959523,9.91317428 C26.0888415,10.4897669 25.6262457,11.2447893 25.409817,12.1815458 C25.3007766,12.6160554 25.2462563,12.9712629 25.2462563,13.2521247 L25.2462563,15.8988335 C25.2462563,17.0487145 25.5998117,18.0218178 26.3069224,18.8181434 C27.0140331,19.6111648 27.9326162,20.0093276 29.0626717,20.0093276 C30.3893303,20.0093276 31.4219102,19.4955158 32.1604114,18.4761529 C32.9005647,17.4534858 33.2706413,16.1053495 33.2706413,14.4300918 L33.2706413,14.4300918 Z" id="Fill-5"></path>
                            <path d="M55.0935981,14.3012259 C55.0935981,16.9974985 54.3617055,19.1287434 52.8962681,20.6933085 C51.5828264,22.0860523 49.9538284,22.7815981 48.0076218,22.7815981 C45.9094194,22.7815981 44.3993745,22.0331842 43.4807915,20.5314 L43.4807915,28.8498637 L39.9584549,28.8498637 L39.9584549,11.7800788 C39.9584549,10.0866477 39.9138474,8.35026133 39.8279368,6.5692675 L42.9256765,6.5692675 L43.1222797,9.0838061 L43.1883648,9.0838061 C44.3613756,7.18881545 46.1440216,6.24214619 48.5379548,6.24214619 C50.4065114,6.24214619 51.9694244,6.98064734 53.2200851,8.45930177 C54.4657895,9.94126045 55.0935981,11.8874671 55.0935981,14.3012259 L55.0935981,14.3012259 Z M51.5035243,14.4300918 C51.5035243,12.8870044 51.1549253,11.614866 50.4577274,10.6136765 C49.6977486,9.57118381 48.6767335,9.04745928 47.3946823,9.04745928 C46.5256631,9.04745928 45.735946,9.33823379 45.0271831,9.91317428 C44.3217245,10.4897669 43.8591287,11.2447893 43.6427,12.1815458 C43.5353117,12.6160554 43.4774872,12.9712629 43.4774872,13.2521247 L43.4774872,15.8988335 C43.4774872,17.0487145 43.8326947,18.0218178 44.5365011,18.8181434 C45.2436119,19.6095127 46.162195,20.0093276 47.2955547,20.0093276 C48.6238655,20.0093276 49.6564454,19.4955158 50.3932944,18.4761529 C51.1334477,17.4534858 51.5035243,16.1053495 51.5035243,14.4300918 L51.5035243,14.4300918 Z" id="Fill-6"></path>
                            <path d="M75.4808558,16.2573452 C75.4808558,18.127554 74.8282653,19.6491637 73.5263886,20.8238266 C72.0956459,22.1058778 70.0982233,22.7485556 67.5374251,22.7485556 C65.171578,22.7485556 63.2749353,22.2925683 61.8441925,21.3789416 L62.6586916,18.4431104 C64.2034311,19.3567371 65.9001664,19.8143765 67.7472454,19.8143765 C69.0755562,19.8143765 70.1081361,19.5136892 70.8449851,18.9172711 C71.5851384,18.3175487 71.9568671,17.5195709 71.9568671,16.5216857 C71.9568671,15.6278845 71.6495714,14.8778185 71.0415883,14.2681833 C70.4319531,13.6618524 69.4241551,13.0935204 68.0099337,12.5747523 C64.1604758,11.1390531 62.2340947,9.03754652 62.2340947,6.27684087 C62.2340947,4.47271726 62.9147714,2.99571496 64.2711684,1.84087759 C65.6292175,0.687692346 67.4300368,0.111099726 69.6703222,0.111099726 C71.671049,0.111099726 73.338046,0.459698703 74.6614004,1.15524453 L73.777512,4.02664274 C72.5318076,3.35257457 71.1258468,3.01554049 69.5530211,3.01554049 C68.310621,3.01554049 67.3342134,3.32118414 66.6386676,3.92916719 C66.0521622,4.47271726 65.753127,5.13522053 65.753127,5.92163339 C65.753127,6.78900051 66.0918133,7.50932825 66.7675335,8.07270385 C67.3523868,8.59477625 68.4196614,9.16145611 69.9627488,9.76943916 C71.8560873,10.5327222 73.2455269,11.421567 74.1376759,12.442582 C75.0347813,13.463597 75.4808558,14.7373876 75.4808558,16.2573452" id="Fill-7"></path>
                            <path d="M87.1564434,9.21267207 L83.2739429,9.21267207 L83.2739429,16.9099357 C83.2739429,18.8677072 83.9579239,19.8441148 85.32919,19.8441148 C85.9586507,19.8441148 86.4807231,19.7912467 86.8937551,19.6805541 L86.9912306,22.3553491 C86.2973369,22.6147332 85.3837102,22.7452513 84.2536547,22.7452513 C82.860911,22.7452513 81.775463,22.3190023 80.9890501,21.4714607 C80.2059415,20.622267 79.8143872,19.1997849 79.8143872,17.197406 L79.8143872,9.20606356 L77.5030603,9.20606356 L77.5030603,6.56265899 L79.8143872,6.56265899 L79.8143872,3.65987035 L83.2739429,2.61572555 L83.2739429,6.56265899 L87.1564434,6.56265899 L87.1564434,9.21267207" id="Fill-8"></path>
                            <path d="M104.63926,14.3656588 C104.63926,16.8025474 103.943715,18.8032743 102.550971,20.3678393 C101.095446,21.9770119 99.1591522,22.7815981 96.7453934,22.7815981 C94.4158932,22.7815981 92.5638578,22.0100544 91.182679,20.466967 C89.8015001,18.9238796 89.1109106,16.977673 89.1109106,14.6299993 C89.1109106,12.1732852 89.826282,10.1609935 91.2471119,8.59642838 C92.6712462,7.0318633 94.5910187,6.24710257 97.0047775,6.24710257 C99.3326257,6.24710257 101.19953,7.02195054 102.615404,8.56338582 C103.966844,10.0618658 104.63926,11.9932032 104.63926,14.3656588 L104.63926,14.3656588 Z M100.988058,14.4466131 C100.988058,12.9943927 100.674153,11.7486883 100.044693,10.7061956 C99.3061916,9.44727423 98.2471777,8.81946564 96.8792158,8.81946564 C95.4699507,8.81946564 94.3845027,9.44727423 93.6493058,10.7061956 C93.0165409,11.7486883 92.7042887,13.0158704 92.7042887,14.5126982 C92.7042887,15.9665707 93.0165409,17.2155794 93.6493058,18.2531157 C94.4109368,19.5136892 95.473255,20.1431499 96.8511296,20.1431499 C98.1959617,20.1431499 99.2516714,19.4988201 100.016607,18.2233774 C100.662589,17.1561028 100.988058,15.9021377 100.988058,14.4466131 L100.988058,14.4466131 Z" id="Fill-9"></path>
                            <path d="M116.093463,9.66700723 C115.744864,9.60257424 115.371483,9.57118381 114.983233,9.57118381 C113.744137,9.57118381 112.785903,10.0354317 112.111835,10.9738404 C111.525329,11.7999043 111.232903,12.8440491 111.232903,14.1046226 L111.232903,22.4230864 L107.710566,22.4230864 L107.710566,11.5619979 C107.710566,9.7363966 107.675871,8.0693996 107.608134,6.57091963 L110.676136,6.57091963 L110.805001,9.60422637 L110.902477,9.60422637 C111.275858,8.5617337 111.860711,7.72080062 112.663645,7.09299203 C113.450058,6.52466005 114.295948,6.24214619 115.209574,6.24214619 C115.535044,6.24214619 115.829122,6.26692811 116.090158,6.30657918 L116.093463,9.66700723" id="Fill-10"></path>
                            <path d="M131.846502,13.7461109 C131.846502,14.3772237 131.805199,14.9092089 131.717636,15.3437185 L121.152278,15.3437185 C121.190277,16.9099357 121.704089,18.1093806 122.683801,18.9354445 C123.574298,19.6722935 124.727483,20.0423701 126.140052,20.0423701 C127.704617,20.0423701 129.132056,19.794551 130.415759,19.2923041 L130.96757,21.7374533 C129.467438,22.3900438 127.694705,22.7171651 125.652674,22.7171651 C123.194308,22.7171651 121.264623,21.9935331 119.860314,20.5495734 C118.460962,19.1039615 117.757155,17.159407 117.757155,14.7274748 C117.757155,12.338498 118.408094,10.3476839 119.716579,8.75998904 C121.084541,7.06490586 122.933272,6.21736427 125.259468,6.21736427 C127.544361,6.21736427 129.274139,7.06490586 130.44715,8.75998904 C131.37895,10.103169 131.846502,11.7685139 131.846502,13.7461109 L131.846502,13.7461109 Z M128.487726,12.8324842 C128.512508,11.7866873 128.28121,10.8879297 127.803745,10.1246466 C127.19411,9.1432827 126.255701,8.65425286 124.998432,8.65425286 C123.845247,8.65425286 122.90849,9.13171781 122.194771,10.089952 C121.608266,10.8515829 121.259667,11.7685139 121.152278,12.8291799 L128.487726,12.8324842 L128.487726,12.8324842 Z" id="Fill-11"></path>
                        </g>
                        <g id="Available-on-the" transform="translate(69.676619, 13.548231)" fill="#FFFFFF">
                            <path d="M9.22386113,11.4754552 L7.37843431,11.4754552 L6.36898419,8.30171763 L2.85821251,8.30171763 L1.89502197,11.4754552 L0.0991589912,11.4754552 L3.57854025,0.668886948 L5.72630646,0.668886948 L9.22386113,11.4754552 L9.22386113,11.4754552 Z M6.06499267,6.97010258 L5.15136597,4.14826821 C5.05554255,3.85914583 4.87876487,3.1867298 4.60616378,2.11284669 L4.57312122,2.11284669 C4.46077652,2.57709462 4.30052012,3.25116278 4.05930946,4.14826821 L3.16220403,6.97010258 L6.06499267,6.97010258 L6.06499267,6.97010258 Z" id="Fill-12"></path>
                            <path d="M17.9239664,3.68402028 L14.9732661,11.4754552 L13.2897478,11.4754552 L10.4348708,3.68402028 L12.2951668,3.68402028 L13.6267819,7.80442715 C13.8514712,8.49336446 14.0431181,9.15091135 14.1868532,9.77541568 L14.2347649,9.77541568 C14.3636309,9.21534433 14.5552777,8.55779745 14.7948362,7.80442715 L16.10993,3.68402028 L17.9239664,3.68402028" id="Fill-13"></path>
                            <path d="M24.2053565,11.4754552 L24.0764905,10.5783498 L24.0285788,10.5783498 C23.4998979,11.3003297 22.7300063,11.6522329 21.7519466,11.6522329 C20.3575507,11.6522329 19.3629698,10.6741732 19.3629698,9.35907946 C19.3629698,7.43600264 21.0299668,6.44142167 23.9162341,6.44142167 L23.9162341,6.29768654 C23.9162341,5.27171515 23.3710319,4.75790339 22.2971488,4.75790339 C21.5272572,4.75790339 20.8531891,4.95120234 20.2617273,5.33614813 L19.9098241,4.19783204 C20.631804,3.74845327 21.5289094,3.52376388 22.5879233,3.52376388 C24.6233448,3.52376388 25.6509684,4.59764698 25.6509684,6.74706532 L25.6509684,9.6168114 C25.6509684,10.4032243 25.6840109,11.0128594 25.7633131,11.4771074 L24.2053565,11.4754552 L24.2053565,11.4754552 Z M23.9641458,7.59460691 C22.0394169,7.59460691 21.0778785,8.06050696 21.0778785,9.1657805 C21.0778785,9.98358379 21.575169,10.3833987 22.2641063,10.3833987 C23.1463425,10.3833987 23.9641458,9.71098269 23.9641458,8.79735599 L23.9641458,7.59460691 L23.9641458,7.59460691 Z" id="Fill-14"></path>
                            <path d="M29.5070348,2.40031694 C28.9304422,2.40031694 28.4810634,1.95093816 28.4810634,1.35782426 C28.4810634,0.764710364 28.9453113,0.331852866 29.5400773,0.331852866 C30.1331912,0.331852866 30.6139604,0.764710364 30.5974392,1.35782426 C30.5974392,1.98398072 30.1497125,2.40031694 29.5070348,2.40031694 L29.5070348,2.40031694 Z M28.6743623,3.68402028 L30.4057923,3.68402028 L30.4057923,11.4754552 L28.6743623,11.4754552 L28.6743623,3.68402028 Z" id="Fill-15"></path>
                            <polygon id="Fill-16" points="33.4820544 0.108815606 35.2134844 0.108815606 35.2134844 11.4754552 33.4820544 11.4754552"></polygon>
                            <path d="M42.5720618,11.4754552 L42.4415437,10.5783498 L42.3952842,10.5783498 C41.8666033,11.3003297 41.0967117,11.6522329 40.118652,11.6522329 C38.7242561,11.6522329 37.7296751,10.6741732 37.7296751,9.35907946 C37.7296751,7.43600264 39.3966721,6.44142167 42.2829395,6.44142167 L42.2829395,6.29768654 C42.2829395,5.27171515 41.7377373,4.75790339 40.6638542,4.75790339 C39.8939626,4.75790339 39.2198944,4.95120234 38.6284327,5.33614813 L38.2748773,4.19617992 C38.9968572,3.74680114 39.8939626,3.52211175 40.9529766,3.52211175 C42.9883981,3.52211175 44.0176737,4.59599486 44.0176737,6.74541319 L44.0176737,9.61515927 C44.0176737,10.4015721 44.0507163,11.0112073 44.1267142,11.4754552 L42.5720618,11.4754552 L42.5720618,11.4754552 Z M42.3308512,7.59460691 C40.4061222,7.59460691 39.4445838,8.06050696 39.4445838,9.1657805 C39.4445838,9.98358379 39.9418743,10.3833987 40.6308116,10.3833987 C41.5130479,10.3833987 42.3308512,9.71098269 42.3308512,8.79735599 L42.3308512,7.59460691 L42.3308512,7.59460691 Z" id="Fill-17"></path>
                            <path d="M51.0309565,11.6522329 C49.9256829,11.6522329 49.1095318,11.1863329 48.5791987,10.2727062 L48.5461562,10.2727062 L48.4470285,11.4754552 L46.9733304,11.4754552 C47.01959,10.8509509 47.0361113,10.1438402 47.0361113,9.37560074 L47.0361113,0.108815606 L48.7708456,0.108815606 L48.7708456,4.8239885 L48.802236,4.8239885 C49.3160477,3.9582735 50.1487202,3.52541601 51.2870363,3.52541601 C53.1638535,3.52541601 54.4789473,5.12963215 54.4789473,7.46904519 C54.4789473,9.88776037 53.0184663,11.6522329 51.0309565,11.6522329 L51.0309565,11.6522329 Z M50.6790532,4.88511723 C49.6828201,4.88511723 48.7708456,5.75083223 48.7708456,6.9535813 L48.7708456,8.31658678 C48.7708456,9.39046989 49.590301,10.2727062 50.6476628,10.2727062 C51.9445832,10.2727062 52.717779,9.21534433 52.717779,7.53182605 C52.7161269,5.96065246 51.9131927,4.88511723 50.6790532,4.88511723 L50.6790532,4.88511723 Z" id="Fill-18"></path>
                            <polygon id="Fill-19" points="57.0413976 0.108815606 58.7711754 0.108815606 58.7711754 11.4754552 57.0413976 11.4754552"></polygon>
                            <path d="M68.1949127,7.99607398 L62.9973185,7.99607398 C63.0320132,9.47142415 64.0067686,10.3040966 65.4490762,10.3040966 C66.2206199,10.3040966 66.9260785,10.1752306 67.5505829,9.93567208 L67.8198797,11.1384212 C67.0830307,11.458934 66.2173157,11.6191904 65.2078656,11.6191904 C62.7693249,11.6191904 61.3270172,10.0794072 61.3270172,7.69208245 C61.3270172,5.30310558 62.8040195,3.5072426 65.0145666,3.5072426 C67.0004243,3.5072426 68.2543893,4.98259277 68.2543893,7.21131325 C68.2593457,7.51530477 68.2444766,7.78790587 68.1949127,7.99607398 L68.1949127,7.99607398 Z M66.60887,6.76193447 C66.60887,5.55918539 65.9975827,4.70999168 64.890657,4.70999168 C63.8960761,4.70999168 63.1129674,5.57570667 62.9973185,6.76193447 L66.60887,6.76193447 L66.60887,6.76193447 Z" id="Fill-20"></path>
                            <path d="M78.6892289,11.6522329 C76.4125967,11.6522329 74.9372465,9.95219336 74.9372465,7.64417075 C74.9372465,5.23867259 76.4439871,3.52376388 78.819747,3.52376388 C81.0616844,3.52376388 82.5717293,5.14284918 82.5717293,7.5169569 C82.5717293,9.95219336 81.0154249,11.6522329 78.6892289,11.6522329 L78.6892289,11.6522329 Z M78.755314,4.78929381 C77.5046532,4.78929381 76.7033712,5.95900033 76.7033712,7.59460691 C76.7033712,9.19882306 77.5211745,10.3685296 78.7387927,10.3685296 C79.9564109,10.3685296 80.7742142,9.11786879 80.7742142,7.56156435 C80.7742142,5.97552161 79.9729322,4.78929381 78.755314,4.78929381 L78.755314,4.78929381 Z" id="Fill-21"></path>
                            <path d="M91.8798176,11.4754552 L90.1516919,11.4754552 L90.1516919,7.00149301 C90.1516919,5.62361838 89.6213589,4.93302894 88.5788662,4.93302894 C87.5528948,4.93302894 86.8457841,5.81526521 86.8457841,6.84123661 L86.8457841,11.4754552 L85.1176583,11.4754552 L85.1176583,5.91108863 C85.1176583,5.22215131 85.0978328,4.48365016 85.0515732,3.68236815 L86.5748351,3.68236815 L86.6557894,4.88511723 L86.7053532,4.88511723 C87.1662969,4.05244479 88.1146183,3.52211175 89.1736322,3.52211175 C90.8059345,3.52211175 91.8798176,4.77277254 91.8798176,6.80819405 L91.8798176,11.4754552" id="Fill-22"></path>
                            <path d="M103.208458,4.98259277 L101.303555,4.98259277 L101.303555,8.76596556 C101.303555,9.7291561 101.638937,10.2099253 102.311353,10.2099253 C102.615344,10.2099253 102.874728,10.1768827 103.081244,10.128971 L103.129156,11.4440648 C102.792122,11.5729308 102.341091,11.6373638 101.784324,11.6373638 C100.418014,11.6373638 99.6051675,10.8839935 99.6051675,8.91135281 L99.6051675,4.98259277 L98.4701556,4.98259277 L98.4701556,3.68402028 L99.6051675,3.68402028 L99.6051675,2.25658182 L101.303555,1.74277005 L101.303555,3.68236815 L103.208458,3.68236815 L103.208458,4.98259277" id="Fill-23"></path>
                            <path d="M112.377768,11.4754552 L110.644686,11.4754552 L110.644686,7.03453557 C110.644686,5.64013966 110.114353,4.93468107 109.073512,4.93468107 C108.176407,4.93468107 107.343734,5.54431624 107.343734,6.77845575 L107.343734,11.4754552 L105.610652,11.4754552 L105.610652,0.108815606 L107.343734,0.108815606 L107.343734,4.78929381 L107.376777,4.78929381 C107.920327,3.9401001 108.708392,3.52211175 109.717842,3.52211175 C111.368318,3.52211175 112.377768,4.80416297 112.377768,6.84123661 L112.377768,11.4754552" id="Fill-24"></path>
                            <path d="M121.224913,7.99607398 L116.02897,7.99607398 C116.062013,9.47142415 117.036768,10.3040966 118.480728,10.3040966 C119.253924,10.3040966 119.957731,10.1752306 120.578931,9.93567208 L120.84988,11.1384212 C120.114683,11.458934 119.247316,11.6191904 118.236213,11.6191904 C115.799325,11.6191904 114.357017,10.0794072 114.357017,7.69208245 C114.357017,5.30310558 115.832367,3.5072426 118.042914,3.5072426 C120.030424,3.5072426 121.282737,4.98259277 121.282737,7.21131325 C121.289346,7.51530477 121.272824,7.78790587 121.224913,7.99607398 L121.224913,7.99607398 Z M119.637218,6.76193447 C119.637218,5.55918539 119.029235,4.70999168 117.922309,4.70999168 C116.927728,4.70999168 116.142967,5.57570667 116.02897,6.76193447 L119.637218,6.76193447 L119.637218,6.76193447 Z" id="Fill-25"></path>
                        </g>
                    </g>
                </g>
            </g>
        </g>
    </g>
</svg>