<?xml version="1.0" encoding="UTF-8" standalone="no"?>
<svg width="24px" height="24px" viewBox="0 0 24 24" version="1.1" xmlns="http://www.w3.org/2000/svg" xmlns:xlink="../../external.html?link=http://www.w3.org/1999/xlink">
    <!-- Generator: Sketch 39.1 (31720) - http://www.bohemiancoding.com/sketch -->
    <title>Combined Shape</title>
    <desc>Created with Sketch.</desc>
    <defs></defs>
    <g id="Page-1" stroke="none" stroke-width="1" fill="none" fill-rule="evenodd">
        <g id="Marketing-Home-v2---Stock-photo-B" transform="translate(-1006.000000, -4036.000000)" fill="#9DA2A6">
            <g id="medium-size" transform="translate(1005.500000, 4036.000000)">
                <g id="Capa_1">
                    <path d="M12.5,24 C19.127417,24 24.5,18.627417 24.5,12 C24.5,5.372583 19.127417,0 12.5,0 C5.872583,0 0.5,5.372583 0.5,12 C0.5,18.627417 5.872583,24 12.5,24 Z M19.0908594,8.44413362 L18.3685165,8.44413362 C18.1804297,8.44413362 17.6882712,8.65188735 17.6882712,8.82874761 L17.6882712,15.2513694 C17.6882712,15.4286699 18.1804297,15.5740314 18.3685165,15.5740314 L19.0908594,15.5740314 L19.0908594,17 L14.4155293,17 L14.4155293,15.5740314 L15.3508226,15.5740314 L15.3508226,8.91922722 L15.1880594,8.91922722 L12.9374575,16.9999725 L11.1949495,16.9999725 L8.97345888,8.91922722 L8.80520349,8.91922722 L8.80520349,15.5740039 L9.74009095,15.5740039 L9.74009095,16.9999725 L6,16.9999725 L6,15.5740039 L6.51872659,15.5740039 C6.72237,15.5740039 6.93491452,15.4286699 6.93491452,15.2513419 L6.93491452,8.82874761 C6.93491452,8.65185984 6.72239705,8.44413362 6.51872659,8.44413362 L6,8.44413362 L6,7.018 L10.8470486,7.018 L12.4296611,12.7219293 L12.4722458,12.7219293 L14.0704691,7.018 L19.0908594,7.018 L19.0908594,8.44413362 Z" id="Combined-Shape"></path>
                </g>
            </g>
        </g>
    </g>
</svg>