<?xml version="1.0" encoding="UTF-8" standalone="no"?>
<svg width="24px" height="24px" viewBox="0 0 24 24" version="1.1" xmlns="http://www.w3.org/2000/svg" xmlns:xlink="../../external.html?link=http://www.w3.org/1999/xlink">
    <!-- Generator: Sketch 39.1 (31720) - http://www.bohemiancoding.com/sketch -->
    <title>Shape</title>
    <desc>Created with Sketch.</desc>
    <defs></defs>
    <g id="Page-1" stroke="none" stroke-width="1" fill="none" fill-rule="evenodd">
        <g id="Marketing-Home-v2---Stock-photo-B" transform="translate(-1064.000000, -4041.000000)" fill="#9DA2A6">
            <g id="Give-More-Feedback-screenshot" transform="translate(306.000000, 1112.000000)">
                <g id="footer-linkedin" transform="translate(758.000000, 2929.000000)">
                    <g id="Layer_1">
                        <path d="M7.3,0.9 C8.8,0.3 10.4,0 12,0 C13.6,0 15.2,0.3 16.7,0.9 C18.2,1.5 19.5,2.4 20.5,3.5 C21.5,4.6 22.4,5.8 23.1,7.3 C23.8,8.8 24,10.3 24,12 C24,13.7 23.7,15.2 23.1,16.7 C22.5,18.2 21.6,19.5 20.5,20.5 C19.4,21.5 18.2,22.4 16.7,23.1 C15.2,23.8 13.6,24 12,24 C10.4,24 8.8,23.7 7.3,23.1 C5.8,22.5 4.5,21.6 3.5,20.5 C2.5,19.4 1.6,18.2 0.9,16.7 C0.2,15.2 0,13.6 0,12 C0,10.4 0.3,8.8 0.9,7.3 C1.5,5.8 2.4,4.5 3.5,3.5 C4.6,2.5 5.8,1.6 7.3,0.9 L7.3,0.9 Z M7,8 C7.6,8 8.1,7.8 8.5,7.5 C8.9,7.2 9,6.7 9,6.2 C9,5.7 8.8,5.3 8.4,5 C8,4.7 7.6,4.5 7,4.5 C6.4,4.5 5.9,4.7 5.6,5 C5.3,5.3 5,5.7 5,6.2 C5,6.7 5.2,7.1 5.5,7.5 C5.8,7.9 6.4,8 7,8 L7,8 L7,8 Z M8.5,18 L8.5,9.5 L5.5,9.5 L5.5,18 L8.5,18 L8.5,18 Z M19.5,18 L19.5,13.5 C19.5,12.1 19.2,11 18.6,10.2 C18,9.4 17.1,9 16,9 C15.4,9 14.9,9.2 14.5,9.5 C14.1,9.8 13.7,10.3 13.6,10.8 L13.5,9.5 L10.5,9.5 L10.6,11.5 L10.6,18 L13.6,18 L13.6,13.5 C13.6,12.9 13.7,12.4 14,12 C14.3,11.6 14.6,11.5 15.1,11.5 C15.6,11.5 16,11.7 16.2,12 C16.4,12.3 16.6,12.8 16.6,13.5 L16.6,18 L19.5,18 L19.5,18 Z" id="Shape"></path>
                    </g>
                </g>
            </g>
        </g>
    </g>
</svg>