<?xml version="1.0" encoding="UTF-8" standalone="no"?>
<svg width="24px" height="24px" viewBox="0 0 24 24" version="1.1" xmlns="http://www.w3.org/2000/svg" xmlns:xlink="../../external.html?link=http://www.w3.org/1999/xlink">
    <!-- Generator: Sketch 39.1 (31720) - http://www.bohemiancoding.com/sketch -->
    <title>youtube-icon</title>
    <desc>Created with Sketch.</desc>
    <defs></defs>
    <g id="Page-1" stroke="none" stroke-width="1" fill="none" fill-rule="evenodd">
        <g id="Marketing-Home-v2---Stock-photo-B-Copy-4" transform="translate(-993.000000, -4648.000000)">
            <g id="youtube-icon" transform="translate(993.000000, 4648.000000)">
                <g id="Layer_1">
                    <circle id="Oval" fill="#9DA2A6" cx="12" cy="12" r="12"></circle>
                    <path d="M19.0499878,8.36230469 C19.0499878,8.29980469 19.0499878,8.23730469 18.9874878,8.17480469 L18.9874878,8.11230469 C18.7999878,7.54980469 18.2999878,7.17480469 17.6749878,7.17480469 L17.7999878,7.17480469 C17.7999878,7.17480469 15.3624878,6.79980469 12.0499878,6.79980469 C8.79998779,6.79980469 6.29998779,7.17480469 6.29998779,7.17480469 L6.42498779,7.17480469 C5.79998779,7.17480469 5.29998779,7.54980469 5.11248779,8.11230469 L5.11248779,8.17480469 C5.11248779,8.23730469 5.11248779,8.29980469 5.04998779,8.36230469 C4.98748779,8.98730469 4.79998779,10.2998047 4.79998779,11.7998047 C4.79998779,13.2998047 4.98748779,14.6123047 5.04998779,15.2373047 C5.04998779,15.2998047 5.04998779,15.3623047 5.11248779,15.4248047 L5.11248779,15.4873047 C5.29998779,16.0498047 5.79998779,16.4248047 6.42498779,16.4248047 L6.29998779,16.4248047 C6.29998779,16.4248047 8.73748779,16.7998047 12.0499878,16.7998047 C15.2999878,16.7998047 17.7999878,16.4248047 17.7999878,16.4248047 L17.6749878,16.4248047 C18.2999878,16.4248047 18.7999878,16.0498047 18.9874878,15.4873047 L18.9874878,15.4248047 C18.9874878,15.3623047 18.9874878,15.2998047 19.0499878,15.2373047 C19.1124878,14.6123047 19.2999878,13.2998047 19.2999878,11.7998047 C19.2999878,10.2998047 19.1749878,8.98730469 19.0499878,8.36230469 L19.0499878,8.36230469 Z M14.4155172,12.2887931 L11.2146552,14.6043103 C11.1465517,14.6724138 11.0784483,14.6724138 11.0103448,14.6724138 C10.9422414,14.6724138 10.8741379,14.6724138 10.8060345,14.6043103 C10.6698276,14.5362069 10.6017241,14.4 10.6017241,14.2637931 L10.6017241,9.63275862 C10.6017241,9.49655172 10.6698276,9.36034483 10.8060345,9.29224138 C10.9422414,9.22413793 11.0784483,9.22413793 11.2146552,9.29224138 L14.4155172,11.6077586 C14.4836207,11.6758621 14.5517241,11.812069 14.5517241,11.9482759 C14.6198276,12.0844828 14.5517241,12.2206897 14.4155172,12.2887931 L14.4155172,12.2887931 Z" id="Shape" fill="#FFFFFF"></path>
                </g>
            </g>
        </g>
    </g>
</svg>