<svg width="124" height="22" viewBox="0 0 124 22" fill="none" xmlns="../../external.html?link=http://www.w3.org/2000/svg">
<path fill-rule="evenodd" clip-rule="evenodd" d="M2.92084 0.0935H-2.22183e-10V17.2741H10.702V14.6795H2.92084V0.0935ZM17.0234 5.25937C18.7992 5.25937 19.9909 5.984 20.6452 6.87225L20.7854 5.49312H23.309V17.2741H20.7854L20.6452 15.895C19.9909 16.7833 18.7992 17.5079 17.0234 17.5079C13.8221 17.5079 11.649 14.9132 11.649 11.3836C11.649 7.83063 13.8221 5.25937 17.0234 5.25937ZM17.6309 7.73712C15.8083 7.73712 14.4997 9.163 14.4997 11.3836C14.4997 13.6042 15.8083 15.0301 17.6309 15.0301C19.0329 15.0301 19.8741 14.2821 20.505 13.277V9.49025C19.8741 8.48513 19.0329 7.73712 17.6309 7.73712ZM30.3781 1.54275H27.5741V5.49312H25.3543V7.87737H27.5741V13.1134C27.5741 15.9651 29.2799 17.5079 31.9671 17.5079C33.1354 17.5079 34 17.1806 34.5842 16.8066L33.8364 14.6094C33.4859 14.8197 32.9718 14.9834 32.2241 14.9834C31.1259 14.9834 30.3781 14.2821 30.3781 13.09V7.87737H33.9299V5.49312H30.3781V1.54275ZM40.041 1.54275H37.237V5.49312H35.0171V7.87737H37.237V13.1134C37.237 15.9651 38.9427 17.5079 41.6299 17.5079C42.7982 17.5079 43.6628 17.1806 44.247 16.8066L43.4992 14.6094C43.1487 14.8197 42.6347 14.9834 41.8869 14.9834C40.7887 14.9834 40.041 14.2821 40.041 13.09V7.87737H43.5927V5.49312H40.041V1.54275ZM48.9327 5.49312H46.1287V17.2741H48.9327V5.49312ZM47.5307 6.55651e-10C46.5493 6.55651e-10 45.8016 0.724625 45.8016 1.72975C45.8016 2.73488 46.5493 3.4595 47.5307 3.4595C48.5355 3.4595 49.2832 2.73488 49.2832 1.72975C49.2832 0.724625 48.5355 6.55651e-10 47.5307 6.55651e-10ZM57.4038 5.25937C53.782 5.25937 51.3752 7.83063 51.3752 11.3836C51.3752 14.9132 53.8054 17.5079 57.4272 17.5079C59.5536 17.5079 61.1659 16.5495 62.2174 14.9132L60.2078 13.3471C59.647 14.2821 58.7357 15.0535 57.4506 15.0535C55.3709 15.0535 54.226 13.4406 54.226 11.3836C54.226 9.30325 55.3242 7.71375 57.4272 7.71375C58.7357 7.71375 59.6003 8.46175 60.1377 9.39675L62.1706 7.854C61.1191 6.21775 59.5536 5.25937 57.4038 5.25937ZM69.0762 5.25937C72.6981 5.25937 74.4739 7.97088 74.4739 11.2668V12.2485H66.1554C66.2255 14.1185 67.3471 15.147 69.3099 15.147C70.6885 15.147 71.6933 14.5393 72.2307 13.7913L74.1702 15.3808C73.0018 16.7833 71.4596 17.5079 69.2865 17.5079C65.6413 17.5079 63.3046 14.9366 63.3046 11.407C63.3046 7.854 65.688 5.25937 69.0762 5.25937ZM69.0295 7.50337C67.3704 7.50337 66.2488 8.602 66.1554 10.2383H71.7167C71.6466 8.62538 70.7119 7.50337 69.0295 7.50337Z" transform="translate(48.5561 1.75098)" fill="white"/>
<path fill-rule="evenodd" clip-rule="evenodd" d="M10.6239 5.0379L14.0526 8.32392L11.1924 11.1814C10.2649 12.108 8.76088 12.108 7.8334 11.1814L0.695609 4.05063C-0.23187 3.12376 -0.23187 1.6215 0.695609 0.694927C1.62339 -0.231642 3.12713 -0.231642 4.0546 0.694927L9.5129 6.14786L10.6239 5.0379ZM11.5152 4.14752L14.552 1.11372L17.9107 4.46942L15.1144 7.26309L11.5152 4.14752Z" transform="translate(0 10.0681)" fill="white"/>
<path fill-rule="evenodd" clip-rule="evenodd" d="M20.2163 12.2342L16.6375 9.09816L25.0476 0.696336C25.9751 -0.230234 27.4788 -0.230234 28.4066 0.696336C29.3341 1.6229 29.3341 3.12517 28.4066 4.05203L20.2163 12.2342ZM19.1033 13.3462L16.2312 16.2155C15.3034 17.142 13.7997 17.142 12.8722 16.2155L0.69561 4.05085C-0.23187 3.12398 -0.23187 1.62172 0.69561 0.695149C1.62309 -0.231716 3.12683 -0.231716 4.0546 0.695149L14.5517 11.1819L15.7323 10.0025L19.1033 13.3462Z" transform="translate(5.03906 5.03394)" fill="white"/>
<path fill-rule="evenodd" clip-rule="evenodd" d="M10.0168 13.3626L13.3599 9.99128L19.5905 16.2158L25.0476 10.764C25.9754 9.83746 27.4791 9.83746 28.4066 10.764C29.3341 11.6909 29.3341 13.1932 28.4066 14.1197L21.27 21.2493C20.3425 22.1759 18.8388 22.1759 17.9113 21.2493L10.0168 13.3626ZM8.63184 11.979L0.695609 4.05055C-0.23187 3.12398 -0.23187 1.62172 0.695609 0.695149C1.62339 -0.231716 3.12713 -0.231716 4.0546 0.695149L11.9991 8.63181L8.63184 11.979Z" transform="translate(10.0778)" fill="white"/>
<path fill-rule="evenodd" clip-rule="evenodd" d="M13.8549 0.694927C12.9274 -0.231642 11.4237 -0.231642 10.4959 0.694927L5.75914e-07 11.1805L3.359 14.5362L13.8549 4.05063C14.7824 3.12376 14.7824 1.6215 13.8549 0.694927Z" transform="translate(14.5518 0.00146484)" fill="white"/>
</svg>
