<svg width="141" height="48" viewBox="0 0 141 48" fill="none" xmlns="../../external.html?link=http://www.w3.org/2000/svg">
<mask id="mask0" mask-type="alpha" maskUnits="userSpaceOnUse" x="0" y="0" width="141" height="48">
<path d="M141 0H0V48H141V0Z" fill="white"/>
</mask>
<g mask="url(#mask0)">
<path fill-rule="evenodd" clip-rule="evenodd" d="M17.0612 23.2978H14.021C13.3701 23.2978 12.9047 23.1722 12.4076 22.3259L5.33603 9.97126C5.21177 9.78388 5.14964 9.72108 5.05696 9.72108C4.96427 9.72108 4.90112 9.78388 4.90112 9.97126V22.6708C4.90112 23.0157 4.62205 23.2978 4.28084 23.2978H0.620279C0.279075 23.2978 2.40892e-07 23.0157 2.40892e-07 22.6708V1.19223C2.40892e-07 0.533311 0.526575 0.00102952 1.17843 0.00102952H4.3114C4.93168 0.00102952 5.24233 0.314014 5.61409 0.97293L12.9658 13.8918C13.09 14.0802 13.1206 14.142 13.2133 14.142C13.2754 14.142 13.3681 14.0792 13.3681 13.8599V0.596114C13.3681 0.251212 13.6472 -4.55584e-07 13.9884 -4.55584e-07H17.6489C17.9901 -4.55584e-07 18.2692 0.250182 18.2692 0.596114V22.1056C18.2713 22.7645 17.7131 23.2978 17.0612 23.2978Z" transform="translate(3.90094 15.9941)" fill="#15212D"/>
</g>
<mask id="mask1" mask-type="alpha" maskUnits="userSpaceOnUse" x="0" y="0" width="141" height="48">
<path d="M141 0H0V48H141V0Z" fill="white"/>
</mask>
<g mask="url(#mask1)">
<path fill-rule="evenodd" clip-rule="evenodd" d="M13.7103 18.217H10.2361C9.89493 18.217 9.61586 17.9349 9.61586 17.59V17.0886C8.40586 17.9668 7.1653 18.4991 5.30446 18.4991C2.60538 18.4991 -9.32484e-07 17.1823 -9.32484e-07 13.1063V12.8242C-9.32484e-07 9.15482 2.3263 7.52503 7.63076 7.52503H9.30623V6.39664C9.30623 4.60933 8.43743 4.23354 6.97891 4.23354C4.99381 4.23354 2.79177 4.35914 1.83028 4.45283H1.67547C1.36584 4.45283 1.11732 4.29634 1.11732 3.88864V1.34872C1.11732 1.00382 1.33528 0.752606 1.70704 0.658917C2.85491 0.376818 5.0264 9.58297e-07 7.07363 9.58297e-07C11.5409 9.58297e-07 14.3316 1.8182 14.3316 6.39664V17.59C14.3306 17.9349 14.0515 18.217 13.7103 18.217ZM9.39891 10.5355H7.63076C5.45927 10.5355 4.90112 11.2881 4.90112 12.8242V13.1063C4.90112 14.4231 5.55298 14.6743 6.85567 14.6743C7.78659 14.6743 8.65437 14.3603 9.39891 13.9845V10.5355Z" transform="translate(25.2726 21.0751)" fill="#15212D"/>
</g>
<mask id="mask2" mask-type="alpha" maskUnits="userSpaceOnUse" x="0" y="0" width="141" height="48">
<path d="M141 0H0V48H141V0Z" fill="white"/>
</mask>
<g mask="url(#mask2)">
<path fill-rule="evenodd" clip-rule="evenodd" d="M22.768 18.218H19.0148C18.6736 18.218 18.3945 17.905 18.3945 17.5591V6.86714C18.3945 4.86054 17.929 4.26442 16.5021 4.26442C15.9745 4.26442 15.0446 4.39003 14.1136 4.82862C14.1758 5.45562 14.2074 6.17734 14.2074 6.86714V17.5591C14.2074 17.904 13.9283 18.218 13.5871 18.218H9.83382C9.49262 18.218 9.18197 17.905 9.18197 17.5591V6.86714C9.18197 4.86054 8.81021 4.26442 7.38326 4.26442C6.79353 4.26442 5.98687 4.57844 5.02538 5.07983V17.5591C5.02538 17.904 4.74631 18.218 4.4051 18.218H0.651855C0.31065 18.218 1.64739e-06 17.905 1.64739e-06 17.5591V0.878212C1.64739e-06 0.533311 0.279074 0.251211 0.620278 0.251211H4.15658C4.49779 0.251211 4.77686 0.533311 4.77686 0.878212V1.56802C6.07955 0.690833 7.56863 -4.39874e-07 9.36734 -4.39874e-07C11.0123 -4.39874e-07 12.1591 0.470508 13.0279 1.5361C14.8266 0.501394 16.0682 -4.39874e-07 18.0838 -4.39874e-07C22.1783 -4.39874e-07 23.4189 2.75921 23.4189 6.86611V17.5581C23.4199 17.905 23.1092 18.218 22.768 18.218Z" transform="translate(43.0142 21.074)" fill="#15212D"/>
</g>
<mask id="mask3" mask-type="alpha" maskUnits="userSpaceOnUse" x="0" y="0" width="141" height="48">
<path d="M141 0H0V48H141V0Z" fill="white"/>
</mask>
<g mask="url(#mask3)">
<path fill-rule="evenodd" clip-rule="evenodd" d="M14.8582 10.8165H4.96325V10.8793C4.96325 12.6666 5.7078 14.2975 8.15836 14.2975C10.1129 14.2975 12.8731 14.141 14.1137 14.0154H14.2063C14.5475 14.0154 14.7961 14.1718 14.7961 14.5168V16.9002C14.7961 17.4016 14.6718 17.6209 14.1442 17.7465C12.1591 18.2479 10.4836 18.4991 7.78557 18.4991C4.03232 18.4991 -6.21656e-08 16.4925 -6.21656e-08 10.4407V8.24675C-6.21656e-08 3.19883 2.91603 3.92745e-07 7.84771 3.92745e-07C12.9352 3.92745e-07 15.51 3.51182 15.51 8.24675V10.0649C15.51 10.5344 15.2615 10.8165 14.8582 10.8165ZM10.6089 7.55489C10.6089 5.2353 9.55475 4.07396 7.81715 4.07396C6.11113 4.07396 4.96325 5.26515 4.96325 7.55489V7.68049H10.6089V7.55489Z" transform="translate(69.3786 21.076)" fill="#15212D"/>
</g>
<mask id="mask4" mask-type="alpha" maskUnits="userSpaceOnUse" x="0" y="0" width="141" height="48">
<path d="M141 0H0V48H141V0Z" fill="white"/>
</mask>
<g mask="url(#mask4)">
<path fill-rule="evenodd" clip-rule="evenodd" d="M4.43566 24.0494H0.650838C0.309633 24.0494 2.73529e-06 23.7364 2.73529e-06 23.3905V0.627C2.73529e-06 0.282099 0.310652 1.57098e-08 0.650838 1.57098e-08H4.43566C4.77686 1.57098e-08 5.02538 0.282099 5.02538 0.627V23.3905C5.02437 23.7364 4.77584 24.0494 4.43566 24.0494Z" transform="translate(87.8342 15.2426)" fill="#15212D"/>
</g>
<mask id="mask5" mask-type="alpha" maskUnits="userSpaceOnUse" x="0" y="0" width="141" height="48">
<path d="M141 0H0V48H141V0Z" fill="white"/>
</mask>
<g mask="url(#mask5)">
<path fill-rule="evenodd" clip-rule="evenodd" d="M16.9981 0.720689L11.7873 19.1889C10.8259 22.5751 9.55373 24.2996 4.99381 24.2996C3.84594 24.2996 2.01565 24.0494 1.24056 23.7982C0.899353 23.6726 0.588704 23.5779 0.588704 23.234V20.6941C0.588704 20.3492 0.86778 20.098 1.20898 20.098H1.27111C2.29473 20.1608 4.12501 20.3492 5.14862 20.3492C6.26492 20.3492 6.82307 19.9724 7.19585 18.7184L7.47493 17.7465H7.00946C5.86159 17.7465 4.9001 17.5581 4.12501 14.8308L0.0305584 0.720689C2.73568e-06 0.626999 -3.7921e-06 0.564197 -3.7921e-06 0.501394C-3.7921e-06 0.187379 0.186387 4.24164e-07 0.620277 4.24164e-07H4.74529C5.05492 4.24164e-07 5.27289 0.282099 5.33502 0.596114L8.1278 12.3856C8.22048 12.8242 8.31317 12.9817 8.49956 12.9817H8.53011H8.65437H8.77863L11.6631 0.596114C11.7252 0.282099 11.9737 4.24164e-07 12.3149 4.24164e-07H16.441C16.7506 4.24164e-07 17.0297 0.250183 17.0297 0.564198C17.0297 0.627001 16.9981 0.657886 16.9981 0.720689Z" transform="translate(95.0606 21.3263)" fill="#15212D"/>
</g>
<mask id="mask6" mask-type="alpha" maskUnits="userSpaceOnUse" x="0" y="0" width="141" height="48">
<path d="M141 0H0V48H141V0Z" fill="white"/>
</mask>
<g mask="url(#mask6)">
<path fill-rule="evenodd" clip-rule="evenodd" d="M19.2205 3.1072L12.6073 1.76735e-08L10.393 4.72052C9.72993 3.84848 8.68799 3.28532 7.51465 3.28532C6.10298 3.28532 4.87973 4.10072 4.27982 5.29089C4.22992 5.38149 4.18408 5.47621 4.1413 5.57299L2.42446e-06 14.8822L6.64076 18.0018L8.85604 13.2875C9.01901 13.4954 9.20336 13.6849 9.40706 13.8527C9.48447 13.9186 9.56187 13.9762 9.64234 14.0308C10.227 14.4395 10.9359 14.6784 11.7008 14.6784C12.9698 14.6784 14.0851 14.0205 14.7339 13.0239C14.8653 12.8345 14.9835 12.6306 15.0874 12.4123L19.2205 3.1072Z" transform="translate(117.57 3.29773)" fill="#0076BF"/>
</g>
</svg>
