<svg width="85" height="85" viewBox="0 0 85 85" fill="none" xmlns="../../external.html?link=http://www.w3.org/2000/svg">
<ellipse cx="42.1304" cy="44.4785" rx="38.6594" ry="38.898" fill="#2BA7EC"/>
<ellipse cx="42.1304" cy="42.5" rx="42.1304" ry="42.5" fill="white"/>
<path fill-rule="evenodd" clip-rule="evenodd" d="M42.8069 12.8169L36.1389 18.1665L42.8069 23.5161V20.1064C54.9829 20.4634 64.7439 30.4341 64.7439 42.6821C64.7439 55.1558 54.6196 65.2681 42.1309 65.2681C29.6421 65.2681 19.5178 55.1558 19.5178 42.6821C19.5178 33.7529 24.7056 26.0342 32.2349 22.3682L30.3401 18.5645C21.4133 22.9263 15.2656 32.0869 15.2656 42.6816C15.2656 57.501 27.2935 69.5146 42.1306 69.5146C56.9678 69.5146 68.9956 57.501 68.9956 42.6816C68.9956 28.0869 57.3298 16.2139 42.8035 15.8574L42.8069 12.8169Z" fill="#55C2FF" fill-opacity="0.17"/>
<path d="M30.1179 42.602L37.7624 50.2937L54.1435 33.8115" stroke="#55C2FF" stroke-width="6.21055"/>
</svg>
