<svg width="84" height="84" viewBox="0 0 84 84" fill="none" xmlns="../../external.html?link=http://www.w3.org/2000/svg">
<g filter="url(#filter0_ddi)">
<circle cx="42" cy="40" r="36" fill="url(#paint0_linear)"/>
</g>
<path d="M30 27C30 26.4477 30.4477 26 31 26H53C53.5523 26 54 26.4477 54 27V53C54 53.5523 53.5523 54 53 54H31C30.4477 54 30 53.5523 30 53V27Z" fill="url(#paint1_linear)"/>
<path d="M29 27C29 26.4477 29.4477 26 30 26H50C50.5523 26 51 26.4477 51 27V53C51 53.5523 50.5523 54 50 54H30C29.4477 54 29 53.5523 29 53V27Z" fill="url(#paint2_linear)"/>
<path d="M54 26.5C54 26.2239 54.2239 26 54.5 26C54.7761 26 55 26.2239 55 26.5V53.5C55 53.7761 54.7761 54 54.5 54C54.2239 54 54 53.7761 54 53.5V26.5Z" fill="url(#paint3_linear)"/>
<defs>
<filter id="filter0_ddi" x="0" y="0" width="84" height="84" filterUnits="userSpaceOnUse" color-interpolation-filters="sRGB">
<feFlood flood-opacity="0" result="BackgroundImageFix"/>
<feColorMatrix in="SourceAlpha" type="matrix" values="0 0 0 0 0 0 0 0 0 0 0 0 0 0 0 0 0 0 127 0"/>
<feOffset dy="2"/>
<feGaussianBlur stdDeviation="3"/>
<feColorMatrix type="matrix" values="0 0 0 0 0.38 0 0 0 0 0.44 0 0 0 0 0.5 0 0 0 0.1 0"/>
<feBlend mode="normal" in2="BackgroundImageFix" result="effect1_dropShadow"/>
<feColorMatrix in="SourceAlpha" type="matrix" values="0 0 0 0 0 0 0 0 0 0 0 0 0 0 0 0 0 0 127 0"/>
<feOffset dy="1"/>
<feColorMatrix type="matrix" values="0 0 0 0 0.38 0 0 0 0 0.44 0 0 0 0 0.5 0 0 0 0.2 0"/>
<feBlend mode="normal" in2="effect1_dropShadow" result="effect2_dropShadow"/>
<feBlend mode="normal" in="SourceGraphic" in2="effect2_dropShadow" result="shape"/>
<feColorMatrix in="SourceAlpha" type="matrix" values="0 0 0 0 0 0 0 0 0 0 0 0 0 0 0 0 0 0 127 0" result="hardAlpha"/>
<feOffset dy="-1"/>
<feComposite in2="hardAlpha" operator="arithmetic" k2="-1" k3="1"/>
<feColorMatrix type="matrix" values="0 0 0 0 0.38 0 0 0 0 0.44 0 0 0 0 0.5 0 0 0 0.1 0"/>
<feBlend mode="normal" in2="shape" result="effect3_innerShadow"/>
</filter>
<linearGradient id="paint0_linear" x1="42" y1="4" x2="42" y2="76" gradientUnits="userSpaceOnUse">
<stop stop-color="white"/>
<stop offset="1" stop-color="#FAFBFC"/>
</linearGradient>
<linearGradient id="paint1_linear" x1="42" y1="26" x2="42" y2="54" gradientUnits="userSpaceOnUse">
<stop stop-color="#A5DED5"/>
<stop offset="1" stop-color="#A5DED5" stop-opacity="0.62"/>
</linearGradient>
<linearGradient id="paint2_linear" x1="40" y1="26" x2="40" y2="54" gradientUnits="userSpaceOnUse">
<stop stop-color="#1FAE96"/>
<stop offset="1" stop-color="#1FAEAE"/>
</linearGradient>
<linearGradient id="paint3_linear" x1="54.5" y1="26" x2="54.5" y2="54" gradientUnits="userSpaceOnUse">
<stop stop-color="#1FAE96"/>
<stop offset="1" stop-color="#1FAEAE"/>
</linearGradient>
</defs>
</svg>
