<svg width="36" height="36" viewBox="0 0 36 36" fill="none" xmlns="../../external.html?link=http://www.w3.org/2000/svg">
<rect opacity="0.5" width="36" height="36" rx="8" fill="#E9F7F4"/>
<mask id="path-2-inside-1" fill="white">
<path fill-rule="evenodd" clip-rule="evenodd" d="M11 10C9.89545 10 9 10.8955 9 12V26V28L15 26H25C26.1046 26 27 25.1045 27 24V12C27 10.8955 26.1046 10 25 10H11Z"/>
</mask>
<path d="M9 28H8.5C8.5 28.1607 8.57726 28.3116 8.70764 28.4056C8.83803 28.4996 9.00564 28.5252 9.15811 28.4743L9 28ZM15 26V25.5C14.9463 25.5 14.8929 25.5087 14.8419 25.5257L15 26ZM8.5 12V12.5H9.5V12H8.5ZM8.5 13.5V14.5H9.5V13.5H8.5ZM8.5 15.5V16.5H9.5V15.5H8.5ZM8.5 17.5V18.5H9.5V17.5H8.5ZM8.5 19.5V20.5H9.5V19.5H8.5ZM8.5 21.5V22.5H9.5V21.5H8.5ZM8.5 23.5V24.5H9.5V23.5H8.5ZM8.5 25.5V26H9.5V25.5H8.5ZM8.5 26V26.5H9.5V26H8.5ZM8.5 27.5V28H9.5V27.5H8.5ZM9.15811 28.4743L9.65811 28.3077L9.34189 27.359L8.84189 27.5257L9.15811 28.4743ZM10.6581 27.9743L11.6581 27.641L11.3419 26.6923L10.3419 27.0257L10.6581 27.9743ZM12.6581 27.3077L13.6581 26.9743L13.3419 26.0257L12.3419 26.359L12.6581 27.3077ZM14.6581 26.641L15.1581 26.4743L14.8419 25.5257L14.3419 25.6923L14.6581 26.641ZM15 26.5H15.5V25.5H15V26.5ZM16.5 26.5H17.5V25.5H16.5V26.5ZM18.5 26.5H19.5V25.5H18.5V26.5ZM20.5 26.5H21.5V25.5H20.5V26.5ZM22.5 26.5H23.5V25.5H22.5V26.5ZM24.5 26.5H25V25.5H24.5V26.5ZM25 26.5C25.1663 26.5 25.3293 26.4837 25.4874 26.4524L25.2933 25.4714C25.1988 25.4901 25.1008 25.5 25 25.5V26.5ZM26.3894 26.0786C26.6618 25.8962 26.8962 25.6618 27.0786 25.3894L26.2476 24.8331C26.138 24.9968 25.9968 25.138 25.8331 25.2476L26.3894 26.0786ZM27.4524 24.4874C27.4837 24.3293 27.5 24.1663 27.5 24H26.5C26.5 24.1008 26.4901 24.1988 26.4714 24.2933L27.4524 24.4874ZM27.5 24V23.5H26.5V24H27.5ZM27.5 22.5V21.5H26.5V22.5H27.5ZM27.5 20.5V19.5H26.5V20.5H27.5ZM27.5 18.5V17.5H26.5V18.5H27.5ZM27.5 16.5V15.5H26.5V16.5H27.5ZM27.5 14.5V13.5H26.5V14.5H27.5ZM27.5 12.5V12H26.5V12.5H27.5ZM27.5 12C27.5 11.8337 27.4837 11.6707 27.4524 11.5126L26.4714 11.7067C26.4901 11.8012 26.5 11.8992 26.5 12H27.5ZM27.0786 10.6106C26.8962 10.3382 26.6618 10.1038 26.3894 9.92141L25.8331 10.7524C25.9968 10.862 26.138 11.0032 26.2476 11.1669L27.0786 10.6106ZM25.4874 9.54758C25.3293 9.51631 25.1663 9.5 25 9.5V10.5C25.1008 10.5 25.1988 10.5099 25.2933 10.5286L25.4874 9.54758ZM25 9.5H24.5V10.5H25V9.5ZM23.5 9.5H22.5V10.5H23.5V9.5ZM21.5 9.5H20.5V10.5H21.5V9.5ZM19.5 9.5H18.5V10.5H19.5V9.5ZM17.5 9.5H16.5V10.5H17.5V9.5ZM15.5 9.5H14.5V10.5H15.5V9.5ZM13.5 9.5H12.5V10.5H13.5V9.5ZM11.5 9.5H11V10.5H11.5V9.5ZM11 9.5C10.8337 9.5 10.6707 9.51631 10.5126 9.54758L10.7067 10.5286C10.8012 10.5099 10.8992 10.5 11 10.5V9.5ZM9.61062 9.92141C9.33821 10.1038 9.10378 10.3382 8.92141 10.6106L9.75237 11.1669C9.86203 11.0032 10.0032 10.862 10.1669 10.7524L9.61062 9.92141ZM8.54758 11.5126C8.51631 11.6707 8.5 11.8337 8.5 12H9.5C9.5 11.8992 9.50988 11.8012 9.52856 11.7067L8.54758 11.5126ZM9 28H8C8 28.3214 8.15452 28.6233 8.41529 28.8112C8.67606 28.9992 9.01128 29.0503 9.31623 28.9487L9 28ZM15 26V25C14.8925 25 14.7857 25.0173 14.6838 25.0513L15 26ZM8 12V12.5H10V12H8ZM8 13.5V14.5H10V13.5H8ZM8 15.5V16.5H10V15.5H8ZM8 17.5V18.5H10V17.5H8ZM8 19.5V20.5H10V19.5H8ZM8 21.5V22.5H10V21.5H8ZM8 23.5V24.5H10V23.5H8ZM8 25.5V26H10V25.5H8ZM8 26V26.5H10V26H8ZM8 27.5V28H10V27.5H8ZM9.31623 28.9487L9.81623 28.782L9.18377 26.8846L8.68377 27.0513L9.31623 28.9487ZM10.8162 28.4487L11.8162 28.1154L11.1838 26.218L10.1838 26.5513L10.8162 28.4487ZM12.8162 27.782L13.8162 27.4487L13.1838 25.5513L12.1838 25.8847L12.8162 27.782ZM14.8162 27.1154L15.3162 26.9487L14.6838 25.0513L14.1838 25.218L14.8162 27.1154ZM15 27H15.5V25H15V27ZM16.5 27H17.5V25H16.5V27ZM18.5 27H19.5V25H18.5V27ZM20.5 27H21.5V25H20.5V27ZM22.5 27H23.5V25H22.5V27ZM24.5 27H25V25H24.5V27ZM25 27C25.1991 27 25.3946 26.9805 25.5844 26.9429L25.1962 24.9809C25.1336 24.9933 25.0681 25 25 25V27ZM26.6676 26.4941C26.9943 26.2753 27.2753 25.9943 27.4941 25.6675L25.8322 24.5549C25.7589 24.6644 25.6644 24.7589 25.5549 24.8322L26.6676 26.4941ZM27.9429 24.5844C27.9805 24.3946 28 24.1991 28 24H26C26 24.0681 25.9933 24.1336 25.9809 24.1962L27.9429 24.5844ZM28 24V23.5H26V24H28ZM28 22.5V21.5H26V22.5H28ZM28 20.5V19.5H26V20.5H28ZM28 18.5V17.5H26V18.5H28ZM28 16.5V15.5H26V16.5H28ZM28 14.5V13.5H26V14.5H28ZM28 12.5V12H26V12.5H28ZM28 12C28 11.8009 27.9805 11.6054 27.9429 11.4156L25.9809 11.8038C25.9933 11.8664 26 11.9319 26 12H28ZM27.4941 10.3325C27.2753 10.0057 26.9943 9.72466 26.6676 9.50593L25.5549 11.1678C25.6644 11.2411 25.7589 11.3356 25.8322 11.4451L27.4941 10.3325ZM25.5844 9.05709C25.3946 9.01953 25.1991 9 25 9V11C25.0681 11 25.1336 11.0067 25.1962 11.0191L25.5844 9.05709ZM25 9H24.5V11H25V9ZM23.5 9H22.5V11H23.5V9ZM21.5 9H20.5V11H21.5V9ZM19.5 9H18.5V11H19.5V9ZM17.5 9H16.5V11H17.5V9ZM15.5 9H14.5V11H15.5V9ZM13.5 9H12.5V11H13.5V9ZM11.5 9H11V11H11.5V9ZM11 9C10.8009 9 10.6054 9.01953 10.4156 9.05709L10.8038 11.0191C10.8664 11.0067 10.9319 11 11 11V9ZM9.33245 9.50593C9.00574 9.72466 8.72466 10.0057 8.50593 10.3325L10.1678 11.4451C10.2412 11.3356 10.3356 11.2411 10.4451 11.1678L9.33245 9.50593ZM8.05709 11.4156C8.01953 11.6054 8 11.8009 8 12H10C10 11.9319 10.0067 11.8664 10.0191 11.8038L8.05709 11.4156Z" fill="#1FAE96" mask="url(#path-2-inside-1)"/>
<path fill-rule="evenodd" clip-rule="evenodd" d="M11.5 12C11.2239 12 11 12.2239 11 12.5V23V23.5V25.25L14.4722 24H24.5C24.7761 24 25 23.7761 25 23.5V12.5C25 12.2239 24.7761 12 24.5 12H11.5Z" fill="white"/>
<path d="M16 16.6556H16.8892C16.9195 16.1512 17.2335 15.8298 17.7216 15.8298C18.1984 15.8298 18.5162 16.1431 18.5162 16.5742C18.5162 16.9769 18.3573 17.1966 17.8881 17.5017C17.3659 17.8312 17.1465 18.1973 17.1805 18.7993L17.1843 19.0881H18.0622V18.8522C18.0622 18.4454 18.2022 18.2339 18.6978 17.9247C19.2124 17.5953 19.5 17.16 19.5 16.5376C19.5 15.6427 18.8076 15 17.7708 15C16.647 15 16.0303 15.6997 16 16.6556ZM17.6346 21C17.9411 21 18.1832 20.7437 18.1832 20.4224C18.1832 20.101 17.9411 19.8488 17.6346 19.8488C17.3281 19.8488 17.0822 20.101 17.0822 20.4224C17.0822 20.7437 17.3281 21 17.6346 21Z" fill="url(#paint0_linear)"/>
<defs>
<linearGradient id="paint0_linear" x1="17.75" y1="15" x2="17.75" y2="21" gradientUnits="userSpaceOnUse">
<stop stop-color="#1FAE96"/>
<stop offset="1" stop-color="#1FAEAE"/>
</linearGradient>
</defs>
</svg>
