<svg width="36" height="36" viewBox="0 0 36 36" fill="none" xmlns="../../external.html?link=http://www.w3.org/2000/svg">
<path d="M0 5C0 2.23858 2.23858 0 5 0H31C33.7614 0 36 2.23858 36 5V31C36 33.7614 33.7614 36 31 36H5C2.23858 36 0 33.7614 0 31V5Z" fill="#1FAE96"/>
<rect x="8.1001" y="8.09998" width="19.8" height="19.8" rx="9.9" fill="white"/>
<rect x="16.2002" y="12.6" width="3.6" height="6.3" rx="1.8" fill="#1FAE96"/>
<path opacity="0.5" fill-rule="evenodd" clip-rule="evenodd" d="M14.8501 16.65C14.7256 16.65 14.625 16.7507 14.625 16.875V17.1C14.625 18.8113 15.8989 20.2251 17.5498 20.4452V22.7251L15.9751 22.725C15.7266 22.725 15.5249 22.9264 15.5249 23.1749C15.5249 23.4235 15.7266 23.625 15.9751 23.625H20.0249C20.2734 23.625 20.4751 23.4235 20.4751 23.1749C20.4751 23.0243 20.4009 22.891 20.2871 22.8093C20.2134 22.7562 20.1226 22.725 20.0249 22.725L18.4497 22.7251V20.4453C20.1011 20.2255 21.375 18.8115 21.375 17.1V16.875C21.375 16.7704 21.3037 16.6825 21.2065 16.6573C21.1885 16.6526 21.1694 16.65 21.1499 16.65H20.7002C20.5757 16.65 20.4751 16.7507 20.4751 16.875V17.1C20.4751 18.4669 19.3667 19.5751 18 19.5751C16.6328 19.5751 15.5249 18.4669 15.5249 17.1V16.875C15.5249 16.7507 15.4243 16.65 15.2998 16.65H14.8501Z" fill="#A5DED5"/>
</svg>
