<svg width="62" height="62" viewBox="0 0 62 62" fill="none" xmlns="../../external.html?link=http://www.w3.org/2000/svg">
<g filter="url(#filter0_ddi)">
<rect x="6" y="4" width="50" height="50" rx="25" fill="url(#paint0_linear)"/>
</g>
<path d="M29 30V46L38.4452 28.0541C38.6516 27.6619 38.2836 27.2149 37.8591 27.3423L29 30Z" fill="#167B6A"/>
<path d="M33 31V15L23.5548 32.9459C23.3484 33.3381 23.7164 33.7851 24.1409 33.6577L33 31Z" fill="#167B6A"/>
<path d="M29 28V44L38.4452 26.0541C38.6516 25.6619 38.2836 25.2149 37.8591 25.3423L29 28Z" fill="#E9F7F4"/>
<path d="M33 30V14L23.5548 31.9459C23.3484 32.3381 23.7164 32.7851 24.1409 32.6577L33 30Z" fill="white"/>
<defs>
<filter id="filter0_ddi" x="0" y="0" width="62" height="62" filterUnits="userSpaceOnUse" color-interpolation-filters="sRGB">
<feFlood flood-opacity="0" result="BackgroundImageFix"/>
<feColorMatrix in="SourceAlpha" type="matrix" values="0 0 0 0 0 0 0 0 0 0 0 0 0 0 0 0 0 0 127 0"/>
<feOffset dy="2"/>
<feGaussianBlur stdDeviation="3"/>
<feColorMatrix type="matrix" values="0 0 0 0 0.105882 0 0 0 0 0.67451 0 0 0 0 0.580392 0 0 0 0.1 0"/>
<feBlend mode="normal" in2="BackgroundImageFix" result="effect1_dropShadow"/>
<feColorMatrix in="SourceAlpha" type="matrix" values="0 0 0 0 0 0 0 0 0 0 0 0 0 0 0 0 0 0 127 0"/>
<feOffset dy="1"/>
<feColorMatrix type="matrix" values="0 0 0 0 0.0790984 0 0 0 0 0.532751 0 0 0 0 0.457664 0 0 0 0.2 0"/>
<feBlend mode="normal" in2="effect1_dropShadow" result="effect2_dropShadow"/>
<feBlend mode="normal" in="SourceGraphic" in2="effect2_dropShadow" result="shape"/>
<feColorMatrix in="SourceAlpha" type="matrix" values="0 0 0 0 0 0 0 0 0 0 0 0 0 0 0 0 0 0 127 0" result="hardAlpha"/>
<feOffset dy="-1"/>
<feComposite in2="hardAlpha" operator="arithmetic" k2="-1" k3="1"/>
<feColorMatrix type="matrix" values="0 0 0 0 0.0790984 0 0 0 0 0.532751 0 0 0 0 0.457664 0 0 0 0.1 0"/>
<feBlend mode="normal" in2="shape" result="effect3_innerShadow"/>
</filter>
<linearGradient id="paint0_linear" x1="31" y1="4" x2="31" y2="54" gradientUnits="userSpaceOnUse">
<stop stop-color="#1FAE96"/>
<stop offset="1" stop-color="#1FAEAE"/>
</linearGradient>
</defs>
</svg>
