<svg width="36" height="36" viewBox="0 0 36 36" fill="none" xmlns="../../external.html?link=http://www.w3.org/2000/svg">
<path d="M0 5C0 2.23858 2.23858 0 5 0H31C33.7614 0 36 2.23858 36 5V31C36 33.7614 33.7614 36 31 36H5C2.23858 36 0 33.7614 0 31V5Z" fill="#1FAE96"/>
<path d="M13.0498 8.77502H26.3248V27.225H13.0498V8.77502Z" fill="#A5DED5"/>
<path d="M23.8501 8.77502C24.3472 8.77502 24.7501 9.17797 24.7501 9.67502V26.325C24.7501 26.8221 24.3472 27.225 23.8501 27.225V8.77502Z" fill="#1FAE96"/>
<path d="M9.8999 8.77502H24.2999V27.225H9.8999V8.77502Z" fill="white"/>
<rect x="11.25" y="9.22498" width="0.45" height="17.55" rx="0.225" fill="#1FAE96"/>
</svg>
