<?xml version="1.0" encoding="UTF-8"?>
<svg width="73px" height="58px" viewBox="0 0 73 58" version="1.1" xmlns="http://www.w3.org/2000/svg" xmlns:xlink="../../external.html?link=http://www.w3.org/1999/xlink">
    <!-- Generator: Sketch 49.1 (51147) - http://www.bohemiancoding.com/sketch -->
    <title>case-study-quotes</title>
    <desc>Created with Sketch.</desc>
    <defs></defs>
    <g id="Page-1" stroke="none" stroke-width="1" fill="none" fill-rule="evenodd" fill-opacity="0.404240263">
        <g id="customer-propal-3" transform="translate(-684.000000, -1261.000000)" fill="#B3CED7">
            <g id="📖-content" transform="translate(420.000000, 707.000000)">
                <g id="text">
                    <g id="quote" transform="translate(30.000000, 554.000000)">
                        <path d="M266.743848,44.7806268 C266.743848,48.3058106 265.342109,51.3903002 262.538591,54.034188 C259.735072,56.6780759 256.428058,58 252.61745,58 C246.629351,58 242.029472,55.9895738 238.817673,51.968661 C235.605875,47.9477482 234,42.3846509 234,35.2792023 C234,28.6694826 236.762649,22.0047819 242.288031,15.2849003 C247.813413,8.56501863 254.468268,3.47010282 262.252796,0 L265.845638,5.86609687 C259.694227,8.89555171 254.876602,12.4206826 251.392617,16.4415954 C247.908633,20.4625082 245.894484,25.3371034 245.350112,31.0655271 L249.922819,31.0655271 C253.297929,31.0655271 256.046969,31.4510883 258.170022,32.2222222 C260.293075,32.9933562 262.007823,34.0674195 263.314318,35.4444444 C264.566375,36.7663884 265.450967,38.2260129 265.968121,39.8233618 C266.485275,41.4207107 266.743848,43.0731159 266.743848,44.7806268 Z M307,44.7806268 C307,48.3058106 305.598262,51.3903002 302.794743,54.034188 C299.991224,56.6780759 296.68421,58 292.873602,58 C286.885503,58 282.285624,55.9895738 279.073826,51.968661 C275.862027,47.9477482 274.256152,42.3846509 274.256152,35.2792023 C274.256152,28.6694826 277.018802,22.0047819 282.544183,15.2849003 C288.069565,8.56501863 294.72442,3.47010282 302.508949,0 L306.10179,5.86609687 C299.950379,8.89555171 295.132754,12.4206826 291.64877,16.4415954 C288.164785,20.4625082 286.150637,25.3371034 285.606264,31.0655271 L290.178971,31.0655271 C293.554081,31.0655271 296.303121,31.4510883 298.426174,32.2222222 C300.549228,32.9933562 302.263976,34.0674195 303.57047,35.4444444 C304.822527,36.7663884 305.707119,38.2260129 306.224273,39.8233618 C306.741427,41.4207107 307,43.0731159 307,44.7806268 Z" id="case-study-quotes"></path>
                    </g>
                </g>
            </g>
        </g>
    </g>
</svg>