<svg width="156" height="47" viewBox="0 0 156 47" fill="none" xmlns="http://www.w3.org/2000/svg">
<mask id="mask0" mask-type="alpha" maskUnits="userSpaceOnUse" x="0" y="0" width="156" height="47">
<rect width="156" height="47" rx="4" fill="#C4C4C4"/>
</mask>
<g mask="url(#mask0)">
<path fill-rule="evenodd" clip-rule="evenodd" d="M189.201 -124.731H1.878e-05V-6.32692H-18.019V3.61539H-14.4152V56.0385H-1.80182V68.6923H1.878e-05V170.827H189.201V-124.731Z" fill="black"/>
<path d="M32.2598 23.2544C32.2714 22.3197 32.5118 21.4032 32.9585 20.5903C33.4052 19.7774 34.0438 19.0943 34.8147 18.6048C34.325 17.8823 33.6788 17.2877 32.9277 16.8683C32.1765 16.4489 31.341 16.2161 30.4876 16.1885C28.667 15.9912 26.902 17.3138 25.9742 17.3138C25.0285 17.3138 23.6001 16.2081 22.062 16.2408C21.067 16.274 20.0974 16.5729 19.2475 17.1082C18.3977 17.6435 17.6966 18.3971 17.2125 19.2956C15.1157 23.0452 16.6797 28.5559 18.6883 31.5869C19.6932 33.071 20.8677 34.7289 22.4045 34.6701C23.9083 34.6057 24.4699 33.6796 26.2852 33.6796C28.0836 33.6796 28.6105 34.6701 30.1785 34.6327C31.7922 34.6057 32.8089 33.142 33.7785 31.6438C34.5006 30.5862 35.0562 29.4174 35.4248 28.1807C34.4873 27.7711 33.6872 27.0856 33.1244 26.2095C32.5616 25.3335 32.2609 24.3057 32.2598 23.2544V23.2544Z" fill="white"/>
<path d="M29.2984 14.1859C30.1783 13.0949 30.6117 11.6927 30.5068 10.277C29.1626 10.4228 27.9209 11.0864 27.0292 12.1355C26.5932 12.648 26.2592 13.2442 26.0465 13.8901C25.8337 14.536 25.7463 15.2189 25.7892 15.8997C26.4615 15.9068 27.1267 15.7563 27.7345 15.4594C28.3424 15.1626 28.8771 14.7271 29.2984 14.1859Z" fill="white"/>
<path d="M56.6749 30.9056H51.543L50.3106 34.6641H48.137L52.9978 20.7588H55.2562L60.117 34.6641H57.9063L56.6749 30.9056ZM52.0745 29.1713H56.1424L54.1371 23.0716H54.081L52.0745 29.1713Z" fill="white"/>
<path d="M70.6147 29.6028C70.6147 32.7534 68.9821 34.7776 66.5183 34.7776C65.8942 34.8113 65.2735 34.6628 64.7273 34.3491C64.1811 34.0354 63.7315 33.5692 63.4299 33.0038H63.3833V38.0255H61.3684V24.533H63.3187V26.2193H63.3558C63.6712 25.6566 64.1284 25.1928 64.6788 24.8772C65.2292 24.5616 65.8521 24.406 66.4813 24.4269C68.9725 24.4269 70.6147 26.461 70.6147 29.6028ZM68.5437 29.6028C68.5437 27.5502 67.5167 26.2007 65.9497 26.2007C64.4103 26.2007 63.3748 27.5786 63.3748 29.6028C63.3748 31.6456 64.4103 33.0137 65.9497 33.0137C67.5167 33.0137 68.5437 31.674 68.5437 29.6028Z" fill="white"/>
<path d="M81.4187 29.6028C81.4187 32.7534 79.786 34.7776 77.3223 34.7776C76.6982 34.8113 76.0775 34.6628 75.5313 34.3491C74.9851 34.0354 74.5354 33.5692 74.2338 33.0038H74.1872V38.0255H72.1724V24.533H74.1226V26.2193H74.1597C74.4751 25.6566 74.9324 25.1928 75.4827 24.8772C76.0331 24.5616 76.656 24.406 77.2852 24.4269C79.7765 24.4269 81.4187 26.461 81.4187 29.6028ZM79.3477 29.6028C79.3477 27.5502 78.3207 26.2007 76.7537 26.2007C75.2142 26.2007 74.1788 27.5786 74.1788 29.6028C74.1788 31.6456 75.2142 33.0137 76.7537 33.0137C78.3207 33.0137 79.3477 31.674 79.3477 29.6028H79.3477Z" fill="white"/>
<path d="M88.5586 30.7969C88.7079 32.1759 90.0049 33.0813 91.7773 33.0813C93.4756 33.0813 94.6974 32.1759 94.6974 30.9324C94.6974 29.8531 93.9605 29.2068 92.2156 28.7639L90.4708 28.3297C87.9985 27.7129 86.8508 26.5187 86.8508 24.5809C86.8508 22.1816 88.8752 20.5336 91.7498 20.5336C94.5947 20.5336 96.545 22.1816 96.6106 24.5809H94.5767C94.4549 23.1932 93.3443 22.3555 91.7212 22.3555C90.0981 22.3555 88.9874 23.203 88.9874 24.4366C88.9874 25.4197 89.6968 25.9982 91.4321 26.4411L92.9155 26.8173C95.6778 27.492 96.8255 28.6381 96.8255 30.6721C96.8255 33.2738 94.8191 34.9032 91.628 34.9032C88.6422 34.9032 86.6263 33.312 86.4961 30.7968L88.5586 30.7969Z" fill="white"/>
<path d="M101.174 22.1335V24.5329H103.041V26.1809H101.174V31.7702C101.174 32.6385 101.548 33.0431 102.368 33.0431C102.59 33.0391 102.811 33.023 103.031 32.9949V34.6331C102.662 34.7043 102.287 34.7366 101.912 34.7294C99.9246 34.7294 99.1496 33.9584 99.1496 31.9921V26.1809H97.7224V24.5329H99.1496V22.1335H101.174Z" fill="white"/>
<path d="M104.122 29.6027C104.122 26.4127 105.941 24.4082 108.777 24.4082C111.623 24.4082 113.434 26.4127 113.434 29.6027C113.434 32.8015 111.633 34.7972 108.777 34.7972C105.923 34.7972 104.122 32.8014 104.122 29.6027ZM111.381 29.6027C111.381 27.4145 110.41 26.1229 108.777 26.1229C107.145 26.1229 106.175 27.4243 106.175 29.6027C106.175 31.7997 107.145 33.0814 108.777 33.0814C110.41 33.0814 111.381 31.7997 111.381 29.6027H111.381Z" fill="white"/>
<path d="M115.095 24.5328H117.017V26.2584H117.063C117.193 25.7195 117.499 25.2432 117.929 24.9096C118.359 24.576 118.887 24.4055 119.424 24.4267C119.657 24.4259 119.888 24.4519 120.115 24.5043V26.4509C119.822 26.3584 119.516 26.3159 119.209 26.3252C118.917 26.3129 118.625 26.3662 118.354 26.4814C118.083 26.5966 117.84 26.771 117.64 26.9926C117.441 27.2142 117.29 27.4778 117.198 27.7652C117.107 28.0526 117.077 28.3571 117.11 28.6578V34.6714H115.095L115.095 24.5328Z" fill="white"/>
<path d="M129.404 31.6937C129.133 33.5342 127.398 34.7972 125.177 34.7972C122.322 34.7972 120.55 32.8211 120.55 29.6508C120.55 26.4707 122.331 24.4082 125.093 24.4082C127.808 24.4082 129.516 26.3351 129.516 29.4092V30.1222H122.583V30.2479C122.551 30.6211 122.597 30.997 122.716 31.3506C122.836 31.7043 123.027 32.0277 123.276 32.2993C123.526 32.5709 123.829 32.7846 124.165 32.926C124.501 33.0674 124.862 33.1335 125.224 33.1197C125.7 33.1658 126.178 33.0519 126.586 32.7949C126.995 32.538 127.312 32.1517 127.491 31.6936L129.404 31.6937ZM122.593 28.6677H127.5C127.518 28.3322 127.469 27.9965 127.356 27.6816C127.242 27.3667 127.067 27.0794 126.841 26.8378C126.615 26.5961 126.343 26.4054 126.042 26.2775C125.741 26.1496 125.418 26.0873 125.093 26.0945C124.765 26.0925 124.439 26.1576 124.136 26.2861C123.832 26.4146 123.556 26.6039 123.324 26.8431C123.091 27.0824 122.907 27.3668 122.782 27.6799C122.656 27.9931 122.592 28.3288 122.593 28.6677V28.6677Z" fill="white"/>
<path d="M51.8221 10.2888C52.2445 10.2575 52.6683 10.3234 53.0631 10.4818C53.4579 10.6402 53.8137 10.8871 54.1049 11.2047C54.3961 11.5223 54.6154 11.9027 54.747 12.3184C54.8786 12.7342 54.9193 13.1749 54.866 13.6088C54.866 15.7434 53.749 16.9705 51.8221 16.9705H49.4854V10.2888H51.8221ZM50.4901 16.0255H51.7098C52.0117 16.0442 52.3137 15.9931 52.594 15.8759C52.8743 15.7588 53.1258 15.5785 53.3302 15.3483C53.5345 15.1181 53.6866 14.8438 53.7754 14.5452C53.8641 14.2467 53.8873 13.9314 53.8432 13.6225C53.8841 13.3147 53.8586 13.0014 53.7685 12.705C53.6784 12.4087 53.5259 12.1366 53.322 11.9082C53.1181 11.6798 52.8678 11.5009 52.5891 11.3842C52.3104 11.2674 52.0101 11.2158 51.7098 11.2331H50.4901V16.0255Z" fill="white"/>
<path d="M56.0011 14.4566C55.9704 14.1253 56.0071 13.7909 56.1089 13.4751C56.2106 13.1592 56.3751 12.8688 56.5919 12.6224C56.8087 12.3761 57.0729 12.1793 57.3677 12.0446C57.6624 11.9099 57.9811 11.8403 58.3034 11.8403C58.6257 11.8403 58.9445 11.9099 59.2392 12.0446C59.5339 12.1793 59.7982 12.3761 60.015 12.6224C60.2317 12.8688 60.3963 13.1592 60.498 13.4751C60.5997 13.7909 60.6364 14.1253 60.6058 14.4566C60.637 14.7883 60.6008 15.1231 60.4993 15.4395C60.3978 15.7559 60.2334 16.0468 60.0166 16.2937C59.7997 16.5405 59.5353 16.7377 59.2403 16.8727C58.9452 17.0077 58.6261 17.0774 58.3034 17.0774C57.9808 17.0774 57.6616 17.0077 57.3666 16.8727C57.0716 16.7377 56.8072 16.5405 56.5903 16.2937C56.3735 16.0468 56.2091 15.7559 56.1076 15.4395C56.0061 15.1231 55.9699 14.7883 56.0011 14.4566V14.4566ZM59.6147 14.4566C59.6147 13.3636 59.1393 12.7244 58.305 12.7244C57.4675 12.7244 56.9964 13.3636 56.9964 14.4566C56.9964 15.5584 57.4676 16.1927 58.305 16.1927C59.1394 16.1927 59.6147 15.554 59.6147 14.4566H59.6147Z" fill="white"/>
<path d="M66.7264 16.98H65.7269L64.7179 13.2662H64.6417L63.6369 16.98H62.647L61.3013 11.9375H62.2785L63.1531 15.7852H63.2251L64.2288 11.9375H65.1531L66.1568 15.7852H66.233L67.1033 11.9375H68.0668L66.7264 16.98Z" fill="white"/>
<path d="M69.1987 11.9375H70.1262V12.7385H70.1982C70.3203 12.4508 70.5263 12.2097 70.7875 12.0486C71.0486 11.8876 71.3519 11.8147 71.6551 11.8402C71.8926 11.8217 72.1311 11.8587 72.353 11.9484C72.5748 12.0381 72.7742 12.1782 72.9365 12.3583C73.0988 12.5384 73.2197 12.754 73.2904 12.9889C73.3611 13.2239 73.3797 13.4723 73.3449 13.7156V16.9799H72.3814V13.9655C72.3814 13.1552 72.0405 12.7522 71.3279 12.7522C71.1666 12.7445 71.0056 12.7728 70.856 12.8353C70.7063 12.8979 70.5715 12.9931 70.4607 13.1144C70.35 13.2358 70.266 13.3805 70.2145 13.5385C70.163 13.6966 70.1451 13.8642 70.1622 14.0301V16.98H69.1987L69.1987 11.9375Z" fill="white"/>
<path d="M74.8801 9.96887H75.8436V16.98H74.8801V9.96887Z" fill="white"/>
<path d="M77.183 14.4566C77.1523 14.1252 77.189 13.7909 77.2908 13.475C77.3926 13.1591 77.5571 12.8687 77.7739 12.6223C77.9907 12.376 78.255 12.1792 78.5497 12.0445C78.8445 11.9098 79.1633 11.8402 79.4856 11.8402C79.8079 11.8402 80.1266 11.9098 80.4214 12.0445C80.7162 12.1792 80.9804 12.376 81.1972 12.6223C81.414 12.8687 81.5786 13.1591 81.6803 13.475C81.7821 13.7909 81.8188 14.1252 81.7881 14.4566C81.8194 14.7884 81.7831 15.1232 81.6816 15.4395C81.5801 15.7559 81.4156 16.0469 81.1988 16.2937C80.9819 16.5405 80.7175 16.7377 80.4224 16.8727C80.1274 17.0077 79.8083 17.0774 79.4856 17.0774C79.1629 17.0774 78.8438 17.0077 78.5487 16.8727C78.2537 16.7377 77.9892 16.5405 77.7724 16.2937C77.5555 16.0469 77.3911 15.7559 77.2896 15.4395C77.188 15.1232 77.1517 14.7884 77.183 14.4566V14.4566ZM80.7966 14.4566C80.7966 13.3636 80.3212 12.7244 79.4869 12.7244C78.6494 12.7244 78.1783 13.3636 78.1783 14.4566C78.1783 15.5584 78.6494 16.1927 79.4869 16.1927C80.3212 16.1927 80.7966 15.554 80.7966 14.4566H80.7966Z" fill="white"/>
<path d="M82.8025 15.554C82.8025 14.6463 83.4568 14.1231 84.6183 14.0487L85.9407 13.97V13.5347C85.9407 13.0021 85.5998 12.7014 84.9412 12.7014C84.4034 12.7014 84.0307 12.9054 83.9237 13.2619H82.991C83.0894 12.3957 83.8782 11.8402 84.9857 11.8402C86.2096 11.8402 86.9 12.4696 86.9 13.5347V16.98H85.9725V16.2714H85.8962C85.7415 16.5256 85.5242 16.7328 85.2666 16.8719C85.009 17.011 84.7202 17.077 84.4298 17.0631C84.2249 17.0851 84.0177 17.0625 83.8218 16.9968C83.6258 16.9311 83.4453 16.8237 83.292 16.6815C83.1387 16.5393 83.0159 16.3655 82.9316 16.1713C82.8473 15.9771 82.8033 15.7668 82.8025 15.554V15.554ZM85.9407 15.1231V14.7016L84.7485 14.7803C84.0762 14.8268 83.7713 15.063 83.7713 15.5075C83.7713 15.9614 84.1524 16.2255 84.6766 16.2255C84.8301 16.2415 84.9853 16.2255 85.1327 16.1784C85.2802 16.1312 85.4169 16.0539 85.5349 15.9511C85.6528 15.8482 85.7495 15.7219 85.8192 15.5797C85.889 15.4375 85.9303 15.2822 85.9407 15.1231V15.1231Z" fill="white"/>
<path d="M88.1663 14.4565C88.1663 12.8631 88.9593 11.8537 90.1928 11.8537C90.4979 11.8392 90.8007 11.9147 91.0658 12.0714C91.3309 12.228 91.5474 12.4594 91.6899 12.7384H91.7619V9.96887H92.7254V16.98H91.8021V16.1833H91.7259C91.5724 16.4605 91.3484 16.689 91.0781 16.8441C90.8079 16.9991 90.5017 17.0749 90.1928 17.0631C88.9508 17.0632 88.1663 16.0538 88.1663 14.4565ZM89.1615 14.4565C89.1615 15.5261 89.6497 16.1697 90.466 16.1697C91.278 16.1697 91.7799 15.5168 91.7799 14.4609C91.7799 13.41 91.2728 12.7478 90.466 12.7478C89.6549 12.7478 89.1615 13.3957 89.1615 14.4565H89.1615Z" fill="white"/>
<path d="M96.7116 14.4566C96.6809 14.1253 96.7176 13.7909 96.8193 13.4751C96.9211 13.1592 97.0856 12.8688 97.3024 12.6224C97.5191 12.3761 97.7834 12.1793 98.0781 12.0446C98.3728 11.9099 98.6916 11.8403 99.0139 11.8403C99.3362 11.8403 99.6549 11.9099 99.9497 12.0446C100.244 12.1793 100.509 12.3761 100.725 12.6224C100.942 12.8688 101.107 13.1592 101.208 13.4751C101.31 13.7909 101.347 14.1253 101.316 14.4566C101.347 14.7883 101.311 15.1231 101.21 15.4395C101.108 15.7559 100.944 16.0468 100.727 16.2937C100.51 16.5405 100.246 16.7377 99.9507 16.8727C99.6557 17.0077 99.3366 17.0774 99.0139 17.0774C98.6912 17.0774 98.3721 17.0077 98.0771 16.8727C97.782 16.7377 97.5176 16.5405 97.3008 16.2937C97.0839 16.0468 96.9195 15.7559 96.818 15.4395C96.7166 15.1231 96.6803 14.7883 96.7116 14.4566V14.4566ZM100.325 14.4566C100.325 13.3636 99.8498 12.7244 99.0155 12.7244C98.178 12.7244 97.7069 13.3636 97.7069 14.4566C97.7069 15.5584 98.178 16.1927 99.0155 16.1927C99.8498 16.1927 100.325 15.554 100.325 14.4566Z" fill="white"/>
<path d="M102.609 11.9375H103.536V12.7385H103.608C103.731 12.4508 103.937 12.2097 104.198 12.0486C104.459 11.8876 104.762 11.8147 105.065 11.8402C105.303 11.8217 105.541 11.8587 105.763 11.9484C105.985 12.0381 106.184 12.1782 106.347 12.3583C106.509 12.5384 106.63 12.754 106.701 12.9889C106.771 13.2239 106.79 13.4723 106.755 13.7156V16.9799H105.792V13.9655C105.792 13.1552 105.451 12.7522 104.738 12.7522C104.577 12.7445 104.416 12.7728 104.266 12.8353C104.116 12.8979 103.982 12.9931 103.871 13.1144C103.76 13.2358 103.676 13.3805 103.625 13.5385C103.573 13.6966 103.555 13.8642 103.572 14.0301V16.98H102.609V11.9375Z" fill="white"/>
<path d="M112.199 10.6821V11.9605H113.257V12.7988H112.199V15.3916C112.199 15.9198 112.41 16.1511 112.89 16.1511C113.012 16.1507 113.135 16.143 113.257 16.1282V16.9571C113.084 16.9891 112.909 17.0061 112.733 17.0079C111.661 17.0079 111.235 16.6186 111.235 15.6464V12.7987H110.46V11.9605H111.235V10.6821H112.199Z" fill="white"/>
<path d="M114.573 9.96887H115.528V12.7477H115.604C115.732 12.4573 115.944 12.2148 116.21 12.0531C116.477 11.8915 116.785 11.8186 117.093 11.8444C117.329 11.8311 117.565 11.8719 117.785 11.9638C118.004 12.0556 118.201 12.1964 118.362 12.3759C118.522 12.5555 118.642 12.7694 118.714 13.0025C118.785 13.2356 118.806 13.482 118.774 13.7243V16.98H117.81V13.9698C117.81 13.1644 117.447 12.7565 116.766 12.7565C116.6 12.7424 116.434 12.7659 116.278 12.8254C116.122 12.8848 115.98 12.9786 115.863 13.1004C115.746 13.2222 115.656 13.3689 115.6 13.5303C115.543 13.6917 115.522 13.8639 115.537 14.0349V16.98H114.573L114.573 9.96887Z" fill="white"/>
<path d="M124.392 15.6186C124.261 16.0794 123.978 16.4781 123.591 16.7448C123.204 17.0115 122.739 17.1292 122.277 17.0774C121.955 17.0862 121.635 17.0226 121.34 16.8909C121.045 16.7593 120.78 16.5629 120.566 16.3153C120.351 16.0676 120.191 15.7747 120.097 15.4569C120.003 15.1391 119.978 14.8039 120.022 14.4747C119.979 14.1445 120.005 13.8086 120.099 13.4898C120.193 13.1711 120.352 12.8768 120.565 12.627C120.778 12.3772 121.041 12.1777 121.336 12.042C121.631 11.9062 121.95 11.8375 122.272 11.8403C123.631 11.8403 124.45 12.7989 124.45 14.3823V14.7295H121.003V14.7853C120.988 14.9703 121.01 15.1566 121.069 15.3321C121.128 15.5077 121.221 15.6686 121.344 15.8046C121.466 15.9406 121.615 16.0487 121.78 16.1219C121.945 16.1952 122.123 16.2319 122.303 16.2299C122.534 16.2584 122.767 16.2156 122.974 16.1067C123.181 15.9979 123.352 15.8279 123.465 15.6186L124.392 15.6186ZM121.003 13.9935H123.469C123.481 13.8243 123.459 13.6543 123.404 13.4945C123.348 13.3347 123.261 13.1886 123.148 13.0655C123.035 12.9425 122.898 12.8453 122.746 12.7802C122.595 12.715 122.431 12.6834 122.267 12.6873C122.101 12.6851 121.935 12.7174 121.781 12.7823C121.626 12.8472 121.486 12.9433 121.368 13.0651C121.251 13.1868 121.158 13.3317 121.095 13.4912C121.032 13.6506 121.001 13.8214 121.003 13.9935H121.003Z" fill="white"/>
</g>
</svg>
