<svg xmlns="http://www.w3.org/2000/svg" width="333" height="333" version="1" viewBox="0 0 250 250">
  <g fill="#f0f1f1">
    <path d="M160.33 0L167.67 0C170.79 1.08 173.48 3.02 175.96 5.14 169.59 6.05 166.28 12.01 162.44 16.43 157.9 21.63 154.51 27.79 152.41 34.36 151.11 38.79 150.46 43.37 149.44 47.86 143.9 47.53 139.08 44.51 133.77 43.26 127.88 41.81 121.76 41.8 115.73 41.85 124.04 32.48 133.34 24.05 142.06 15.07 147.82 9.7 152.68 2.82 160.33 0zM219.97 26.15C223.7 22.83 227.24 19.31 230.48 15.5 239.78 24.72 244.99 37.92 244.26 51.02 244.06 57.44 241.78 63.49 239.91 69.56 237.5 76.55 232.07 81.87 226.66 86.65 219 92.89 208.95 94.53 199.63 96.75 199.49 97.08 199.21 97.76 199.07 98.09 199.9 102.76 202.33 106.97 203.2 111.63 204.23 117.11 204.55 122.7 205.8 128.14 204.37 129.82 203.59 131.93 203.35 134.11 201.66 148.53 194.81 162.61 183.83 172.22 180.7 174.87 177.5 177.47 174.59 180.37 171.84 178.17 169.28 175.76 166.84 173.23 164.72 170.03 160.23 167.91 159.83 163.89 166.11 159.79 168.54 152.44 170.71 145.65 172.83 139.19 175.47 132.31 173.4 125.48 163.17 133.64 156.45 145.24 146.37 153.55 129.73 171.51 113.58 189.95 97.01 207.99 92.64 212.93 88.38 217.98 83.62 222.55 75.08 216.69 67.23 209.89 58.86 203.78 70.24 187.52 81.67 171.3 93.08 155.06 94.21 153.43 95.02 151.6 95.59 149.7 104.46 142.95 111.64 134.35 119.75 126.75 122.88 123.92 125.62 120.67 127.58 116.91 128.22 117.56 128.87 118.21 129.54 118.84 131.77 120.53 134.31 124.21 137.47 122.54 141.84 119.66 144.95 115.31 148.82 111.83 151.44 109.02 154.96 106.66 156.3 102.93 156.16 99.81 153.03 97.94 151.2 95.71 150.91 95.41 150.32 94.81 150.03 94.51 155.29 92.26 158.73 87.58 162.71 83.71 167.75 78.5 173.43 73.83 177.47 67.74 177.76 68.01 178.34 68.55 178.63 68.82 183.8 73.24 188.9 77.86 194.91 81.12 199.18 83.59 204.28 82 208.68 80.73 218.77 77.69 227.24 69.47 230.13 59.28 232.92 47.46 228.21 34.77 219.49 26.58L219.97 26.15M158.38 108.36C154.09 110.05 153.69 117.12 158.01 118.99 162.38 121.63 168.28 116.32 166.32 111.67 165.31 108.4 161.39 107.07 158.38 108.36M147.37 119.38C143.21 120.87 142.44 127.46 146.38 129.67 150.2 132.59 156.43 128.78 155.38 123.99 155.39 120 150.69 118.18 147.37 119.38z"/>
  </g>
  <path fill="#fff" d="M 187.55 2.66 C 202.74 -0.65 219.81 3.96 230.48 15.50 C 227.24 19.31 223.70 22.83 219.97 26.15 C 214.34 21.72 208.42 17.21 201.24 15.74 C 188.87 12.33 174.91 18.61 168.60 29.63 C 165.71 34.68 163.66 40.33 163.29 46.17 C 163.03 49.27 165.01 51.89 166.62 54.34 C 169.94 59.04 173.33 63.73 177.47 67.74 C 173.43 73.83 167.75 78.50 162.71 83.71 C 158.73 87.58 155.29 92.26 150.03 94.51 C 145.78 90.24 141.60 85.90 137.27 81.71 C 135.76 80.44 133.76 78.53 131.65 79.65 C 127.78 81.98 125.04 85.72 121.78 88.78 C 118.71 92.03 114.96 94.76 112.68 98.67 C 111.58 100.77 113.61 102.67 114.83 104.15 C 119.02 108.46 123.42 112.56 127.58 116.91 C 125.62 120.67 122.88 123.92 119.75 126.75 C 111.64 134.35 104.46 142.95 95.59 149.70 C 77.99 161.99 60.49 174.40 42.81 186.56 C 38.34 183.18 35.40 178.34 31.95 174.03 C 28.84 170.02 25.07 166.31 23.56 161.33 C 46.58 140.56 69.88 120.08 92.63 99.03 C 88.34 95.12 85.33 89.93 80.64 86.49 C 74.65 82.02 69.76 76.26 64.62 70.88 C 68.41 66.60 72.47 62.56 76.59 58.59 C 87.25 48.71 101.33 43.10 115.73 41.85 C 121.76 41.80 127.88 41.81 133.77 43.26 C 139.08 44.51 143.90 47.53 149.44 47.86 C 150.46 43.37 151.11 38.79 152.41 34.36 C 154.51 27.79 157.90 21.63 162.44 16.43 C 166.28 12.01 169.59 6.05 175.96 5.14 C 180.01 5.63 183.68 3.45 187.55 2.66 Z"/>
  <path fill="#5b5c5e" d="M 168.60 29.63 C 174.91 18.61 188.87 12.33 201.24 15.74 C 208.42 17.21 214.34 21.72 219.97 26.15 L 219.49 26.58 C 207.24 37.61 196.17 49.87 184.22 61.21 C 181.84 63.33 179.92 65.90 178.63 68.82 C 178.34 68.55 177.76 68.01 177.47 67.74 C 173.33 63.73 169.94 59.04 166.62 54.34 C 165.01 51.89 163.03 49.27 163.29 46.17 C 163.66 40.33 165.71 34.68 168.60 29.63 Z"/>
  <g fill="#3e3e3f">
    <path d="M184.22 61.21C196.17 49.87 207.24 37.61 219.49 26.58 228.21 34.77 232.92 47.46 230.13 59.28 227.24 69.47 218.77 77.69 208.68 80.73 204.28 82 199.18 83.59 194.91 81.12 188.9 77.86 183.8 73.24 178.63 68.82 179.92 65.9 181.84 63.33 184.22 61.21zM48.8 86.83C54.01 81.45 59.59 76.44 64.62 70.88 69.76 76.26 74.65 82.02 80.64 86.49 78.05 91.37 75.02 96.28 70.38 99.48 68.84 100.57 66.73 101.37 65.04 100.09 64.18 97.88 64.05 95.48 63.73 93.15 61.26 95.61 58.91 98.36 55.76 99.96 51.53 101.65 46.38 98.44 45.92 93.94 45.42 91.21 46.97 88.69 48.8 86.83zM11.4 159.31C15.42 157.45 19.31 160.2 22.66 162.19 22.88 161.97 23.34 161.54 23.56 161.33 25.07 166.31 28.84 170.02 31.95 174.03 35.4 178.34 38.34 183.18 42.81 186.56 38 189.78 34.78 194.77 30.16 198.19 27.39 200.31 24.84 196.77 22.87 195.14 17.09 188.92 10.57 183.39 5.15 176.87.15 170.84 4.26 161.32 11.4 159.31zM151.26 170.27C153.5 168.64 155.75 166.2 158.7 166.2 161.57 168.35 164.05 170.97 166.84 173.23 169.28 175.76 171.84 178.17 174.59 180.37 173.48 183.93 170.51 186.33 167.82 188.7 164.17 191.71 161.17 195.41 157.5 198.39 153.47 201.7 146.3 199.31 145.68 193.94 144.61 188.92 149.49 185.77 152.19 182.3 149.86 181.43 145.41 182.31 145.19 178.9 145.4 175.15 148.71 172.62 151.26 170.27zM47.57 215.61C50.83 211.21 55.4 208.01 58.86 203.78 67.23 209.89 75.08 216.69 83.62 222.55 84.38 224.02 85.15 225.48 85.82 227 89.58 233.95 82.9 243.56 75.1 242.77 69.94 242.6 66.29 238.49 62.89 235.11 58.52 230.5 53.83 226.2 49.44 221.6 48.13 219.98 45.79 217.72 47.57 215.61z"/>
  </g>
  <g fill="#e2e4e5">
    <path d="M239.91 69.56C247.51 74.86 248.15 87.09 241.15 93.14 229.28 104.71 217.81 116.7 205.8 128.14 204.55 122.7 204.23 117.11 203.2 111.63 202.33 106.97 199.9 102.76 199.07 98.09 199.21 97.76 199.49 97.08 199.63 96.75 208.95 94.53 219 92.89 226.66 86.65 232.07 81.87 237.5 76.55 239.91 69.56zM146.37 153.55C156.45 145.24 163.17 133.64 173.4 125.48 175.47 132.31 172.83 139.19 170.71 145.65 168.54 152.44 166.11 159.79 159.83 163.89 154.82 161.12 151.08 156.71 146.37 153.55zM174.59 180.37C177.5 177.47 180.7 174.87 183.83 172.22 183.31 177.32 183.81 182.46 183.41 187.58 183.04 193.07 183.54 198.83 186.25 203.73 188.35 207.72 192.28 211.05 196.95 211.21 204.62 211.69 212.32 211.09 219.99 211.39 233.05 211.9 244.68 223.15 245.83 236.13 246.22 240.74 245.97 245.38 245.99 250L230.87 250C230.73 244.81 231.5 239.39 229.73 234.4 228 229.52 222.88 226.66 217.89 226.46 210.59 226.18 203.28 226.62 195.98 226.41 187.93 226.29 180.36 221.79 175.62 215.41 169.77 207.87 167.67 198.08 167.82 188.7 170.51 186.33 173.48 183.93 174.59 180.37z"/>
  </g>
  <path fill="#12b2a0" d="M 131.65 79.65 C 133.76 78.53 135.76 80.44 137.27 81.71 C 141.60 85.90 145.78 90.24 150.03 94.51 C 150.32 94.81 150.91 95.41 151.20 95.71 C 147.39 99.06 143.83 102.67 140.28 106.28 C 136.45 110.24 131.81 113.65 129.54 118.84 C 128.87 118.21 128.22 117.56 127.58 116.91 C 123.42 112.56 119.02 108.46 114.83 104.15 C 113.61 102.67 111.58 100.77 112.68 98.67 C 114.96 94.76 118.71 92.03 121.78 88.78 C 125.04 85.72 127.78 81.98 131.65 79.65 Z"/>
  <path fill="#0a9484" d="M 140.28 106.28 C 143.83 102.67 147.39 99.06 151.20 95.71 C 153.03 97.94 156.16 99.81 156.30 102.93 C 154.96 106.66 151.44 109.02 148.82 111.83 C 144.95 115.31 141.84 119.66 137.47 122.54 C 134.31 124.21 131.77 120.53 129.54 118.84 C 131.81 113.65 136.45 110.24 140.28 106.28 Z"/>
  <path fill="#f55655" d="M 158.38 108.36 C 161.39 107.07 165.31 108.40 166.32 111.67 C 168.28 116.32 162.38 121.63 158.01 118.99 C 153.69 117.12 154.09 110.05 158.38 108.36 Z"/>
  <path fill="#14af9e" d="M 147.37 119.38 C 150.69 118.18 155.39 120.00 155.38 123.99 C 156.43 128.78 150.20 132.59 146.38 129.67 C 142.44 127.46 143.21 120.87 147.37 119.38 Z"/>
</svg>
