<svg xmlns="http://www.w3.org/2000/svg" width="400" height="287" version="1" viewBox="0 0 300 215">
  <g fill="#d3d3d3">
    <path d="M137 0h61c2 2 5 5 5 8v19c0 4-2 7-4 10h7l-26 1h-42c-4-1-6-5-6-9V8c0-4 3-6 5-8m6 5l1 4 8 1 39-1 1-4h-49m0 6v4h49v-4h-49m-1 6c-5 2-7 10-3 14s12 3 14-3-5-13-11-11m19 0c-3 1-4 5-4 8s1 7 4 8h33c2-1 2-5 2-7 0-3 0-7-3-8l-15-1h-17zM142 169c13-3 26 7 26 20 1 12-10 22-22 22-8-1-16-6-18-14-5-11 2-25 14-28m-2 5l9-1 9 3c-5-4-12-5-18-2m-7 27c5 6 14 9 21 5h-13c-8-3-12-12-10-20 1-5 4-8 7-11-9 5-12 18-5 26m10-22c-4 2-7 7-7 12s6 10 11 10c6 0 12-6 11-12 0-7-8-12-15-10m18 0l3 9-1 9c3-6 2-13-2-18m-5 26c3-1 5-3 6-6l-6 6zM48 170c10-3 22 5 22 15 1 10-7 19-17 18-9 0-16-7-16-16-1-7 4-14 11-17m3 5a11 11 0 1 0 5 22 11 11 0 0 0-5-22z"/>
  </g>
  <g fill="#a0a1a3">
    <path d="M198 0h9l6 8v20c0 4-2 9-7 9h-7c2-3 4-6 4-10V8c0-3-3-6-5-8zM142 17c6-2 13 5 11 11s-10 7-14 3-2-12 3-14m0 4c-3 2-2 9 2 9 4 1 7-3 5-6 0-3-4-4-7-3zM84 89c8-2 16-1 24-1l-3 5-15 1v6l6 2-6 4h22l1 1c-3 7-4 15-3 23 0 4 3 7 5 10l-15 1c-3-3-6-6-7-10v-14c0-4 3-7 5-10H84V89zM224 97h16c4 1 6 5 7 9l-32 1c-7 0-15-2-22-1 1-2 1-4 3-5l9-1c3 1 5 4 6 6h7c1-3 2-8 6-9zM12 117c1-4 3-9 8-10h14c-3 2-5 5-6 9v16c1 4 4 6 7 8H21c-5-1-8-5-9-9v-14z"/>
  </g>
  <g fill="#9fa0a2">
    <path d="M143 5h49l-1 4-39 1-8-1-1-4zM108 64l6-3c4 1 8 5 8 10v17l-7-1-1-16c-1-3-3-5-6-7z"/>
  </g>
  <path fill="#898989" d="M73 15c1-4 6-4 9-5l1 10c0 2 2 4 3 5l15 19 4 5c-1 1-3 3-5 3l-4-5-12-20-5-6c-2-1-6-2-6-6z"/>
  <path fill="#a2a2a4" d="M143 11h49v4h-49v-4z"/>
  <path fill="#f6f6f6" d="M161 17h17l15 1c3 1 3 5 3 8 0 2 0 6-2 7h-33c-3-1-4-5-4-8s1-7 4-8m-1 3c-1 4-1 7 1 10 2 2 5 1 8 1h25c-1-4 1-9-2-11l-24-1c-3 1-6-1-8 1z"/>
  <g fill="#ededed">
    <path d="M86 25c9-5 21-8 31-4-1 6-1 11-3 16l-5 5-8 2-15-19zM70 51c0-10 7-18 14-24l12 20-6 9c-7 4-14-2-20-5z"/>
  </g>
  <path fill="#a0a1a2" d="M160 20c2-2 5 0 8-1l24 1c3 2 1 7 2 11h-25c-3 0-6 1-8-1-2-3-2-6-1-10m4 4v3h25v-3h-25z"/>
  <path fill="#4c4847" d="M142 21c3-1 7 0 7 3 2 3-1 7-5 6-4 0-5-7-2-9z"/>
  <path fill="#dadada" d="M117 21c3 3 5 7 6 11-1 9-7 17-14 23-9 6-20 10-30 8-5-2-8-7-9-12 6 3 13 9 20 5v3c9 1 17-4 22-11 2-1 3-3 2-5l-5-1 5-5c2-5 2-10 3-16z"/>
  <path fill="#48494b" d="M164 24h25v3h-25v-3z"/>
  <g fill="#dbdbdb">
    <path d="M259 28c4-4 9-4 14-4 1 6 3 12-1 17-3 4-8 6-12 7-5-5-6-15-1-20zM292 140l6-6v2c-1 3-4 4-6 4z"/>
  </g>
  <path fill="#c5c5c5" d="M273 24c5 3 9 6 10 12 1 7-5 14-12 15h-4l-7-3c4-1 9-3 12-7 4-5 2-11 1-17z"/>
  <path fill="#8a8a8b" d="M123 32c1 9-3 17-8 24 3 3 8 6 10 10l1 23-4-1V71c0-5-4-9-8-10l-6 3c-4-1-8 1-12 1-6 1-12 0-17-2 10 2 21-2 30-8 7-6 13-14 14-23z"/>
  <path fill="#b0b0b5" d="M164 38h10v59h-17l7-1V38z"/>
  <path fill="#a0a1a4" d="M174 38h6v58l7 2c2 2 2 5 2 8h-13l-2-9V38z"/>
  <path fill="#9d9d9d" d="M101 44l8-2 5 1c1 2 0 4-2 5-5 7-13 12-22 11v-3l6-9 4 5c2 0 4-2 5-3l-4-5z"/>
  <path fill="#989999" d="M267 51h4l4 55 19 1h-8c-8 0-17 1-23-5l4-51z"/>
  <path fill="#afb0b5" d="M115 87a50 50 0 0 1 11 2c1 5 2 11 1 17l3-4 10 5v-7h7v6h6v-8h1v8h39c7-1 15 1 22 1l32-1h3v-6h6v6h7v-4c6 6 15 5 23 5l-3 3h-4c-7-1-13 4-19 8l-2-2c-3-2-6-4-10-3s-7 6-7 10l-13 1v-11h-38c-1 6-1 13 1 19l-11 4-8-11c-1-4-2-9-6-11s-9 0-13 3c-1 3-3 7-1 10 1 4 6 6 9 8 3 1 5 3 6 5h-14c-3 7-9 13-8 22H21h20l46-1c0-2 1-5-1-7l-9-13c5-2 10-1 16-1 2 3 4 7 7 9h32c3-2 4-6 5-8l-22-1c-2-3-5-6-5-10-1-8 0-16 3-23l-1-1c0-6 1-13-2-18l5-1m3 32l1 9c1 2 4 2 6 2l22-1c0-4 2-9-1-12h-21c-2 0-6-1-7 2m-18 36v6h32v-6h-32z"/>
  <g fill="#d2d2d2">
    <path d="M83 88l1 1v18c-3 6-8 11-12 16l-9 1 2 2v2l-3 2-7 3c3-4 5-8 4-12 0-5-6-10-11-9-6 0-11 5-11 11 1 4 3 9 8 10h9c-6 4-12 7-19 7-3-2-6-4-7-8v-16c1-4 3-7 6-9H20l28-1h35V88zM153 117c4-3 9-5 13-3s5 7 6 11l8 11c1 2 4 5 7 5l47-1c3-5 7-11 7-17 0-4 3-9 7-10s7 1 10 3c-1 3-1 6-3 8l-8 8-7 13c-2 5-6 9-6 15v16c0 5 3 9 3 14 0 4-2 7-4 10-4 0-9-2-10-7-2-3 0-7 2-10 2-6 1-12 1-18v-7h-32v7c0 6-1 12 2 18l2 9c-1 3-4 6-7 8-2-2-6-3-7-6l1-16v-18c0-5-4-8-6-12l-12-15-10-8-4-8m31 24l9 11 5 1h28l7-12h-49zM267 169c6-1 11 0 16 3a21 21 0 0 1-4 37c-11 6-26-4-28-16-2-11 6-21 16-24m-7 8c4-2 9-5 14-4 6 0 9 4 13 8-2-3-4-6-7-7-7-3-15-2-20 3m-4 20l-1-10 4-9c-5 5-7 13-3 19m12-18c-7 2-9 12-5 17 3 5 11 7 16 3 4-4 5-11 2-15-2-4-8-6-13-5m20 4c1 4 2 10-1 14-3 7-12 11-19 9-5-1-8-4-11-7l8 8c9 3 20-1 23-10 3-4 2-10 0-14z"/>
  </g>
  <path fill="#909193" d="M108 88h2c3 5 2 12 2 18H90l6-4-6-2h16v-6H90l15-1 3-5z"/>
  <path fill="#474848" d="M90 94h16v6H90v-6z"/>
  <g fill="#484848">
    <path d="M154 98l3-1h17l2 9h-22v-8zM190 113h38v18c-13 1-25-1-37 1-2-6-2-13-1-19zM1 188h30v3H1v-3zM96 199c10-2 20-1 30-1l1 3H97l-1-2z"/>
  </g>
  <path fill="#a0a0a2" d="M50 101l12-1c2 1 3 4 4 6H48l2-5z"/>
  <path fill="#bebebe" d="M72 123c4-5 9-10 12-16h14c-2 3-5 6-5 10v14c1 4 4 7 7 10l-7-1c-6 0-11-1-16 1l-56-1h14c7 0 13-3 19-7h1l7-3c9 2 18 1 27 1v-3H65v-2h24v-3H72z"/>
  <g fill="#9e9fa4">
    <path d="M286 107h8c4 1 5 5 5 9 0 7 1 13-1 20v-2l-6 6h-43c2-5 6-7 10-10 3-3 2-8 1-12 6-4 12-9 19-8-3 2-7 3-10 6-2 7-1 14-1 21 8 1 15 2 23 0 2 0 2-2 2-4l-1-24-9 1 3-3zM228 124l13-1c0 6-4 12-7 17l-47 1c-3 0-6-3-7-5l11-4c12-2 24 0 37-1v-7z"/>
  </g>
  <path fill="#94959a" d="M283 110l9-1 1 24c0 2 0 4-2 4-8 2-15 1-23 0 0-7-1-14 1-21 3-3 7-4 10-6h4z"/>
  <path fill="#4b4847" d="M37 123c0-6 5-11 11-11 5-1 11 4 11 9 1 4-1 8-4 12H45c-5-1-7-6-8-10m9-8c-6 2-7 11-2 14 5 4 12 0 12-6 1-5-5-9-10-8z"/>
  <path fill="#e46363" d="M46 115c5-1 11 3 10 8 0 6-7 10-12 6-5-3-4-12 2-14z"/>
  <path fill="#c7c8c8" d="M258 116l2 2c1 4 2 9-1 12-4 3-8 5-10 10h41l-41 1-9 14-1 10v2c0 5-1 11 1 16 2 3 4 7 2 11s-5 5-9 6c2-3 4-6 4-10 0-5-3-9-3-14v-16c0-6 4-10 6-15l7-13 8-8c2-2 2-5 3-8z"/>
  <path fill="#4b4a4a" d="M118 119c1-3 5-2 7-2h21c3 3 1 8 1 12l-22 1c-2 0-5 0-6-2l-1-9m3 1v7h5v-7h-5m8 0v7h7v-7h-7m10 0v7h6v-7h-6z"/>
  <path fill="#c7c7c7" d="M152 127c-2-3 0-7 1-10l4 8 10 8 12 15c2 4 6 7 6 12v18l-1 16c1 3 5 4 7 6-5 0-10-1-13-5-2-4 0-9 2-12 2-5 1-11 1-16v-3-2l-1-6-13-16c-1-2-3-4-6-5-3-2-8-4-9-8z"/>
  <path fill="#afb0b4" d="M121 120h5v7h-5v-7z"/>
  <path fill="#e26363" d="M129 120h7v7h-7v-7z"/>
  <path fill="#adaeb3" d="M139 120h6v7h-6v-7z"/>
  <path fill="#494949" d="M63 124l9-1h17v3H65l-2-2z"/>
  <path fill="#454545" d="M62 130l3-2h24v3c-9 0-18 1-27-1z"/>
  <path fill="#4c4c4d" d="M145 162h36v2H65c-7 0-15 0-22 2H25l-11-2 7-2h124z"/>
  <g fill="#606062">
    <path d="M7 169l7-5 11 2h18l-5 4c-10-2-21-1-31-1zM97 179l3-5c10 2 20 1 30 1l-3 4H97zM133 201c-7-8-4-21 5-26-3 3-6 6-7 11-2 8 2 17 10 20h13c-7 4-16 1-21-5zM0 181l2-3h30l-1 4H12l-12-1zM288 183c2 4 3 10 0 14-3 9-14 13-23 10l-8-8c3 3 6 6 11 7 7 2 16-2 19-9 3-4 2-10 1-14z"/>
  </g>
  <path fill="#999a9e" d="M43 166c7-2 15-2 22-2h116v1h-57c-6 0-12 0-17 3l-5 4-2 2a38 38 0 0 0-4 7 47 47 0 0 0-2 7v4a55 55 0 0 0 2 7l1 2 3 4 3 4H57l-14-2a53 53 0 0 1-7-6l-2-4-2-3-1-3v-3-3-3l1-4 2-2a37 37 0 0 1 4-6l5-4m4 0c-5 2-10 6-12 11-4 8-3 19 4 25 8 8 23 7 30-2 8-8 7-22-2-29-5-5-13-6-20-5z"/>
  <path fill="#4a4a4a" d="M107 168c5-3 11-3 17-3h57v2h-30l-14 2c-10 0-20 1-30-1z"/>
  <path fill="#9a9ba0" d="M194 165h32c0 6 1 12-1 18-2 3-4 7-2 10 1 5 6 7 10 7 4-1 7-2 9-6s0-8-2-11c-2-5-1-11-1-16h27c5 0 11 0 16 3 7 4 13 12 12 20 1 11-8 21-19 22h-83c4-5 10-9 14-15 7-8 13-18 14-29h-23l-1 15c-3-6-2-12-2-18m73 4c-10 3-18 13-16 24 2 12 17 22 28 16 8-2 13-10 14-18 0-8-3-15-10-19-5-3-10-4-16-3z"/>
  <g fill="#4d4d4e">
    <path d="M239 165a1214 1214 0 0 0 42 2c10 4 17 14 16 25-1 12-12 23-24 23l-131-1-27 1h-1l-7-3-14-1-70 1-11-4c11-2 21-1 31-1l14 2h46l-3-4 12-1h17c3 3 6 6 10 7l15 1h121c11-1 20-11 19-22 1-8-5-16-12-20-5-3-11-3-16-3h-27v-2zM140 174c6-3 13-2 18 2l-9-3-9 1z"/>
    <path d="M161 179c4 5 5 12 2 18l1-9-3-9zM156 205l6-6c-1 3-3 5-6 6z"/>
  </g>
  <path fill="#cfcfcf" d="M47 166c7-1 15 0 20 5 9 7 10 21 2 29-7 9-22 10-30 2-7-6-8-17-4-25 2-5 7-9 12-11m4 2c-9 1-16 10-16 19 1 9 8 17 17 17 9 2 19-6 19-16 2-11-9-21-20-20z"/>
  <path fill="#abacb1" d="M137 169l14-2h30c0 5 1 11-1 16-2 3-4 8-2 12 3 4 8 5 13 5 3-2 6-5 7-8l-2-9 1-15h23c-1 11-7 21-14 29-4 6-10 10-14 15h-38l-15-1a23 23 0 0 1-12-10l-1-3-1-3a313 313 0 0 0 0-8v-2l1-3 1-3a40 40 0 0 1 5-6l5-4m5 0c-12 3-19 17-14 28 2 8 10 13 18 14 12 0 23-10 22-22 0-13-13-23-26-20z"/>
  <g fill="#646465">
    <path d="M51 168c11-1 22 9 20 20 0 10-10 18-19 16-9 0-16-8-17-17 0-9 7-18 16-19m-3 2c-7 3-12 10-11 17 0 9 7 16 16 16 10 1 18-8 17-18 0-10-12-18-22-15zM256 197c-4-6-2-14 3-19l-4 9 1 10zM0 183c2 2 5 2 8 2h23v3H1v3h30l1 3H11c-3 0-6 0-10 2l-1-4v-9z"/>
  </g>
  <path fill="#646467" d="M102 172l5-4c10 2 20 1 30 1l-5 4c-10-2-20-1-30-1z"/>
  <g fill="#49494b">
    <path d="M5 171l2-2c10 0 21-1 31 1l-2 2c-10 0-21 1-31-1zM2 178l1-3c10 0 20-1 31 1l-2 2H2zM96 181l1-2h30l-1 3c-10 0-20 1-30-1z"/>
  </g>
  <g fill="#646466">
    <path d="M3 175l2-4c10 2 21 1 31 1l-2 4c-11-2-21-1-31-1zM95 195h30l1 3c-10 0-20-1-30 1l-1-4zM34 197l2 4H5l-2-3c10 0 20 1 31-1zM97 201h30l2 3h-17l-12 1-3-4zM7 204c10 0 21 1 32-1l4 4c-10 0-20-1-31 1l-5-4z"/>
  </g>
  <path fill="#49494a" d="M100 174l2-2c10 0 20-1 30 1l-2 2c-10 0-20 1-30-1z"/>
  <g fill="#484847">
    <path d="M260 177c5-5 13-6 20-3 3 1 5 4 7 7-4-4-7-8-13-8-5-1-10 2-14 4zM51 175c7-1 14 4 14 11s-6 12-13 12c-5-1-10-6-10-12 0-5 4-10 9-11m0 7c-3 1-3 6-1 8 2 3 7 1 8-2 1-4-3-8-7-6zM143 179c7-2 15 3 15 10 1 6-5 12-11 12-5 0-11-5-11-10s3-10 7-12m2 6c-3 1-4 6-1 8 2 3 8 2 8-2 1-4-3-7-7-6z"/>
    <path d="M268 179c5-1 11 1 13 5 3 4 2 11-2 15-5 4-13 2-16-3-4-5-2-15 5-17m2 6c-4 1-4 9 0 10s8-2 7-6c0-3-4-5-7-4zM94 188l1-3h30v2c-10 2-21 1-31 1z"/>
  </g>
  <path fill="#494948" d="M0 180v1l12 1h19v3H8c-3 0-6 0-8-2v-3z"/>
  <path fill="#646367" d="M95 185l1-4c10 2 20 1 30 1l-1 3H95z"/>
  <path fill="#fa930e" d="M51 182c4-2 8 2 7 6-1 3-6 5-8 2-2-2-2-7 1-8z"/>
  <path fill="#fa920e" d="M145 185c4-1 8 2 7 6 0 4-6 5-8 2-3-2-2-7 1-8z"/>
  <path fill="#fa920f" d="M270 185c3-1 7 1 7 4 1 4-3 7-7 6s-4-9 0-10z"/>
  <path fill="#626164" d="M94 188c10 0 21 1 31-1v5H94v-4z"/>
  <g fill="#4c4c4e">
    <path d="M94 192h31v3H95l-1-3zM1 196c4-2 7-2 10-2h21l2 3c-11 2-21 1-31 1l-2-2z"/>
  </g>
  <path fill="#474749" d="M5 201h31l3 2c-11 2-22 1-32 1l-2-3z"/>
</svg>
