<?xml version="1.0" encoding="UTF-8" ?>
<!DOCTYPE svg PUBLIC "-//W3C//DTD SVG 1.1//EN" "http://www.w3.org/Graphics/SVG/1.1/DTD/svg11.dtd">
<svg width="250pt" height="250pt" viewBox="0 0 250 250" version="1.1" xmlns="http://www.w3.org/2000/svg">
<g id="#8ac3b7ff">
<path fill="#8ac3b7" opacity="1.00" d=" M 112.71 0.00 L 117.66 0.00 C 116.00 1.40 114.33 2.79 112.60 4.10 C 102.64 10.73 93.66 19.00 86.95 28.97 C 83.38 34.10 82.18 40.78 77.18 44.90 C 75.00 42.12 73.58 38.41 70.50 36.52 C 65.42 35.43 60.84 39.15 57.72 42.74 C 54.47 46.20 54.07 51.63 56.35 55.71 C 60.16 62.73 67.05 67.24 73.71 71.26 C 76.72 72.87 79.13 75.44 79.41 78.98 C 65.80 79.11 53.43 71.20 44.30 61.65 C 39.19 55.83 33.67 50.13 30.36 43.02 C 46.99 23.68 69.72 9.65 94.48 3.50 C 100.49 2.00 106.63 1.14 112.71 0.00 Z" />
<path fill="#8ac3b7" opacity="1.00" d=" M 171.36 23.06 C 175.04 19.44 179.55 16.84 184.13 14.54 C 212.49 29.65 234.56 56.06 244.25 86.70 C 239.67 92.55 233.03 96.34 225.86 98.03 C 219.95 98.99 213.98 99.79 207.99 99.97 C 200.34 100.29 193.93 95.31 188.38 90.65 C 177.35 80.80 168.24 68.92 160.74 56.21 C 157.56 50.90 156.24 43.95 159.39 38.32 C 162.59 32.68 167.13 27.93 171.36 23.06 Z" />
<path fill="#8ac3b7" opacity="1.00" d=" M 79.81 85.91 C 82.63 79.74 88.95 75.04 95.90 75.36 C 103.70 75.82 110.80 79.64 117.30 83.69 C 125.37 88.79 132.69 94.94 140.24 100.76 C 146.23 105.34 151.09 112.10 150.98 119.93 C 152.54 134.68 144.69 148.48 134.76 158.74 C 131.21 162.61 126.89 165.61 122.76 168.80 C 117.03 173.30 113.31 180.66 114.06 188.03 C 114.54 194.58 120.17 199.44 120.29 206.10 C 111.99 203.37 103.34 198.17 100.59 189.36 C 95.62 173.38 104.07 156.39 98.47 140.52 C 94.41 129.52 84.55 122.16 79.17 111.94 C 75.33 103.79 76.11 93.96 79.81 85.91 Z" />
</g>
<g id="#2384adff">
<path fill="#2384ad" opacity="1.00" d=" M 117.66 0.00 L 137.36 0.00 C 147.63 1.82 158.00 3.55 167.81 7.24 C 173.38 9.37 178.84 11.79 184.13 14.54 C 179.55 16.84 175.04 19.44 171.36 23.06 C 160.07 16.20 147.69 11.15 134.82 8.18 C 127.44 6.67 119.84 6.31 112.60 4.10 C 114.33 2.79 116.00 1.40 117.66 0.00 Z" />
<path fill="#2384ad" opacity="1.00" d=" M 225.86 98.03 C 233.03 96.34 239.67 92.55 244.25 86.70 C 247.06 95.14 248.34 103.95 250.00 112.65 L 250.00 137.35 C 248.71 144.47 247.56 151.63 245.66 158.62 C 235.37 196.52 205.99 228.50 169.21 242.21 C 159.02 246.33 148.10 247.99 137.35 250.00 L 112.65 250.00 C 103.66 248.30 94.55 246.99 85.91 243.86 C 89.50 243.77 93.11 243.69 96.69 244.19 C 108.34 245.86 120.19 244.67 131.72 242.66 C 143.38 240.00 155.03 236.54 165.40 230.46 C 183.13 221.50 198.03 207.45 208.95 190.96 C 214.15 181.87 219.70 172.79 222.58 162.64 C 224.03 157.65 225.37 152.64 226.50 147.57 C 228.58 138.53 227.95 129.20 228.10 120.00 C 228.23 112.61 227.04 105.30 225.86 98.03 Z" />
</g>
<g id="#2893c0ff">
<path fill="#2893c0" opacity="1.00" d=" M 86.95 28.97 C 93.66 19.00 102.64 10.73 112.60 4.10 C 119.84 6.31 127.44 6.67 134.82 8.18 C 147.69 11.15 160.07 16.20 171.36 23.06 C 167.13 27.93 162.59 32.68 159.39 38.32 C 156.24 43.95 157.56 50.90 160.74 56.21 C 168.24 68.92 177.35 80.80 188.38 90.65 C 193.93 95.31 200.34 100.29 207.99 99.97 C 213.98 99.79 219.95 98.99 225.86 98.03 C 227.04 105.30 228.23 112.61 228.10 120.00 C 227.95 129.20 228.58 138.53 226.50 147.57 C 225.37 152.64 224.03 157.65 222.58 162.64 C 219.70 172.79 214.15 181.87 208.95 190.96 C 198.03 207.45 183.13 221.50 165.40 230.46 C 155.03 236.54 143.38 240.00 131.72 242.66 C 120.19 244.67 108.34 245.86 96.69 244.19 C 93.11 243.69 89.50 243.77 85.91 243.86 C 57.58 234.72 32.92 214.86 17.66 189.33 C 7.80 173.29 2.34 154.89 0.00 136.29 L 0.00 113.72 C 1.81 100.54 4.68 87.39 10.16 75.21 C 15.15 63.51 22.19 52.74 30.36 43.02 C 33.67 50.13 39.19 55.83 44.30 61.65 C 53.43 71.20 65.80 79.11 79.41 78.98 C 79.13 75.44 76.72 72.87 73.71 71.26 C 67.05 67.24 60.16 62.73 56.35 55.71 C 54.07 51.63 54.47 46.20 57.72 42.74 C 60.84 39.15 65.42 35.43 70.50 36.52 C 73.58 38.41 75.00 42.12 77.18 44.90 C 82.18 40.78 83.38 34.10 86.95 28.97 M 79.81 85.91 C 76.11 93.96 75.33 103.79 79.17 111.94 C 84.55 122.16 94.41 129.52 98.47 140.52 C 104.07 156.39 95.62 173.38 100.59 189.36 C 103.34 198.17 111.99 203.37 120.29 206.10 C 120.17 199.44 114.54 194.58 114.06 188.03 C 113.31 180.66 117.03 173.30 122.76 168.80 C 126.89 165.61 131.21 162.61 134.76 158.74 C 144.69 148.48 152.54 134.68 150.98 119.93 C 151.09 112.10 146.23 105.34 140.24 100.76 C 132.69 94.94 125.37 88.79 117.30 83.69 C 110.80 79.64 103.70 75.82 95.90 75.36 C 88.95 75.04 82.63 79.74 79.81 85.91 Z" />
</g>

</svg>
