<svg xmlns="http://www.w3.org/2000/svg" width="333" height="333" version="1" viewBox="0 0 250 250">
  <g fill="#8ac3b7">
    <path d="M113 0h5l-5 4c-10 7-19 15-26 25-4 5-5 12-10 16-2-3-3-7-6-8-6-2-10 2-13 6-4 3-4 9-2 13 4 7 11 11 18 15 3 2 5 4 5 8-13 0-26-8-35-17L30 43C47 24 70 10 94 4l19-4zM171 23c4-4 9-6 13-8 28 15 51 41 60 72-4 6-11 9-18 11l-18 2c-8 0-14-5-20-9-11-10-20-22-27-35-3-5-5-12-2-18l12-15zM80 86c3-6 9-11 16-11 8 1 15 5 21 9l23 17c6 4 11 11 11 19 2 15-6 28-16 39l-12 10c-6 4-10 12-9 19s6 11 6 18c-8-3-17-8-19-17-5-16 3-33-3-48-4-11-13-19-19-29-4-8-3-18 1-26z"/>
  </g>
  <g fill="#2384ad">
    <path d="M118 0h19l31 7 16 8c-4 2-9 4-13 8-11-7-23-12-36-15l-22-4 5-4zM226 98c7-2 14-5 18-11 3 8 4 17 6 26v24l-4 22c-11 38-40 70-77 83-10 4-21 6-32 8h-24l-27-6h11a112 112 0 0 0 68-14c18-8 33-23 44-39 5-9 11-18 14-28l4-15c2-9 1-19 1-28l-2-22z"/>
  </g>
  <path fill="#2893c0" d="M87 29c7-10 16-18 26-25l22 4c13 3 25 8 36 15l-12 15c-3 6-1 13 2 18 7 13 16 25 27 35 6 4 12 9 20 9l18-2 2 22c0 9 1 19-1 28l-4 15c-3 10-9 19-14 28-11 16-26 31-44 39a118 118 0 0 1-68 14H86A125 125 0 0 1 0 136v-22a129 129 0 0 1 30-71l14 19c9 9 22 17 35 17 0-4-2-6-5-8-7-4-14-8-18-15-2-4-2-10 2-13 3-4 7-8 13-6 3 1 4 5 6 8 5-4 6-11 10-16m-7 57c-4 8-5 18-1 26 6 10 15 18 19 29 6 15-2 32 3 48 2 9 11 14 19 17 0-7-5-11-6-18s3-15 9-19l12-10c10-11 18-24 16-39 0-8-5-15-11-19l-23-17c-6-4-13-8-21-9-7 0-13 5-16 11z"/>
</svg>
