<?xml version="1.0" encoding="utf-8"?>
<!-- Generator: Adobe Illustrator 22.1.0, SVG Export Plug-In . SVG Version: 6.00 Build 0)  -->
<svg version="1.1" id="layer_1" xmlns="http://www.w3.org/2000/svg" xmlns:xlink="http://www.w3.org/1999/xlink" x="0px" y="0px"
	 viewBox="0 0 124.9 204.4" style="enable-background:new 0 0 124.9 204.4;" xml:space="preserve">
<style type="text/css">
	.st0{fill:#FF8039;}
	.st1{fill:#FF6E3B;}
	.st2{fill:#FFCD02;}
	.st3{fill:#FFBC00;}
	.st4{fill:#364760;}
	.st5{fill:#576784;}
	.st6{fill:#E9EDF2;}
	.st7{fill:#F5F7FA;}
	.st8{fill:#5C5CFF;}
	.st9{fill:#7B7BFF;}
	.st10{fill:#CFD8E2;}
	.st11{fill:#C0C6D9;}
	.st12{opacity:0.9;}
	.st13{fill:#9FA9C1;}
	.st14{fill:#2CB4FF;}
	.st15{fill:#8AD5FF;}
	.st16{fill:#CC6B00;}
	.st17{fill:none;stroke:#364760;stroke-width:3;stroke-miterlimit:10;}
</style>
<path class="st0" d="M62.4,204.4l0.1-54.4L41.4,150c-4.7,12.4-0.4,27,2.4,30.7"/>
<path class="st1" d="M62.4,204.4l0.1-54.4l21.2,0.1c4.6,12.4,0.2,27-2.6,30.7"/>
<path class="st2" d="M62.5,184.6l0.1-34.5l-13.5,0c-3,7.9-0.2,17.1,1.5,19.5l1.7-2.4C52.3,171.9,58.2,180.3,62.5,184.6"/>
<path class="st3" d="M62.5,184.6l0.1-34.5l13.5,0c3,7.9,0.1,17.1-1.6,19.5l-1.7-2.4C72.8,172,66.9,180.3,62.5,184.6"/>
<g>
	<polygon class="st4" points="79.7,133.8 45.4,133.7 44.4,137.4 80.7,137.5 	"/>
	<polygon class="st5" points="44.4,137.4 41.6,147.2 83.1,147.3 80.7,137.5 	"/>
</g>
<path class="st4" d="M39.1,150.3c-0.8,0-1.5-0.7-1.5-1.5l0,0c0-0.8,0.7-1.5,1.5-1.5l46.5,0.1c0.8,0,1.5,0.7,1.5,1.5l0,0
	c0,0.8-0.7,1.5-1.5,1.5"/>
<g>
	<g>
		<path class="st6" d="M83.4,19.9l-20.8-0.1l0,17l-0.2,97l25.1,0.1c4,0,7.2-3.2,7.2-7.2l0.2-69.3C94.9,44,90.9,31,83.4,19.9
			L83.4,19.9z"/>
		<path class="st7" d="M41.9,19.8L41.9,19.8c-7.5,11.1-11.6,24.1-11.6,37.5l-0.2,69.3c0,4,3.2,7.2,7.2,7.2l25.1,0.1l0.2-97l0-17
			L41.9,19.8z"/>
		<path class="st4" d="M83.4,19.9L74.2,6.1C71.4,2,67.1,0,62.7,0l-0.1,19.8L83.4,19.9z"/>
		<path class="st5" d="M62.7,0C58.4,0,54,2,51.2,6.1l-9.3,13.7l20.7,0.1L62.7,0z"/>
	</g>
	<g>
		<circle class="st4" cx="62.5" cy="68.6" r="19.9"/>
		<g>
			<g>
				<path class="st8" d="M78.5,68.6c0-4.2-1.6-8-4.3-10.9c0,0.3,0,0.6,0,0.9c0,10.2-4.3,19.4-11.2,25.9
					C71.6,84.2,78.4,77.2,78.5,68.6z"/>
				<path class="st8" d="M74.2,58.7c0-0.3,0-0.6,0-0.9c-2.2-2.4-5.1-4.1-8.5-4.8c0,0.4,0.1,0.9,0.1,1.3c0,9.7-7.9,17.6-17.7,17.6
					c-0.4,0-0.9,0-1.3-0.1c1.5,7.3,7.9,12.8,15.6,12.8c0.2,0,0.4,0,0.6,0C69.9,78,74.2,68.9,74.2,58.7z"/>
			</g>
			<path class="st9" d="M65.8,54.2c0-0.4,0-0.9-0.1-1.3c-1-0.2-2.1-0.3-3.2-0.3c-8.8,0-16,7.1-16,15.9c0,1.1,0.1,2.2,0.3,3.2
				c0.4,0,0.9,0.1,1.3,0.1C57.9,71.9,65.8,64,65.8,54.2z"/>
		</g>
	</g>
</g>
<polygon class="st10" points="94.7,90.9 94.7,122.6 101.1,122.6 101.2,94.3 "/>
<path class="st7" d="M124.9,112.6c0-3.6-2-6.8-5.1-8.5l-18.6-9.8l-0.1,28.3l18.4,0c2.9,0,5.3-2.4,5.3-5.3"/>
<g>
	<polygon class="st10" points="30.2,90.7 30.2,122.4 23.7,122.4 23.8,94.1 	"/>
	<path class="st7" d="M0,112.3c0-3.6,2-6.8,5.1-8.5l18.6-9.7l-0.1,28.3l-18.4,0C2.4,122.3,0,120,0,117L0,112.3z"/>
</g>
<path class="st11" d="M58.3,86.2c4.8,0.5,12.2-1.3,13.9-2.8c0.4-0.3,0.8-0.7,1.2-1.2v-1.8c0-4.1-3.3-7.4-7.4-7.4h-7.5
	c-4.1,0-7.4,3.3-7.4,7.4v1.5C52.8,83.7,55.4,85.9,58.3,86.2z"/>
<g class="st12">
	<path class="st5" d="M72.5,65.6c0,1.8-0.9,3.2-2,3.2c-1.1,0-2-1.4-2-3.2s0.9-3.2,2-3.2C71.6,62.3,72.5,63.8,72.5,65.6z"/>
	<path class="st11" d="M71.4,65.9c0-4.8-3.9-8.8-8.8-8.8c-4.8,0-8.8,3.9-8.8,8.8c0,3.1,1.6,5.8,4,7.4c1.9,0,6.6,0.3,9,0.3
		C69.6,72,71.4,69.2,71.4,65.9z"/>
	<path class="st4" d="M68.6,74.2H56.3c-0.6,0-1-0.4-1-1v0c0-0.6,0.4-1,1-1h12.3c0.6,0,1,0.4,1,1v0C69.6,73.7,69.1,74.2,68.6,74.2z"
		/>
	<path class="st13" d="M62.8,71.1c-2.7,0-4.9-2.2-4.9-4.9v-1.4c0-2.7,2.2-4.9,4.9-4.9h4.1c2.7,0,4.9,2.2,4.9,4.9v1.4
		c0,2.7-2.2,4.9-4.9,4.9H62.8z"/>
	<path class="st14" d="M66.9,70.2h-4.1c-2.2,0-4-1.8-4-4v-1.4c0-2.2,1.8-4,4-4h4.1c2.2,0,4,1.8,4,4v1.4
		C70.9,68.5,69.1,70.2,66.9,70.2z"/>
	<path class="st15" d="M62.8,60.9c-2.2,0-4,1.8-4,4v1.4c0,0.4,0.1,0.7,0.1,1c0.9,0.6,2,0.9,3.1,0.9c3.3,0,6-2.7,6-6
		c0-0.4,0-0.8-0.1-1.1c-0.3-0.1-0.7-0.1-1-0.1H62.8z"/>
	<path class="st16" d="M58.1,65.6"/>
	<path class="st16" d="M56.1,62.3"/>
	<ellipse class="st11" cx="55.6" cy="65.4" rx="2" ry="3.2"/>
	<path class="st5" d="M57.1,65.6c0,1.8-0.9,3.2-2,3.2c-1.1,0-2-1.4-2-3.2s0.9-3.2,2-3.2C56.2,62.3,57.1,63.8,57.1,65.6z"/>
</g>
<circle class="st17" cx="63" cy="68.4" r="17.2"/>
<path class="st13" d="M68.6,74.2H56.3c-0.6,0-1-0.4-1-1v0c0-0.6,0.4-1,1-1h12.3c0.6,0,1,0.4,1,1v0C69.6,73.7,69.1,74.2,68.6,74.2z"
	/>
</svg>
