<svg width="1034" height="49" viewBox="0 0 1034 49" fill="none" xmlns="http://www.w3.org/2000/svg">
<path d="M118.234 18.0943C119.798 18.0943 121.066 16.8484 121.066 15.3115C121.066 13.7746 119.798 12.5287 118.234 12.5287C116.67 12.5287 115.402 13.7746 115.402 15.3115C115.402 16.8484 116.67 18.0943 118.234 18.0943Z" fill="#fff"/>
<path d="M77.7869 27.1779C79.1761 27.1779 79.9775 26.154 79.9241 25.1564C79.8974 24.6313 79.8439 24.2901 79.7905 24.0275C78.9356 20.4046 75.9435 17.7268 72.3903 17.7268C68.1693 17.7268 64.7498 21.481 64.7498 26.1015C64.7498 30.722 68.1693 34.4762 72.3903 34.4762C75.0352 34.4762 76.932 33.5311 78.2944 32.0347C78.9623 31.2996 78.8288 30.1707 78.0273 29.6194C77.3594 29.1731 76.5312 29.3306 75.9168 29.8294C75.329 30.3282 74.207 31.3259 72.3903 31.3259C70.2531 31.3259 68.4365 29.5144 68.0357 27.1254H77.7869V27.1779ZM72.3636 20.9034C74.2871 20.9034 75.9435 22.3736 76.5579 24.3951H68.1693C68.7838 22.3473 70.4401 20.9034 72.3636 20.9034Z" fill="#fff"/>
<path d="M64.91 19.3807C64.91 18.5931 64.3223 17.963 63.5743 17.8318C61.25 17.4905 59.0594 18.3306 57.8037 19.8795V19.6695C57.8037 18.6981 57.0023 18.0943 56.2008 18.0943C55.3192 18.0943 54.5979 18.8031 54.5979 19.6695V32.5335C54.5979 33.3736 55.2391 34.1086 56.094 34.1611C57.029 34.2136 57.8037 33.5048 57.8037 32.586V25.944C57.8037 23.0036 60.0478 20.5883 63.1468 20.9296C63.2537 20.9296 63.3605 20.9296 63.4674 20.9296C64.2689 20.8771 64.91 20.1946 64.91 19.3807Z" fill="#fff"/>
<path d="M119.837 21.0609C119.837 20.1945 119.116 19.4857 118.234 19.4857C117.352 19.4857 116.631 20.1945 116.631 21.0609C116.631 21.1134 116.631 32.0871 116.631 32.586C116.631 33.4523 117.352 34.1611 118.234 34.1611C119.116 34.1611 119.837 33.4523 119.837 32.586C119.837 32.1134 119.837 21.1397 119.837 21.0609Z" fill="#fff"/>
<path d="M96.0067 12.345C96.0067 11.4786 95.2853 10.7698 94.4037 10.7698C93.5221 10.7698 92.8008 11.4786 92.8008 12.345V19.3545C91.7055 18.2781 90.343 17.7531 88.7134 17.7531C84.4923 17.7531 81.0728 21.5072 81.0728 26.1278C81.0728 30.7483 84.4923 34.5025 88.7134 34.5025C90.343 34.5025 91.7322 33.9512 92.8275 32.8748C92.9611 33.6099 93.629 34.1612 94.4037 34.1612C95.2853 34.1612 96.0067 33.4524 96.0067 32.586V12.345ZM88.7401 31.3784C86.2823 31.3784 84.3053 29.0419 84.3053 26.1278C84.3053 23.2399 86.2823 20.8772 88.7401 20.8772C91.1979 20.8772 93.1748 23.2137 93.1748 26.1278C93.1748 29.0419 91.1712 31.3784 88.7401 31.3784Z" fill="#fff"/>
<path d="M112.731 12.345C112.731 11.4786 112.009 10.7698 111.128 10.7698C110.246 10.7698 109.525 11.4786 109.525 12.345V19.3545C108.429 18.2781 107.067 17.7531 105.437 17.7531C101.216 17.7531 97.7966 21.5072 97.7966 26.1278C97.7966 30.7483 101.216 34.5025 105.437 34.5025C107.067 34.5025 108.456 33.9512 109.551 32.8748C109.685 33.6099 110.353 34.1612 111.128 34.1612C112.009 34.1612 112.731 33.4524 112.731 32.586V12.345ZM105.437 31.3784C102.979 31.3784 101.002 29.0419 101.002 26.1278C101.002 23.2399 102.979 20.8772 105.437 20.8772C107.895 20.8772 109.872 23.2137 109.872 26.1278C109.872 29.0419 107.895 31.3784 105.437 31.3784Z" fill="#fff"/>
<path d="M127.958 32.6122V20.9034H129.374C130.122 20.9034 130.79 20.3521 130.844 19.5908C130.897 18.7769 130.229 18.0943 129.428 18.0943H127.958V15.8891C127.958 15.049 127.317 14.3139 126.462 14.2614C125.527 14.2089 124.752 14.9177 124.752 15.8366V18.1206H123.417C122.669 18.1206 122.001 18.6719 121.947 19.4332C121.894 20.2471 122.562 20.9297 123.363 20.9297H124.726V32.6385C124.726 33.5048 125.447 34.2137 126.329 34.2137C127.264 34.1612 127.958 33.4786 127.958 32.6122Z" fill="#fff"/>
<path d="M23.2342 44.1635C35.5984 44.1635 45.6217 34.3138 45.6217 22.1635C45.6217 10.0132 35.5984 0.163513 23.2342 0.163513C10.8699 0.163513 0.84668 10.0132 0.84668 22.1635C0.84668 34.3138 10.8699 44.1635 23.2342 44.1635Z" fill="#fff"/>
<path d="M38.1681 22.1635C38.1681 20.3783 36.6988 18.9607 34.9088 18.9607C34.0272 18.9607 33.2258 19.302 32.638 19.8533C30.3939 18.2781 27.3217 17.2542 23.9021 17.123L25.3982 10.2447L30.2604 11.2685C30.3138 12.4762 31.329 13.4475 32.5846 13.4475C33.8669 13.4475 34.9088 12.4237 34.9088 11.1635C34.9088 9.90338 33.8669 8.87952 32.5846 8.87952C31.6763 8.87952 30.8748 9.40458 30.5008 10.1659L25.0776 9.03704C24.9173 9.01078 24.757 9.03703 24.6501 9.11579C24.5166 9.19455 24.4364 9.32582 24.4097 9.48334L22.7533 17.1492C19.2803 17.2542 16.1547 18.2781 13.8838 19.8795C13.2961 19.3282 12.4946 18.9869 11.613 18.9869C9.79639 18.9869 8.35376 20.4308 8.35376 22.1898C8.35376 23.5024 9.15522 24.6051 10.2773 25.1039C10.2238 25.4189 10.1971 25.7339 10.1971 26.0752C10.1971 31.0108 16.0478 35.0275 23.2609 35.0275C30.4741 35.0275 36.3248 31.037 36.3248 26.0752C36.3248 25.7602 36.298 25.4189 36.2446 25.1039C37.3667 24.6051 38.1681 23.4762 38.1681 22.1635ZM15.7806 24.4475C15.7806 23.1874 16.8225 22.1635 18.1049 22.1635C19.3872 22.1635 20.4291 23.1874 20.4291 24.4475C20.4291 25.7077 19.3872 26.7315 18.1049 26.7315C16.8225 26.7578 15.7806 25.7077 15.7806 24.4475ZM28.791 30.512C27.1881 32.0872 24.1425 32.1922 23.2609 32.1922C22.3526 32.1922 19.3071 32.0609 17.7309 30.512C17.4904 30.2757 17.4904 29.9082 17.7309 29.6719C17.9713 29.4356 18.3453 29.4356 18.5857 29.6719C19.6009 30.6695 21.7382 31.0108 23.2609 31.0108C24.7837 31.0108 26.9477 30.6695 27.9361 29.6719C28.1766 29.4356 28.5506 29.4356 28.791 29.6719C29.0047 29.9082 29.0047 30.2757 28.791 30.512ZM28.3636 26.7578C27.0812 26.7578 26.0393 25.7339 26.0393 24.4738C26.0393 23.2136 27.0812 22.1898 28.3636 22.1898C29.6459 22.1898 30.6878 23.2136 30.6878 24.4738C30.6878 25.7077 29.6459 26.7578 28.3636 26.7578Z" fill="white"/>
<path d="M259.239 17.9843C258.437 14.0327 255.729 11.2091 250.819 11.1647L250.703 11.1635L250.606 11.1647C245.005 11.1959 240.855 13.9187 238.647 17.9843C237.472 20.1479 236.847 22.6907 236.847 25.4087C236.847 30.6311 239.841 33.9191 243.665 34.8395C244.408 35.0175 245.17 35.1073 245.934 35.1071C246.851 35.1071 247.678 35.0183 248.425 34.8395C250.044 34.4603 251.289 33.6719 252.258 32.5307V34.6031C252.258 34.6331 252.265 34.6667 252.277 34.6919C252.313 34.7723 252.396 34.8323 252.493 34.8395H255.802C255.842 34.8345 255.88 34.8227 255.916 34.8047C255.944 34.7884 255.968 34.7666 255.988 34.7406C256.007 34.7146 256.021 34.685 256.029 34.6535L258.313 23.3411C258.323 23.3047 258.323 23.2666 258.315 23.2299C258.308 23.1931 258.291 23.1586 258.268 23.1292C258.245 23.0997 258.215 23.076 258.181 23.0599C258.147 23.0438 258.11 23.0357 258.072 23.0363H249.733C249.677 23.036 249.623 23.0548 249.579 23.0897C249.534 23.1246 249.504 23.1735 249.491 23.2283H249.49L248.863 26.2943C248.861 26.3099 248.857 26.3219 248.857 26.3411C248.858 26.3726 248.864 26.4038 248.878 26.4323C248.915 26.5163 249.003 26.5799 249.103 26.5799H253.296C252.397 28.9871 250.29 31.0967 246.972 31.0967C243.622 31.0967 241.513 28.7555 241.513 24.7715C241.513 22.1675 242.371 19.7435 243.867 17.9819C245.328 16.2611 247.399 15.1739 249.875 15.1739C252.204 15.1739 253.555 16.2011 254.464 17.9819C254.697 18.4481 254.897 18.9305 255.06 19.4255C255.085 19.4805 255.129 19.5245 255.184 19.5497C255.239 19.5748 255.301 19.5793 255.359 19.5623H255.36L259.121 18.6095C259.146 18.6032 259.17 18.5935 259.192 18.5807C259.233 18.5568 259.267 18.5208 259.288 18.4776C259.308 18.4343 259.316 18.3857 259.308 18.3383L259.239 17.9843ZM268.446 11.4059C268.446 11.2739 268.336 11.1659 268.198 11.1647L268.194 11.1635H264.394L264.385 11.1647H264.384C264.326 11.1642 264.27 11.184 264.226 11.2206C264.181 11.2572 264.15 11.3084 264.139 11.3651H264.138L262.815 17.9843L259.503 34.5467C259.491 34.5954 259.496 34.6465 259.517 34.6919C259.537 34.7362 259.569 34.7737 259.61 34.7999C259.651 34.8261 259.699 34.8399 259.747 34.8395H263.559C263.604 34.8376 263.648 34.8258 263.688 34.8047C263.715 34.7893 263.739 34.7686 263.758 34.7439C263.777 34.7191 263.791 34.6909 263.799 34.6607H263.8L267.135 17.9843L268.441 11.4443C268.444 11.4317 268.446 11.4188 268.446 11.4059ZM280.369 17.9843C279.628 17.8038 278.868 17.7148 278.105 17.7191C277.108 17.7191 276.215 17.7995 275.386 17.9843C273.772 18.3407 272.403 19.0907 270.987 20.3939C268.913 22.3343 268.015 24.8075 268.015 27.9875C268.015 31.2803 269.982 34.0079 273.349 34.8431C274.091 35.0257 274.853 35.1159 275.617 35.1119C276.616 35.1119 277.512 35.0339 278.343 34.8431C279.953 34.4843 281.321 33.7343 282.736 32.4335C284.809 30.4955 285.707 28.0175 285.707 24.8423C285.706 21.5435 283.737 18.8219 280.369 17.9843ZM279.832 29.7575C278.934 30.8927 277.69 31.5635 275.997 31.5635C273.958 31.5635 272.61 29.9591 272.61 27.3467C272.61 25.5419 273.024 24.1379 273.888 23.0687C274.787 21.9335 276.03 21.2639 277.725 21.2639C279.763 21.2639 281.111 22.8683 281.111 25.4771C281.111 27.2843 280.697 28.6883 279.832 29.7575ZM300.029 20.4083V20.4035C299.445 19.3043 298.131 18.4079 296.607 17.9843C295.985 17.8093 295.342 17.72 294.696 17.7191C293.95 17.7129 293.205 17.802 292.481 17.9843C290.043 18.6215 288.615 20.3735 288.615 22.8683C288.615 25.1087 290.136 26.4131 292.174 27.3491C294.143 28.2515 295.145 28.8539 295.145 29.8235C295.145 31.0271 294.108 31.5623 292.935 31.5623C291.287 31.5623 290.113 30.5879 289.617 28.9367C289.605 28.9049 289.587 28.8758 289.564 28.8512C289.541 28.8266 289.513 28.807 289.482 28.7936C289.451 28.7802 289.417 28.7733 289.384 28.7734C289.35 28.7734 289.316 28.7804 289.285 28.7939L286.075 30.0803V30.0827C286.031 30.1012 285.993 30.1325 285.966 30.1726C285.939 30.2128 285.924 30.26 285.924 30.3083C285.924 30.3193 285.926 30.3302 285.929 30.3407C286.205 31.4183 286.762 32.4031 287.545 33.1939C288.327 33.9848 289.305 34.5532 290.38 34.8407C291.055 35.0255 291.751 35.1163 292.451 35.1107C293.272 35.1178 294.092 35.0272 294.892 34.8407C297.531 34.2143 299.292 32.4335 299.292 29.2595C299.292 26.9183 297.497 25.7831 295.699 24.9815C294.525 24.4475 292.695 23.9435 292.695 22.7723C292.695 21.8039 293.454 21.2687 294.387 21.2687C295.287 21.2687 296.308 21.6743 296.917 22.5407C296.964 22.5971 297.035 22.6367 297.115 22.6367C297.163 22.6367 297.208 22.6235 297.245 22.6007H297.249L299.938 20.7287V20.7227L299.958 20.7095L299.964 20.7059C300.009 20.6721 300.039 20.6235 300.051 20.569C300.063 20.5145 300.055 20.4575 300.029 20.4083ZM310.839 17.9843C310.217 17.8098 309.574 17.7206 308.928 17.7191C308.122 17.7191 307.379 17.8103 306.715 17.9843C304.273 18.6215 302.847 20.3735 302.847 22.8695C302.847 25.1087 304.368 26.4131 306.406 27.3491C308.376 28.2527 309.379 28.8539 309.379 29.8235C309.379 31.0295 308.346 31.5599 307.169 31.5599C305.519 31.5599 304.343 30.5843 303.845 28.9223C303.818 28.862 303.769 28.8146 303.708 28.7906C303.646 28.7665 303.578 28.7677 303.517 28.7939L300.311 30.0803V30.0827C300.266 30.1004 300.227 30.1313 300.2 30.1713C300.173 30.2114 300.158 30.2587 300.159 30.3071C300.159 30.3239 300.161 30.3359 300.163 30.3539C300.442 31.4286 301.001 32.4101 301.783 33.1983C302.565 33.9865 303.542 34.5533 304.614 34.8407C305.289 35.0245 305.987 35.1149 306.687 35.1095C307.559 35.1095 308.376 35.0219 309.126 34.8407C311.765 34.2131 313.528 32.4335 313.528 29.2583C313.528 26.9171 311.73 25.7831 309.933 24.9779C308.758 24.4451 306.925 23.9411 306.925 22.7711C306.925 21.8027 307.69 21.2675 308.62 21.2675C309.517 21.2675 310.539 21.6719 311.145 22.5335C311.182 22.5836 311.236 22.618 311.297 22.6302C311.359 22.6424 311.422 22.6315 311.476 22.5995L314.201 20.7047C314.243 20.6702 314.272 20.6224 314.283 20.5692C314.295 20.516 314.288 20.4606 314.263 20.4119C313.681 19.3055 312.365 18.4079 310.839 17.9843ZM322.006 17.9867H318.189C318.136 17.9863 318.084 18.0025 318.041 18.0331C317.999 18.0637 317.966 18.1071 317.95 18.1571L314.658 34.5443V34.5467C314.653 34.5643 314.651 34.5825 314.651 34.6007C314.653 34.6651 314.681 34.726 314.727 34.7706C314.774 34.8152 314.836 34.8399 314.901 34.8395H318.714C318.768 34.8407 318.821 34.8243 318.864 34.7926C318.908 34.761 318.94 34.7159 318.955 34.6643L322.253 18.2471V18.2279C322.253 18.1958 322.246 18.164 322.234 18.1344C322.221 18.1048 322.203 18.078 322.18 18.0556C322.157 18.0331 322.13 18.0155 322.1 18.0037C322.07 17.9918 322.038 17.9861 322.006 17.9867ZM335.452 17.9843C334.73 17.8025 333.988 17.7134 333.244 17.7191C332.362 17.7191 331.524 17.8103 330.739 17.9843C325.881 19.0511 322.912 23.1899 322.912 27.6503C322.912 31.5107 325.043 34.0475 328.167 34.8395C328.889 35.0199 329.632 35.1098 330.377 35.1071C331.319 35.1071 332.175 35.0183 332.958 34.8395C335.386 34.2935 337.155 32.8943 338.794 30.6059C338.81 30.5793 338.821 30.5496 338.826 30.5185C338.831 30.4875 338.83 30.4559 338.822 30.4254C338.815 30.395 338.801 30.3663 338.782 30.3413C338.763 30.3162 338.739 30.2952 338.712 30.2795L335.699 28.7771C335.668 28.7614 335.635 28.7532 335.601 28.7531C335.564 28.7531 335.528 28.7613 335.496 28.7771C335.463 28.7929 335.435 28.8159 335.412 28.8443C334.164 30.5843 332.736 31.5635 330.754 31.5635C328.476 31.5635 327.231 30.0251 327.231 28.2851V27.7559H339.551L339.553 27.7547C339.601 27.7547 339.645 27.7391 339.681 27.7211C339.732 27.6933 339.772 27.6464 339.79 27.5903H339.792C339.916 27.1631 340.224 25.9547 340.224 24.4799C340.224 21.3599 338.579 18.7907 335.452 17.9843ZM328.061 24.4739C328.786 22.7339 330.515 21.2639 332.691 21.2639C334.866 21.2639 335.869 22.3667 336.009 24.4739H328.061ZM354.17 21.7499L354.18 21.7547C354.219 21.7747 354.262 21.7847 354.305 21.7835C354.354 21.7835 354.397 21.7715 354.431 21.7475C354.475 21.7215 354.509 21.6819 354.529 21.6347L355.793 18.3851C355.807 18.355 355.814 18.3223 355.814 18.2891C355.814 18.2414 355.799 18.195 355.772 18.1555C355.746 18.1159 355.708 18.0848 355.664 18.0659L355.433 17.9831C354.898 17.8007 354.43 17.7179 353.642 17.7179C353.013 17.716 352.386 17.8054 351.781 17.9831C350.507 18.3599 349.278 19.1591 348.181 20.4923L348.638 18.2819C348.643 18.2639 348.646 18.2453 348.646 18.2267C348.645 18.1946 348.638 18.1628 348.626 18.1333C348.613 18.1038 348.595 18.0771 348.571 18.0547C348.548 18.0323 348.521 18.0146 348.491 18.0028C348.461 17.9909 348.429 17.985 348.397 17.9855H344.586C344.529 17.9842 344.473 18.003 344.429 18.0388C344.384 18.0746 344.354 18.125 344.343 18.1811V18.1835L341.043 34.5587C341.039 34.5719 341.039 34.5839 341.039 34.5983C341.038 34.6307 341.045 34.6629 341.059 34.6919C341.095 34.7783 341.184 34.8395 341.286 34.8395H345.101C345.146 34.8378 345.19 34.826 345.23 34.8047C345.285 34.7713 345.325 34.718 345.342 34.6559L346.516 28.8539C347.55 23.5367 350.524 21.4295 352.666 21.4295C353.261 21.4307 353.762 21.5435 354.17 21.7499ZM320.871 11.4263C319.459 11.4263 318.419 12.4655 318.419 13.8011C318.419 15.1355 319.459 16.1759 320.871 16.1759C322.287 16.1759 323.325 15.1355 323.325 13.8011C323.323 12.4655 322.281 11.4263 320.871 11.4263ZM354.392 30.4127C352.981 30.4127 351.938 31.4519 351.938 32.7875C351.938 33.6767 352.4 34.4351 353.124 34.8407C353.489 35.0435 353.921 35.1635 354.392 35.1635C354.864 35.1635 355.295 35.0435 355.661 34.8395C356.025 34.636 356.327 34.3378 356.536 33.9766C356.745 33.6155 356.852 33.2046 356.846 32.7875C356.846 31.4519 355.804 30.4127 354.392 30.4127Z" fill="#fff"/>
<path d="M741.745 15.6708V33.727C741.745 33.7324 741.745 33.7377 741.745 33.7431C741.743 34.0372 741.629 34.3184 741.427 34.5252C741.225 34.7321 740.952 34.8476 740.669 34.8465H739.873C739.589 34.8476 739.316 34.7318 739.114 34.5245C738.912 34.3173 738.798 34.0355 738.796 33.7411V33.725C738.797 33.7197 738.797 33.7143 738.796 33.709V15.6788C738.798 15.6715 738.798 15.6641 738.796 15.6568C738.799 15.3627 738.913 15.0814 739.115 14.8746C739.316 14.6678 739.589 14.5522 739.873 14.5533H740.669C740.953 14.5522 741.226 14.6681 741.428 14.8753C741.629 15.0826 741.744 15.3643 741.745 15.6588V15.6708ZM755.366 23.4089C754.537 23.1822 753.763 23.0438 752.942 22.8973C751.73 22.7099 750.534 22.4241 749.366 22.0426C748.33 21.6875 747.43 20.6844 747.782 19.5248C748.181 18.2328 749.569 17.5848 750.361 17.3179C753.031 16.4031 755.28 17.968 756.382 18.9831C756.853 19.4225 757.209 19.4024 757.737 19.2058C757.971 19.097 758.187 18.9523 758.378 18.7765C758.765 18.3993 759.038 17.8014 758.698 17.2557C758.68 17.2256 758.593 17.0892 758.504 16.9688C758.463 16.913 758.418 16.8607 758.369 16.8124C756.725 15.2073 754.56 14.2996 752.301 14.2683C750.043 14.2371 747.856 15.0848 746.171 16.6438C744.829 17.8676 744.442 19.6532 744.913 21.529C745.277 22.9816 746.192 24.0308 747.844 24.6688C748.897 25.0455 749.975 25.3432 751.069 25.5596L751.174 25.5837C751.633 25.686 752.121 25.7662 752.593 25.8405C753.577 25.999 754.593 26.1635 755.497 26.5567C756.103 26.8235 756.853 27.4615 757.046 28.2259C757.28 29.1107 756.736 29.9332 756.394 30.3445C755.416 31.5141 753.248 32.5072 750.8 31.9234C749.433 31.5984 747.662 29.9954 747.28 29.6383L747.253 29.6102C746.725 29.0485 746.355 29.0505 745.77 29.2671C745.537 29.3759 745.321 29.5207 745.129 29.6965C744.742 30.0737 744.469 30.6715 744.81 31.2172C744.831 31.2533 744.951 31.4439 745.05 31.5703C745.596 32.2726 746.232 32.8943 746.94 33.4181C748.475 34.5511 750.315 35.1566 752.2 35.1495H752.219C754.112 35.1527 755.958 34.5385 757.495 33.394C759.486 31.9134 760.456 29.5821 759.966 27.4635C759.503 25.4814 757.958 24.1171 755.366 23.4089ZM701.66 30.0516L701.714 29.9653C701.909 29.6937 702.027 29.3714 702.055 29.0344C702.049 28.8331 702 28.6356 701.912 28.4557C701.825 28.2759 701.7 28.118 701.548 27.9932C701.132 27.6421 700.483 27.3271 699.968 27.4114C699.849 27.428 699.736 27.4715 699.636 27.5388C699.535 27.6061 699.45 27.6954 699.387 27.8006C699.288 27.9591 699.211 28.1055 699.137 28.246C699.064 28.3864 699.002 28.5028 698.922 28.6312C698.222 29.7664 697.232 30.678 696.061 31.2642C694.89 31.8505 693.586 32.0884 692.292 31.9515C690.999 31.8147 689.767 31.3084 688.735 30.489C687.703 29.6697 686.911 28.5695 686.446 27.3111C685.844 25.6301 685.853 23.779 686.474 22.1051C687.095 20.4311 688.283 19.0493 689.817 18.2187C691.405 17.3799 693.242 17.1978 694.954 17.7092C696.667 18.2207 698.129 19.3874 699.042 20.9733L699.135 21.1378C699.262 21.389 699.421 21.6206 699.61 21.826C699.685 21.8982 699.774 21.9533 699.871 21.9878C699.968 22.0224 700.071 22.0356 700.173 22.0266C700.756 21.9694 701.3 21.6966 701.705 21.2582C702.311 20.564 701.958 19.8398 701.544 19.1577C701.109 18.4399 700.592 17.7791 700.005 17.1895C698.184 15.3182 695.743 14.2372 693.18 14.1671C690.617 14.0971 688.124 15.0432 686.211 16.8124C684.298 18.5817 683.108 21.0407 682.885 23.6878C682.662 26.3348 683.422 28.9704 685.01 31.0567C686.043 32.438 687.391 33.5319 688.933 34.2403C690.475 34.9487 692.162 35.2493 693.844 35.1154C695.441 34.9751 696.983 34.4427 698.343 33.5621C699.702 32.6815 700.839 31.4782 701.66 30.0516ZM713.61 17.5486C714.404 17.5186 714.63 17.0952 714.756 16.377C714.786 16.1046 714.793 15.8301 714.777 15.5564C714.768 15.2435 714.642 14.9465 714.425 14.7285C714.208 14.5105 713.918 14.3887 713.616 14.3888C708.301 14.3888 703.98 19.0674 703.98 24.8052V32.7861C703.98 32.8804 703.98 32.9867 703.98 33.083C703.966 33.5104 703.949 33.9959 704.173 34.3349C704.516 34.8525 705.048 34.8485 705.61 34.8405H705.643C706.017 34.8493 706.38 34.7052 706.653 34.4393C706.748 34.3379 706.821 34.2177 706.869 34.0859C706.917 33.9541 706.938 33.8136 706.932 33.6729V24.6969C706.986 20.7566 709.974 17.5547 713.612 17.5486H713.61ZM734.831 14.5393H734.047C733.762 14.5398 733.488 14.6575 733.287 14.8666C733.085 15.0757 732.971 15.3591 732.971 15.6547C732.971 15.6608 732.971 15.6668 732.971 15.6728V24.8574C732.917 28.7877 729.921 31.9776 726.276 31.9776C722.63 31.9776 719.635 28.7877 719.581 24.8574V15.6889C719.58 15.6828 719.58 15.6768 719.581 15.6708V15.6547C719.581 15.508 719.553 15.3626 719.499 15.227C719.445 15.0913 719.366 14.9679 719.266 14.864C719.166 14.76 719.047 14.6775 718.917 14.6211C718.786 14.5647 718.646 14.5355 718.504 14.5353H717.708C717.566 14.5342 717.425 14.5623 717.293 14.618C717.162 14.6737 717.042 14.7558 716.941 14.8597C716.84 14.9636 716.76 15.0871 716.705 15.2232C716.65 15.3593 716.622 15.5053 716.622 15.6527C716.623 15.6588 716.623 15.6648 716.622 15.6708V24.8193C716.657 30.5231 720.984 35.1635 726.266 35.1635C731.548 35.1635 735.875 30.5231 735.91 24.8193V15.6889C735.909 15.6828 735.909 15.6768 735.91 15.6708V15.6527C735.91 15.3567 735.796 15.0728 735.595 14.8633C735.393 14.6538 735.119 14.5358 734.833 14.5353L734.831 14.5393ZM779.67 31.2052C779.896 30.9113 780.107 30.6045 780.301 30.2863L780.396 30.1359C780.609 29.7988 780.849 29.4156 780.847 29.0164C780.84 28.8155 780.792 28.6184 780.705 28.439C780.617 28.2595 780.493 28.1019 780.341 27.9771L780.318 27.9571C779.944 27.6388 779.49 27.4389 779.009 27.3813H778.978C778.458 27.3813 778.194 27.8186 777.913 28.2801L777.817 28.4366C777.176 29.4706 776.315 30.3383 775.3 30.9725C774.295 31.5757 773.16 31.9105 771.999 31.9467C770.838 31.9828 769.687 31.7192 768.648 31.1795C767.61 30.6399 766.718 29.8411 766.051 28.8552C765.385 27.8693 764.966 26.7271 764.831 25.5315C764.691 24.1615 764.924 22.7782 765.502 21.5375C766.08 20.2969 766.981 19.2482 768.103 18.5096C769.443 17.6644 771.017 17.3062 772.576 17.4915C774.134 17.6768 775.589 18.3951 776.709 19.5328L776.746 19.5709L771.267 23.2745C770.552 23.756 769.569 24.2656 770.13 25.2968C770.376 25.7482 770.744 26.338 771.267 26.4885C771.419 26.5282 771.578 26.5338 771.732 26.5051C771.887 26.4764 772.034 26.414 772.163 26.322C772.477 26.1213 779.973 21.0496 779.973 21.0496C780.203 20.9197 780.393 20.7267 780.523 20.4918C780.816 19.8899 780.485 19.3703 780.163 18.8708C779.238 17.4492 777.991 16.2838 776.532 15.476C775.072 14.6682 773.444 14.2426 771.79 14.2363H771.58C770.014 14.272 768.477 14.6853 767.092 15.4436C765.707 16.2018 764.511 17.284 763.599 18.6045C762.688 19.925 762.086 21.4474 761.841 23.0509C761.596 24.6545 761.715 26.2951 762.188 27.8427C762.741 29.6455 763.755 31.259 765.124 32.5109C766.492 33.7628 768.163 34.6062 769.958 34.951C771.752 35.2958 773.604 35.1291 775.314 34.4687C777.025 33.8083 778.53 32.6789 779.67 31.2012V31.2052Z" fill="#fff"/>
<path d="M937.073 30.3894C933.566 30.3894 930.722 27.6021 930.722 24.1631C930.722 20.7247 933.566 17.9371 937.073 17.9371C940.581 17.9371 943.423 20.7247 943.423 24.1631C943.423 27.6021 940.581 30.3894 937.073 30.3894ZM943.444 31.1792C943.444 31.7492 944.462 33.3509 945.71 33.3509H946.519C946.832 33.3509 947.088 33.1046 947.088 32.8041V15.766H947.085C947.069 15.4791 946.821 15.2491 946.519 15.2491H944.014C943.711 15.2491 943.464 15.4791 943.447 15.766H943.444V17.1506C941.909 15.3374 939.49 14.5851 937.063 14.5851C931.548 14.5851 927.078 18.8731 927.078 24.1631C927.078 29.4532 931.548 33.7419 937.063 33.7419C939.49 33.7419 942.134 32.839 943.443 31.1767L943.444 31.1792ZM953.072 28.7391C954.744 29.8498 956.57 30.3894 958.323 30.3894C959.994 30.3894 961.722 29.5584 961.722 28.1126C961.722 26.1818 957.958 25.8813 955.593 25.1105C953.228 24.3396 951.19 22.7456 951.19 20.1647C951.19 16.2158 954.859 14.5846 958.283 14.5846C960.452 14.5846 962.691 15.2709 964.142 16.254C964.642 16.617 964.337 17.0342 964.337 17.0342L962.952 18.932C962.796 19.1456 962.474 19.3164 962.133 19.0988C961.2 18.5071 960.161 17.9369 958.283 17.9369C955.958 17.9369 954.935 18.8626 954.935 20.0093C954.935 21.385 956.571 21.8175 958.487 22.2865C961.825 23.1493 965.467 24.1871 965.467 28.1126C965.467 31.5919 962.073 33.7425 958.323 33.7425C955.482 33.7425 953.062 32.9651 951.033 31.5368C950.61 31.1311 950.905 30.7543 950.905 30.7543L952.284 28.8664C952.564 28.513 952.918 28.6364 953.072 28.7391ZM984.251 31.1792C984.251 31.7492 985.269 33.3509 986.517 33.3509H987.325C987.639 33.3509 987.895 33.1046 987.895 32.8041V15.766H987.892C987.875 15.4791 987.628 15.2491 987.325 15.2491H984.821C984.518 15.2491 984.27 15.4791 984.254 15.766H984.251V17.1506C982.716 15.3374 980.296 14.5851 977.87 14.5851C972.355 14.5851 967.884 18.8731 967.884 24.1631C967.884 29.4532 972.355 33.7419 977.87 33.7419C980.296 33.7419 982.941 32.839 984.25 31.1767L984.251 31.1792ZM977.88 30.3894C974.372 30.3894 971.529 27.6021 971.529 24.1631C971.529 20.7247 974.372 17.9371 977.88 17.9371C981.387 17.9371 984.23 20.7247 984.23 24.1631C984.23 27.6021 981.387 30.3894 977.88 30.3894ZM1010.34 31.7648L1010.33 22.9486H1010.34C1010.34 17.9786 1007.07 14.626 1001.85 14.626C999.365 14.626 997.33 16.006 996.609 17.1914V17.1749L996.605 17.1885C996.603 15.9887 995.589 15.2901 994.339 15.2901H993.534C993.221 15.2901 992.964 15.5364 992.964 15.8372V31.2218V31.2244V32.8763H992.968C992.984 33.1632 993.232 33.3935 993.534 33.3935H996.039C996.077 33.3935 996.115 33.3891 996.151 33.3825C996.168 33.3792 996.183 33.3729 996.199 33.3684C996.218 33.3631 996.238 33.3588 996.255 33.3516C996.278 33.3429 996.298 33.3308 996.319 33.3197C996.329 33.3138 996.34 33.3096 996.349 33.3038C996.374 33.2882 996.397 33.2695 996.419 33.2504C996.423 33.2468 996.427 33.2444 996.431 33.2411C996.456 33.2182 996.478 33.1931 996.499 33.1663L996.499 33.166C996.562 33.0833 996.6 32.984 996.606 32.8763H996.609V22.8118C996.609 20.1426 998.865 17.9786 1001.65 17.9786C1004.43 17.9786 1006.69 20.1426 1006.69 22.8118L1006.69 31.2247L1006.69 31.2218C1006.69 31.2291 1006.69 31.237 1006.69 31.2447V32.8763H1006.69C1006.71 33.1632 1006.96 33.3935 1007.26 33.3935H1009.77C1009.8 33.3935 1009.84 33.3891 1009.88 33.3825C1009.89 33.3793 1009.91 33.3736 1009.92 33.3703C1009.94 33.3645 1009.96 33.3593 1009.98 33.3516C1010 33.3433 1010.02 33.3322 1010.04 33.3219C1010.05 33.3156 1010.07 33.3108 1010.08 33.3038C1010.1 33.2888 1010.12 33.2713 1010.14 33.2541C1010.15 33.2495 1010.15 33.2456 1010.16 33.2409C1010.18 33.2191 1010.2 33.1953 1010.22 33.1705C1010.22 33.1683 1010.23 33.1668 1010.23 33.1651C1010.29 33.0833 1010.33 32.9847 1010.33 32.8778C1010.33 32.8772 1010.33 32.8763 1010.33 32.8763H1010.34V31.7652L1010.34 31.7648ZM1029.87 31.1792C1029.87 31.7492 1030.89 33.3509 1032.13 33.3509H1032.94C1033.26 33.3509 1033.51 33.1046 1033.51 32.8041V15.766H1033.51C1033.49 15.4791 1033.25 15.2491 1032.94 15.2491H1030.44C1030.13 15.2491 1029.89 15.4791 1029.87 15.766H1029.87V17.1506C1028.33 15.3374 1025.91 14.5851 1023.49 14.5851C1017.97 14.5851 1013.5 18.8731 1013.5 24.1631C1013.5 29.4532 1017.97 33.7419 1023.49 33.7419C1025.91 33.7419 1028.56 32.839 1029.87 31.1767L1029.87 31.1792ZM1023.5 30.3894C1019.99 30.3894 1017.15 27.6021 1017.15 24.1631C1017.15 20.7247 1019.99 17.9371 1023.5 17.9371C1027 17.9371 1029.85 20.7247 1029.85 24.1631C1029.85 27.6021 1027 30.3894 1023.5 30.3894ZM913.498 24.9869C917.282 24.9869 920.349 27.9364 920.349 31.575C920.349 35.2138 917.282 38.1635 913.498 38.1635C909.714 38.1635 906.647 35.2138 906.647 31.575C906.647 27.9364 909.714 24.9869 913.498 24.9869ZM895.698 24.9874C899.482 24.9874 902.549 27.9364 902.549 31.5753C902.549 35.2138 899.482 38.1635 895.698 38.1635C891.914 38.1635 888.847 35.2138 888.847 31.5753C888.847 27.9364 891.914 24.9874 895.698 24.9874ZM911.449 16.7516C911.449 20.3901 908.382 23.3403 904.598 23.3403C900.814 23.3403 897.747 20.3901 897.747 16.7516C897.747 13.1132 900.814 10.1635 904.598 10.1635C908.382 10.1635 911.449 13.1132 911.449 16.7516Z" fill="#fff"/>
<path d="M477.819 5.57825C469.18 5.57825 461.847 11.7354 461.847 21.2041C461.847 29.7244 468.374 36.4763 477.722 36.4763C486.345 36.4763 493.694 30.3192 493.694 20.8504C493.694 12.3462 487.167 5.57825 477.819 5.57825ZM477.819 34.6437C472.194 34.6437 468.165 28.9045 468.165 20.9951C468.165 13.4233 471.984 7.42699 477.738 7.42699C483.363 7.42699 487.392 13.1661 487.392 21.0755C487.376 28.6473 483.557 34.6437 477.819 34.6437ZM567.334 17.2976V18.5837L569.058 18.9213C569.655 19.0499 569.832 19.5161 569.445 20.4646L565.48 29.9816C565.303 30.3674 565.094 30.3674 564.965 29.9816L561.274 20.4807C560.887 19.5001 561.096 19.066 561.709 18.9374L563.417 18.5998V17.3137H548.138V18.5998L549.863 18.9374C550.459 19.066 550.685 19.5322 550.298 20.4807L546.478 30.496C546.301 30.8819 546.091 30.8819 545.962 30.496L542.094 20.4807C541.756 19.5001 541.917 19.066 542.529 18.9374L544.238 18.5998V17.3137H534.535V18.632L535.486 18.8409C536.131 18.9696 536.518 19.3071 536.776 19.918L543.335 36.0101H546.301L552.861 19.918C553.199 19.066 553.586 18.7123 554.279 18.7123H554.537C555.101 18.7123 555.52 18.9213 555.875 19.7412L562.74 36.4442L560.903 40.8168C559.694 43.7266 558.808 44.241 557.68 44.241C557.212 44.241 556.696 44.1606 556.181 44.1606C554.843 44.1606 554.037 45.1091 554.037 46.1219C554.037 47.2794 554.988 48.0993 556.487 48.0993C558.631 48.0993 560.742 46.3791 562.499 42.2798L571.847 20.4003C572.282 19.4197 572.83 18.9856 573.732 18.8088L574.667 18.632V17.2976H567.334ZM507.168 34.3382L499.996 35.2385C497.643 35.5439 496.902 34.7723 496.902 33.5666C496.902 32.1519 498.449 31.0426 503.816 31.0426H503.896C507.797 31.0426 512.39 28.6955 512.39 23.5994C512.39 21.9758 511.794 20.4807 510.666 19.275C510.277 18.4467 510.1 17.5355 510.15 16.6225C510.15 12.8607 512.729 10.7226 515.388 10.7226C516.5 10.7226 516.855 10.8994 516.855 11.6711C516.855 11.88 516.806 12.0569 516.806 12.3141C516.806 13.6484 517.918 14.8862 519.514 14.8862C521.142 14.8862 522.173 13.6002 522.173 12.1855C522.173 10.0474 520.239 8.45585 516.677 8.45585C511.778 8.45585 508.006 11.6228 508.006 16.4617C508.006 16.8475 508.055 17.153 508.055 17.4423C506.787 16.9244 505.428 16.6622 504.058 16.6707C500.19 16.6707 495.564 19.0178 495.564 24.1139C495.564 26.461 496.902 28.6473 499.206 29.9334C495.773 30.3996 493.807 32.2483 493.807 35.1099C493.807 38.0196 496.128 40.1256 500.464 39.6111L506.733 38.8395C509.86 38.4537 510.891 39.5629 510.891 41.1866C510.891 44.016 508.232 46.2827 503.977 46.2827C500.592 46.2827 499.335 45.077 499.335 43.3729L499.384 42.5209C499.384 41.492 498.739 40.7686 497.707 40.7204C496.499 40.7204 495.773 41.5724 495.773 42.8103C495.773 45.6396 498.481 48.1636 504.009 48.1636C510.231 48.1636 514.179 44.1446 514.179 39.5147C514.195 35.8333 511.246 33.8238 507.168 34.3382ZM503.945 18.1979C505.959 18.1979 507.587 20.4646 507.587 23.937C507.587 26.9272 506.217 29.4993 504.074 29.4993C502.011 29.4993 500.383 27.2326 500.383 23.7602C500.383 20.8183 501.753 18.1979 503.945 18.1979Z" fill="#fff"/>
<path d="M532.875 33.7916V4.16351L525.316 6.09263V6.99289L527.46 7.68416C527.798 7.81276 527.927 8.06998 527.927 8.40758V33.663C527.927 34.1292 527.54 34.4828 526.976 34.4828L525.058 34.515L523.027 34.4828C522.463 34.4828 522.077 34.1452 522.077 33.663V16.5742L514.518 18.5033V19.4036L516.661 20.0948C517 20.2234 517.129 20.4806 517.129 20.8182V33.7916C517.129 34.1774 516.919 34.3864 516.613 34.4346L514.856 34.6436V36.0101H535.454V34.6436L533.359 34.4346C533.085 34.3864 532.875 34.1774 532.875 33.7916Z" fill="#fff"/>
</svg>
