<?xml version="1.0" encoding="UTF-8"?>
<svg width="575px" height="117px" viewBox="0 0 575 117" version="1.1" xmlns="http://www.w3.org/2000/svg" xmlns:xlink="../../external.html?link=http://www.w3.org/1999/xlink">
    <!-- Generator: Sketch 49.1 (51147) - http://www.bohemiancoding.com/sketch -->
    <title>Group 3</title>
    <desc>Created with Sketch.</desc>
    <defs></defs>
    <g id="Page-1" stroke="none" stroke-width="1" fill="none" fill-rule="evenodd">
        <g id="Group-3" transform="translate(-1.000000, 0.000000)" fill-rule="nonzero">
            <g id="Group-2" transform="translate(0.500000, 0.000000)">
                <path d="M118.234,18.0943 C119.798,18.0943 121.066,16.8484 121.066,15.3115 C121.066,13.7746 119.798,12.5287 118.234,12.5287 C116.67,12.5287 115.402,13.7746 115.402,15.3115 C115.402,16.8484 116.67,18.0943 118.234,18.0943 Z" id="Shape" fill="#92A0AD"></path>
                <path d="M77.7869,27.1779 C79.1761,27.1779 79.9775,26.154 79.9241,25.1564 C79.8974,24.6313 79.8439,24.2901 79.7905,24.0275 C78.9356,20.4046 75.9435,17.7268 72.3903,17.7268 C68.1693,17.7268 64.7498,21.481 64.7498,26.1015 C64.7498,30.722 68.1693,34.4762 72.3903,34.4762 C75.0352,34.4762 76.932,33.5311 78.2944,32.0347 C78.9623,31.2996 78.8288,30.1707 78.0273,29.6194 C77.3594,29.1731 76.5312,29.3306 75.9168,29.8294 C75.329,30.3282 74.207,31.3259 72.3903,31.3259 C70.2531,31.3259 68.4365,29.5144 68.0357,27.1254 L77.7869,27.1254 L77.7869,27.1779 Z M72.3636,20.9034 C74.2871,20.9034 75.9435,22.3736 76.5579,24.3951 L68.1693,24.3951 C68.7838,22.3473 70.4401,20.9034 72.3636,20.9034 Z" id="Shape" fill="#617080"></path>
                <path d="M64.91,19.3807 C64.91,18.5931 64.3223,17.963 63.5743,17.8318 C61.25,17.4905 59.0594,18.3306 57.8037,19.8795 L57.8037,19.6695 C57.8037,18.6981 57.0023,18.0943 56.2008,18.0943 C55.3192,18.0943 54.5979,18.8031 54.5979,19.6695 L54.5979,32.5335 C54.5979,33.3736 55.2391,34.1086 56.094,34.1611 C57.029,34.2136 57.8037,33.5048 57.8037,32.586 L57.8037,25.944 C57.8037,23.0036 60.0478,20.5883 63.1468,20.9296 C63.2537,20.9296 63.3605,20.9296 63.4674,20.9296 C64.2689,20.8771 64.91,20.1946 64.91,19.3807 Z" id="Shape" fill="#617080"></path>
                <path d="M119.837,21.0609 C119.837,20.1945 119.116,19.4857 118.234,19.4857 C117.352,19.4857 116.631,20.1945 116.631,21.0609 C116.631,21.1134 116.631,32.0871 116.631,32.586 C116.631,33.4523 117.352,34.1611 118.234,34.1611 C119.116,34.1611 119.837,33.4523 119.837,32.586 C119.837,32.1134 119.837,21.1397 119.837,21.0609 Z" id="Shape" fill="#617080"></path>
                <path d="M96.0067,12.345 C96.0067,11.4786 95.2853,10.7698 94.4037,10.7698 C93.5221,10.7698 92.8008,11.4786 92.8008,12.345 L92.8008,19.3545 C91.7055,18.2781 90.343,17.7531 88.7134,17.7531 C84.4923,17.7531 81.0728,21.5072 81.0728,26.1278 C81.0728,30.7483 84.4923,34.5025 88.7134,34.5025 C90.343,34.5025 91.7322,33.9512 92.8275,32.8748 C92.9611,33.6099 93.629,34.1612 94.4037,34.1612 C95.2853,34.1612 96.0067,33.4524 96.0067,32.586 L96.0067,12.345 Z M88.7401,31.3784 C86.2823,31.3784 84.3053,29.0419 84.3053,26.1278 C84.3053,23.2399 86.2823,20.8772 88.7401,20.8772 C91.1979,20.8772 93.1748,23.2137 93.1748,26.1278 C93.1748,29.0419 91.1712,31.3784 88.7401,31.3784 Z" id="Shape" fill="#617080"></path>
                <path d="M112.731,12.345 C112.731,11.4786 112.009,10.7698 111.128,10.7698 C110.246,10.7698 109.525,11.4786 109.525,12.345 L109.525,19.3545 C108.429,18.2781 107.067,17.7531 105.437,17.7531 C101.216,17.7531 97.7966,21.5072 97.7966,26.1278 C97.7966,30.7483 101.216,34.5025 105.437,34.5025 C107.067,34.5025 108.456,33.9512 109.551,32.8748 C109.685,33.6099 110.353,34.1612 111.128,34.1612 C112.009,34.1612 112.731,33.4524 112.731,32.586 L112.731,12.345 Z M105.437,31.3784 C102.979,31.3784 101.002,29.0419 101.002,26.1278 C101.002,23.2399 102.979,20.8772 105.437,20.8772 C107.895,20.8772 109.872,23.2137 109.872,26.1278 C109.872,29.0419 107.895,31.3784 105.437,31.3784 Z" id="Shape" fill="#617080"></path>
                <path d="M127.958,32.6122 L127.958,20.9034 L129.374,20.9034 C130.122,20.9034 130.79,20.3521 130.844,19.5908 C130.897,18.7769 130.229,18.0943 129.428,18.0943 L127.958,18.0943 L127.958,15.8891 C127.958,15.049 127.317,14.3139 126.462,14.2614 C125.527,14.2089 124.752,14.9177 124.752,15.8366 L124.752,18.1206 L123.417,18.1206 C122.669,18.1206 122.001,18.6719 121.947,19.4332 C121.894,20.2471 122.562,20.9297 123.363,20.9297 L124.726,20.9297 L124.726,32.6385 C124.726,33.5048 125.447,34.2137 126.329,34.2137 C127.264,34.1612 127.958,33.4786 127.958,32.6122 Z" id="Shape" fill="#617080"></path>
                <path d="M23.2342,44.1635 C35.5984,44.1635 45.6217,34.3138 45.6217,22.1635 C45.6217,10.0132 35.5984,0.163513 23.2342,0.163513 C10.8699,0.163513 0.84668,10.0132 0.84668,22.1635 C0.84668,34.3138 10.8699,44.1635 23.2342,44.1635 Z" id="Shape" fill="#92A0AD"></path>
                <path d="M38.1681,22.1635 C38.1681,20.3783 36.6988,18.9607 34.9088,18.9607 C34.0272,18.9607 33.2258,19.302 32.638,19.8533 C30.3939,18.2781 27.3217,17.2542 23.9021,17.123 L25.3982,10.2447 L30.2604,11.2685 C30.3138,12.4762 31.329,13.4475 32.5846,13.4475 C33.8669,13.4475 34.9088,12.4237 34.9088,11.1635 C34.9088,9.90338 33.8669,8.87952 32.5846,8.87952 C31.6763,8.87952 30.8748,9.40458 30.5008,10.1659 L25.0776,9.03704 C24.9173,9.01078 24.757,9.03703 24.6501,9.11579 C24.5166,9.19455 24.4364,9.32582 24.4097,9.48334 L22.7533,17.1492 C19.2803,17.2542 16.1547,18.2781 13.8838,19.8795 C13.2961,19.3282 12.4946,18.9869 11.613,18.9869 C9.79639,18.9869 8.35376,20.4308 8.35376,22.1898 C8.35376,23.5024 9.15522,24.6051 10.2773,25.1039 C10.2238,25.4189 10.1971,25.7339 10.1971,26.0752 C10.1971,31.0108 16.0478,35.0275 23.2609,35.0275 C30.4741,35.0275 36.3248,31.037 36.3248,26.0752 C36.3248,25.7602 36.298,25.4189 36.2446,25.1039 C37.3667,24.6051 38.1681,23.4762 38.1681,22.1635 Z M15.7806,24.4475 C15.7806,23.1874 16.8225,22.1635 18.1049,22.1635 C19.3872,22.1635 20.4291,23.1874 20.4291,24.4475 C20.4291,25.7077 19.3872,26.7315 18.1049,26.7315 C16.8225,26.7578 15.7806,25.7077 15.7806,24.4475 Z M28.791,30.512 C27.1881,32.0872 24.1425,32.1922 23.2609,32.1922 C22.3526,32.1922 19.3071,32.0609 17.7309,30.512 C17.4904,30.2757 17.4904,29.9082 17.7309,29.6719 C17.9713,29.4356 18.3453,29.4356 18.5857,29.6719 C19.6009,30.6695 21.7382,31.0108 23.2609,31.0108 C24.7837,31.0108 26.9477,30.6695 27.9361,29.6719 C28.1766,29.4356 28.5506,29.4356 28.791,29.6719 C29.0047,29.9082 29.0047,30.2757 28.791,30.512 Z M28.3636,26.7578 C27.0812,26.7578 26.0393,25.7339 26.0393,24.4738 C26.0393,23.2136 27.0812,22.1898 28.3636,22.1898 C29.6459,22.1898 30.6878,23.2136 30.6878,24.4738 C30.6878,25.7077 29.6459,26.7578 28.3636,26.7578 Z" id="Shape" fill="#FFFFFF"></path>
                <path d="M259.239,17.9843 C258.437,14.0327 255.729,11.2091 250.819,11.1647 L250.703,11.1635 L250.606,11.1647 C245.005,11.1959 240.855,13.9187 238.647,17.9843 C237.472,20.1479 236.847,22.6907 236.847,25.4087 C236.847,30.6311 239.841,33.9191 243.665,34.8395 C244.408,35.0175 245.17,35.1073 245.934,35.1071 C246.851,35.1071 247.678,35.0183 248.425,34.8395 C250.044,34.4603 251.289,33.6719 252.258,32.5307 L252.258,34.6031 C252.258,34.6331 252.265,34.6667 252.277,34.6919 C252.313,34.7723 252.396,34.8323 252.493,34.8395 L255.802,34.8395 C255.842,34.8345 255.88,34.8227 255.916,34.8047 C255.944,34.7884 255.968,34.7666 255.988,34.7406 C256.007,34.7146 256.021,34.685 256.029,34.6535 L258.313,23.3411 C258.323,23.3047 258.323,23.2666 258.315,23.2299 C258.308,23.1931 258.291,23.1586 258.268,23.1292 C258.245,23.0997 258.215,23.076 258.181,23.0599 C258.147,23.0438 258.11,23.0357 258.072,23.0363 L249.733,23.0363 C249.677,23.036 249.623,23.0548 249.579,23.0897 C249.534,23.1246 249.504,23.1735 249.491,23.2283 L249.49,23.2283 L248.863,26.2943 C248.861,26.3099 248.857,26.3219 248.857,26.3411 C248.858,26.3726 248.864,26.4038 248.878,26.4323 C248.915,26.5163 249.003,26.5799 249.103,26.5799 L253.296,26.5799 C252.397,28.9871 250.29,31.0967 246.972,31.0967 C243.622,31.0967 241.513,28.7555 241.513,24.7715 C241.513,22.1675 242.371,19.7435 243.867,17.9819 C245.328,16.2611 247.399,15.1739 249.875,15.1739 C252.204,15.1739 253.555,16.2011 254.464,17.9819 C254.697,18.4481 254.897,18.9305 255.06,19.4255 C255.085,19.4805 255.129,19.5245 255.184,19.5497 C255.239,19.5748 255.301,19.5793 255.359,19.5623 L255.36,19.5623 L259.121,18.6095 C259.146,18.6032 259.17,18.5935 259.192,18.5807 C259.233,18.5568 259.267,18.5208 259.288,18.4776 C259.308,18.4343 259.316,18.3857 259.308,18.3383 L259.239,17.9843 Z M268.446,11.4059 C268.446,11.2739 268.336,11.1659 268.198,11.1647 L268.194,11.1635 L264.394,11.1635 L264.385,11.1647 L264.384,11.1647 C264.326,11.1642 264.27,11.184 264.226,11.2206 C264.181,11.2572 264.15,11.3084 264.139,11.3651 L264.138,11.3651 L262.815,17.9843 L259.503,34.5467 C259.491,34.5954 259.496,34.6465 259.517,34.6919 C259.537,34.7362 259.569,34.7737 259.61,34.7999 C259.651,34.8261 259.699,34.8399 259.747,34.8395 L263.559,34.8395 C263.604,34.8376 263.648,34.8258 263.688,34.8047 C263.715,34.7893 263.739,34.7686 263.758,34.7439 C263.777,34.7191 263.791,34.6909 263.799,34.6607 L263.8,34.6607 L267.135,17.9843 L268.441,11.4443 C268.444,11.4317 268.446,11.4188 268.446,11.4059 Z M280.369,17.9843 C279.628,17.8038 278.868,17.7148 278.105,17.7191 C277.108,17.7191 276.215,17.7995 275.386,17.9843 C273.772,18.3407 272.403,19.0907 270.987,20.3939 C268.913,22.3343 268.015,24.8075 268.015,27.9875 C268.015,31.2803 269.982,34.0079 273.349,34.8431 C274.091,35.0257 274.853,35.1159 275.617,35.1119 C276.616,35.1119 277.512,35.0339 278.343,34.8431 C279.953,34.4843 281.321,33.7343 282.736,32.4335 C284.809,30.4955 285.707,28.0175 285.707,24.8423 C285.706,21.5435 283.737,18.8219 280.369,17.9843 Z M279.832,29.7575 C278.934,30.8927 277.69,31.5635 275.997,31.5635 C273.958,31.5635 272.61,29.9591 272.61,27.3467 C272.61,25.5419 273.024,24.1379 273.888,23.0687 C274.787,21.9335 276.03,21.2639 277.725,21.2639 C279.763,21.2639 281.111,22.8683 281.111,25.4771 C281.111,27.2843 280.697,28.6883 279.832,29.7575 Z M300.029,20.4083 L300.029,20.4035 C299.445,19.3043 298.131,18.4079 296.607,17.9843 C295.985,17.8093 295.342,17.72 294.696,17.7191 C293.95,17.7129 293.205,17.802 292.481,17.9843 C290.043,18.6215 288.615,20.3735 288.615,22.8683 C288.615,25.1087 290.136,26.4131 292.174,27.3491 C294.143,28.2515 295.145,28.8539 295.145,29.8235 C295.145,31.0271 294.108,31.5623 292.935,31.5623 C291.287,31.5623 290.113,30.5879 289.617,28.9367 C289.605,28.9049 289.587,28.8758 289.564,28.8512 C289.541,28.8266 289.513,28.807 289.482,28.7936 C289.451,28.7802 289.417,28.7733 289.384,28.7734 C289.35,28.7734 289.316,28.7804 289.285,28.7939 L286.075,30.0803 L286.075,30.0827 C286.031,30.1012 285.993,30.1325 285.966,30.1726 C285.939,30.2128 285.924,30.26 285.924,30.3083 C285.924,30.3193 285.926,30.3302 285.929,30.3407 C286.205,31.4183 286.762,32.4031 287.545,33.1939 C288.327,33.9848 289.305,34.5532 290.38,34.8407 C291.055,35.0255 291.751,35.1163 292.451,35.1107 C293.272,35.1178 294.092,35.0272 294.892,34.8407 C297.531,34.2143 299.292,32.4335 299.292,29.2595 C299.292,26.9183 297.497,25.7831 295.699,24.9815 C294.525,24.4475 292.695,23.9435 292.695,22.7723 C292.695,21.8039 293.454,21.2687 294.387,21.2687 C295.287,21.2687 296.308,21.6743 296.917,22.5407 C296.964,22.5971 297.035,22.6367 297.115,22.6367 C297.163,22.6367 297.208,22.6235 297.245,22.6007 L297.249,22.6007 L299.938,20.7287 L299.938,20.7227 L299.958,20.7095 L299.964,20.7059 C300.009,20.6721 300.039,20.6235 300.051,20.569 C300.063,20.5145 300.055,20.4575 300.029,20.4083 Z M310.839,17.9843 C310.217,17.8098 309.574,17.7206 308.928,17.7191 C308.122,17.7191 307.379,17.8103 306.715,17.9843 C304.273,18.6215 302.847,20.3735 302.847,22.8695 C302.847,25.1087 304.368,26.4131 306.406,27.3491 C308.376,28.2527 309.379,28.8539 309.379,29.8235 C309.379,31.0295 308.346,31.5599 307.169,31.5599 C305.519,31.5599 304.343,30.5843 303.845,28.9223 C303.818,28.862 303.769,28.8146 303.708,28.7906 C303.646,28.7665 303.578,28.7677 303.517,28.7939 L300.311,30.0803 L300.311,30.0827 C300.266,30.1004 300.227,30.1313 300.2,30.1713 C300.173,30.2114 300.158,30.2587 300.159,30.3071 C300.159,30.3239 300.161,30.3359 300.163,30.3539 C300.442,31.4286 301.001,32.4101 301.783,33.1983 C302.565,33.9865 303.542,34.5533 304.614,34.8407 C305.289,35.0245 305.987,35.1149 306.687,35.1095 C307.559,35.1095 308.376,35.0219 309.126,34.8407 C311.765,34.2131 313.528,32.4335 313.528,29.2583 C313.528,26.9171 311.73,25.7831 309.933,24.9779 C308.758,24.4451 306.925,23.9411 306.925,22.7711 C306.925,21.8027 307.69,21.2675 308.62,21.2675 C309.517,21.2675 310.539,21.6719 311.145,22.5335 C311.182,22.5836 311.236,22.618 311.297,22.6302 C311.359,22.6424 311.422,22.6315 311.476,22.5995 L314.201,20.7047 C314.243,20.6702 314.272,20.6224 314.283,20.5692 C314.295,20.516 314.288,20.4606 314.263,20.4119 C313.681,19.3055 312.365,18.4079 310.839,17.9843 Z M322.006,17.9867 L318.189,17.9867 C318.136,17.9863 318.084,18.0025 318.041,18.0331 C317.999,18.0637 317.966,18.1071 317.95,18.1571 L314.658,34.5443 L314.658,34.5467 C314.653,34.5643 314.651,34.5825 314.651,34.6007 C314.653,34.6651 314.681,34.726 314.727,34.7706 C314.774,34.8152 314.836,34.8399 314.901,34.8395 L318.714,34.8395 C318.768,34.8407 318.821,34.8243 318.864,34.7926 C318.908,34.761 318.94,34.7159 318.955,34.6643 L322.253,18.2471 L322.253,18.2279 C322.253,18.1958 322.246,18.164 322.234,18.1344 C322.221,18.1048 322.203,18.078 322.18,18.0556 C322.157,18.0331 322.13,18.0155 322.1,18.0037 C322.07,17.9918 322.038,17.9861 322.006,17.9867 Z M335.452,17.9843 C334.73,17.8025 333.988,17.7134 333.244,17.7191 C332.362,17.7191 331.524,17.8103 330.739,17.9843 C325.881,19.0511 322.912,23.1899 322.912,27.6503 C322.912,31.5107 325.043,34.0475 328.167,34.8395 C328.889,35.0199 329.632,35.1098 330.377,35.1071 C331.319,35.1071 332.175,35.0183 332.958,34.8395 C335.386,34.2935 337.155,32.8943 338.794,30.6059 C338.81,30.5793 338.821,30.5496 338.826,30.5185 C338.831,30.4875 338.83,30.4559 338.822,30.4254 C338.815,30.395 338.801,30.3663 338.782,30.3413 C338.763,30.3162 338.739,30.2952 338.712,30.2795 L335.699,28.7771 C335.668,28.7614 335.635,28.7532 335.601,28.7531 C335.564,28.7531 335.528,28.7613 335.496,28.7771 C335.463,28.7929 335.435,28.8159 335.412,28.8443 C334.164,30.5843 332.736,31.5635 330.754,31.5635 C328.476,31.5635 327.231,30.0251 327.231,28.2851 L327.231,27.7559 L339.551,27.7559 L339.553,27.7547 C339.601,27.7547 339.645,27.7391 339.681,27.7211 C339.732,27.6933 339.772,27.6464 339.79,27.5903 L339.792,27.5903 C339.916,27.1631 340.224,25.9547 340.224,24.4799 C340.224,21.3599 338.579,18.7907 335.452,17.9843 Z M328.061,24.4739 C328.786,22.7339 330.515,21.2639 332.691,21.2639 C334.866,21.2639 335.869,22.3667 336.009,24.4739 L328.061,24.4739 Z M354.17,21.7499 L354.18,21.7547 C354.219,21.7747 354.262,21.7847 354.305,21.7835 C354.354,21.7835 354.397,21.7715 354.431,21.7475 C354.475,21.7215 354.509,21.6819 354.529,21.6347 L355.793,18.3851 C355.807,18.355 355.814,18.3223 355.814,18.2891 C355.814,18.2414 355.799,18.195 355.772,18.1555 C355.746,18.1159 355.708,18.0848 355.664,18.0659 L355.433,17.9831 C354.898,17.8007 354.43,17.7179 353.642,17.7179 C353.013,17.716 352.386,17.8054 351.781,17.9831 C350.507,18.3599 349.278,19.1591 348.181,20.4923 L348.638,18.2819 C348.643,18.2639 348.646,18.2453 348.646,18.2267 C348.645,18.1946 348.638,18.1628 348.626,18.1333 C348.613,18.1038 348.595,18.0771 348.571,18.0547 C348.548,18.0323 348.521,18.0146 348.491,18.0028 C348.461,17.9909 348.429,17.985 348.397,17.9855 L344.586,17.9855 C344.529,17.9842 344.473,18.003 344.429,18.0388 C344.384,18.0746 344.354,18.125 344.343,18.1811 L344.343,18.1835 L341.043,34.5587 C341.039,34.5719 341.039,34.5839 341.039,34.5983 C341.038,34.6307 341.045,34.6629 341.059,34.6919 C341.095,34.7783 341.184,34.8395 341.286,34.8395 L345.101,34.8395 C345.146,34.8378 345.19,34.826 345.23,34.8047 C345.285,34.7713 345.325,34.718 345.342,34.6559 L346.516,28.8539 C347.55,23.5367 350.524,21.4295 352.666,21.4295 C353.261,21.4307 353.762,21.5435 354.17,21.7499 Z M320.871,11.4263 C319.459,11.4263 318.419,12.4655 318.419,13.8011 C318.419,15.1355 319.459,16.1759 320.871,16.1759 C322.287,16.1759 323.325,15.1355 323.325,13.8011 C323.323,12.4655 322.281,11.4263 320.871,11.4263 Z M354.392,30.4127 C352.981,30.4127 351.938,31.4519 351.938,32.7875 C351.938,33.6767 352.4,34.4351 353.124,34.8407 C353.489,35.0435 353.921,35.1635 354.392,35.1635 C354.864,35.1635 355.295,35.0435 355.661,34.8395 C356.025,34.636 356.327,34.3378 356.536,33.9766 C356.745,33.6155 356.852,33.2046 356.846,32.7875 C356.846,31.4519 355.804,30.4127 354.392,30.4127 Z" id="Shape" fill="#617080"></path>
                <path d="M477.819,5.57825 C469.18,5.57825 461.847,11.7354 461.847,21.2041 C461.847,29.7244 468.374,36.4763 477.722,36.4763 C486.345,36.4763 493.694,30.3192 493.694,20.8504 C493.694,12.3462 487.167,5.57825 477.819,5.57825 Z M477.819,34.6437 C472.194,34.6437 468.165,28.9045 468.165,20.9951 C468.165,13.4233 471.984,7.42699 477.738,7.42699 C483.363,7.42699 487.392,13.1661 487.392,21.0755 C487.376,28.6473 483.557,34.6437 477.819,34.6437 Z M567.334,17.2976 L567.334,18.5837 L569.058,18.9213 C569.655,19.0499 569.832,19.5161 569.445,20.4646 L565.48,29.9816 C565.303,30.3674 565.094,30.3674 564.965,29.9816 L561.274,20.4807 C560.887,19.5001 561.096,19.066 561.709,18.9374 L563.417,18.5998 L563.417,17.3137 L548.138,17.3137 L548.138,18.5998 L549.863,18.9374 C550.459,19.066 550.685,19.5322 550.298,20.4807 L546.478,30.496 C546.301,30.8819 546.091,30.8819 545.962,30.496 L542.094,20.4807 C541.756,19.5001 541.917,19.066 542.529,18.9374 L544.238,18.5998 L544.238,17.3137 L534.535,17.3137 L534.535,18.632 L535.486,18.8409 C536.131,18.9696 536.518,19.3071 536.776,19.918 L543.335,36.0101 L546.301,36.0101 L552.861,19.918 C553.199,19.066 553.586,18.7123 554.279,18.7123 L554.537,18.7123 C555.101,18.7123 555.52,18.9213 555.875,19.7412 L562.74,36.4442 L560.903,40.8168 C559.694,43.7266 558.808,44.241 557.68,44.241 C557.212,44.241 556.696,44.1606 556.181,44.1606 C554.843,44.1606 554.037,45.1091 554.037,46.1219 C554.037,47.2794 554.988,48.0993 556.487,48.0993 C558.631,48.0993 560.742,46.3791 562.499,42.2798 L571.847,20.4003 C572.282,19.4197 572.83,18.9856 573.732,18.8088 L574.667,18.632 L574.667,17.2976 L567.334,17.2976 Z M507.168,34.3382 L499.996,35.2385 C497.643,35.5439 496.902,34.7723 496.902,33.5666 C496.902,32.1519 498.449,31.0426 503.816,31.0426 L503.896,31.0426 C507.797,31.0426 512.39,28.6955 512.39,23.5994 C512.39,21.9758 511.794,20.4807 510.666,19.275 C510.277,18.4467 510.1,17.5355 510.15,16.6225 C510.15,12.8607 512.729,10.7226 515.388,10.7226 C516.5,10.7226 516.855,10.8994 516.855,11.6711 C516.855,11.88 516.806,12.0569 516.806,12.3141 C516.806,13.6484 517.918,14.8862 519.514,14.8862 C521.142,14.8862 522.173,13.6002 522.173,12.1855 C522.173,10.0474 520.239,8.45585 516.677,8.45585 C511.778,8.45585 508.006,11.6228 508.006,16.4617 C508.006,16.8475 508.055,17.153 508.055,17.4423 C506.787,16.9244 505.428,16.6622 504.058,16.6707 C500.19,16.6707 495.564,19.0178 495.564,24.1139 C495.564,26.461 496.902,28.6473 499.206,29.9334 C495.773,30.3996 493.807,32.2483 493.807,35.1099 C493.807,38.0196 496.128,40.1256 500.464,39.6111 L506.733,38.8395 C509.86,38.4537 510.891,39.5629 510.891,41.1866 C510.891,44.016 508.232,46.2827 503.977,46.2827 C500.592,46.2827 499.335,45.077 499.335,43.3729 L499.384,42.5209 C499.384,41.492 498.739,40.7686 497.707,40.7204 C496.499,40.7204 495.773,41.5724 495.773,42.8103 C495.773,45.6396 498.481,48.1636 504.009,48.1636 C510.231,48.1636 514.179,44.1446 514.179,39.5147 C514.195,35.8333 511.246,33.8238 507.168,34.3382 Z M503.945,18.1979 C505.959,18.1979 507.587,20.4646 507.587,23.937 C507.587,26.9272 506.217,29.4993 504.074,29.4993 C502.011,29.4993 500.383,27.2326 500.383,23.7602 C500.383,20.8183 501.753,18.1979 503.945,18.1979 Z" id="Shape" fill="#617080"></path>
                <path d="M532.875,33.7916 L532.875,4.16351 L525.316,6.09263 L525.316,6.99289 L527.46,7.68416 C527.798,7.81276 527.927,8.06998 527.927,8.40758 L527.927,33.663 C527.927,34.1292 527.54,34.4828 526.976,34.4828 L525.058,34.515 L523.027,34.4828 C522.463,34.4828 522.077,34.1452 522.077,33.663 L522.077,16.5742 L514.518,18.5033 L514.518,19.4036 L516.661,20.0948 C517,20.2234 517.129,20.4806 517.129,20.8182 L517.129,33.7916 C517.129,34.1774 516.919,34.3864 516.613,34.4346 L514.856,34.6436 L514.856,36.0101 L535.454,36.0101 L535.454,34.6436 L533.359,34.4346 C533.085,34.3864 532.875,34.1774 532.875,33.7916 Z" id="Shape" fill="#617080"></path>
            </g>
            <g id="Group" transform="translate(112.000000, 87.921938)" fill="#617080">
                <path d="M59.745,5.6708 L59.745,23.727 C59.745,23.7324 59.745,23.7377 59.745,23.7431 C59.743,24.0372 59.629,24.3184 59.427,24.5252 C59.225,24.7321 58.952,24.8476 58.669,24.8465 L57.873,24.8465 C57.589,24.8476 57.316,24.7318 57.114,24.5245 C56.912,24.3173 56.798,24.0355 56.796,23.7411 L56.796,23.725 C56.797,23.7197 56.797,23.7143 56.796,23.709 L56.796,5.6788 C56.798,5.6715 56.798,5.6641 56.796,5.6568 C56.799,5.3627 56.913,5.0814 57.115,4.8746 C57.316,4.6678 57.589,4.5522 57.873,4.5533 L58.669,4.5533 C58.953,4.5522 59.226,4.6681 59.428,4.8753 C59.629,5.0826 59.744,5.3643 59.745,5.6588 L59.745,5.6708 Z M73.366,13.4089 C72.537,13.1822 71.763,13.0438 70.942,12.8973 C69.73,12.7099 68.534,12.4241 67.366,12.0426 C66.33,11.6875 65.43,10.6844 65.782,9.5248 C66.181,8.2328 67.569,7.5848 68.361,7.3179 C71.031,6.4031 73.28,7.968 74.382,8.9831 C74.853,9.4225 75.209,9.4024 75.737,9.2058 C75.971,9.097 76.187,8.9523 76.378,8.7765 C76.765,8.3993 77.038,7.8014 76.698,7.2557 C76.68,7.2256 76.593,7.0892 76.504,6.9688 C76.463,6.913 76.418,6.8607 76.369,6.8124 C74.725,5.2073 72.56,4.2996 70.301,4.2683 C68.043,4.2371 65.856,5.0848 64.171,6.6438 C62.829,7.8676 62.442,9.6532 62.913,11.529 C63.277,12.9816 64.192,14.0308 65.844,14.6688 C66.897,15.0455 67.975,15.3432 69.069,15.5596 L69.174,15.5837 C69.633,15.686 70.121,15.7662 70.593,15.8405 C71.577,15.999 72.593,16.1635 73.497,16.5567 C74.103,16.8235 74.853,17.4615 75.046,18.2259 C75.28,19.1107 74.736,19.9332 74.394,20.3445 C73.416,21.5141 71.248,22.5072 68.8,21.9234 C67.433,21.5984 65.662,19.9954 65.28,19.6383 L65.253,19.6102 C64.725,19.0485 64.355,19.0505 63.77,19.2671 C63.537,19.3759 63.321,19.5207 63.129,19.6965 C62.742,20.0737 62.469,20.6715 62.81,21.2172 C62.831,21.2533 62.951,21.4439 63.05,21.5703 C63.596,22.2726 64.232,22.8943 64.94,23.4181 C66.475,24.5511 68.315,25.1566 70.2,25.1495 L70.219,25.1495 C72.112,25.1527 73.958,24.5385 75.495,23.394 C77.486,21.9134 78.456,19.5821 77.966,17.4635 C77.503,15.4814 75.958,14.1171 73.366,13.4089 Z M19.66,20.0516 L19.714,19.9653 C19.909,19.6937 20.027,19.3714 20.055,19.0344 C20.049,18.8331 20,18.6356 19.912,18.4557 C19.825,18.2759 19.7,18.118 19.548,17.9932 C19.132,17.6421 18.483,17.3271 17.968,17.4114 C17.849,17.428 17.736,17.4715 17.636,17.5388 C17.535,17.6061 17.45,17.6954 17.387,17.8006 C17.288,17.9591 17.211,18.1055 17.137,18.246 C17.064,18.3864 17.002,18.5028 16.922,18.6312 C16.222,19.7664 15.232,20.678 14.061,21.2642 C12.89,21.8505 11.586,22.0884 10.292,21.9515 C8.999,21.8147 7.767,21.3084 6.735,20.489 C5.703,19.6697 4.911,18.5695 4.446,17.3111 C3.844,15.6301 3.853,13.779 4.474,12.1051 C5.095,10.4311 6.283,9.0493 7.817,8.2187 C9.405,7.3799 11.242,7.1978 12.954,7.7092 C14.667,8.2207 16.129,9.3874 17.042,10.9733 L17.135,11.1378 C17.262,11.389 17.421,11.6206 17.61,11.826 C17.685,11.8982 17.774,11.9533 17.871,11.9878 C17.968,12.0224 18.071,12.0356 18.173,12.0266 C18.756,11.9694 19.3,11.6966 19.705,11.2582 C20.311,10.564 19.958,9.8398 19.544,9.1577 C19.109,8.4399 18.592,7.7791 18.005,7.1895 C16.184,5.3182 13.743,4.2372 11.18,4.1671 C8.617,4.0971 6.124,5.0432 4.211,6.8124 C2.298,8.5817 1.108,11.0407 0.885,13.6878 C0.662,16.3348 1.422,18.9704 3.01,21.0567 C4.043,22.438 5.391,23.5319 6.933,24.2403 C8.475,24.9487 10.162,25.2493 11.844,25.1154 C13.441,24.9751 14.983,24.4427 16.343,23.5621 C17.702,22.6815 18.839,21.4782 19.66,20.0516 Z M31.61,7.5486 C32.404,7.5186 32.63,7.0952 32.756,6.377 C32.786,6.1046 32.793,5.8301 32.777,5.5564 C32.768,5.2435 32.642,4.9465 32.425,4.7285 C32.208,4.5105 31.918,4.3887 31.616,4.3888 C26.301,4.3888 21.98,9.0674 21.98,14.8052 L21.98,22.7861 C21.98,22.8804 21.98,22.9867 21.98,23.083 C21.966,23.5104 21.949,23.9959 22.173,24.3349 C22.516,24.8525 23.048,24.8485 23.61,24.8405 L23.643,24.8405 C24.017,24.8493 24.38,24.7052 24.653,24.4393 C24.748,24.3379 24.821,24.2177 24.869,24.0859 C24.917,23.9541 24.938,23.8136 24.932,23.6729 L24.932,14.6969 C24.986,10.7566 27.974,7.5547 31.612,7.5486 L31.61,7.5486 Z M52.831,4.5393 L52.047,4.5393 C51.762,4.5398 51.488,4.6575 51.287,4.8666 C51.085,5.0757 50.971,5.3591 50.971,5.6547 C50.971,5.6608 50.971,5.6668 50.971,5.6728 L50.971,14.8574 C50.917,18.7877 47.921,21.9776 44.276,21.9776 C40.63,21.9776 37.635,18.7877 37.581,14.8574 L37.581,5.6889 C37.58,5.6828 37.58,5.6768 37.581,5.6708 L37.581,5.6547 C37.581,5.508 37.553,5.3626 37.499,5.227 C37.445,5.0913 37.366,4.9679 37.266,4.864 C37.166,4.76 37.047,4.6775 36.917,4.6211 C36.786,4.5647 36.646,4.5355 36.504,4.5353 L35.708,4.5353 C35.566,4.5342 35.425,4.5623 35.293,4.618 C35.162,4.6737 35.042,4.7558 34.941,4.8597 C34.84,4.9636 34.76,5.0871 34.705,5.2232 C34.65,5.3593 34.622,5.5053 34.622,5.6527 C34.623,5.6588 34.623,5.6648 34.622,5.6708 L34.622,14.8193 C34.657,20.5231 38.984,25.1635 44.266,25.1635 C49.548,25.1635 53.875,20.5231 53.91,14.8193 L53.91,5.6889 C53.909,5.6828 53.909,5.6768 53.91,5.6708 L53.91,5.6527 C53.91,5.3567 53.796,5.0728 53.595,4.8633 C53.393,4.6538 53.119,4.5358 52.833,4.5353 L52.831,4.5393 Z M97.67,21.2052 C97.896,20.9113 98.107,20.6045 98.301,20.2863 L98.396,20.1359 C98.609,19.7988 98.849,19.4156 98.847,19.0164 C98.84,18.8155 98.792,18.6184 98.705,18.439 C98.617,18.2595 98.493,18.1019 98.341,17.9771 L98.318,17.9571 C97.944,17.6388 97.49,17.4389 97.009,17.3813 L96.978,17.3813 C96.458,17.3813 96.194,17.8186 95.913,18.2801 L95.817,18.4366 C95.176,19.4706 94.315,20.3383 93.3,20.9725 C92.295,21.5757 91.16,21.9105 89.999,21.9467 C88.838,21.9828 87.687,21.7192 86.648,21.1795 C85.61,20.6399 84.718,19.8411 84.051,18.8552 C83.385,17.8693 82.966,16.7271 82.831,15.5315 C82.691,14.1615 82.924,12.7782 83.502,11.5375 C84.08,10.2969 84.981,9.2482 86.103,8.5096 C87.443,7.6644 89.017,7.3062 90.576,7.4915 C92.134,7.6768 93.589,8.3951 94.709,9.5328 L94.746,9.5709 L89.267,13.2745 C88.552,13.756 87.569,14.2656 88.13,15.2968 C88.376,15.7482 88.744,16.338 89.267,16.4885 C89.419,16.5282 89.578,16.5338 89.732,16.5051 C89.887,16.4764 90.034,16.414 90.163,16.322 C90.477,16.1213 97.973,11.0496 97.973,11.0496 C98.203,10.9197 98.393,10.7267 98.523,10.4918 C98.816,9.8899 98.485,9.3703 98.163,8.8708 C97.238,7.4492 95.991,6.2838 94.532,5.476 C93.072,4.6682 91.444,4.2426 89.79,4.2363 L89.58,4.2363 C88.014,4.272 86.477,4.6853 85.092,5.4436 C83.707,6.2018 82.511,7.284 81.599,8.6045 C80.688,9.925 80.086,11.4474 79.841,13.0509 C79.596,14.6545 79.715,16.2951 80.188,17.8427 C80.741,19.6455 81.755,21.259 83.124,22.5109 C84.492,23.7628 86.163,24.6062 87.958,24.951 C89.752,25.2958 91.604,25.1291 93.314,24.4687 C95.025,23.8083 96.53,22.6789 97.67,21.2012 L97.67,21.2052 Z" id="Shape"></path>
                <path d="M255.073,20.3894 C251.566,20.3894 248.722,17.6021 248.722,14.1631 C248.722,10.7247 251.566,7.9371 255.073,7.9371 C258.581,7.9371 261.423,10.7247 261.423,14.1631 C261.423,17.6021 258.581,20.3894 255.073,20.3894 Z M261.444,21.1792 C261.444,21.7492 262.462,23.3509 263.71,23.3509 L264.519,23.3509 C264.832,23.3509 265.088,23.1046 265.088,22.8041 L265.088,5.766 L265.085,5.766 C265.069,5.4791 264.821,5.2491 264.519,5.2491 L262.014,5.2491 C261.711,5.2491 261.464,5.4791 261.447,5.766 L261.444,5.766 L261.444,7.1506 C259.909,5.3374 257.49,4.5851 255.063,4.5851 C249.548,4.5851 245.078,8.8731 245.078,14.1631 C245.078,19.4532 249.548,23.7419 255.063,23.7419 C257.49,23.7419 260.134,22.839 261.443,21.1767 L261.444,21.1792 Z M271.072,18.7391 C272.744,19.8498 274.57,20.3894 276.323,20.3894 C277.994,20.3894 279.722,19.5584 279.722,18.1126 C279.722,16.1818 275.958,15.8813 273.593,15.1105 C271.228,14.3396 269.19,12.7456 269.19,10.1647 C269.19,6.2158 272.859,4.5846 276.283,4.5846 C278.452,4.5846 280.691,5.2709 282.142,6.254 C282.642,6.617 282.337,7.0342 282.337,7.0342 L280.952,8.932 C280.796,9.1456 280.474,9.3164 280.133,9.0988 C279.2,8.5071 278.161,7.9369 276.283,7.9369 C273.958,7.9369 272.935,8.8626 272.935,10.0093 C272.935,11.385 274.571,11.8175 276.487,12.2865 C279.825,13.1493 283.467,14.1871 283.467,18.1126 C283.467,21.5919 280.073,23.7425 276.323,23.7425 C273.482,23.7425 271.062,22.9651 269.033,21.5368 C268.61,21.1311 268.905,20.7543 268.905,20.7543 L270.284,18.8664 C270.564,18.513 270.918,18.6364 271.072,18.7391 Z M302.251,21.1792 C302.251,21.7492 303.269,23.3509 304.517,23.3509 L305.325,23.3509 C305.639,23.3509 305.895,23.1046 305.895,22.8041 L305.895,5.766 L305.892,5.766 C305.875,5.4791 305.628,5.2491 305.325,5.2491 L302.821,5.2491 C302.518,5.2491 302.27,5.4791 302.254,5.766 L302.251,5.766 L302.251,7.1506 C300.716,5.3374 298.296,4.5851 295.87,4.5851 C290.355,4.5851 285.884,8.8731 285.884,14.1631 C285.884,19.4532 290.355,23.7419 295.87,23.7419 C298.296,23.7419 300.941,22.839 302.25,21.1767 L302.251,21.1792 Z M295.88,20.3894 C292.372,20.3894 289.529,17.6021 289.529,14.1631 C289.529,10.7247 292.372,7.9371 295.88,7.9371 C299.387,7.9371 302.23,10.7247 302.23,14.1631 C302.23,17.6021 299.387,20.3894 295.88,20.3894 Z M328.34,21.7648 L328.33,12.9486 L328.34,12.9486 C328.34,7.9786 325.07,4.626 319.85,4.626 C317.365,4.626 315.33,6.006 314.609,7.1914 L314.609,7.1749 L314.605,7.1885 C314.603,5.9887 313.589,5.2901 312.339,5.2901 L311.534,5.2901 C311.221,5.2901 310.964,5.5364 310.964,5.8372 L310.964,21.2218 L310.964,21.2244 L310.964,22.8763 L310.968,22.8763 C310.984,23.1632 311.232,23.3935 311.534,23.3935 L314.039,23.3935 C314.077,23.3935 314.115,23.3891 314.151,23.3825 C314.168,23.3792 314.183,23.3729 314.199,23.3684 C314.218,23.3631 314.238,23.3588 314.255,23.3516 C314.278,23.3429 314.298,23.3308 314.319,23.3197 C314.329,23.3138 314.34,23.3096 314.349,23.3038 C314.374,23.2882 314.397,23.2695 314.419,23.2504 C314.423,23.2468 314.427,23.2444 314.431,23.2411 C314.456,23.2182 314.478,23.1931 314.499,23.1663 L314.499,23.166 C314.562,23.0833 314.6,22.984 314.606,22.8763 L314.609,22.8763 L314.609,12.8118 C314.609,10.1426 316.865,7.9786 319.65,7.9786 C322.43,7.9786 324.69,10.1426 324.69,12.8118 L324.69,21.2247 L324.69,21.2218 C324.69,21.2291 324.69,21.237 324.69,21.2447 L324.69,22.8763 C324.71,23.1632 324.96,23.3935 325.26,23.3935 L327.77,23.3935 C327.8,23.3935 327.84,23.3891 327.88,23.3825 C327.89,23.3793 327.91,23.3736 327.92,23.3703 C327.94,23.3645 327.96,23.3593 327.98,23.3516 C328,23.3433 328.02,23.3322 328.04,23.3219 C328.05,23.3156 328.07,23.3108 328.08,23.3038 C328.1,23.2888 328.12,23.2713 328.14,23.2541 C328.15,23.2495 328.15,23.2456 328.16,23.2409 C328.18,23.2191 328.2,23.1953 328.22,23.1705 C328.22,23.1683 328.23,23.1668 328.23,23.1651 C328.29,23.0833 328.33,22.9847 328.33,22.8778 C328.33,22.8772 328.33,22.8763 328.33,22.8763 L328.34,22.8763 L328.34,21.7652 L328.34,21.7648 Z M347.87,21.1792 C347.87,21.7492 348.89,23.3509 350.13,23.3509 L350.94,23.3509 C351.26,23.3509 351.51,23.1046 351.51,22.8041 L351.51,5.766 C351.49,5.4791 351.25,5.2491 350.94,5.2491 L348.44,5.2491 C348.13,5.2491 347.89,5.4791 347.87,5.766 L347.87,7.1506 C346.33,5.3374 343.91,4.5851 341.49,4.5851 C335.97,4.5851 331.5,8.8731 331.5,14.1631 C331.5,19.4532 335.97,23.7419 341.49,23.7419 C343.91,23.7419 346.56,22.839 347.87,21.1767 L347.87,21.1792 Z M341.5,20.3894 C337.99,20.3894 335.15,17.6021 335.15,14.1631 C335.15,10.7247 337.99,7.9371 341.5,7.9371 C345,7.9371 347.85,10.7247 347.85,14.1631 C347.85,17.6021 345,20.3894 341.5,20.3894 Z M231.498,14.9869 C235.282,14.9869 238.349,17.9364 238.349,21.575 C238.349,25.2138 235.282,28.1635 231.498,28.1635 C227.714,28.1635 224.647,25.2138 224.647,21.575 C224.647,17.9364 227.714,14.9869 231.498,14.9869 Z M213.698,14.9874 C217.482,14.9874 220.549,17.9364 220.549,21.5753 C220.549,25.2138 217.482,28.1635 213.698,28.1635 C209.914,28.1635 206.847,25.2138 206.847,21.5753 C206.847,17.9364 209.914,14.9874 213.698,14.9874 Z M229.449,6.7516 C229.449,10.3901 226.382,13.3403 222.598,13.3403 C218.814,13.3403 215.747,10.3901 215.747,6.7516 C215.747,3.1132 218.814,0.1635 222.598,0.1635 C226.382,0.1635 229.449,3.1132 229.449,6.7516 Z" id="Shape"></path>
            </g>
        </g>
    </g>
</svg>