<svg width="1900" height="833" xmlns="http://www.w3.org/2000/svg">

 <g>
  <title>background</title>
  <rect fill="none" id="canvas_background" height="402" width="582" y="-1" x="-1"/>
 </g>
 <g>
  <title>Layer 1</title>
  <rect id="svg_6" height="806.153919" width="2023.077106" y="64.96153" x="-8.46166" stroke-width="1.5" fill="#adb8c1"/>
  <g id="svg_1" fill="#97a4b1">
   <path id="svg_2" d="m1058,9c17,-3 34,-2 51,-2c6,0 11,2 17,3l25,6l23,5l32,5c6,0 11,-1 17,1l-17,4l-28,3l-179,16c-6,1 -13,-1 -19,-1l-15,0l-23,-1l-23,-1l-22,-1l-22,-1l-23,-1c-8,-1 -16,0 -24,-2l-22,-1c-7,0 -14,1 -21,-1c6,-3 12,-2 18,-3l188,-14l16,-3l51,-11zm-606,3c18,-3 37,-2 55,-2c5,0 10,2 15,4l17,8l26,8l-2,2l-23,-1l-19,-1l-31,-1l-29,-2l-20,0c-16,-2 -31,1 -46,1l-16,2l-15,0l14,-3l74,-15zm506,63c7,0 14,-1 20,2c3,1 7,3 7,7c-1,4 -5,6 -8,7c-9,2 -18,2 -26,-2c-2,-2 -4,-5 -2,-8s6,-5 9,-6zm367,8c12,-1 24,-1 35,4c4,1 8,4 10,8c2,3 1,6 -2,8c-6,6 -14,8 -22,9c-11,1 -23,0 -33,-4c-4,-1 -7,-3 -10,-6c-2,-3 -1,-7 1,-10c5,-6 14,-7 21,-9zm-901,5c12,-3 25,-4 38,-2c9,0 19,2 26,8c2,2 4,6 2,9c-7,7 -18,9 -27,10l-14,1c-9,0 -17,-1 -26,-4l-11,-5c-2,-2 -3,-6 -1,-9c3,-4 8,-7 13,-8zm1139,6c6,-4 14,-3 21,-3c6,0 13,0 19,3c1,1 3,4 1,5c-7,5 -15,5 -22,5s-16,0 -22,-5c0,-2 1,-4 3,-5zm-885,43c13,-3 27,-2 41,-1c13,1 28,4 38,14c4,3 7,8 5,12c-2,6 -7,10 -12,13c-9,4 -18,6 -27,7l-29,2c-13,-1 -26,-3 -37,-9c-6,-2 -11,-6 -14,-11c-2,-5 1,-10 3,-14c9,-8 21,-11 32,-13zm-530,8c18,-1 36,0 53,3c16,2 31,6 45,13c5,4 11,8 13,14c2,5 0,11 -4,15c-7,8 -18,12 -28,15c-15,5 -31,7 -47,8l-26,1l-36,-4c-12,-2 -23,-6 -34,-11c-7,-4 -14,-8 -16,-16c-3,-7 2,-14 7,-18c13,-9 29,-14 45,-16l28,-4zm830,50c13,-1 26,-1 37,5c4,2 9,5 9,10c-1,5 -5,8 -9,10c-11,4 -23,4 -34,4c-8,-1 -17,-3 -24,-9c-2,-3 -3,-7 0,-10c5,-7 14,-8 21,-10zm476,24l33,1c10,1 21,3 29,9c2,2 5,5 5,9c0,3 -3,5 -5,7c-6,5 -15,8 -23,9c-15,3 -31,3 -46,0c-8,-2 -16,-4 -22,-9c-2,-2 -5,-4 -5,-7c0,-4 3,-7 6,-9c8,-6 19,-8 28,-10zm-1364,168c11,-10 27,-13 41,-15l31,1c13,1 27,4 38,13c4,3 7,8 5,13c-2,6 -8,11 -14,13c-8,4 -16,6 -25,7l-15,2c-17,1 -33,-2 -49,-7c-6,-3 -12,-7 -16,-13c-2,-5 1,-11 4,-14zm1065,-7l6,-1c22,-1 43,0 65,2c13,1 25,2 38,5c20,4 40,9 59,18c10,5 19,10 27,17c5,4 9,9 12,14c3,6 4,13 2,20s-6,14 -12,19c-8,7 -17,13 -27,18l-13,5c-37,14 -77,19 -117,21c-13,0 -25,1 -38,-1c-26,-1 -51,-4 -76,-11c-22,-5 -42,-12 -61,-24c-5,-4 -11,-9 -15,-15c-7,-8 -9,-19 -5,-29c5,-12 16,-20 26,-27l22,-10a285,285 0 0 1 107,-21zm517,25c18,-7 37,-7 56,-5c14,1 29,4 40,15c3,3 5,7 3,11c-2,6 -8,11 -14,13c-8,4 -16,6 -25,7l-29,2c-13,-1 -26,-3 -37,-9c-6,-2 -11,-6 -14,-11c-2,-5 1,-10 3,-14c5,-4 11,-7 17,-9zm-897,140c13,-3 27,-2 41,-1c13,1 28,4 38,14c4,3 7,8 5,12c-2,6 -7,10 -13,13c-8,4 -17,6 -26,7l-29,2c-13,-1 -26,-3 -37,-9c-6,-2 -11,-6 -14,-11c-2,-5 1,-10 4,-14c8,-8 20,-11 31,-13z"/>
  </g>
  <path id="svg_3" d="m1335,11c15,0 30,-2 45,-1l24,1l18,1l21,1l20,1l21,1l20,1l20,1l21,2l93,14l62,7l114,12l24,0c6,0 11,3 17,3l18,-2l16,-2l11,-1l0,783l-1900,0l0,-783l20,0c4,0 7,3 11,4l12,2l10,0c8,-3 16,1 23,-1c8,-2 16,1 23,-1c5,-2 10,-1 14,-1l50,-7l35,-5l13,-2l9,-1l11,0c5,-2 11,1 17,-1l12,-1l18,-1l86,-5l15,0l16,-2c15,0 30,-3 46,-1l20,0l29,2l31,1l19,1l23,1l31,1l25,1c9,1 18,-1 27,1c9,1 18,-1 28,1l28,1c9,1 18,-1 27,1l22,1l23,1l11,0c7,2 14,1 21,1l22,1c8,2 16,1 24,2l23,1l22,1l22,1l23,1l23,1l15,0c6,0 13,2 19,1l179,-16l28,-3l17,-4l71,-13l18,-1l23,-2m-377,64c-3,1 -7,3 -9,6s0,6 2,8c8,4 17,4 26,2c3,-1 7,-3 8,-7c0,-4 -4,-6 -7,-7c-6,-3 -13,-2 -20,-2m367,8c-7,2 -16,3 -21,9c-2,3 -3,7 -1,10c3,3 6,5 10,6c10,4 22,5 33,4c8,-1 16,-3 22,-9c3,-2 4,-5 2,-8c-2,-4 -6,-7 -10,-8c-11,-5 -23,-5 -35,-4m-901,5c-5,1 -10,4 -13,8c-2,3 -1,7 1,9l11,5c9,3 17,4 26,4l14,-1l6,0c7,-1 15,-1 21,-5c4,-1 7,-3 9,-7c0,-3 -1,-6 -4,-7c-7,-6 -16,-7 -25,-9l-8,1c-13,-2 -26,-1 -38,2m1139,6c-2,1 -3,3 -3,5c6,5 15,5 22,5s15,0 22,-5c2,-1 0,-4 -1,-5c-6,-3 -13,-3 -19,-3c-7,0 -15,-1 -21,3m-885,43c-11,2 -23,5 -32,13c-2,4 -5,9 -3,14c3,5 8,9 14,11c11,6 24,8 37,9l29,-2l3,1c10,-1 21,-3 31,-7c7,-3 16,-7 18,-15c1,-6 -4,-10 -8,-13c-12,-8 -25,-11 -38,-12c-3,0 -7,-2 -10,0c-14,-1 -28,-2 -41,1m-522,7l-11,0l0,1l3,0l-28,4c-16,2 -32,7 -45,16c-5,4 -10,11 -7,18c2,8 9,12 16,16c11,5 22,9 34,11l36,4l-6,0l4,1l17,1l40,-1c17,-1 33,-4 49,-9c8,-3 16,-6 23,-11c5,-3 9,-8 11,-13c1,-7 -4,-13 -9,-17c-16,-11 -35,-16 -53,-19c-25,-4 -49,-4 -74,-2m822,51c-7,2 -16,3 -21,10c-3,3 -2,7 0,10c7,6 16,8 24,9c11,0 23,0 34,-4c4,-2 8,-5 9,-10c0,-5 -5,-8 -9,-10c-11,-6 -24,-6 -37,-5m476,24c-9,2 -20,4 -28,10c-3,2 -6,5 -6,9c0,3 3,5 5,7c6,5 14,7 22,9c15,3 31,3 46,0c8,-1 17,-4 23,-9c2,-2 5,-4 5,-7c0,-4 -3,-7 -5,-9c-8,-6 -19,-8 -29,-9l-33,-1m-1364,168c-3,3 -6,9 -4,14c4,6 10,10 16,13c16,5 32,8 49,7l15,-2c3,2 6,1 9,0c13,-1 27,-4 37,-13c4,-3 8,-9 5,-14s-9,-9 -14,-11c-10,-5 -20,-7 -31,-8c-3,0 -7,-2 -10,0l-31,-1c-14,2 -30,5 -41,15m1077,-9l-6,1l-6,1a313,313 0 0 0 -107,21l-22,10c-10,7 -21,15 -26,27c-4,10 -2,21 5,29c4,6 10,11 15,15c19,12 39,19 61,24c25,7 50,10 76,11c13,2 25,1 38,1c40,-2 80,-7 117,-21l13,-5c9,-1 18,-5 27,-7c18,-7 37,-13 50,-28c6,-5 9,-13 8,-21c-1,-6 -5,-12 -9,-16c-12,-12 -29,-19 -45,-25a507,507 0 0 0 -189,-17m505,27c-6,2 -12,5 -17,9c-2,4 -5,9 -3,14c3,5 8,9 14,11c11,6 24,8 37,9l29,-2c2,2 5,1 8,1c13,-2 26,-5 37,-13c4,-3 9,-9 6,-14c-3,-6 -9,-10 -15,-13c-9,-4 -19,-6 -29,-7c-4,0 -8,-2 -11,0c-19,-2 -38,-2 -56,5m-897,140c-11,2 -23,5 -31,13c-3,4 -6,9 -4,14c3,5 8,9 14,11c11,6 24,8 37,9l29,-2c3,2 6,0 9,0c8,-1 16,-2 23,-5c8,-3 17,-7 20,-15c1,-6 -4,-11 -8,-14c-12,-8 -25,-11 -38,-12c-3,0 -7,-2 -10,0c-14,-1 -28,-2 -41,1z" fill="#adb8c1"/>
  <g id="svg_4" fill="#d0d7dc">
   <path id="svg_5" d="m462,86l8,-1c9,2 18,3 25,9c3,1 4,4 4,7c-2,4 -5,6 -9,7c-6,4 -14,4 -21,5l-6,0c9,-1 20,-3 27,-10c2,-3 0,-7 -2,-9c-7,-6 -17,-8 -26,-8zm257,50c3,-2 7,0 10,0c13,1 26,4 38,12c4,3 9,7 8,13c-2,8 -11,12 -18,15c-10,4 -21,6 -31,7l-3,-1c9,-1 18,-3 27,-7c5,-3 10,-7 12,-13c2,-4 -1,-9 -5,-12c-10,-10 -25,-13 -38,-14zm-563,8c25,-2 49,-2 74,2c18,3 37,8 53,19c5,4 10,10 9,17c-2,5 -6,10 -11,13c-7,5 -15,8 -23,11c-16,5 -32,8 -49,9l-40,1l-17,-1l-4,-1l6,0l26,-1c16,-1 32,-3 47,-8c10,-3 21,-7 28,-15c4,-4 6,-10 4,-15c-2,-6 -8,-10 -13,-14c-14,-7 -29,-11 -45,-13c-17,-3 -35,-4 -53,-3l-3,0l0,-1l11,0zm6,229c3,-2 7,0 10,0c11,1 21,3 31,8c5,2 11,6 14,11s-1,11 -5,14c-10,9 -24,12 -37,13c-3,1 -6,2 -9,0c9,-1 17,-3 25,-7c6,-2 12,-7 14,-13c2,-5 -1,-10 -5,-13c-11,-9 -25,-12 -38,-13zm1005,5a438,438 0 0 1 121,2c23,3 46,7 68,15c16,6 33,13 45,25c4,4 8,10 9,16c1,8 -2,16 -8,21c-13,15 -32,21 -50,28c-9,2 -18,6 -27,7c10,-5 19,-11 27,-18c6,-5 10,-12 12,-19s1,-14 -2,-20c-3,-5 -7,-10 -12,-14c-8,-7 -17,-12 -27,-17c-19,-9 -39,-14 -59,-18a472,472 0 0 0 -103,-7l6,-1zm561,22c3,-2 7,0 11,0c10,1 20,3 29,7c6,3 12,7 15,13c3,5 -2,11 -6,14c-11,8 -24,11 -37,13c-3,0 -6,1 -8,-1c9,-1 17,-3 25,-7c6,-2 12,-7 14,-13c2,-4 0,-8 -3,-11c-11,-11 -26,-14 -40,-15zm-912,144c3,-2 7,0 10,0c13,1 26,4 38,12c4,3 9,8 8,14c-3,8 -12,12 -20,15c-7,3 -15,4 -23,5c-3,0 -6,2 -9,0c9,-1 18,-3 26,-7c6,-3 11,-7 13,-13c2,-4 -1,-9 -5,-12c-10,-10 -25,-13 -38,-14z"/>
  </g>
 </g>
</svg>