<?xml version="1.0" encoding="UTF-8" ?>
<!DOCTYPE svg PUBLIC "-//W3C//DTD SVG 1.1//EN" "http://www.w3.org/Graphics/SVG/1.1/DTD/svg11.dtd">
<svg width="1200pt" height="616pt" viewBox="0 0 1200 616" version="1.1" xmlns="http://www.w3.org/2000/svg">
<g id="#17354fff">
</g>
<g id="#97a4b1ff">
<path fill="#97a4b1" opacity="1.00" d=" M 0.00 89.37 C 48.22 94.15 96.44 98.82 144.66 103.55 C 152.43 104.56 160.17 101.84 167.90 103.36 C 183.90 105.86 199.98 107.83 215.96 110.42 C 219.10 110.88 222.27 110.97 225.44 110.97 C 217.72 112.57 209.80 112.08 201.99 112.92 C 181.57 113.53 161.52 117.72 141.31 120.37 C 124.73 123.52 107.78 122.65 91.04 124.29 C 83.16 124.94 75.20 124.31 67.36 125.50 C 45.13 128.87 22.90 132.20 0.67 135.50 L 0.00 134.33 L 0.00 89.37 Z" />
<path fill="#97a4b1" opacity="1.00" d=" M 678.54 98.35 C 686.66 96.86 694.61 94.04 702.95 94.11 C 709.62 94.02 716.30 93.80 722.98 93.67 C 730.21 93.40 737.01 96.26 743.99 97.74 C 754.45 100.70 765.27 102.04 775.96 103.90 C 781.94 104.93 788.00 105.27 794.05 105.73 C 783.44 108.93 772.33 109.62 761.35 110.56 C 727.87 113.65 694.37 116.68 660.88 119.67 C 646.23 119.55 631.60 118.63 616.97 118.00 C 590.86 116.91 564.75 115.71 538.65 114.57 C 536.12 114.39 533.63 113.89 531.14 113.47 C 534.06 112.91 537.00 112.41 539.97 112.18 C 576.60 109.34 613.21 106.21 649.86 103.68 C 659.62 103.18 668.99 100.17 678.54 98.35 Z" />
<path fill="#97a4b1" opacity="1.00" d=" M 326.58 97.51 C 336.20 95.09 346.18 95.99 355.99 95.60 C 360.43 95.60 365.10 94.82 369.30 96.67 C 376.20 99.46 382.85 102.87 389.99 105.04 C 393.25 106.04 396.48 107.20 399.53 108.76 C 393.82 109.17 388.09 109.06 382.40 108.54 C 369.94 107.81 357.46 107.41 345.00 106.94 C 329.03 105.83 312.95 105.11 297.02 106.99 C 291.57 107.74 286.06 107.91 280.58 107.41 C 295.76 103.46 311.28 100.97 326.58 97.51 Z" />
<path fill="#97a4b1" opacity="1.00" d=" M 634.36 135.35 C 639.40 134.30 645.25 134.22 649.60 137.36 C 650.92 138.17 651.41 140.07 650.38 141.31 C 647.96 144.40 643.66 144.99 639.99 145.05 C 636.31 144.93 632.14 144.42 629.37 141.75 C 627.58 138.38 631.45 135.78 634.36 135.35 Z" />
<path fill="#97a4b1" opacity="1.00" d=" M 859.35 139.48 C 865.71 139.22 872.40 139.89 878.15 142.82 C 880.55 144.34 884.04 147.72 881.68 150.64 C 878.34 154.68 872.83 155.97 867.88 156.68 C 860.55 157.37 852.76 157.15 846.02 153.92 C 843.24 152.51 839.55 149.35 841.95 146.03 C 845.79 140.65 853.33 140.27 859.35 139.48 Z" />
<path fill="#97a4b1" opacity="1.00" d=" M 313.09 143.10 C 323.59 139.53 334.82 140.94 345.53 142.61 C 349.17 143.85 353.85 145.56 354.66 149.85 C 353.15 153.97 348.46 155.34 344.64 156.39 C 333.39 158.33 321.22 159.49 310.57 154.50 C 308.48 153.44 305.54 151.79 306.09 149.02 C 307.13 145.97 310.26 144.24 313.09 143.10 Z" />
<path fill="#97a4b1" opacity="1.00" d=" M 995.63 148.86 C 998.08 144.48 1003.56 144.47 1007.97 144.23 C 1013.35 144.19 1019.74 144.11 1023.41 148.77 C 1015.08 153.57 1004.03 153.44 995.63 148.86 Z" />
<path fill="#97a4b1" opacity="1.00" d=" M 455.99 174.94 C 469.80 169.34 485.15 170.29 499.56 172.67 C 505.98 174.05 512.92 176.58 516.72 182.28 C 518.75 185.13 517.24 188.80 514.96 190.98 C 510.55 195.26 504.42 197.13 498.53 198.25 C 483.73 200.84 467.96 201.19 453.96 195.02 C 450.17 193.20 446.24 190.27 445.30 185.95 C 445.70 180.22 451.28 177.01 455.99 174.94 Z" />
<path fill="#97a4b1" opacity="1.00" d=" M 108.03 187.07 C 120.01 179.80 134.31 178.52 147.92 177.03 C 160.27 176.06 172.77 176.85 184.95 179.06 C 194.02 180.94 203.38 183.36 210.87 189.07 C 214.23 191.59 217.16 196.06 215.33 200.34 C 212.97 205.52 207.61 208.34 202.68 210.59 C 187.31 217.13 170.25 218.39 153.72 218.07 C 147.41 217.11 141.00 217.18 134.66 216.45 C 125.46 214.99 116.18 212.68 108.11 207.88 C 104.82 205.70 101.14 203.03 100.29 198.93 C 99.55 193.65 104.00 189.64 108.03 187.07 Z" />
<path fill="#97a4b1" opacity="1.00" d=" M 1123.32 182.43 C 1148.73 179.05 1174.38 177.57 1200.00 177.88 L 1200.00 245.94 C 1165.13 245.56 1130.01 243.94 1095.89 236.20 C 1083.81 233.13 1071.42 230.00 1060.81 223.21 C 1056.80 220.51 1052.31 216.66 1052.46 211.38 C 1053.55 204.26 1060.47 200.29 1066.32 197.29 C 1084.21 188.88 1103.89 185.27 1123.32 182.43 Z" />
<path fill="#97a4b1" opacity="1.00" d=" M 645.26 207.42 C 653.27 206.09 661.85 206.39 669.35 209.70 C 672.15 211.04 675.82 214.35 673.63 217.68 C 670.62 221.52 665.56 222.92 660.94 223.67 C 652.33 224.74 642.81 224.57 635.35 219.59 C 633.16 218.46 632.39 215.68 633.57 213.54 C 635.82 209.33 641.00 208.34 645.26 207.42 Z" />
<path fill="#97a4b1" opacity="1.00" d=" M 934.36 221.41 C 944.65 220.67 955.43 220.95 965.09 224.97 C 968.20 226.46 972.34 228.25 972.50 232.27 C 972.31 235.45 969.26 237.37 966.74 238.74 C 957.91 243.27 947.69 243.48 937.99 243.26 C 930.04 242.83 921.62 241.65 914.92 237.04 C 912.35 235.44 910.80 231.70 913.15 229.23 C 918.47 223.38 926.94 222.39 934.36 221.41 Z" />
<path fill="#97a4b1" opacity="1.00" d=" M 349.71 288.57 C 359.56 286.21 369.67 285.39 379.75 284.81 C 398.22 284.17 416.92 286.02 434.62 291.49 C 443.93 294.60 453.15 298.84 460.38 305.63 C 464.93 310.03 468.62 316.49 466.99 323.00 C 465.75 328.76 461.56 333.18 457.22 336.88 C 440.84 348.70 420.44 352.85 400.69 354.54 C 376.16 356.06 350.75 354.03 328.05 344.00 C 318.99 339.83 309.45 333.77 306.42 323.68 C 304.36 316.48 308.53 309.40 313.78 304.77 C 323.80 295.89 336.87 291.48 349.71 288.57 Z" />
<path fill="#97a4b1" opacity="1.00" d=" M 122.66 316.71 C 136.05 311.66 150.71 312.44 164.57 314.76 C 171.30 315.95 178.46 318.61 182.51 324.43 C 184.69 327.43 182.92 331.28 180.47 333.48 C 176.08 337.46 170.24 339.34 164.52 340.40 C 149.20 343.16 132.68 343.46 118.37 336.55 C 114.74 334.55 110.09 331.10 111.37 326.35 C 113.19 321.46 118.06 318.59 122.66 316.71 Z" />
<path fill="#97a4b1" opacity="1.00" d=" M 740.34 318.44 C 747.36 317.60 754.46 317.95 761.51 317.25 C 788.47 316.47 815.77 319.18 841.55 327.40 C 853.40 331.86 865.85 336.93 874.19 346.89 C 878.39 351.67 880.29 358.67 877.73 364.70 C 874.16 373.60 865.70 379.29 857.44 383.42 C 845.44 389.80 832.26 393.30 819.04 396.09 C 800.36 399.51 781.34 400.96 762.37 400.53 C 739.36 399.92 716.25 396.92 694.35 389.63 C 682.84 385.20 670.68 380.14 662.88 370.14 C 658.18 364.39 657.33 355.70 661.58 349.47 C 668.67 338.99 680.63 333.56 691.94 328.88 C 707.48 323.16 723.93 320.31 740.34 318.44 Z" />
<path fill="#97a4b1" opacity="1.00" d=" M 1072.90 330.13 C 1084.38 327.96 1096.07 329.62 1107.42 331.71 C 1114.30 333.26 1121.11 337.13 1123.82 343.98 C 1120.77 351.42 1112.95 354.89 1105.53 356.28 C 1092.55 358.64 1078.93 359.62 1066.11 355.84 C 1060.74 354.27 1055.00 352.05 1051.76 347.22 C 1049.53 344.17 1051.48 340.14 1053.93 337.89 C 1059.14 333.22 1066.19 331.39 1072.90 330.13 Z" />
<path fill="#97a4b1" opacity="1.00" d=" M 515.25 419.25 C 529.08 414.16 544.20 415.14 558.45 417.65 C 564.69 418.97 571.26 421.64 574.96 427.12 C 576.64 429.57 575.80 432.82 573.94 434.91 C 569.86 439.72 563.48 441.43 557.65 443.05 C 548.91 443.89 540.16 445.65 531.35 444.57 C 523.21 443.53 514.68 442.08 507.83 437.23 C 505.05 435.22 502.67 431.57 504.10 428.07 C 506.00 423.44 510.89 421.06 515.25 419.25 Z" />
</g>
<g id="#adb8c1ff">
<path fill="#adb8c1" opacity="1.00" d=" M 837.01 98.05 C 849.64 96.86 862.36 96.77 875.02 95.79 C 884.90 94.95 894.76 96.30 904.64 96.55 C 929.74 97.77 954.84 98.94 979.93 100.35 C 1001.27 103.35 1022.57 106.64 1043.90 109.72 C 1055.52 111.67 1067.29 112.37 1078.99 113.72 C 1104.68 116.33 1130.37 119.00 1156.07 121.59 C 1170.74 123.41 1185.31 125.95 1200.00 127.63 L 1200.00 177.88 C 1174.38 177.57 1148.73 179.05 1123.32 182.43 C 1103.89 185.27 1084.21 188.88 1066.32 197.29 C 1060.47 200.29 1053.55 204.26 1052.46 211.38 C 1052.31 216.66 1056.80 220.51 1060.81 223.21 C 1071.42 230.00 1083.81 233.13 1095.89 236.20 C 1130.01 243.94 1165.13 245.56 1200.00 245.94 L 1200.00 616.00 L 0.00 616.00 L 0.00 317.00 C 0.49 314.34 1.02 311.66 1.07 308.95 C 0.91 255.65 1.05 202.34 0.99 149.03 C 0.94 144.52 1.35 139.98 0.67 135.50 C 22.90 132.20 45.13 128.87 67.36 125.50 C 75.20 124.31 83.16 124.94 91.04 124.29 C 107.78 122.65 124.73 123.52 141.31 120.37 C 161.52 117.72 181.57 113.53 201.99 112.92 C 209.80 112.08 217.72 112.57 225.44 110.97 C 243.80 109.55 262.20 108.56 280.58 107.41 C 286.06 107.91 291.57 107.74 297.02 106.99 C 312.95 105.11 329.03 105.83 345.00 106.94 C 357.46 107.41 369.94 107.81 382.40 108.54 C 388.09 109.06 393.82 109.17 399.53 108.76 C 433.72 109.93 467.91 111.25 502.10 112.48 C 511.78 112.72 521.45 113.75 531.14 113.47 C 533.63 113.89 536.12 114.39 538.65 114.57 C 564.75 115.71 590.86 116.91 616.97 118.00 C 631.60 118.63 646.23 119.55 660.88 119.67 C 694.37 116.68 727.87 113.65 761.35 110.56 C 772.33 109.62 783.44 108.93 794.05 105.73 C 808.37 103.19 822.67 100.48 837.01 98.05 M 634.36 135.35 C 631.45 135.78 627.58 138.38 629.37 141.75 C 632.14 144.42 636.31 144.93 639.99 145.05 C 643.66 144.99 647.96 144.40 650.38 141.31 C 651.41 140.07 650.92 138.17 649.60 137.36 C 645.25 134.22 639.40 134.30 634.36 135.35 M 859.35 139.48 C 853.33 140.27 845.79 140.65 841.95 146.03 C 839.55 149.35 843.24 152.51 846.02 153.92 C 852.76 157.15 860.55 157.37 867.88 156.68 C 872.83 155.97 878.34 154.68 881.68 150.64 C 884.04 147.72 880.55 144.34 878.15 142.82 C 872.40 139.89 865.71 139.22 859.35 139.48 M 313.09 143.10 C 310.26 144.24 307.13 145.97 306.09 149.02 C 305.54 151.79 308.48 153.44 310.57 154.50 C 321.22 159.49 333.39 158.33 344.64 156.39 C 349.63 157.16 355.08 155.29 358.49 151.56 C 360.21 150.10 358.97 147.72 357.61 146.49 C 354.28 143.74 349.93 141.67 345.53 142.61 C 334.82 140.94 323.59 139.53 313.09 143.10 M 995.63 148.86 C 1004.03 153.44 1015.08 153.57 1023.41 148.77 C 1019.74 144.11 1013.35 144.19 1007.97 144.23 C 1003.56 144.47 998.08 144.48 995.63 148.86 M 455.99 174.94 C 451.28 177.01 445.70 180.22 445.30 185.95 C 446.24 190.27 450.17 193.20 453.96 195.02 C 467.96 201.19 483.73 200.84 498.53 198.25 C 500.67 198.57 502.88 198.78 505.01 198.24 C 511.00 196.84 517.19 194.96 521.93 190.86 C 524.01 189.10 525.73 186.20 524.49 183.47 C 522.42 179.28 518.00 176.99 513.89 175.24 C 509.33 173.58 504.49 171.59 499.56 172.67 C 485.15 170.29 469.80 169.34 455.99 174.94 M 147.92 177.03 C 134.31 178.52 120.01 179.80 108.03 187.07 C 104.00 189.64 99.55 193.65 100.29 198.93 C 101.14 203.03 104.82 205.70 108.11 207.88 C 116.18 212.68 125.46 214.99 134.66 216.45 C 141.00 217.18 147.41 217.11 153.72 218.07 C 159.03 219.51 164.58 219.22 170.03 219.33 C 185.49 219.29 201.11 217.64 215.87 212.85 C 221.60 210.71 227.71 208.56 231.99 203.97 C 234.01 201.66 235.95 198.42 234.64 195.29 C 232.43 189.40 226.34 186.50 221.02 183.99 C 210.29 179.32 198.57 177.60 187.02 176.29 C 179.72 175.38 172.35 175.46 165.01 175.49 C 159.29 175.61 153.49 175.51 147.92 177.03 M 645.26 207.42 C 641.00 208.34 635.82 209.33 633.57 213.54 C 632.39 215.68 633.16 218.46 635.35 219.59 C 642.81 224.57 652.33 224.74 660.94 223.67 C 665.56 222.92 670.62 221.52 673.63 217.68 C 675.82 214.35 672.15 211.04 669.35 209.70 C 661.85 206.39 653.27 206.09 645.26 207.42 M 934.36 221.41 C 926.94 222.39 918.47 223.38 913.15 229.23 C 910.80 231.70 912.35 235.44 914.92 237.04 C 921.62 241.65 930.04 242.83 937.99 243.26 C 947.69 243.48 957.91 243.27 966.74 238.74 C 969.26 237.37 972.31 235.45 972.50 232.27 C 972.34 228.25 968.20 226.46 965.09 224.97 C 955.43 220.95 944.65 220.67 934.36 221.41 M 385.89 283.52 C 383.80 283.75 381.77 284.27 379.75 284.81 C 369.67 285.39 359.56 286.21 349.71 288.57 C 336.87 291.48 323.80 295.89 313.78 304.77 C 308.53 309.40 304.36 316.48 306.42 323.68 C 309.45 333.77 318.99 339.83 328.05 344.00 C 350.75 354.03 376.16 356.06 400.69 354.54 C 420.44 352.85 440.84 348.70 457.22 336.88 L 456.02 338.00 C 461.61 337.79 466.48 334.80 471.35 332.37 C 477.34 329.07 483.38 324.55 485.82 317.91 C 488.11 311.72 484.38 305.16 479.76 301.16 C 469.54 292.37 456.29 288.27 443.32 285.61 C 424.44 281.84 404.99 281.51 385.89 283.52 M 122.66 316.71 C 118.06 318.59 113.19 321.46 111.37 326.35 C 110.09 331.10 114.74 334.55 118.37 336.55 C 132.68 343.46 149.20 343.16 164.52 340.40 C 171.02 341.49 177.45 338.87 183.25 336.19 C 186.87 334.28 191.42 330.96 190.51 326.30 C 188.77 321.63 183.85 319.28 179.57 317.40 C 174.80 315.69 169.72 313.65 164.57 314.76 C 150.71 312.44 136.05 311.66 122.66 316.71 M 761.51 317.25 C 754.46 317.95 747.36 317.60 740.34 318.44 C 723.93 320.31 707.48 323.16 691.94 328.88 C 680.63 333.56 668.67 338.99 661.58 349.47 C 657.33 355.70 658.18 364.39 662.88 370.14 C 670.68 380.14 682.84 385.20 694.35 389.63 C 716.25 396.92 739.36 399.92 762.37 400.53 C 781.34 400.96 800.36 399.51 819.04 396.09 C 832.26 393.30 845.44 389.80 857.44 383.42 C 859.59 383.73 861.80 383.64 863.89 382.94 C 873.72 380.01 883.52 376.56 892.38 371.30 C 897.58 368.05 902.70 363.89 905.03 358.03 C 906.52 354.44 906.01 350.26 904.13 346.93 C 901.01 341.20 895.47 337.34 889.94 334.18 C 872.71 324.84 853.26 320.88 834.06 318.09 C 814.51 315.32 794.73 315.04 775.03 315.64 C 770.51 315.96 765.85 315.73 761.51 317.25 M 1072.90 330.13 C 1066.19 331.39 1059.14 333.22 1053.93 337.89 C 1051.48 340.14 1049.53 344.17 1051.76 347.22 C 1055.00 352.05 1060.74 354.27 1066.11 355.84 C 1078.93 359.62 1092.55 358.64 1105.53 356.28 C 1107.70 356.67 1109.96 356.85 1112.12 356.24 C 1117.28 354.90 1122.55 353.17 1126.77 349.79 C 1129.10 347.84 1131.48 344.47 1129.67 341.42 C 1127.02 336.83 1121.80 334.64 1117.09 332.80 C 1113.99 331.85 1110.59 330.19 1107.42 331.71 C 1096.07 329.62 1084.38 327.96 1072.90 330.13 M 515.25 419.25 C 510.89 421.06 506.00 423.44 504.10 428.07 C 502.67 431.57 505.05 435.22 507.83 437.23 C 514.68 442.08 523.21 443.53 531.35 444.57 C 540.16 445.65 548.91 443.89 557.65 443.05 L 556.34 443.41 C 562.57 443.96 568.66 441.82 574.30 439.39 C 578.14 437.49 582.80 434.75 583.12 429.98 C 582.30 425.39 577.86 422.81 574.03 420.91 C 569.17 418.80 563.86 416.51 558.45 417.65 C 544.20 415.14 529.08 414.16 515.25 419.25 Z" />
</g>
<g id="#8a9aa7ff">
<path fill="#8a9aa7" opacity="1.00" d=" M 0.00 134.33 L 0.67 135.50 C 1.35 139.98 0.94 144.52 0.99 149.03 C 1.05 202.34 0.91 255.65 1.07 308.95 C 1.02 311.66 0.49 314.34 0.00 317.00 L 0.00 134.33 Z" />
</g>
<g id="#d0d7dcff">
<path fill="#d0d7dc" opacity="1.00" d=" M 345.53 142.61 C 349.93 141.67 354.28 143.74 357.61 146.49 C 358.97 147.72 360.21 150.10 358.49 151.56 C 355.08 155.29 349.63 157.16 344.64 156.39 C 348.46 155.34 353.15 153.97 354.66 149.85 C 353.85 145.56 349.17 143.85 345.53 142.61 Z" />
<path fill="#d0d7dc" opacity="1.00" d=" M 499.56 172.67 C 504.49 171.59 509.33 173.58 513.89 175.24 C 518.00 176.99 522.42 179.28 524.49 183.47 C 525.73 186.20 524.01 189.10 521.93 190.86 C 517.19 194.96 511.00 196.84 505.01 198.24 C 502.88 198.78 500.67 198.57 498.53 198.25 C 504.42 197.13 510.55 195.26 514.96 190.98 C 517.24 188.80 518.75 185.13 516.72 182.28 C 512.92 176.58 505.98 174.05 499.56 172.67 Z" />
<path fill="#d0d7dc" opacity="1.00" d=" M 147.92 177.03 C 153.49 175.51 159.29 175.61 165.01 175.49 C 172.35 175.46 179.72 175.38 187.02 176.29 C 198.57 177.60 210.29 179.32 221.02 183.99 C 226.34 186.50 232.43 189.40 234.64 195.29 C 235.95 198.42 234.01 201.66 231.99 203.97 C 227.71 208.56 221.60 210.71 215.87 212.85 C 201.11 217.64 185.49 219.29 170.03 219.33 C 164.58 219.22 159.03 219.51 153.72 218.07 C 170.25 218.39 187.31 217.13 202.68 210.59 C 207.61 208.34 212.97 205.52 215.33 200.34 C 217.16 196.06 214.23 191.59 210.87 189.07 C 203.38 183.36 194.02 180.94 184.95 179.06 C 172.77 176.85 160.27 176.06 147.92 177.03 Z" />
<path fill="#d0d7dc" opacity="1.00" d=" M 385.89 283.52 C 404.99 281.51 424.44 281.84 443.32 285.61 C 456.29 288.27 469.54 292.37 479.76 301.16 C 484.38 305.16 488.11 311.72 485.82 317.91 C 483.38 324.55 477.34 329.07 471.35 332.37 C 466.48 334.80 461.61 337.79 456.02 338.00 L 457.22 336.88 C 461.56 333.18 465.75 328.76 466.99 323.00 C 468.62 316.49 464.93 310.03 460.38 305.63 C 453.15 298.84 443.93 294.60 434.62 291.49 C 416.92 286.02 398.22 284.17 379.75 284.81 C 381.77 284.27 383.80 283.75 385.89 283.52 Z" />
<path fill="#d0d7dc" opacity="1.00" d=" M 164.57 314.76 C 169.72 313.65 174.80 315.69 179.57 317.40 C 183.85 319.28 188.77 321.63 190.51 326.30 C 191.42 330.96 186.87 334.28 183.25 336.19 C 177.45 338.87 171.02 341.49 164.52 340.40 C 170.24 339.34 176.08 337.46 180.47 333.48 C 182.92 331.28 184.69 327.43 182.51 324.43 C 178.46 318.61 171.30 315.95 164.57 314.76 Z" />
<path fill="#d0d7dc" opacity="1.00" d=" M 761.51 317.25 C 765.85 315.73 770.51 315.96 775.03 315.64 C 794.73 315.04 814.51 315.32 834.06 318.09 C 853.26 320.88 872.71 324.84 889.94 334.18 C 895.47 337.34 901.01 341.20 904.13 346.93 C 906.01 350.26 906.52 354.44 905.03 358.03 C 902.70 363.89 897.58 368.05 892.38 371.30 C 883.52 376.56 873.72 380.01 863.89 382.94 C 861.80 383.64 859.59 383.73 857.44 383.42 C 865.70 379.29 874.16 373.60 877.73 364.70 C 880.29 358.67 878.39 351.67 874.19 346.89 C 865.85 336.93 853.40 331.86 841.55 327.40 C 815.77 319.18 788.47 316.47 761.51 317.25 Z" />
<path fill="#d0d7dc" opacity="1.00" d=" M 1107.42 331.71 C 1110.59 330.19 1113.99 331.85 1117.09 332.80 C 1121.80 334.64 1127.02 336.83 1129.67 341.42 C 1131.48 344.47 1129.10 347.84 1126.77 349.79 C 1122.55 353.17 1117.28 354.90 1112.12 356.24 C 1109.96 356.85 1107.70 356.67 1105.53 356.28 C 1112.95 354.89 1120.77 351.42 1123.82 343.98 C 1121.11 337.13 1114.30 333.26 1107.42 331.71 Z" />
<path fill="#d0d7dc" opacity="1.00" d=" M 558.45 417.65 C 563.86 416.51 569.17 418.80 574.03 420.91 C 577.86 422.81 582.30 425.39 583.12 429.98 C 582.80 434.75 578.14 437.49 574.30 439.39 C 568.66 441.82 562.57 443.96 556.34 443.41 L 557.65 443.05 C 563.48 441.43 569.86 439.72 573.94 434.91 C 575.80 432.82 576.64 429.57 574.96 427.12 C 571.26 421.64 564.69 418.97 558.45 417.65 Z" />
</g>
</svg>
