<svg xmlns="http://www.w3.org/2000/svg" width="512" height="512" version="1">
  <rect width="100%" height="100%" fill="none"/>
  <g class="currentLayer">
    <circle cx="256" cy="256" r="256" fill="#0293aa"/>
    <path fill="#0293aa" d="M256 0h-13A230 230 0 1 1 0 243v13A256 256 0 1 0 256 0z"/>
    <ellipse cx="239" cy="105" fill="#036c75" rx="63" ry="60"/>
    <path fill="#047d88" d="M188 105c0-31 25-56 57-59h-6c-35 0-63 26-63 59a61 61 0 0 0 69 60c-32-3-57-29-57-60z"/>
    <ellipse cx="313" cy="381" fill="#036c75" rx="97" ry="80"/>
    <path fill="#047d88" d="M239 381c0-41 37-74 85-79h-11c-54 0-97 35-97 79s43 80 97 80l11-1c-48-4-85-38-85-79z"/>
    <circle cx="68" cy="239" r="51" fill="#036c75"/>
    <path fill="#047d88" d="M34 239c0-25 19-46 43-50l-9-1a51 51 0 1 0 9 101c-24-4-43-25-43-50z"/>
    <circle cx="319" cy="216" r="17" fill="#036c75"/>
    <path fill="#047d88" d="M307 216c0-8 6-15 14-17h-2a17 17 0 1 0 2 34c-8-1-14-8-14-17z"/>
    <circle cx="165" cy="421" r="17" fill="#036c75"/>
    <path fill="#047d88" d="M154 421c0-8 6-15 14-17h-3a17 17 0 1 0 3 34c-8-2-14-9-14-17z"/>
    <circle cx="74" cy="353" r="17" fill="#036c75"/>
    <path fill="#047d88" d="M63 353c0-9 6-16 14-17h-3a17 17 0 1 0 3 34c-8-2-14-9-14-17z"/>
    <circle cx="148" cy="68" r="17" fill="#036c75"/>
    <path fill="#047d88" d="M137 68c0-8 6-15 14-17h-3a17 17 0 1 0 3 34c-8-1-14-8-14-17z"/>
    <path fill="#036c75" d="M188 250a23 23 0 1 1-46 0 23 23 0 0 1 46 0z"/>
    <path fill="#047d88" d="M150 250c0-11 8-20 19-22h-4a23 23 0 1 0 4 45c-11-2-19-11-19-23z"/>
    <ellipse cx="72" cy="113" fill="#484848" rx="15" ry="6" transform="matrix(.47768 -.47768 .47768 .47768 -17 86)"/>
    <path fill="#fcc314" d="M36 70l21-23 14 14-21 23z"/>
    <path fill="#f5f5f5" d="M73 107c2-2 2-4 0-6L37 67h-6v6l37 34h5z"/>
  </g>
</svg>
