<svg xmlns="http://www.w3.org/2000/svg" xmlns:xlink="http://www.w3.org/1999/xlink" version="1.1" style="" xml:space="preserve" width="512.0020141601562" height="512.0020141601562"><rect id="backgroundrect" width="100%" height="100%" x="0" y="0" fill="none" stroke="none"/>




































<g class="currentLayer" style=""><title>Layer 1</title><circle style="fill:#0293aa;" cx="256.0010070800781" cy="256.0010070800781" r="256" id="svg_1" class=""/><path style="fill:#0293aa;" d="M256.001,0.001c-4.432,0-8.852,0.112-13.236,0.34c121.492,6.42,218.04,106.964,218.04,230.06  c0,127.244-103.156,230.4-230.408,230.4c-123.092,0-223.636-96.544-230.06-218.04c-0.216,4.384-0.336,8.8-0.336,13.24  c0,141.384,114.616,256,256,256c141.388,0,256-114.616,256-256S397.389,0.001,256.001,0.001z" id="svg_2" class=""/><ellipse style="fill:#036c75;" cx="238.93800354003906" cy="105.24500274658203" rx="62.58000183105469" ry="59.736000061035156" id="svg_3" class=""/><path style="fill:#047d88;" d="M187.742,105.245c0-31.156,25-56.712,56.892-59.46c-1.876-0.164-3.764-0.272-5.688-0.272  c-34.564,0-62.584,26.744-62.584,59.732s28.02,59.736,62.584,59.736c1.916,0,3.812-0.112,5.688-0.272  C212.742,161.957,187.742,136.401,187.742,105.245z" id="svg_4" class=""/><ellipse style="fill:#036c75;" cx="312.8819885253906" cy="381.1610107421875" rx="96.72000122070312" ry="79.64399719238281" id="svg_5" class=""/><path style="fill:#047d88;" d="M238.938,381.157c0-40.808,37.288-74.4,85.328-79.048c-3.74-0.36-7.516-0.596-11.376-0.596  c-53.416,0-96.716,35.66-96.716,79.644s43.3,79.644,96.72,79.644c3.86,0,7.636-0.24,11.376-0.6  C276.233,455.557,238.938,421.961,238.938,381.157z" id="svg_6" class=""/><circle style="fill:#036c75;" cx="68.28199768066406" cy="238.93299865722656" r="51.20000076293945" id="svg_7" class=""/><path style="fill:#047d88;" d="M34.138,238.933c0-25.368,18.46-46.36,42.668-50.432c-2.784-0.468-5.624-0.768-8.536-0.768  c-28.276,0-51.2,22.924-51.2,51.2c0,28.276,22.916,51.2,51.2,51.2c2.912,0,5.752-0.3,8.536-0.764  C52.597,285.297,34.138,264.301,34.138,238.933z" id="svg_8" class=""/><circle style="fill:#036c75;" cx="318.60198974609375" cy="216.16099548339844" r="17.06800079345703" id="svg_9" class=""/><path style="fill:#047d88;" d="M307.206,216.177c0-8.456,6.156-15.42,14.224-16.776c-0.92-0.164-1.868-0.288-2.844-0.288  c-9.428,0-17.068,7.64-17.068,17.068s7.632,17.068,17.068,17.068c0.976,0,1.916-0.128,2.844-0.288  C313.361,231.601,307.206,224.633,307.206,216.177z" id="svg_10" class=""/><circle style="fill:#036c75;" cx="164.96200561523438" cy="421.0010070800781" r="17.06800079345703" id="svg_11" class=""/><path style="fill:#047d88;" d="M153.602,420.981c0-8.456,6.156-15.424,14.22-16.78c-0.916-0.16-1.868-0.284-2.844-0.284  c-9.416,0-17.064,7.64-17.064,17.068s7.64,17.068,17.064,17.068c0.976,0,1.92-0.124,2.844-0.288  C159.757,436.401,153.602,429.429,153.602,420.981z" id="svg_12" class=""/><circle style="fill:#036c75;" cx="73.96199798583984" cy="352.72100830078125" r="17.06399917602539" id="svg_13" class=""/><path style="fill:#047d88;" d="M62.585,352.713c0-8.452,6.156-15.416,14.224-16.772c-0.924-0.164-1.876-0.288-2.844-0.288  c-9.428,0-17.068,7.64-17.068,17.072c0,9.424,7.632,17.064,17.068,17.064c0.968,0,1.916-0.124,2.844-0.284  C68.742,368.133,62.585,361.169,62.585,352.713z" id="svg_14" class=""/><circle style="fill:#036c75;" cx="147.91700744628906" cy="68.28099822998047" r="17.06800079345703" id="svg_15" class=""/><path style="fill:#047d88;" d="M136.533,68.265c0-8.456,6.156-15.42,14.232-16.776c-0.928-0.16-1.876-0.288-2.844-0.288  c-9.428,0-17.076,7.64-17.076,17.068s7.64,17.068,17.076,17.068c0.968,0,1.916-0.128,2.844-0.288  C142.689,83.689,136.533,76.725,136.533,68.265z" id="svg_16" class=""/><path style="fill:#036c75;" d="M187.742,250.313c0,12.572-10.18,22.756-22.756,22.756c-12.572,0-22.752-10.188-22.752-22.756  c0-12.572,10.18-22.756,22.752-22.756C177.561,227.557,187.742,237.741,187.742,250.313z" id="svg_17" class=""/><path style="fill:#047d88;" d="M149.805,250.313c0-11.272,8.212-20.56,18.968-22.372c-1.248-0.212-2.5-0.384-3.796-0.384  c-12.572,0-22.752,10.184-22.752,22.756c0,12.572,10.18,22.756,22.752,22.756c1.296,0,2.556-0.172,3.796-0.388  C158.018,270.873,149.805,261.585,149.805,250.313z" id="svg_18" class=""/><ellipse transform="matrix(0.47768474686175816,-0.47768478225226246,0.47768474686175816,0.47768478225226246,-16.604212879574664,85.72072123101648) " style="" cx="71.89093263215881" cy="112.8570327506128" rx="14.62399959564209" ry="6.276000022888184" id="svg_19" class="" fill="#484848" fill-opacity="1" opacity="1"/><rect x="-2.0077127609684964" y="73.22062488151165" transform="rotate(-1.7375035285949707 53.82976150512645,65.57800292968734) matrix(0.3949413959670363,-0.41501304075314494,0.3949413959670363,0.41501304075314494,7.952413541237367,38.66073648602939) " style="fill:#fcc314;" width="55.31900024414063" height="34.58000183105467" id="svg_20" class=""/><path style="fill:#F5F5F5;" d="M73.29454070649798,106.64192039702363 c1.5517517081772074,-1.4541349641555499 1.5517517081772074,-3.8095754756205293 0,-5.261559352550996 L36.80943776611993,67.19313177624164 c-1.5517517081772074,-1.4519838769304676 -4.063018525848605,-1.4519838769304676 -5.612474743333241,0 c-1.5540471988697768,1.4541349641555499 -1.5517517081772074,3.807424388395447 0,5.259408265325913 l36.486824558397494,34.18938035545606 C69.22693119926427,108.09175318672901 71.74278899832079,108.09390427395408 73.29454070649798,106.64192039702363 z" id="svg_21" class="" transform="rotate(-0.33109891414642334 52.24531936645952,86.91712188720643) "/><g id="svg_22" class="">
</g><g id="svg_23" class="">
</g><g id="svg_24" class="">
</g><g id="svg_25" class="">
</g><g id="svg_26" class="">
</g><g id="svg_27" class="">
</g><g id="svg_28" class="">
</g><g id="svg_29" class="">
</g><g id="svg_30" class="">
</g><g id="svg_31" class="">
</g><g id="svg_32" class="">
</g><g id="svg_33" class="">
</g><g id="svg_34" class="">
</g><g id="svg_35" class="">
</g><g id="svg_36" class="">
</g><rect fill="" stroke-dashoffset="" fill-rule="nonzero" id="svg_39" x="17" y="-1" width="0" height="1" style="color: rgb(0, 0, 0);"/></g></svg>