<svg xmlns="http://www.w3.org/2000/svg" width="1000" height="1000" version="1"><path d="M628 885h-42l-2 3h45z"/><path fill="#1A1A1A" d="M628 885l-7-17h-28l-7 17z"/><path d="M558 885h-42l-2 3h45z"/><path fill="#1A1A1A" d="M558 885l-7-17h-28l-7 17z"/><g><path d="M698 885h-43l-1 3h45z"/><path fill="#1A1A1A" d="M698 885l-7-17h-29l-7 17z"/></g><g><path fill="#F7F7F8" d="M685 661c0-5-4-9-9-9h-8c-10 0-18-8-18-19v235h52l-17-207z"/><path fill="#D8D9DD" d="M702 868l-17-207c0-5-4-9-9-9h-8l17 216h17z"/><path fill="#F7F7F8" d="M544 652h-8c-5 0-9 4-9 9l-17 207h52V633c0 11-8 19-18 19z"/><path fill="#D8D9DD" d="M546 868h16V633c0 11-8 19-18 19l-17 216h19z"/><g><path fill="#F7F7F8" d="M649 499a9 9 0 0 0-9-6h-68a9 9 0 0 0-10 9v366h88V502l-1-3z"/><path fill="#D8D9DD" d="M650 868V502a9 9 0 0 0-10-9h-7v375h17z"/></g></g><g><path fill="#C2C3C9" d="M572 474h69v19h-69z"/></g><g><path fill="#F7F7F8" d="M633 319h-71v146c0 5 4 9 10 9h68c6 0 10-4 10-9V319h-17z"/><path fill="#D8D9DD" d="M650 319h-17v155h7c6 0 10-4 10-9V319z"/></g><g><path fill="#FFF" d="M575 451c-2 0-4-2-4-4V345a4 4 0 1 1 8 0v102c0 2-2 4-4 4zM575 679c-2 0-4-2-4-4v-58a4 4 0 1 1 8 0v58c0 2-2 4-4 4zM575 736c-2 0-4-1-4-3v-36a4 4 0 1 1 8 0v36c0 2-2 3-4 3z"/></g><g><path fill="#D8D9DD" d="M606 181l-2 1v67a2 2 0 0 0 4 0v-67l-2-1z"/><path fill="#BF0411" d="M650 319h-88l39-79c2-4 8-4 10 0l39 79z"/></g><g><g fill="#87868A"><path d="M603 396h8v45h-8zM570 396h8v45h-8zM537 396h8v45h-8zM505 396h8v45h-8zM472 396h8v45h-8z"/></g><path fill="#AEADB3" d="M456 393h162v10H456zM456 436h162v10H456z"/><g fill="#87868A"><path d="M603 521h8v45h-8zM570 521h8v45h-8zM537 521h8v45h-8zM505 521h8v45h-8zM472 521h8v45h-8z"/></g><path fill="#AEADB3" d="M456 518h162v10H456zM456 561h162v10H456z"/><g><g fill="#9A999E"><path d="M687 932h45v59h-45zM603 932h45v59h-45zM519 932h45v59h-45zM436 932h45v59h-45zM352 932h45v59h-45zM268 932h45v59h-45z"/></g><path fill="#C2C3C9" d="M255 896h490v37H255z"/><path fill="#87868A" d="M144 986h712v14H144z"/></g><g><g fill="#EDEEF0"><path d="M451 330l6 6-86 85-5-5zM451 417l6 6-86 85-5-5zM451 504l6 6-86 85-5-5zM451 591l6 6-86 85-5-5zM451 678l6 6-86 85-5-5zM451 765l6 6-86 85-5-6z"/></g><path fill="#E6E6E6" d="M449 333l-42-42 6-5 41 41z"/><path fill="#EDEEF0" d="M457 416l-6 6-85-86 5-5zM457 503l-6 6-85-86 5-5zM457 590l-6 6-85-86 5-6zM457 677l-6 6-85-86 5-6zM457 764l-6 6-85-86 5-6zM457 851l-6 6-85-86 5-6z"/><g fill="#EDEEF0"><path d="M367 764l-6 6-86-86 6-6zM367 851l-6 6-86-86 6-6z"/><path d="M361 678l6 6-86 85-5-5zM361 765l6 6-86 85-5-5z"/><path d="M361 683l-40-41 6-5 40 40z"/></g><path fill="#D8D9DD" d="M451 238l-90 90 8 4 88-87z"/><g fill="#C2C3C9"><path d="M365 328h92v10h-92zM365 415h92v10h-92zM365 502h92v10h-92zM365 588h92v10h-92z"/><g><path d="M367 675h-92v10h182v-10zM367 762h-92v10h182v-10zM365 849h-90v9h182v-9h-90z"/></g></g><g><path fill="#D8D9DD" d="M361 328h12v549h-12zM451 238h12v638h-12zM278 674h-7v202h12V674z"/><path fill="#D8D9DD" d="M367 597l-6-13-90 90h12v6z"/></g><path fill="#AEADB3" d="M255 875h224v22H255z"/></g></g></svg>