<?xml version="1.0" encoding="utf-8"?>
<!-- Generator: Adobe Illustrator 22.1.0, SVG Export Plug-In . SVG Version: 6.00 Build 0)  -->
<svg version="1.1" id="layer_1" xmlns="http://www.w3.org/2000/svg" xmlns:xlink="http://www.w3.org/1999/xlink" x="0px" y="0px"
	 viewBox="0 0 536.2 316.2" style="enable-background:new 0 0 536.2 316.2;" xml:space="preserve">
<style type="text/css">
	.st0{fill:#FFFFFF;}
	.st1{fill:#8AD5FF;}
	.st2{fill:#2CB4FF;}
	.st3{fill:#0D7EF9;}
	.st4{fill:#364760;}
	.st5{fill:#F5F7FA;}
</style>
<path class="st0" d="M181.1,198.5c-3.3,0-6,2.7-6,6s2.7,6,6,6s6-2.7,6-6S184.5,198.5,181.1,198.5z"/>
<g>
	<path class="st1" d="M191.5,177.7l-3,6.9c-0.3-0.1-0.6-0.3-0.9-0.3h-3.8c-1.1,0-2.1,1-2.1,2.1v3.8c0,1.1,1,2.1,2.1,2.1h1.3
		l-3.5,8.1c-0.3-0.1-0.6-0.3-1-0.3h-3.7c-1.1,0-2.1,1-2.1,2.1v3.8c0,1.1,1,2.1,2.1,2.1h1.4l-3.5,8.2c-0.3-0.1-0.7-0.3-1-0.3h-3.8
		c-1.1,0-2.1,1-2.1,2.1v3.8c0,1.1,1,2.1,2.1,2.1h1.6l-3.5,8.2c-0.3-0.1-0.7-0.3-1.1-0.3h-3.7c-1.1,0-2.1,1-2.1,2.1v3.8
		c0,1.1,1,2.1,2.1,2.1h1.6l-3.5,8.2c-0.3-0.3-0.7-0.3-1.1-0.3h-3.8c-1.1,0-2.1,1-2.1,2.1v3.8c0,1.1,1,2.1,2.1,2.1h1.7l-5.1,11.5
		h10.6l36-87.7L191.5,177.7z"/>
</g>
<g>
	<path class="st2" d="M332.1,177.7l3,6.9c0.3-0.1,0.6-0.3,0.9-0.3h3.8c1.1,0,2.1,1,2.1,2.1v3.8c0,1.1-1,2.1-2.1,2.1h-1.3l3.5,8.1
		c0.3-0.1,0.6-0.3,1-0.3h3.8c1.1,0,2.1,1,2.1,2.1v3.8c0,1.1-1,2.1-2.1,2.1h-1.4l3.5,8.2c0.3-0.1,0.7-0.3,1-0.3h3.8
		c1.1,0,2.1,1,2.1,2.1v3.8c0,1.1-1,2.1-2.1,2.1h-1.6l3.5,8.2c0.3-0.1,0.7-0.3,1.1-0.3h3.8c1.1,0,2.1,1,2.1,2.1v3.8
		c0,1.1-1,2.1-2.1,2.1h-1.6l3.5,8.2c0.3-0.3,0.7-0.3,1.1-0.3h3.8c1.1,0,2.1,1,2.1,2.1v3.8c0,1.1-1,2.1-2.1,2.1h-1.7l5,11.6h-10.6
		l-36-87.7L332.1,177.7z"/>
</g>
<path class="st3" d="M194,152.6h135.3c2.8,0,5,2.3,5,5v13.9c0,2.8-2.3,5.1-5.1,5.1H194.2c-2.8,0-5.1-2.3-5.1-5.1v-13.9
	C189.1,154.7,191.3,152.6,194,152.6z"/>
<path class="st3" d="M194,151.2h135.3c2.8,0,5.1,2.3,5.1,5.1v3.3c0,2.8-2.3,5.1-5.1,5.1H194c-2.8,0-5.1-2.3-5.1-5.1v-3.3
	C189.1,153.4,191.3,151.2,194,151.2z"/>
<g>
	<path class="st2" d="M331.5,169.6h-68.7v114.1h3.3v-12.8l19.8,11.5v1.3h8.6V182.2h36.8c3.5,0,6.2-2.8,6.2-6.2
		C337.6,172.4,334.9,169.6,331.5,169.6z M266,182.2h18l-18,9.6V182.2z M266,197.2l17.9,10.3l-17.9,9.5V197.2z M266,222.4l15.9,9.2
		l-15.9,8.5V222.4z M266,245.5l17.9,10.3l-17.9,9.5V245.5z M286,275.6l-12.8-7.4l12.8-6.8V275.6z M286,250.4l-12.8-7.4l12.8-6.8
		V250.4z M286,227.3l-12.8-7.4l12.8-6.8V227.3z M286,201.9l-12.8-7.4l12.8-6.8V201.9z"/>
	<path class="st1" d="M192,169.6c-3.4,0-6.2,2.8-6.2,6.2c0,3.5,2.8,6.2,6.2,6.2h35.9v101.6h8.5V283l21-12.2v12.8h5.4V169.6H192z
		 M236.4,187.2l13.9,7.4l-13.9,8.1V187.2z M236.4,212.5l13.9,7.4l-13.9,7.9V212.5z M236.4,235.5l13.9,7.4l-13.9,8.1V235.5z
		 M236.4,276.3v-15.4l13.9,7.4L236.4,276.3z M257.5,265.4l-17.9-9.5l17.9-10.3V265.4z M257.5,240.2l-15.9-8.5l15.9-9.2V240.2z
		 M257.5,217.1l-17.9-9.5l17.9-10.3V217.1z M239.4,182.2h18v9.6L239.4,182.2z"/>
</g>
<g>
	<g>
		<path class="st4" d="M293.5,153.3l-65.9-0.1"/>
	</g>
</g>
<path class="st2" d="M476,101.7v214.5h5.2v-1.1l15.2-15.4l14.6,14.8v1.7h5.2V101.7H511v1.6L496.4,118l-15.2-15.4v-1H476z
	 M496.4,222.6l-13.6-13.7l13.6-13.7l13.6,13.7L496.4,222.6z M511,215.2v22.2l-11-11.1L511,215.2z M500.1,191.4l11-11.1v22.2
	L500.1,191.4z M492.8,226.3L481.2,238v-23.4L492.8,226.3z M481.2,203.1v-23.4l11.6,11.7L481.2,203.1z M496.4,160.3L510,174
	l-13.6,13.7L482.8,174L496.4,160.3z M481.2,168.3v-23.4l11.6,11.7L481.2,168.3z M500.1,156.6l11-11.1v22.2L500.1,156.6z M511,272.2
	l-11-11.1l11-11.1V272.2z M496.4,257.4l-13.6-13.7l13.6-13.7l13.6,13.7L496.4,257.4z M492.8,261.1l-11.6,11.7v-23.4L492.8,261.1z
	 M482.8,139.1l13.6-13.7l13.6,13.7l-13.6,13.7L482.8,139.1z M510,278.5l-13.6,13.7l-13.6-13.7l13.6-13.7L510,278.5z M492.8,121.7
	l-11.6,11.7V110L492.8,121.7z M511,110.6v22.2l-11-11.1L511,110.6z M500.1,296l11-11.1v22.2L500.1,296z M481.2,307.7v-23.4
	l11.6,11.7L481.2,307.7z"/>
<rect x="470.1" y="91.6" transform="matrix(-1 -4.490465e-11 4.490465e-11 -1 992.3801 193.2865)" class="st3" width="52.1" height="10"/>
<rect x="491.1" y="33.3" transform="matrix(-1 -4.506496e-11 4.506496e-11 -1 990.5411 124.9766)" class="st3" width="8.4" height="58.3"/>
<g>
	<path class="st3" d="M508.5,34.8l15.3-28.2c1.6-3-0.5-6.7-4-6.7l11.9,0c3.4,0,5.6,3.6,4,6.7l-15.3,28.2c-0.8,1.5-2.3,2.4-4,2.4
		h-11.9C506.2,37.2,507.7,36.3,508.5,34.8z"/>
	<path class="st2" d="M466.1,30.5l15.3-28.2c0.8-1.5,2.3-2.4,4-2.4l34.5,0c3.4,0,5.6,3.6,4,6.7l-15.3,28.2c-0.8,1.5-2.3,2.4-4,2.4
		H470C466.6,37.2,464.5,33.5,466.1,30.5z"/>
</g>
<rect x="491.1" y="33.3" transform="matrix(-1 -4.463242e-11 4.463242e-11 -1 986.3432 124.9766)" class="st2" width="4.2" height="58.3"/>
<path class="st5" d="M502.1,10.6c0-3.5,2.8-6.3,6.3-6.3c3.5,0,6.3,2.8,6.3,6.3s-2.8,6.3-6.3,6.3C504.9,16.8,502.1,14,502.1,10.6z"/>
<path class="st5" d="M484.2,10.6c0-3.5,2.8-6.3,6.3-6.3c3.5,0,6.3,2.8,6.3,6.3s-2.8,6.3-6.3,6.3C487,16.8,484.2,14,484.2,10.6z"/>
<path class="st5" d="M494.1,25.1c0-3.5,2.8-6.3,6.3-6.3s6.3,2.8,6.3,6.3s-2.8,6.3-6.3,6.3S494.1,28.5,494.1,25.1z"/>
<path class="st5" d="M476.2,25.1c0-3.5,2.8-6.3,6.3-6.3s6.3,2.8,6.3,6.3s-2.8,6.3-6.3,6.3S476.2,28.5,476.2,25.1z"/>
<path class="st2" d="M55,101.7v1L39.8,118l-14.6-14.8v-1.6H20v214.5h5.2v-1.7l14.6-14.8L55,315.1v1.1h5.2V101.7H55z M26.2,208.8
	l13.6-13.7l13.6,13.7l-13.6,13.7L26.2,208.8z M36.1,226.3l-11,11.1v-22.2L36.1,226.3z M25.2,202.5v-22.2l11,11.1L25.2,202.5z
	 M55,214.5V238l-11.6-11.7L55,214.5z M43.4,191.4L55,179.7v23.4L43.4,191.4z M53.4,174l-13.6,13.7L26.2,174l13.6-13.7L53.4,174z
	 M43.4,156.6L55,144.8v23.4L43.4,156.6z M25.2,167.7v-22.2l11,11.1L25.2,167.7z M25.2,250l11,11.1l-11,11.1V250z M26.2,243.7
	L39.8,230l13.6,13.7l-13.6,13.7L26.2,243.7z M55,249.4v23.4l-11.6-11.7L55,249.4z M39.8,152.9l-13.6-13.7l13.6-13.7l13.6,13.7
	L39.8,152.9z M39.8,264.8l13.6,13.7l-13.6,13.7l-13.6-13.7L39.8,264.8z M55,110v23.4l-11.6-11.7L55,110z M36.1,121.7l-11,11.1v-22.2
	L36.1,121.7z M25.2,307.1v-22.2l11,11.1L25.2,307.1z M43.4,296L55,284.3v23.4L43.4,296z"/>
<rect x="13.9" y="91.6" class="st3" width="52.1" height="10"/>
<rect x="36.7" y="33.3" class="st3" width="8.4" height="58.3"/>
<g>
	<path class="st3" d="M27.7,34.8L12.4,6.7c-1.6-3,0.5-6.7,4-6.7L4.5,0c-3.4,0-5.6,3.6-4,6.7l15.3,28.2c0.8,1.5,2.3,2.4,4,2.4h11.9
		C30,37.2,28.5,36.3,27.7,34.8z"/>
	<path class="st2" d="M70.1,30.5L54.8,2.4C54,0.9,52.5,0,50.9,0L16.4,0c-3.4,0-5.6,3.6-4,6.7l15.3,28.2c0.8,1.5,2.3,2.4,4,2.4h34.5
		C69.6,37.2,71.7,33.5,70.1,30.5z"/>
</g>
<rect x="40.9" y="33.3" class="st2" width="4.2" height="58.3"/>
<path class="st5" d="M34,10.6c0-3.5-2.8-6.3-6.3-6.3c-3.5,0-6.3,2.8-6.3,6.3s2.8,6.3,6.3,6.3C31.2,16.8,34,14,34,10.6z"/>
<path class="st5" d="M52,10.6c0-3.5-2.8-6.3-6.3-6.3c-3.5,0-6.3,2.8-6.3,6.3s2.8,6.3,6.3,6.3C49.2,16.8,52,14,52,10.6z"/>
<path class="st5" d="M42,25.1c0-3.5-2.8-6.3-6.3-6.3s-6.3,2.8-6.3,6.3s2.8,6.3,6.3,6.3S42,28.5,42,25.1z"/>
<path class="st5" d="M60,25.1c0-3.5-2.8-6.3-6.3-6.3c-3.5,0-6.3,2.8-6.3,6.3s2.8,6.3,6.3,6.3C57.2,31.3,60,28.5,60,25.1z"/>
</svg>
