<svg xmlns="http://www.w3.org/2000/svg" width="1867" height="1027" version="1">
  <defs>
    <clipPath id="a">
      <path d="M3995 2605h-572c-9 0-206 4-206 40v4c1-4 4-8 8-8h770v-36"/>
    </clipPath>
    <linearGradient id="b" x2="1" gradientTransform="matrix(1555.9 0 0 -1555.9 3217 2635)" gradientUnits="userSpaceOnUse">
      <stop offset="0" stop-color="#f5f6f5"/>
      <stop offset="1" stop-color="#e1e0df"/>
    </linearGradient>
    <clipPath id="c">
      <path d="M4566 2605h-571v36h770c5 0 8 4 8 8v-5c0-3-1-6-4-9-29-28-195-30-203-30"/>
    </clipPath>
    <linearGradient id="d" x2="1" gradientTransform="matrix(1555.9 0 0 -1555.9 3217 2635)" gradientUnits="userSpaceOnUse">
      <stop offset="0" stop-color="#d4d4d2"/>
      <stop offset="1" stop-color="#c0bfbe"/>
    </linearGradient>
  </defs>
  <path fill="#ff6974" d="M0 1027h1867V0H0z"/>
  <path fill="#a7948d" d="M0 949h1867v78H0v-78"/>
  <path fill="#e1eeef" d="M1867 915H0v34h1867v-34"/>
  <path fill="#fff" d="M191 696h757v-17H191z"/>
  <path fill="#b99986" d="M613 644l1 8h-1 71l2-2v-4l-2-2h-71"/>
  <path fill="#fff" d="M613 644v2l1 6h25c2 0 3-1 3-2v-4c0-1-1-2-3-2h-26"/>
  <path fill="#5c8591" d="M620 636l2 8h-2 54c2 0 3-1 3-2v-5l-3-1h-54"/>
  <path fill="#fff" d="M620 636v2l1 6h33l2-2v-4l-2-2h-34"/>
  <path fill="#eceae9" d="M656 638h-36v-2h16l20 1v1"/>
  <path fill="#f9d192" d="M681 628l-1 7h1v1h-54l-2-2v-5l2-1h54"/>
  <path fill="#dbb77f" d="M632 629v5l2 2h6l-2-2v-5l2-1h-6l-2 1"/>
  <path fill="#46636e" d="M671 637v5l-2 2h-6l2-2v-5l-2-1h6l2 1"/>
  <path fill="#ac8d7d" d="M676 646v4c0 1-1 2-3 2h-6c2 0 3-1 3-2v-4c0-1-1-2-3-2h6c2 0 3 1 3 2"/>
  <path fill="#fff" d="M681 628v7h-16l-2-1v-4l2-2h16"/>
  <path fill="#eceae9" d="M681 630h-18l2-2h16v2M642 646h-29v-2h13l16 2"/>
  <path fill="#8c7569" d="M656 647l-14-1-3-2h-19 48l1 1-13 2M674 644h-1 1"/>
  <path fill="#3b4e57" d="M668 644h-5 5"/>
  <path fill="#836b62" d="M669 645l-1-1h6l-5 1"/>
  <path fill="#b0adac" d="M642 646l-16-2h13l3 2"/>
  <path fill="#496470" d="M663 638l-7-1-2-1h-27 36l2 1-2 1"/>
  <path fill="#b0adac" d="M656 637l-20-1h18l2 1"/>
  <path fill="#496470" d="M671 636h-2 5-3"/>
  <path fill="#3b4e57" d="M665 637l-2-1h8l-6 1"/>
  <path fill="#684737" d="M832 713h64c4 0 7-3 7-7v-10h-78v10c0 4 3 7 7 7"/>
  <path fill="#684737" d="M768 949h12l84-253h-12l-84 253"/>
  <path fill="#684737" d="M957 949h-12l-84-253h12l84 253"/>
  <path fill="#684737" d="M798 860v12h128v-12H798M243 713h65c4 0 7-3 7-7v-10h-79v10c0 4 3 7 7 7"/>
  <path fill="#684737" d="M179 949h12l84-253h-12l-84 253"/>
  <path fill="#684737" d="M369 949h-12l-84-253h12l84 253"/>
  <path fill="#684737" d="M210 860v12h127v-12H210M820 270h-5V0h5v270"/>
  <path fill="#fff" d="M837 289a19 19 0 1 1-38 0 19 19 0 0 1 38 0"/>
  <path fill="#fbc1a0" d="M537 679h157v-27H537z"/>
  <path fill="#fff" d="M683 667a8 8 0 1 1-17 0 8 8 0 0 1 17 0M602 675h58v-16h-58z"/>
  <path fill="#684737" d="M941 181h-5V0h5v181"/>
  <path fill="#fff" d="M964 194a25 25 0 1 1-51 0 25 25 0 0 1 51 0"/>
  <path fill="#211c1d" d="M612 570v96a5 5 0 0 1-5 5H459c-3 0-5-2-5-5v-96c0-3 2-5 5-5h148c2 0 5 2 5 5"/>
  <g clip-path="url(#a)" transform="matrix(.13333 0 0 -.13333 0 1027)">
    <path fill="url(#b)" d="M3995 2605h-572c-9 0-206 4-206 40v4c1-4 4-8 8-8h770v-36"/>
  </g>
  <path fill="#fff" d="M636 672v1l-1 1H430l-1-1v-1l1-1h205l1 1"/>
  <path fill="#d3d4d3" d="M518 674h30v-1h-30z"/>
  <path fill="#708990" d="M461 663h144v-90H461z"/>
  <path fill="#93b1b6" d="M472 592h122v-8H472zM472 635h121v-39H472z"/>
  <path fill="#a1938d" d="M518 674v-1h15-15v1"/>
  <path fill="#e1e0de" d="M636 675v-3 3"/>
  <path fill="#1d1a1a" d="M607 671h-74v-8h72v-90h-72v-8h74c2 0 5 2 5 5v96a5 5 0 0 1-5 5"/>
  <g clip-path="url(#c)" transform="matrix(.13333 0 0 -.13333 0 1027)">
    <path fill="url(#d)" d="M4566 2605h-571v36h770c5 0 8 4 8 8v-5c0-3-1-6-4-9-29-28-195-30-203-30"/>
  </g>
  <path fill="#e1e0de" d="M635 674h-87v-1h-15v-2h102l1 1v1l-1 1"/>
  <path fill="#b5b6b6" d="M548 674h-15v-1h14l1 1"/>
  <path fill="#60767c" d="M605 663h-72v-28h60v-39h-60v-4h61v-8h-61v-11h72v90"/>
  <path fill="#7d989e" d="M533 592h61v-8h-61zM533 635h60v-39h-60z"/>
  <path fill="#8b7e7b" d="M548 674l-1-1h-14 15v1"/>
  <path fill="#4d555d" d="M741 668h-37c-6 0-11 5-11 11h60c0-6-5-11-12-11"/>
  <path fill="#7e8c95" d="M727 668l-8-8 86-86 8 8-86 86M728 494l2-2 86 85-2 3-86-86"/>
  <path fill="#7e8c95" d="M722 498l2-3 86 86-2 3-86-86M698 506l-2-4 21-13 3 3-22 14"/>
  <path fill="#4d555d" d="M733 674h-14v-14c0-4 3-8 7-8s7 4 7 8v14"/>
  <path fill="#fff" d="M736 657a10 10 0 1 1-20 0 10 10 0 0 1 20 0M818 577a10 10 0 1 1-19 0 10 10 0 0 1 19 0M732 492a10 10 0 1 1-19 0 10 10 0 0 1 19 0M699 513l5-4a8 8 0 0 0-11-11l-4 4c-7-2-14-1-19 4l-13 13 25 26 13-13c5-5 7-12 4-19"/>
  <path fill="#cfefe8" d="M834 662l-3 2h-7v-14h7c1 0 3 1 3 3zm-3-16h-7v-5h-31v27c0 6 5 11 11 11h8c7 0 12-5 12-11h7c4 0 7-3 7-6v-9c0-4-3-7-7-7"/>
  <path fill="#fff" d="M308 470H186V297h122v173"/>
  <path fill="#4d555d" d="M294 457h-95V310h95v147"/>
  <path fill="#fff" d="M584 372h-83v-73h83v73"/>
  <path fill="#4d555d" d="M573 362h-62v-53h62v53M584 468h-83v-73h83v73"/>
  <path fill="#fff" d="M573 458h-62v-53h62v53"/>
  <path fill="#4d555d" d="M463 470H341V297h122v173"/>
  <path fill="#fff" d="M450 457h-96V310h96v147"/>
  <path fill="#4d555d" d="M432 381a30 30 0 1 1-60 0 30 30 0 0 1 60 0"/>
  <path fill="#fff" d="M687 949h175V747H687v202"/>
  <path fill="#e1e0de" d="M687 812h175v-7H687v7M687 879h175v-6H687v6"/>
  <path fill="#dcb7a0" d="M761 780h27v-6h-27v6M761 843h27v-6h-27v6M759 914h28v-6h-28v6"/>
  <path fill="#fff" d="M432 922h-20l1-134c0-9-7-16-16-17l-73-4 39-42 46 13c26 8 36 24 36 50l-13 134"/>
  <path fill="#211c1d" d="M476 949h-64v-27h44c11 0 20 9 20 20v7"/>
  <path fill="#6ecfe1" d="M460 736h-95c-1-48 11-40 11-78a427 427 0 0 0-11-70c-6-16-12-13-12-13v-3-1c2-16 16-28 32-28h52a32 32 0 0 1 32 30l-1 5s-5-2-11 17c-2 5-7 49-7 63-2 37 11 30 10 78"/>
  <path fill="#fff" d="M461 736c0 9-3 17-9 23-6 7-15 11-26 11h-27c-19 0-34-14-35-33v-1h97"/>
  <path fill="#6ecfe1" d="M371 572l-2 13c-1 5-1-1-2 6l-4 14c-3 18-6 23-10 42a416 416 0 0 0-6 82 9 9 0 0 1-18 1 493 493 0 0 1 7-86c9-46 17-69 17-72h18"/>
  <path fill="#8d1a20" d="M460 482c-1 20-6 35-12 46-5 9-12 16-17 20h-1l-12 7h-1l-12 6c-12 8-30 21-32 35-3-1-6-2-9-5a65 65 0 0 1-15-16c-10-14-18-33-13-51 8-33 25-39 20-67-3-15 20-36 41-39 6 0 13 1 18 4 6 0 42 3 45 52v8"/>
  <path fill="#fff" d="M529 922h-20l1-134c0-9-6-16-15-17l-73-4 38-42 46 13c27 8 37 24 36 50l-13 134"/>
  <path fill="#dca88a" d="M312 804h161c9 0 17-8 17-18s-8-18-17-18H312c-10 0-18 8-18 18s8 18 18 18"/>
  <path fill="#fabe9c" d="M403 804h70c9 0 17-8 17-18s-8-18-17-18h-70c-10 0-18 8-18 18s8 18 18 18"/>
  <path fill="#211c1d" d="M363 817h53c4 0 7-3 7-6v-7h-67v7c0 3 4 6 7 6M385 853h11v-36h-11zM378 902h24v-49h-24v49M304 573h59c6 0 11 5 14 12 28 85 22 147 12 184-1 6-6 10-12 10h-65c-8 0-14-9-12-19 7-38 11-87-11-161-3-12 4-26 15-26M414 787c2 2 6 2 8-1l40-55-9-7-41 55c-2 2-1 6 2 8"/>
  <path fill="#211c1d" d="M369 734c39-20 86-13 117 17 3 2 8 1 8-3 1-2 0-3-1-5-31-33-81-42-121-21l-3 12M345 936h11v-14c0-8 11-14 24-14h22v-12h-22c-20 0-35 12-35 26v14"/>
  <path fill="#211c1d" d="M299 936h11v-14c0-8 11-14 24-14h112c12 0 23 6 23 14v14h12v-14c0-14-16-26-35-26H334c-20 0-35 12-35 26v14"/>
  <path fill="#313030" d="M436 936h11v-14c0-14-15-26-35-26h-17a6 6 0 0 0 0 12h17c13 0 24 6 24 14v14"/>
  <path fill="#1f1c1b" d="M385 823h11v-6h-11z"/>
  <path fill="#5c8591" d="M462 936a13 13 0 1 0 26 0 13 13 0 0 0-26 0M428 936a13 13 0 1 0 26 0 13 13 0 0 0-26 0"/>
  <path fill="#486771" d="M338 936a13 13 0 1 0 26 0 13 13 0 0 0-26 0"/>
  <path fill="#5c8591" d="M291 936a13 13 0 1 0 26 0 13 13 0 0 0-26 0"/>
  <path fill="#f9d1ba" d="M551 667c0 11-8 12-18 12-11 0-19-1-19-12a19 19 0 1 1 37 0"/>
  <path fill="#6ecfe1" d="M527 679c-12 0-29-2-42-13-6-5-15-2-26-55-5-28-9-39-9-40l18-2c7 48 20 75 29 83 10 8 24 9 33 9 5-1 9 3 10 7 1 6-3 11-9 11h-4"/>
  <path fill="#211c1d" d="M574 949h-65v-27h45c11 0 20 9 20 20v7"/>
  <path fill="#fcc21b" d="M1239 373c8-2 16-1 24-1 20-1 40 4 58 12 20 10 37 27 48 47 9 14 15 30 20 47 6 23 10 47 10 71-1 6 0 12-3 17-6 13-19 20-32 26-26 11-55 16-83 18h-39c-21-1-43-4-63-10-17-5-35-11-48-24-5-5-10-11-10-19l1-30c3-30 10-61 24-88 9-18 23-35 40-47 16-11 34-17 53-19m-27 69c-17 5-20 30-7 41 5 5 14 6 21 1 11-9 12-29 1-38-4-4-10-5-15-4m88 0l-8 5c-10 9-9 28 2 36 6 5 15 5 21 0 11-9 11-28 0-37-4-3-9-5-15-4m-108 71c-5 1-5 7-4 11 3 11 11 20 20 27 14 13 33 18 52 19 19-1 39-7 54-20 8-8 17-18 18-31 1-5-6-8-10-5-6 4-10 10-16 15a75 75 0 0 1-91 0l-15-13c-2-2-5-4-8-3z"/>
  <path fill="#2f2f2f" d="M1212 442c5-1 11 0 15 4 11 9 10 29-1 38-7 5-16 4-21-1-13-11-10-36 7-41zm88 0c6-1 11 1 15 4 11 9 11 28 0 37-6 5-15 5-21 0-11-8-12-27-2-36l8-5zm-108 71c3-1 6 1 8 3l15 13c26 20 65 20 91 0 6-5 10-11 16-15 4-3 11 0 10 5-1 13-10 23-18 31a80 80 0 0 1-54 20c-19-1-38-6-52-19-9-7-17-16-20-27-1-4-1-10 4-11z"/>
  <g>
    <path fill="#fcc21b" d="M1054 340l12-1c10 0 20 2 29 7 10 5 18 13 24 23 5 7 8 15 10 23 3 12 5 24 5 36l-1 8c-4 7-10 10-16 13-14 6-28 8-42 9h-19c-11 0-22-2-32-5-8-2-17-6-24-12-2-2-5-6-4-9v-15c1-15 5-31 12-44 4-9 11-18 20-24 8-5 17-8 26-9m-13 34c-9 3-10 15-4 21 3 2 7 3 10 0 6-4 7-14 1-19-2-2-5-2-7-2m44 0l-4 3c-5 4-5 14 0 18 3 2 8 2 11 0 5-5 5-14 0-19l-7-2m-54 36c-3 0-3 3-2 5 1 6 5 10 10 14 7 6 16 9 26 9 9 0 19-3 26-10 5-4 9-9 10-15 0-3-3-4-5-3l-9 7a37 37 0 0 1-45 1l-7-7c-1-1-3-2-4-1z"/>
    <path fill="#2f2f2f" d="M1041 374c2 0 5 0 7 2 6 5 5 15-1 19-3 3-7 2-10 0-6-6-5-18 4-21zm44 0l7 2c5 5 5 14 0 19-3 2-8 2-11 0-5-4-5-14 0-18l4-3zm-54 36c1-1 3 0 4 1l7 7c13 10 33 10 45-1l9-7c2-1 5 0 5 3-1 6-5 11-10 15-7 7-17 10-26 10-10 0-19-3-26-9-5-4-9-8-10-14-1-2-1-5 2-5z"/>
  </g>
</svg>
