<svg xmlns="http://www.w3.org/2000/svg" width="1067" height="1067" version="1" viewBox="0 0 800 800">
  <g fill="#fff">
    <path d="M329 233c4-2 9 3 7 8-2 4-9 4-11 0-2-3 1-7 4-8zM375 232c5-1 9 5 7 9-1 2-4 3-7 3-3-1-4-4-5-6l5-6zM421 232c5-1 9 5 7 9s-9 4-11 0c-1-4 1-8 4-9zM467 233c5-2 10 4 7 8-2 4-9 4-11-1-1-3 1-7 4-7zM327 307h171v185H302V333l25-26m23 29c-6 2-12 4-16 8-7 7-11 17-9 27-7 5-12 14-12 23s5 18 12 23c-2 10 3 21 11 26a35 35 0 0 0 37 37c11 0 20-6 27-15 6 9 16 15 27 15 11 1 23-5 29-14 5-6 7-15 7-23 9-5 13-16 11-26a29 29 0 0 0 0-46c2-11-2-22-11-29-3-3-9-4-14-6l-4-6c-6-8-17-13-27-11-7 1-14 6-18 11-7-7-17-12-27-11s-19 8-23 17zM235 325c4-2 10 2 9 6 0 5-6 7-10 4-3-3-2-8 1-10zM558 325c4-2 10 2 9 7-1 3-5 5-8 4-5-2-5-9-1-11zM232 375l6-5c2 1 6 3 6 6 1 4-3 7-7 6-3-1-5-4-5-7zM556 375c0-3 3-4 5-5 2 1 5 2 5 5 3 4-3 9-7 7-3-1-4-4-3-7zM236 417c4-1 8 2 8 6 0 5-7 7-10 4s-2-8 2-10zM559 417c5-2 10 4 7 8-1 4-7 4-9 1-3-2-2-8 2-9zM236 463c4-1 8 2 8 6 0 5-6 8-9 4-4-2-3-8 1-10zM559 463c4-1 7 2 8 5 1 4-5 9-9 6-4-2-3-10 1-11zM329 556c3-2 7 1 7 4 1 5-5 9-9 6s-3-9 2-10zM370 561c2-2 3-6 6-6s6 3 6 6c1 4-4 7-7 6s-4-4-5-6zM421 556c3-2 8 1 7 5 1 5-6 8-9 4-4-2-2-8 2-9zM467 556c4-1 7 1 8 4 1 5-5 9-9 6-4-2-3-10 1-10z"/>
  </g>
  <g fill="#474c53">
    <path d="M397 0h6l14 3a50 50 0 0 1 32 53v66c-1 5 3 8 5 12 3 8 2 17 2 25v18c0 2-3 3-5 3H350l-5-1c-2-2-1-5-1-8v-27c0-7 3-13 7-19V48a51 51 0 0 1 46-48m-20 14c-9 6-16 16-18 26l-1 17v61l8-3V65 55c1-2 3-2 5-2 11-1 23-1 32-8 4-2 4-6 5-10 2-2 6-1 6 1 1 5 2 10 5 13 4 4 9 3 13 5 2 1 1 2 2 4v14c-1 9-5 18-11 24l-8 6v7c0 1 0 3 2 3l10 1 14 5V52l-1-15c-3-11-12-21-22-26-13-6-29-5-41 3m-3 46v17c2 9 8 16 17 19 12 5 27-1 33-13 3-7 2-15 2-23l-10-4-6-7c-10 8-24 10-36 11m-1 33v20l11-1c2-3 1-7 1-10l-12-9m19 11c0 3 1 6-1 9-1 3-4 5-6 7v16c4 3 9 3 14 3s11 0 16-3v-16c-2-2-5-4-6-7-2-2-2-6-2-9h-15m-30 21c-7 4-11 12-11 20v28h53v-12h-36c-2 0-5 0-5-2l-1-16h8v11h7v-34c-5 0-11 2-15 5m60-5v38c5 4 8 9 8 15h19v-26c0-7-3-15-8-20s-12-7-19-7m-37 24v10h30v-10c-10 3-21 3-30 0m26 17v12h12c-1-3-1-6-4-8-2-3-5-3-8-4zM97 340c0-21 20-39 40-37 19 2 35 19 35 37l3 2v20c2 2 5 5 4 9 0 6-6 10-12 11-2 8-7 15-14 20v13l12 1c9 1 18 7 24 14 4 6 6 14 5 21v28c1 3-2 4-4 4H80c-2 0-5 0-5-3v-21c0-7-1-14 1-21 5-13 19-23 33-22 2-1 5 0 6-2l1-12c-7-4-12-12-14-20-5-1-10-3-12-8-2-4 1-9 4-12l-1-18c0-2 3-3 4-4m17-22c-6 6-10 14-10 23h61c-1-8-3-16-9-22a31 31 0 0 0-42-1m-13 30v8h67v-8h-67m7 15v8h53v-8h-53m-11 7c-1 3 2 4 3 5v-9c-1 1-3 2-3 4m71-4v9c2-1 5-2 4-5 0-2-2-3-4-4m-60 12a26 26 0 0 0 37 20c9-3 14-11 16-20h-53m15 28c0 3 0 6 2 8 4 7 15 7 19 0 2-2 1-5 2-8-8 2-16 2-23 0m-10 17l-12 1c-4 1-8 4-11 6h89c-5-5-12-8-20-7-4 0-7-1-10-3-3 3-7 6-12 7-7 1-13-3-17-7-2 1-4 3-7 3m-29 15l-2 8h105l-2-8H84m-2 15v8l7-1v-7h-7m15 0v8h75v-8H97m82 0v8h8v-8h-8m-97 15v7h7v-7h-7m15 0v8h75v-8H97m82 0v7l8 1v-8h-8z"/>
  </g>
  <g fill="#7c8691">
    <path d="M377 14c12-8 28-9 41-3a41 41 0 0 1 23 41v66l-14-5-10-1c-2 0-2-2-2-3v-7l8-6c6-6 10-15 11-24V58c-1-2 0-3-2-4-4-2-9-1-13-5-3-3-4-8-5-13 0-2-4-3-6-1-1 4-1 8-5 10-9 7-21 7-32 8-2 0-4 0-5 2v60l-8 3V57l1-17c2-10 9-20 18-26z"/>
    <path d="M373 93l12 9c0 3 1 7-1 10l-11 1V93zM114 318c11-11 31-10 42 1 6 6 8 14 9 22h-61c0-9 4-17 10-23zM82 453h7v7l-7 1v-8zM179 453h8v8h-8v-8zM97 468h75v8H97v-8z"/>
  </g>
  <g fill="#ffd0aa">
    <path d="M374 60c12-1 26-3 36-11l6 7 10 4c0 8 1 16-2 23-6 12-21 18-33 13-9-3-15-10-17-19V60zM392 104h15c0 3 0 7 2 9 1 3 4 5 6 7v16c-5 3-11 3-16 3s-10 0-14-3v-16c2-2 5-4 6-7 2-3 1-6 1-9zM372 638c13-12 35-14 50-4 12 7 19 20 19 34v70c-5-3-12-6-18-6-2 0-5 1-7-1-2-3-1-6-1-10 10-5 17-15 18-26l1-22c0-2 0-5-2-7-4-1-9-1-12-4-4-3-5-8-5-13-1-3-5-4-7-2l-3 9-8 5-11-12-6 6 9 8-4 1-11-11-5 5 7 7c-3 0-8-1-9 2l-1 14c0 7 0 13 2 19 2 9 9 17 17 21v10c-2 2-5 1-7 1-7 0-14 2-19 6v-70c0-11 5-22 13-30z"/>
  </g>
  <g fill="#5ce0bf">
    <path d="M362 125c4-3 10-5 15-5v34h-7v-11h-8l1 16c0 2 3 2 5 2h36v12h-53v-28c0-8 4-16 11-20zM422 120c7 0 14 2 19 7s8 13 8 20v26h-19c0-6-3-11-8-15v-38zM385 763c10 4 20 4 30 0v29h-30v-29z"/>
  </g>
  <path fill="#f8fafd" d="M385 144c9 3 20 3 30 0v10h-30v-10z"/>
  <path fill="#fecfa9" d="M411 161c3 1 6 1 8 4 3 2 3 5 4 8h-12v-12z"/>
  <g fill="#e56565">
    <path d="M371 192h11v29c8 4 13 12 12 20-1 6-6 11-12 14v29h-11v-29c-6-3-12-9-12-16 0-8 5-14 12-18v-29m4 40l-5 6c1 2 2 5 5 6 3 0 6-1 7-3 2-4-2-10-7-9zM417 192h11v29c5 3 10 7 11 12s1 10-2 14c-2 4-5 6-9 8v29h-11v-29c-6-3-11-9-12-16 0-8 5-14 12-18v-29m4 40c-3 1-5 5-4 9 2 4 9 4 11 0s-2-10-7-9zM314 233c3-9 14-15 23-11 9 3 13 15 9 23-2 5-6 8-10 10v29h-11v-29c-9-4-14-13-11-22m15 0c-3 1-6 5-4 8 2 4 9 4 11 0 2-5-3-10-7-8zM452 238c-1-11 11-20 21-17 10 2 16 14 12 23-2 5-6 8-10 11v29h-12v-29c-6-3-12-9-11-17m15-5c-3 0-5 4-4 7 2 5 9 5 11 1 3-4-2-10-7-8zM222 326c2-10 13-16 23-12 4 2 7 6 10 11h24v11h-24c-3 7-10 12-17 12-11 0-20-12-16-22m13-1c-3 2-4 7-1 10 4 3 10 1 10-4 1-4-5-8-9-6zM545 325c3-9 12-14 21-11a17 17 0 0 1-6 34c-7 0-13-6-15-12h-24v-11h24m13 0c-4 2-4 9 1 11 3 1 7-1 8-4 1-5-5-9-9-7zM228 363c6-5 15-5 21 0 3 2 4 5 6 8h24v11h-24c-3 5-6 9-10 11-9 3-20-1-23-10-3-7 0-16 6-20m4 12c0 3 2 6 5 7 4 1 8-2 7-6 0-3-4-5-6-6l-6 5zM551 362c6-4 15-4 21 1s8 13 5 20c-3 9-14 13-22 10-5-2-8-6-10-11h-24v-11h24c1-3 3-7 6-9m5 13c-1 3 0 6 3 7 4 2 10-3 7-7 0-3-3-4-5-5-2 1-5 2-5 5zM222 418c2-9 13-15 22-12 5 2 8 6 11 11h24v11h-24c-3 7-9 13-17 12-11 1-20-12-16-22m14-1c-4 2-5 7-2 10s10 1 10-4c0-4-4-7-8-6zM555 406c9-3 21 3 23 12s-3 19-12 21c-5 1-10 1-14-2-4-2-6-5-8-9h-23v-11h24c2-5 5-9 10-11m4 11c-4 1-5 7-2 9 2 3 8 3 9-1 3-4-2-10-7-8zM221 473c-3-10 6-22 17-21 8-1 14 5 17 11h24v12h-24c-3 4-6 9-12 10-9 3-20-3-22-12m15-10c-4 2-5 8-1 10 3 4 9 1 9-4 0-4-4-7-8-6zM552 454c6-4 15-3 20 2 7 5 8 15 4 22s-14 10-22 7c-4-2-7-6-9-10h-24v-12h23l8-9m7 9c-4 1-5 9-1 11 4 3 10-2 9-6-1-3-4-6-8-5zM325 515h11v30c3 1 7 3 9 6 4 6 4 15-1 20-4 6-13 9-20 6-8-3-14-14-10-22 2-5 6-8 11-10v-30m4 41c-5 1-6 7-2 10s10-1 9-6c0-3-4-6-7-4zM371 515h11v30c5 2 9 5 11 10 4 8-2 19-11 22v30h-11v-29l-8-7c-5-6-5-15 0-21l8-5v-30m-1 46c1 2 2 5 5 6s8-2 7-6c0-3-3-6-6-6s-4 4-6 6zM417 515h11v30c5 2 10 6 11 11s1 11-2 15c-2 3-5 5-9 6v30h-11v-30c-8-3-13-12-11-20 1-6 6-10 11-12v-30m4 41c-4 1-6 7-2 9 3 4 10 1 9-4 1-4-4-7-7-5zM463 515h12v30c4 2 9 6 10 11 4 9-3 21-13 22-10 2-21-7-20-17-1-8 5-13 11-17v-29m4 41c-4 0-5 8-1 10 4 3 10-1 9-6-1-3-4-5-8-4z"/>
  </g>
  <g fill="#3f3a34">
    <path d="M293 326l29-30h187v207H290V330c0-2 1-3 3-4m34-19l-25 26v159h196V307H327z"/>
    <path d="M350 336c4-9 13-16 23-17s20 4 27 11a28 28 0 0 1 46-1l3 7c5 2 11 3 14 6 9 7 13 18 11 29 6 4 10 9 11 16 3 11-2 24-11 30 2 10-2 21-11 26 0 8-2 17-7 23-6 9-18 15-29 14-11 0-21-6-27-15-7 9-16 15-27 15a35 35 0 0 1-37-37c-8-5-13-16-11-26-7-5-12-14-12-23s5-18 12-23c-2-10 2-20 9-27 4-4 10-6 16-8m9 13c1 9 9 16 18 16v12c-11 0-21-7-26-16l-4-12c-9 3-14 15-9 23 2 7 9 10 16 11v11c-6-1-11-1-16-4l-8-9-5 9c-1 6 1 12 5 16 3 3 7 4 10 6-1 4-4 7-4 11 0 3 2 5 3 8 7-12 19-20 32-20v12c-7 0-13 2-17 8a23 23 0 1 0 40 15v-98c0-9-8-18-17-18-10 0-19 9-18 19m46-1v97c0 8 4 16 11 20 5 4 11 4 17 3a23 23 0 0 0 12-39c-5-4-11-6-17-6v-12c14 0 26 8 32 20l3-9c0-4-3-7-4-10 6-2 12-5 14-12 3-6 1-13-3-18l-9 8c-5 3-10 3-15 4v-11c4-1 8-2 11-5 6-5 8-14 4-20-1-5-5-7-9-9-1 7-4 14-9 19-5 6-13 8-20 9v-12c5 0 11-3 14-7s3-10 2-15c-2-8-10-13-18-12-9 0-16 8-16 17z"/>
  </g>
  <g fill="#474c54">
    <path d="M662 305c6-2 12-2 18-2 13 2 25 11 30 23 2 8 3 17 1 25 5 2 9 7 9 12-1 6-7 10-12 11-3 8-8 15-15 20 0 5-1 9 2 13l14 1c14 4 25 17 26 32v35c0 2 0 5-2 6l-4 1H616l-1-7v-35c0-17 16-32 33-33 3 0 6 1 8-2v-11c-7-5-12-12-14-20-6 0-12-6-12-12 0-5 4-9 8-11-2-6-1-13 0-20 3-12 12-22 24-26m-4 10l11 2c8 0 15 1 22-2-9-7-23-7-33 0m-7 5c4 4 8 9 9 15 0 8-5 15-12 18 1 7 0 15 2 21 3 10 13 18 23 18 11 1 22-5 26-15 3-8 2-16 2-24-6-3-12-9-11-17-1-7 4-12 8-16-14 7-32 7-47 0m-3 7c-3 6-3 13-3 20 4-2 8-6 7-11 1-4-2-7-4-9m49 11c1 4 4 7 8 9 0-7 0-14-3-20-3 2-6 7-5 11m-60 24c0 3 2 4 4 5v-9c-2 1-4 2-4 4m72 5c1-1 4-2 3-5 0-2-2-3-3-4v9m-45 31c0 5-1 9-3 13 8 5 19 5 27 0-2-4-2-8-2-13-7 2-15 2-22 0m-25 19c-7 2-13 8-15 15-2 5-2 11-2 17h8v7h-8v4h19c2 0 4 2 4 4v11h60v-12c0-2 2-3 4-3h18v-4h-7v-7h7c0-8 0-17-5-23-5-9-15-12-25-11v22c1 3-4 6-6 3l-16-16-17 16c-2 2-6 1-6-2v-23c-4 0-9 0-13 2m44 4l7 7v-10c-2 2-5 3-7 3m-23-2v9l7-7-7-2m-38 48v8h15v-8h-15m90 0v8h15v-8h-15zM384 623c8-3 17-4 25-2a50 50 0 0 1 40 51v70c-1 3 2 6 3 9 3 5 4 12 4 18v27c0 2-2 3-3 4H346c-3-2-2-6-2-9v-27c0-7 3-13 7-19v-77c0-20 14-38 33-45m-12 15c-8 8-13 19-13 30v70c5-4 12-6 19-6 2 0 5 1 7-1v-10c-8-4-15-12-17-21-2-6-2-12-2-19l1-14c1-3 6-2 9-2l-7-7 5-5 11 11 4-1-9-8 6-6 11 12 8-5 3-9c2-2 6-1 7 2 0 5 1 10 5 13 3 3 8 3 12 4 2 2 2 5 2 7l-1 22c-1 11-8 21-18 26 0 4-1 7 1 10 2 2 5 1 7 1 6 0 13 3 18 6v-70c0-14-7-27-19-34-15-10-37-8-50 4m2 35v8c2-4 5-8 10-8 5-1 9 3 12 7 3 0 8 1 10-2s6-6 10-5c5 0 8 4 10 8v-8l-10-4-6-8c-10 9-24 11-36 12m9 7c-4 2-1 9 3 8 5-2 2-10-3-8m30 0c-2 1-2 4-1 6 2 3 7 2 7-2 0-3-3-5-6-4m-39 6l1 13c2 8 9 14 17 17 12 5 28-2 32-15 2-4 2-9 2-14-2 4-6 8-11 8s-8-4-11-7h-8c-3 4-7 8-12 7-5 0-8-5-10-9m19 38c-1 3 0 6-2 9-1 3-4 5-6 6v17l15 3 15-3v-17c-2-1-5-3-6-6-2-2-2-6-2-9h-14m-23 17v23l-3 9 10 10v-43l-7 1m52-1v43l11-10-3-9v-23l-8-1m-71 24v28h25l-14-14c-1-1-3-2-3-4 0-4 3-7 3-11v-19c-6 5-10 12-11 20m86-20l1 21c0 4 5 8 2 12l-16 15h25v-28c-1-8-5-15-12-20m-52 19v29h30v-29c-10 4-20 4-30 0z"/>
  </g>
  <g fill="#bac3cc">
    <path d="M658 315c10-7 24-7 33 0a56 56 0 0 1-33 0zM648 327c2 2 5 5 4 9 1 5-3 9-7 11 0-7 0-14 3-20zM697 338c-1-4 2-9 5-11 3 6 3 13 3 20-4-2-7-5-8-9z"/>
  </g>
  <g fill="#f2cac1">
    <path d="M651 320c15 7 33 7 47 0-4 4-9 9-8 16-1 8 5 14 11 17 0 8 1 16-2 24a26 26 0 0 1-49-3c-2-6-1-14-2-21 7-3 12-10 12-18-1-6-5-11-9-15zM108 378h53c-2 9-7 17-16 20-11 6-25 2-32-8-3-4-4-8-5-12zM664 398c7 2 15 2 22 0 0 5 0 9 2 13-8 5-19 5-27 0 2-4 3-8 3-13zM123 406c7 2 15 2 23 0-1 3 0 6-2 8-4 7-15 7-19 0-2-2-2-5-2-8zM179 468h8v8l-8-1v-7z"/>
  </g>
  <g fill="#ffcb57">
    <path d="M359 349a17 17 0 1 1 35-1v98a23 23 0 1 1-23-23v-12c-13 0-25 8-32 20-1-3-3-5-3-8 0-4 3-7 4-11-3-2-7-3-10-6-4-4-6-10-5-16l5-9 8 9c5 3 10 3 16 4v-11c-7-1-14-4-16-11-5-8 0-20 9-23l4 12c5 9 15 16 26 16v-12c-9 0-17-7-18-16zM405 348c0-9 7-17 16-17 8-1 16 4 18 12 1 5 1 11-2 15s-9 7-14 7v12c7-1 15-3 20-9 5-5 8-12 9-19 4 2 8 4 9 9 4 6 2 15-4 20-3 3-7 4-11 5v11c5-1 10-1 15-4l9-8c4 5 6 12 3 18-2 7-8 10-14 12 1 3 4 6 4 10l-3 9c-6-12-18-20-32-20v12c6 0 12 2 17 6 6 7 9 17 5 26a23 23 0 0 1-34 10c-7-4-11-12-11-20v-97z"/>
  </g>
  <g fill="#7b8590">
    <path d="M101 348h67v8h-67v-8zM84 438h101l2 8H82l2-8z"/>
  </g>
  <path fill="#f0c8bf" d="M637 362c0-2 2-3 4-4v9c-2-1-4-2-4-5z"/>
  <path fill="#f3cac1" d="M709 367v-9c1 1 3 2 3 4 1 3-2 4-3 5z"/>
  <g fill="#c1cad4">
    <path d="M108 363h53v8h-53v-8zM97 453h75v8H97v-8z"/>
  </g>
  <path fill="#efc8bf" d="M97 370c0-2 2-3 3-4v9c-1-1-4-2-3-5z"/>
  <g fill="#f1c9c0">
    <path d="M168 366c2 1 4 2 4 4 1 3-2 4-4 5v-9zM622 467h15v8h-15v-8zM712 467h15v8h-15v-8zM82 468h7v7h-7v-7z"/>
  </g>
  <path fill="#ffca6b" d="M639 417c4-2 9-2 13-2v23c0 3 4 4 6 2l17-16 16 16c2 3 7 0 6-3v-22c10-1 20 2 25 11 5 6 5 15 5 23h-7v7h7v4h-18c-2 0-4 1-4 3v12h-60v-11c0-2-2-4-4-4h-19v-4h8v-7h-8c0-6 0-12 2-17 2-7 8-13 15-15z"/>
  <g fill="#f7f9fc">
    <path d="M683 421c2 0 5-1 7-3v10l-7-7zM660 419l7 2-7 7v-9zM383 680c5-2 8 6 3 8-4 1-7-6-3-8zM413 680c3-1 6 1 6 4 0 4-5 5-7 2-1-2-1-5 1-6z"/>
  </g>
  <path fill="#c0c9d3" d="M113 423c3 0 5-2 7-3 4 4 10 8 17 7 5-1 9-4 12-7 3 2 6 3 10 3 8-1 15 2 20 7H90c3-2 7-5 11-6l12-1z"/>
  <g fill="#d6b3ad">
    <path d="M374 673c12-1 26-3 36-12l6 8 10 4v8c-2-4-5-8-10-8-4-1-8 2-10 5s-7 2-10 2c-3-4-7-8-12-7-5 0-8 4-10 8v-8zM374 686c2 4 5 9 10 9 5 1 9-3 12-7h8c3 3 6 7 11 7s9-4 11-8c0 5 0 10-2 14-4 13-20 20-32 15-8-3-15-9-17-17l-1-13zM393 724h14c0 3 0 7 2 9 1 3 4 5 6 6v17l-15 3-15-3v-17c2-1 5-3 6-6 2-3 1-6 2-9z"/>
  </g>
  <path fill="#a0d673" d="M370 741l7-1v43l-10-10 3-9v-23z"/>
  <path fill="#9fd572" d="M422 740l8 1v23l3 9-11 10v-43z"/>
  <g fill="#afe381">
    <path d="M351 764c1-8 5-15 11-20v19c0 4-3 7-3 11 0 2 2 3 3 4l14 14h-25v-28zM437 744c7 5 11 12 12 20v28h-25l16-15c3-4-2-8-2-12l-1-21z"/>
  </g>
</svg>
