<?xml version="1.0" encoding="utf-8"?>
<!-- Generator: Adobe Illustrator 17.0.0, SVG Export Plug-In . SVG Version: 6.00 Build 0)  -->
<!DOCTYPE svg PUBLIC "-//W3C//DTD SVG 1.1//EN" "http://www.w3.org/Graphics/SVG/1.1/DTD/svg11.dtd">
<svg version="1.1" id="Layer_1" xmlns="http://www.w3.org/2000/svg" xmlns:xlink="http://www.w3.org/1999/xlink" x="0px" y="0px"
	 width="1000px" height="1000px" viewBox="0 0 1000 1000" enable-background="new 0 0 1000 1000" xml:space="preserve">
<g>
	<g>
		<g>
			<g>
				<polygon points="628.053,884.939 585.586,884.939 584.367,887.917 629.272,887.917 				"/>
				<polygon fill="#1A1A1A" points="628.053,884.939 621.019,867.742 621.019,867.742 615.13,867.742 598.509,867.742 
					592.62,867.742 592.62,867.742 585.586,884.939 				"/>
				<g>
					<polygon opacity="0.25" points="624.164,875.429 621.019,867.742 592.62,867.742 					"/>
				</g>
			</g>
			<g>
				<polygon points="558.178,884.939 515.711,884.939 514.492,887.917 559.397,887.917 				"/>
				<polygon fill="#1A1A1A" points="558.178,884.939 551.144,867.742 551.144,867.742 545.255,867.742 528.634,867.742 
					522.745,867.742 522.745,867.742 515.711,884.939 				"/>
				<g>
					<polygon opacity="0.25" points="554.289,875.429 551.144,867.742 522.745,867.742 					"/>
				</g>
			</g>
			<g>
				<polygon points="697.928,884.939 655.461,884.939 654.242,887.917 699.147,887.917 				"/>
				<polygon fill="#1A1A1A" points="697.928,884.939 690.894,867.742 690.894,867.742 685.005,867.742 668.384,867.742 
					662.495,867.742 662.495,867.742 655.461,884.939 				"/>
				<g>
					<polygon opacity="0.25" points="694.038,875.429 690.894,867.742 662.495,867.742 					"/>
				</g>
			</g>
		</g>
		<g>
			<g>
				<path fill="#F7F7F8" d="M685.21,661.15c0-5.088-4.124-9.212-9.212-9.212h-7.752l0,0c-10.255,0-18.568-8.313-18.568-18.568
					v234.372h16.464h17.91h0.644h16.964L685.21,661.15z"/>
				<path fill="#D8D9DD" d="M701.66,867.742L685.21,661.15c0-5.088-4.124-9.212-9.212-9.212h-7.752l16.45,215.804H701.66z"/>
			</g>
			<g>
				<path fill="#F7F7F8" d="M543.768,651.938h-7.752c-5.088,0-9.212,4.124-9.212,9.212l-16.45,206.592h16.964h0.644h17.91h16.464
					V633.37C562.336,643.625,554.022,651.938,543.768,651.938z"/>
				<path fill="#D8D9DD" d="M545.872,867.742L545.872,867.742h16.464V633.37c0,10.255-8.313,18.568-18.568,18.568l-16.45,215.804
					h0.644l0,0H545.872z"/>
			</g>
			<g>
				<path fill="#F7F7F8" d="M649.264,499.482c-0.18-0.577-0.414-1.13-0.698-1.652c-0.425-0.783-0.961-1.498-1.586-2.123
					c-0.417-0.417-0.873-0.794-1.363-1.125c-0.735-0.497-1.546-0.89-2.411-1.159c-0.865-0.269-1.785-0.414-2.739-0.414h-7.752
					h-18.396h-42.77c-0.954,0-1.874,0.145-2.739,0.414c-0.865,0.269-1.676,0.663-2.411,1.159c-0.49,0.331-0.947,0.708-1.363,1.125
					c-0.625,0.625-1.161,1.34-1.586,2.123c-0.284,0.522-0.518,1.075-0.698,1.652c-0.269,0.865-0.414,1.785-0.414,2.739V633.37
					v234.372h29.472h5.889h16.622h5.889h12.508h16.964V633.37V502.221C649.678,501.267,649.533,500.347,649.264,499.482z"/>
				<path fill="#D8D9DD" d="M649.678,867.742V633.37V502.221c0-0.954-0.145-1.874-0.414-2.739c-0.179-0.577-0.414-1.13-0.698-1.652
					c-0.425-0.783-0.961-1.498-1.586-2.123c-0.417-0.417-0.873-0.794-1.363-1.125c-0.735-0.497-1.546-0.89-2.411-1.159
					c-0.865-0.269-1.785-0.414-2.739-0.414h-7.752v374.732H649.678z"/>
			</g>
		</g>
		<g>
			<rect x="571.533" y="473.848" fill="#C2C3C9" width="68.947" height="19.162"/>
			<polygon opacity="0.25" points="640.48,482.912 640.48,473.848 571.533,473.848 			"/>
		</g>
		<g>
			<path fill="#F7F7F8" d="M632.714,318.868h-70.378v145.768c0,5.088,4.124,9.212,9.212,9.212h61.166h7.752
				c5.088,0,9.212-4.124,9.212-9.212V318.868H632.714z"/>
			<path fill="#D8D9DD" d="M649.678,318.868h-16.964v154.98h7.752c5.088,0,9.212-4.124,9.212-9.212V318.868z"/>
		</g>
		<g>
			<g>
				<path fill="#FFFFFF" d="M575.018,451.03c-1.969,0-3.565-1.596-3.565-3.565v-102.79c0-1.969,1.596-3.565,3.565-3.565
					c1.969,0,3.565,1.596,3.565,3.565v102.79C578.583,449.434,576.987,451.03,575.018,451.03z"/>
			</g>
			<g>
				<path fill="#FFFFFF" d="M575.018,678.591c-1.969,0-3.565-1.596-3.565-3.565v-58.228c0-1.969,1.596-3.565,3.565-3.565
					c1.969,0,3.565,1.596,3.565,3.565v58.228C578.583,676.994,576.987,678.591,575.018,678.591z"/>
			</g>
			<g>
				<path fill="#FFFFFF" d="M575.018,736.161c-1.969,0-3.565-1.596-3.565-3.565v-35.65c0-1.969,1.596-3.565,3.565-3.565
					c1.969,0,3.565,1.596,3.565,3.565v35.65C578.583,734.565,576.987,736.161,575.018,736.161z"/>
			</g>
		</g>
		<g>
			<path fill="#D8D9DD" d="M606.007,180.625c-0.956,0-1.731,0.775-1.731,1.731v67.087c0,0.956,0.775,1.731,1.731,1.731
				c0.956,0,1.731-0.775,1.731-1.731v-67.087C607.738,181.4,606.963,180.625,606.007,180.625z"/>
			<path fill="#BF0411" d="M649.678,318.868h-87.342l38.763-79.108c2-4.081,7.817-4.081,9.816,0L649.678,318.868z"/>
		</g>
	</g>
	<g>
		<g>
			<g>
				<rect x="602.682" y="396.086" fill="#87868A" width="8.388" height="44.691"/>
				<rect x="570.052" y="396.086" fill="#87868A" width="8.388" height="44.691"/>
				<rect x="537.423" y="396.086" fill="#87868A" width="8.388" height="44.691"/>
				<rect x="504.793" y="396.086" fill="#87868A" width="8.388" height="44.691"/>
				<rect x="472.163" y="396.086" fill="#87868A" width="8.388" height="44.691"/>
			</g>
			<g>
				<rect x="456.471" y="392.929" fill="#AEADB3" width="162.378" height="10.413"/>
			</g>
			<g>
				<rect x="456.471" y="435.595" fill="#AEADB3" width="162.378" height="10.413"/>
			</g>
		</g>
		<g>
			<g>
				<rect x="602.682" y="521.42" fill="#87868A" width="8.388" height="44.691"/>
				<rect x="570.052" y="521.42" fill="#87868A" width="8.388" height="44.691"/>
				<rect x="537.423" y="521.42" fill="#87868A" width="8.388" height="44.691"/>
				<rect x="504.793" y="521.42" fill="#87868A" width="8.388" height="44.691"/>
				<rect x="472.163" y="521.42" fill="#87868A" width="8.388" height="44.691"/>
			</g>
			<g>
				<rect x="456.471" y="518.263" fill="#AEADB3" width="162.378" height="10.413"/>
			</g>
			<g>
				<rect x="456.471" y="560.929" fill="#AEADB3" width="162.378" height="10.413"/>
			</g>
		</g>
		<g>
			<g>
				<g>
					<g>
						
							<rect x="407.053" y="315.265" transform="matrix(0.7071 0.7071 -0.7071 0.7071 386.2035 -180.5382)" fill="#EDEEF0" width="7.955" height="121.309"/>
						
							<rect x="407.053" y="402.231" transform="matrix(0.7071 0.7071 -0.7071 0.7071 447.6978 -155.0665)" fill="#EDEEF0" width="7.955" height="121.309"/>
						
							<rect x="407.053" y="489.198" transform="matrix(0.7071 0.7071 -0.7071 0.7071 509.192 -129.5947)" fill="#EDEEF0" width="7.955" height="121.309"/>
						
							<rect x="407.053" y="576.164" transform="matrix(0.7071 0.7071 -0.7071 0.7071 570.6863 -104.1229)" fill="#EDEEF0" width="7.955" height="121.309"/>
						
							<rect x="407.053" y="663.13" transform="matrix(0.7071 0.7071 -0.7071 0.7071 632.1806 -78.6512)" fill="#EDEEF0" width="7.955" height="121.309"/>
						
							<rect x="407.053" y="750.096" transform="matrix(0.7071 0.7071 -0.7071 0.7071 693.6749 -53.1794)" fill="#EDEEF0" width="7.955" height="121.309"/>
					</g>
					<g>
						
							<rect x="401.893" y="305.31" transform="matrix(-0.7071 -0.7071 0.7071 -0.7071 517.4016 832.8898)" fill="#E6E6E6" width="58.61" height="7.955"/>
						
							<rect x="407.053" y="315.265" transform="matrix(-0.7071 0.7071 -0.7071 -0.7071 967.4886 351.0925)" fill="#EDEEF0" width="7.955" height="121.309"/>
						
							<rect x="407.053" y="402.231" transform="matrix(-0.7071 0.7071 -0.7071 -0.7071 1028.9828 499.5528)" fill="#EDEEF0" width="7.955" height="121.309"/>
						
							<rect x="407.053" y="489.198" transform="matrix(-0.7071 0.7071 -0.7071 -0.7071 1090.4772 648.0132)" fill="#EDEEF0" width="7.955" height="121.309"/>
						
							<rect x="407.053" y="576.164" transform="matrix(-0.7071 0.7071 -0.7071 -0.7071 1151.9714 796.4734)" fill="#EDEEF0" width="7.955" height="121.309"/>
						
							<rect x="407.053" y="663.13" transform="matrix(-0.7071 0.7071 -0.7071 -0.7071 1213.4657 944.9338)" fill="#EDEEF0" width="7.955" height="121.309"/>
						
							<rect x="407.053" y="750.096" transform="matrix(-0.7071 0.7071 -0.7071 -0.7071 1274.96 1093.394)" fill="#EDEEF0" width="7.955" height="121.309"/>
					</g>
					<g>
						
							<rect x="316.864" y="663.13" transform="matrix(-0.7071 0.7071 -0.7071 -0.7071 1059.5035 1008.707)" fill="#EDEEF0" width="7.955" height="121.309"/>
						
							<rect x="316.864" y="750.096" transform="matrix(-0.7071 0.7071 -0.7071 -0.7071 1120.9978 1157.1672)" fill="#EDEEF0" width="7.955" height="121.309"/>
						
							<rect x="316.864" y="663.13" transform="matrix(0.7071 0.7071 -0.7071 0.7071 605.7653 -14.8778)" fill="#EDEEF0" width="7.955" height="121.309"/>
						
							<rect x="316.864" y="750.096" transform="matrix(0.7071 0.7071 -0.7071 0.7071 667.2596 10.594)" fill="#EDEEF0" width="7.955" height="121.309"/>
						
							<rect x="315.354" y="655.691" transform="matrix(-0.7071 -0.7071 0.7071 -0.7071 120.2638 1369.1522)" fill="#EDEEF0" width="56.677" height="7.955"/>
					</g>
					<polygon fill="#D8D9DD" points="451.107,238.206 361.157,327.667 369,332 456.732,244.877 					"/>
				</g>
				<g>
					<g>
						<rect x="364.785" y="328.024" fill="#C2C3C9" width="92.491" height="9.614"/>
						<rect x="364.785" y="414.833" fill="#C2C3C9" width="92.491" height="9.614"/>
						<rect x="364.785" y="501.641" fill="#C2C3C9" width="92.491" height="9.614"/>
						<rect x="364.785" y="588.449" fill="#C2C3C9" width="92.491" height="9.614"/>
					</g>
					<g>
						<polygon fill="#C2C3C9" points="367.087,675.257 364.785,675.257 274.596,675.257 274.596,684.871 364.785,684.871 
							367.087,684.871 457.276,684.871 457.276,675.257 						"/>
						<g>
							<polygon fill="#C2C3C9" points="367.087,762.065 364.785,762.065 274.596,762.065 274.596,771.679 364.785,771.679 
								367.087,771.679 457.276,771.679 457.276,762.065 							"/>
							<polygon fill="#C2C3C9" points="364.785,848.873 274.596,848.873 274.596,858.487 364.785,858.487 367.087,858.487 
								457.276,858.487 457.276,848.873 367.087,848.873 							"/>
						</g>
					</g>
				</g>
				<g>
					<g>
						<rect x="361.157" y="327.667" fill="#D8D9DD" width="11.934" height="548.805"/>
					</g>
					<g>
						<rect x="451.337" y="238.206" fill="#D8D9DD" width="11.934" height="638.266"/>
					</g>
					<polygon fill="#D8D9DD" points="277.546,674.489 270.977,674.489 270.977,876.472 282.911,876.472 282.911,680.373 
						282.911,674.489 					"/>
					<polygon fill="#D8D9DD" points="366.543,596.741 361.166,584.116 270.977,674.489 282.911,674.489 282.911,680.373 					"/>
				</g>
			</g>
			<rect x="255.024" y="875.077" fill="#AEADB3" width="224.201" height="21.641"/>
		</g>
	</g>
</g>
</svg>
