<?xml version="1.0" encoding="utf-8"?>
<!-- Generator: Adobe Illustrator 22.1.0, SVG Export Plug-In . SVG Version: 6.00 Build 0)  -->
<svg version="1.1" id="layer_1" xmlns="http://www.w3.org/2000/svg" xmlns:xlink="http://www.w3.org/1999/xlink" x="0px" y="0px"
	 viewBox="0 0 124.9 150.4" style="enable-background:new 0 0 124.9 150.4;" xml:space="preserve">
<style type="text/css">
	.st0{fill:#364760;}
	.st1{fill:#576784;}
	.st2{fill:#E9EDF2;}
	.st3{fill:#F5F7FA;}
	.st4{fill:#5C5CFF;}
	.st5{fill:#7B7BFF;}
	.st6{fill:#CFD8E2;}
</style>
<g>
	<polygon class="st0" points="79.7,133.8 45.4,133.7 44.4,137.4 80.7,137.5 	"/>
	<polygon class="st1" points="44.4,137.4 41.6,147.2 83.1,147.3 80.7,137.5 	"/>
</g>
<path class="st0" d="M39.1,150.3c-0.8,0-1.5-0.7-1.5-1.5l0,0c0-0.8,0.7-1.5,1.5-1.5l46.5,0.1c0.8,0,1.5,0.7,1.5,1.5l0,0
	c0,0.8-0.7,1.5-1.5,1.5"/>
<g>
	<g>
		<path class="st2" d="M83.4,19.9l-20.8-0.1l0,17l-0.2,97l25.1,0.1c4,0,7.2-3.2,7.2-7.2l0.2-69.3C94.9,44,90.9,31,83.4,19.9
			L83.4,19.9z"/>
		<path class="st3" d="M41.9,19.8L41.9,19.8c-7.5,11.1-11.6,24.1-11.6,37.5l-0.2,69.3c0,4,3.2,7.2,7.2,7.2l25.1,0.1l0.2-97l0-17
			L41.9,19.8z"/>
		<path class="st0" d="M83.4,19.9L74.2,6.1C71.4,2,67.1,0,62.7,0l-0.1,19.8L83.4,19.9z"/>
		<path class="st1" d="M62.7,0C58.4,0,54,2,51.2,6.1l-9.3,13.7l20.7,0.1L62.7,0z"/>
	</g>
	<g>
		<circle class="st0" cx="62.5" cy="68.6" r="19.9"/>
		<g>
			<g>
				<path class="st4" d="M78.5,68.6c0-4.2-1.6-8-4.3-10.9c0,0.3,0,0.6,0,0.9c0,10.2-4.3,19.4-11.2,25.9
					C71.6,84.2,78.4,77.2,78.5,68.6z"/>
				<path class="st4" d="M74.2,58.7c0-0.3,0-0.6,0-0.9c-2.2-2.4-5.1-4.1-8.5-4.8c0,0.4,0.1,0.9,0.1,1.3c0,9.7-7.9,17.6-17.7,17.6
					c-0.4,0-0.9,0-1.3-0.1c1.5,7.3,7.9,12.8,15.6,12.8c0.2,0,0.4,0,0.6,0C69.9,78,74.2,68.9,74.2,58.7z"/>
			</g>
			<path class="st5" d="M65.8,54.2c0-0.4,0-0.9-0.1-1.3c-1-0.2-2.1-0.3-3.2-0.3c-8.8,0-16,7.1-16,15.9c0,1.1,0.1,2.2,0.3,3.2
				c0.4,0,0.9,0.1,1.3,0.1C57.9,71.9,65.8,64,65.8,54.2z"/>
		</g>
	</g>
</g>
<polygon class="st6" points="94.7,90.9 94.7,122.6 101.1,122.6 101.2,94.3 "/>
<path class="st3" d="M124.9,112.6c0-3.6-2-6.8-5.1-8.5l-18.6-9.8l-0.1,28.3l18.4,0c2.9,0,5.3-2.4,5.3-5.3"/>
<g>
	<polygon class="st6" points="30.2,90.7 30.2,122.4 23.7,122.4 23.8,94.1 	"/>
	<path class="st3" d="M0,112.3c0-3.6,2-6.8,5.1-8.5l18.6-9.7l-0.1,28.3l-18.4,0C2.4,122.3,0,120,0,117L0,112.3z"/>
</g>
</svg>
