<svg xmlns="http://www.w3.org/2000/svg" width="341" height="341" version="1" viewBox="0 0 256 256">
  <g fill="#2f2f2f">
    <path d="M84.39 83.51C89.15 82.32 94.48 83.51 98.11 86.87 108.08 95.38 107.69 113.26 96.97 120.99 91.45 125.25 83.1 124.67 78.04 119.95 66.7 110.29 69.39 87.93 84.39 83.51zM164.36 83.46C169.14 82.29 174.35 83.71 177.98 87.02 187.44 95.43 187.28 112.36 177.41 120.4 172.17 124.85 163.71 125.13 158.44 120.59 148.47 112.72 148.07 95.87 157.35 87.32 159.3 85.47 161.7 84.03 164.36 83.46zM66.42 147.44C69.24 146.71 72.12 147.92 74.25 149.74 78.97 153.67 82.84 158.54 87.81 162.18 111.13 180.05 146.4 179.74 169.31 161.31 174.61 157.31 178.45 151.6 184.16 148.14 187.88 145.75 193.94 148.05 193.38 152.99 192.47 164.19 184.39 173.19 176.54 180.53 163.63 192.84 145.48 197.98 128 198.4 111.22 197.97 93.82 193.29 81.01 181.99 73.32 175.12 65.79 167.04 63.1 156.81 62.18 153.51 62.15 148.25 66.42 147.44z"/>
  </g>
</svg>
