<svg xmlns="http://www.w3.org/2000/svg" width="341" height="341" version="1" viewBox="0 0 256 256">
  <path fill="#fcc21b" d="M 109.44 20.65 C 116.58 19.58 123.81 20.11 131.00 19.99 C 148.79 19.41 166.68 23.57 182.66 31.31 C 201.21 40.39 216.36 55.50 226.82 73.18 C 234.90 86.23 240.15 100.78 244.50 115.44 C 249.67 136.55 253.32 158.20 253.03 180.00 C 252.96 185.05 253.64 190.45 251.06 195.05 C 245.10 206.64 233.16 213.29 221.84 218.71 C 198.21 228.85 172.49 233.20 146.95 234.89 C 135.29 235.14 123.62 234.95 111.95 234.99 C 92.65 234.23 73.49 231.02 54.82 226.13 C 39.42 221.37 23.66 215.53 11.77 204.24 C 7.29 199.59 2.93 193.85 2.99 187.08 C 2.95 177.98 2.79 168.85 3.85 159.80 C 6.45 132.57 12.33 105.24 24.86 80.75 C 33.61 64.13 45.67 48.89 61.37 38.34 C 75.62 28.56 92.36 22.84 109.44 20.65 M 84.39 83.51 C 69.39 87.93 66.70 110.29 78.04 119.95 C 83.10 124.67 91.45 125.25 96.97 120.99 C 107.69 113.26 108.08 95.38 98.11 86.87 C 94.48 83.51 89.15 82.32 84.39 83.51 M 164.36 83.46 C 161.70 84.03 159.30 85.47 157.35 87.32 C 148.07 95.87 148.47 112.72 158.44 120.59 C 163.71 125.13 172.17 124.85 177.41 120.40 C 187.28 112.36 187.44 95.43 177.98 87.02 C 174.35 83.71 169.14 82.29 164.36 83.46 M 66.42 147.44 C 62.15 148.25 62.18 153.51 63.10 156.81 C 65.79 167.04 73.32 175.12 81.01 181.99 C 93.82 193.29 111.22 197.97 128.00 198.40 C 145.48 197.98 163.63 192.84 176.54 180.53 C 184.39 173.19 192.47 164.19 193.38 152.99 C 193.94 148.05 187.88 145.75 184.16 148.14 C 178.45 151.60 174.61 157.31 169.31 161.31 C 146.40 179.74 111.13 180.05 87.81 162.18 C 82.84 158.54 78.97 153.67 74.25 149.74 C 72.12 147.92 69.24 146.71 66.42 147.44 Z"/>
  <g fill="#2f2f2f">
    <path d="M84.39 83.51C89.15 82.32 94.48 83.51 98.11 86.87 108.08 95.38 107.69 113.26 96.97 120.99 91.45 125.25 83.1 124.67 78.04 119.95 66.7 110.29 69.39 87.93 84.39 83.51zM164.36 83.46C169.14 82.29 174.35 83.71 177.98 87.02 187.44 95.43 187.28 112.36 177.41 120.4 172.17 124.85 163.71 125.13 158.44 120.59 148.47 112.72 148.07 95.87 157.35 87.32 159.3 85.47 161.7 84.03 164.36 83.46zM66.42 147.44C69.24 146.71 72.12 147.92 74.25 149.74 78.97 153.67 82.84 158.54 87.81 162.18 111.13 180.05 146.4 179.74 169.31 161.31 174.61 157.31 178.45 151.6 184.16 148.14 187.88 145.75 193.94 148.05 193.38 152.99 192.47 164.19 184.39 173.19 176.54 180.53 163.63 192.84 145.48 197.98 128 198.4 111.22 197.97 93.82 193.29 81.01 181.99 73.32 175.12 65.79 167.04 63.1 156.81 62.18 153.51 62.15 148.25 66.42 147.44z"/>

    </g>
</svg>