<?xml version="1.0" encoding="utf-8"?>
<!-- Generator: Adobe Illustrator 22.1.0, SVG Export Plug-In . SVG Version: 6.00 Build 0)  -->
<svg version="1.1" xmlns="http://www.w3.org/2000/svg" xmlns:xlink="http://www.w3.org/1999/xlink" x="0px" y="0px"
	 viewBox="0 0 150.5 82.6" style="enable-background:new 0 0 150.5 82.6;" xml:space="preserve">
<style type="text/css">
	.st0{display:none;}
	.st1{display:inline;fill:#0B1A38;}
	.st2{display:inline;}
	.st3{fill:#8AD5FF;}
	.st4{fill:#2CB4FF;}
	.st5{fill:#0D7EF9;}
	.st6{fill:#364760;}
	.st7{fill:#9ED7F2;}
	.st8{fill:#FFFFFF;}
	.st9{fill:#E7F6FD;}
	.st10{fill:#D6E8F2;}
	.st11{opacity:0.3;fill:#D6E8F2;}
	.st12{fill:#F5F7FA;}
	.st13{display:inline;fill:#FFFFFF;}
	.st14{display:inline;fill:#F5F7FA;}
	.st15{fill:#EDF0F4;}
	.st16{fill:#576784;}
	.st17{fill:#E9EDF2;}
	.st18{fill:#5C5CFF;}
	.st19{fill:#7B7BFF;}
	.st20{fill:#CFD8E2;}
	.st21{fill:#C0C6D9;}
	.st22{opacity:0.9;}
	.st23{fill:#9FA9C1;}
	.st24{fill:#CC6B00;}
	.st25{fill:none;stroke:#364760;stroke-width:3;stroke-miterlimit:10;}
</style>
<g id="Layer_3" class="st0">
	<rect x="-86.6" y="-183" class="st1" width="309" height="309.5"/>
</g>
<g id="Layer_4" class="st0">
	<g class="st2">
		<g>
			<path class="st3" d="M24.7,33.2l-2.1,4.9c-0.2-0.1-0.4-0.2-0.6-0.2h-2.7c-0.8,0-1.5,0.7-1.5,1.5v2.7c0,0.8,0.7,1.5,1.5,1.5h0.9
				l-2.5,5.7c-0.2-0.1-0.4-0.2-0.7-0.2h-2.6c-0.8,0-1.5,0.7-1.5,1.5v2.7c0,0.8,0.7,1.5,1.5,1.5h1l-2.5,5.8c-0.2-0.1-0.5-0.2-0.7-0.2
				H9.5c-0.8,0-1.5,0.7-1.5,1.5v2.7c0,0.8,0.7,1.5,1.5,1.5h1.1l-2.5,5.8c-0.2-0.1-0.5-0.2-0.8-0.2H4.7c-0.8,0-1.5,0.7-1.5,1.5v2.7
				c0,0.8,0.7,1.5,1.5,1.5h1.1l-2.5,5.8C3.1,83,2.8,83,2.5,83h-2.7c-0.8,0-1.5,0.7-1.5,1.5v2.7c0,0.8,0.7,1.5,1.5,1.5H1l-3.6,8.1
				h7.5l25.4-61.9L24.7,33.2z"/>
		</g>
		<g>
			<path class="st4" d="M123.9,33.2l2.1,4.9c0.2-0.1,0.4-0.2,0.6-0.2h2.7c0.8,0,1.5,0.7,1.5,1.5v2.7c0,0.8-0.7,1.5-1.5,1.5h-0.9
				l2.5,5.7c0.2-0.1,0.4-0.2,0.7-0.2h2.7c0.8,0,1.5,0.7,1.5,1.5v2.7c0,0.8-0.7,1.5-1.5,1.5h-1l2.5,5.8c0.2-0.1,0.5-0.2,0.7-0.2h2.7
				c0.8,0,1.5,0.7,1.5,1.5v2.7c0,0.8-0.7,1.5-1.5,1.5h-1.1l2.5,5.8c0.2-0.1,0.5-0.2,0.8-0.2h2.7c0.8,0,1.5,0.7,1.5,1.5v2.7
				c0,0.8-0.7,1.5-1.5,1.5H143l2.5,5.8c0.2-0.2,0.5-0.2,0.8-0.2h2.7c0.8,0,1.5,0.7,1.5,1.5v2.7c0,0.8-0.7,1.5-1.5,1.5h-1.2l3.5,8.2
				h-7.5L118.4,35L123.9,33.2z"/>
		</g>
		<path class="st5" d="M26.5,15.5H122c2,0,3.5,1.6,3.5,3.5v9.8c0,2-1.6,3.6-3.6,3.6H26.6c-2,0-3.6-1.6-3.6-3.6V19
			C23,17,24.6,15.5,26.5,15.5z"/>
		<path class="st5" d="M26.5,14.5H122c2,0,3.6,1.6,3.6,3.6v2.3c0,2-1.6,3.6-3.6,3.6H26.5c-2,0-3.6-1.6-3.6-3.6v-2.3
			C23,16.1,24.6,14.5,26.5,14.5z"/>
		<g>
			<path class="st4" d="M123.5,27.5H75V108h2.3v-9l14,8.1v0.9h6.1V36.4h26c2.5,0,4.4-2,4.4-4.4C127.8,29.5,125.9,27.5,123.5,27.5z
				 M77.3,36.4H90l-12.7,6.8V36.4z M77.3,47l12.6,7.3L77.3,61V47z M77.3,64.8l11.2,6.5l-11.2,6V64.8z M77.3,81.1l12.6,7.3l-12.6,6.7
				V81.1z M91.4,102.3l-9-5.2l9-4.8V102.3z M91.4,84.5l-9-5.2l9-4.8V84.5z M91.4,68.2l-9-5.2l9-4.8V68.2z M91.4,50.3l-9-5.2l9-4.8
				V50.3z"/>
			<path class="st3" d="M25.1,27.5c-2.4,0-4.4,2-4.4,4.4c0,2.5,2,4.4,4.4,4.4h25.3V108h6v-0.5l14.8-8.6v9H75V27.5H25.1z M56.4,39.9
				l9.8,5.2l-9.8,5.7V39.9z M56.4,57.8l9.8,5.2l-9.8,5.6V57.8z M56.4,74l9.8,5.2l-9.8,5.7V74z M56.4,102.8V91.9l9.8,5.2L56.4,102.8z
				 M71.3,95.1l-12.6-6.7l12.6-7.3V95.1z M71.3,77.3l-11.2-6l11.2-6.5V77.3z M71.3,61l-12.6-6.7L71.3,47V61z M58.5,36.4h12.7v6.8
				L58.5,36.4z"/>
		</g>
		<g>
			<g>
				<path class="st6" d="M96.7,16l-46.5-0.1"/>
			</g>
		</g>
	</g>
</g>
<g id="_x31_">
	<text transform="matrix(1 0 0 1 -271.0949 -147.9622)"><tspan x="0" y="0" style="font-family:'MyriadPro-Regular'; font-size:12px;">Get Started Clicked --&gt; rocket appears</tspan><tspan x="0" y="14.4" style="font-family:'MyriadPro-Regular'; font-size:12px;">Question 1 --&gt; person in rocket</tspan><tspan x="0" y="28.8" style="font-family:'MyriadPro-Regular'; font-size:12px;">Question 2 --&gt; smoke</tspan><tspan x="0" y="43.2" style="font-family:'MyriadPro-Regular'; font-size:12px;">Question 3 --&gt; smoke</tspan><tspan x="0" y="72" style="font-family:'MyriadPro-Regular'; font-size:12px;">Question 4 --&gt; smoke</tspan><tspan x="0" y="86.4" style="font-family:'MyriadPro-Regular'; font-size:12px;">Question 5 --&gt; smoke</tspan><tspan x="0" y="100.8" style="font-family:'MyriadPro-Regular'; font-size:12px;">Question 6 --&gt; smoke</tspan><tspan x="0" y="115.2" style="font-family:'MyriadPro-Regular'; font-size:12px;">Question 7 --&gt; LOTS OF SMOKE</tspan><tspan x="0" y="129.6" style="font-family:'MyriadPro-Regular'; font-size:12px;">Question 8 --&gt; Fire</tspan><tspan x="0" y="144" style="font-family:'MyriadPro-Regular'; font-size:12px;">launch ---&gt; ROCKET TAKES OFF</tspan></text>
	<g>
		<g>
			<path class="st7" d="M827.8-347.8c-0.2,0-0.3,0-0.5,0c-1-3.3-3.4-6-6.5-7.5c-1.1-7.8-7.8-13.7-15.9-13.7c-2.2,0-4.2,0.4-6.1,1.2
				c-1.2-5.3-6-9.3-11.6-9.3c-2.7,0-5.1,0.9-7.1,2.3c-2.9-3.8-7.4-6.2-12.5-6.2c-7.1,0-13.1,4.7-15.1,11.1c-1.4-0.6-3-0.9-4.7-0.9
				c-6.6,0-11.9,5.3-11.9,11.9c0,2.7,0.9,5.3,2.5,7.3c-5.2,0.6-9.3,4.6-10.3,9.7c-0.1,0-0.1,0-0.2,0c-2.8,0-5,2.2-5,5
				c0,2.8,2.2,5,5,5c0.9,0,1.7-0.2,2.4-0.6c2.2,2.9,5.6,4.7,9.5,4.7c0.9,0,1.8-0.1,2.7-0.3c4.6,6.5,12.2,10.7,20.8,10.7
				c7.9,0,15-3.6,19.7-9.3c2.9,4,7.5,6.6,12.8,6.6c7.9,0,14.4-5.8,15.6-13.3c1.4,0.6,2.9,0.9,4.4,0.9c4.3,0,8-2.3,10.1-5.6
				c0.6,0.2,1.2,0.3,1.8,0.3c2.8,0,5-2.2,5-5C832.8-345.6,830.5-347.8,827.8-347.8z"/>
			<path class="st8" d="M728.7-343.7h104c-0.4-2.3-2.5-4.1-4.9-4.1c-0.2,0-0.3,0-0.5,0c-1-3.3-3.4-6-6.5-7.5
				c-1.1-7.8-7.8-13.7-15.9-13.7c-2.2,0-4.2,0.4-6.1,1.2c-1.2-5.3-6-9.3-11.6-9.3c-2.7,0-5.1,0.9-7.1,2.3c-2.9-3.8-7.4-6.2-12.5-6.2
				c-7.1,0-13.1,4.7-15.1,11.1c-1.4-0.6-3-0.9-4.7-0.9c-6.6,0-11.9,5.3-11.9,11.9c0,2.7,0.9,5.3,2.5,7.3
				C733.9-351,730.2-347.9,728.7-343.7z"/>
			<path class="st9" d="M785.2-347.9c0,3.6-2.9,6.6-6.6,6.6c-3.6,0-6.6-2.9-6.6-6.6c0-3.6,2.9-6.6,6.6-6.6
				C782.3-354.4,785.2-351.5,785.2-347.9z"/>
			
				<ellipse transform="matrix(0.9231 -0.3844 0.3844 0.9231 190.2457 271.0217)" class="st9" cx="773" cy="-340.3" rx="7.5" ry="7.5"/>
			<path class="st9" d="M828.3-350.1c-1.3-0.9-2.9-1.5-4.7-1.5c-2,0-3.9,0.8-5.3,2.1c-1.6-3.1-4.8-5.2-8.5-5.2
				c-1.2,0-2.3,0.2-3.4,0.6c-1.5-1.7-3.6-2.8-6.1-2.8c-3.2,0-6,1.9-7.2,4.7c-1-0.5-2.1-1-3.3-1.2c-0.2-4.2-3.6-7.6-7.9-7.6
				c-3.2,0-5.9,1.9-7.2,4.6c-1.7-1.5-4-2.4-6.5-2.4c-0.8,0-1.6,0.1-2.4,0.3c-2.5-3.6-6.6-6-11.3-6c-4.1,0-7.8,1.8-10.3,4.6
				c-1.5-1.8-3.7-3-6.2-3c-4.4,0-7.9,3.6-7.9,7.9c0,1.7,0.5,3.2,1.4,4.5c-2,1.3-3.5,3.2-4.2,5.5c-3.6,0.7-6.4,3.9-6.4,7.8
				c0,4.4,3.6,7.9,7.9,7.9c0.5,0,0.9,0,1.3-0.1c0.6,3.8,3.9,6.8,7.8,6.8c3.4,0,6.2-2.1,7.4-5c0.2,0,0.4,0,0.6,0c1.6,0,3-0.5,4.3-1.2
				c1.9,3.7,5.8,6.3,10.2,6.3c6.4,0,11.5-5.2,11.5-11.5c0-1.9-0.5-3.6-1.2-5.2c0.8-0.2,1.5-0.5,2.2-0.9c0,0,0,0,0,0
				c0,7.5,6.1,13.7,13.7,13.7c7.5,0,13.7-6.1,13.7-13.7c0-0.3,0-0.6,0-0.8c0,0,0,0,0,0c0.3,0,0.6,0,1-0.1c1.5,3.2,4.8,5.4,8.5,5.4
				c2.9,0,5.5-1.3,7.2-3.4c1.2,1.8,3.2,3.1,5.5,3.4c1.3,0.9,2.9,1.5,4.7,1.5c4.4,0,7.9-3.6,7.9-7.9
				C835.2-346.3,832.2-349.6,828.3-350.1z"/>
		</g>
		<path class="st10" d="M767.5-344.9c-0.2,1.8-1,3.4-2.2,4.6c-1.3,1.2-2.9,1.8-4.6,1.8c-1.7,0-3.4-0.7-4.6-1.8
			c-1.1-1.1-1.9-2.5-2.1-4.1c0.1-0.1,0.2-0.1,0.3-0.2c0.6-0.6,1-1.3,1.3-2.1c0.3-0.8,0.4-1.6,0.3-2.4c-0.1,1.6-0.8,3.1-2,4.1
			c-1.1,1-2.6,1.6-4.1,1.6c-1.5,0-3-0.6-4.1-1.6c-1.1-1-1.8-2.5-2-4.1c-0.1,0.8,0,1.6,0.3,2.4c0.3,0.8,0.7,1.5,1.3,2.1
			c1.1,1.2,2.8,1.9,4.5,1.9c1.5,0,3-0.6,4.1-1.6c0,0.7,0.1,1.4,0.4,2.1c0.3,0.9,0.8,1.7,1.4,2.4c1.3,1.4,3.1,2.2,5,2.2
			c1.9,0,3.8-0.8,5-2.2c0.6-0.7,1.1-1.5,1.4-2.4C767.4-343.1,767.6-344,767.5-344.9z"/>
		<path class="st10" d="M794.4-346.3c0.1,0.9-0.1,1.8-0.3,2.7c-0.3,0.9-0.8,1.7-1.4,2.4c-1.3,1.4-3.1,2.2-5,2.2
			c-1.9,0-3.8-0.8-5-2.2c-0.6-0.7-1.1-1.5-1.4-2.4c-0.3-0.9-0.4-1.8-0.3-2.7c0.2,1.8,1,3.4,2.2,4.6c1.3,1.2,2.9,1.8,4.6,1.8
			c1.7,0,3.4-0.7,4.6-1.8C793.4-342.9,794.2-344.5,794.4-346.3z"/>
	</g>
	<path class="st11" d="M993.7-237.2c-0.4-0.3-0.8-0.4-1.2-0.5c-0.5-0.7-1.2-1.3-1.9-1.6c-0.5-3.3-3.3-5.8-6.7-5.8
		c-0.9,0-1.8,0.2-2.6,0.5c-0.5-2.2-2.5-3.9-4.9-3.9c-1.1,0-2.2,0.4-3,1c-1.2-1.6-3.1-2.6-5.3-2.6c-3,0-5.5,2-6.4,4.7
		c-0.6-0.3-1.3-0.4-2-0.4c-2.2,0-4,1.4-4.7,3.3c-1.6,0.3-2.8,1.6-2.8,3.3c0,0.7,0.2,1.4,0.6,1.9c-0.8,0.5-1.5,1.3-1.8,2.3
		c-1.5,0.3-2.7,1.7-2.7,3.3c0,1.9,1.5,3.4,3.4,3.4c0.2,0,0.4,0,0.6-0.1c0.2,1.6,1.6,2.9,3.3,2.9c1.1,0,2-0.5,2.6-1.3
		c2,2.2,4.8,3.6,8,3.6c3.3,0,6.3-1.5,8.3-3.9c1.2,1.7,3.2,2.8,5.4,2.8c3.3,0,6.1-2.4,6.6-5.6c0.6,0.2,1.2,0.4,1.9,0.4
		c1.2,0,2.4-0.5,3.2-1.2c0.5,0.3,1,0.4,1.6,0.4c1.9,0,3.4-1.5,3.4-3.4C996.6-235.6,995.4-237,993.7-237.2z"/>
	<g>
		<path class="st7" d="M1004.3-308.1c0.4-5.8-3.6-10.9-9.2-12.1c0.6-1.5,0.9-3,1-4.7c0.6-8.9-6.2-16.7-15.1-17.3
			c-8-0.5-15,4.9-16.8,12.4c-2.9-4.3-7.8-7.3-13.4-7.6c-2-0.1-4,0.1-5.8,0.6c-1.6-6.7-7.4-11.9-14.7-12.4c-7-0.5-13.2,3.6-15.9,9.6
			c-1.8-1.6-4.2-2.7-6.8-2.8c-6.2-0.4-11.6,4.1-12.3,10.3c-3.1,2.4-5.7,5.5-7.5,9.1c-6.6,0.2-12.1,5.4-12.5,12.1
			c-0.5,7.1,4.9,13.3,12.1,13.8c0.6,0,1.2,0,1.8,0c3.4,5.4,8.6,9.4,14.9,11.3c0.9,7.6,7.1,13.7,15,14.2c6.6,0.4,12.5-3.1,15.4-8.6
			c0.5,0.1,1,0.1,1.4,0.2c4.3,0.3,8.3-1.1,11.4-3.7c2.3,2.5,5.5,4.3,9.2,5c4.9,0.8,9.7-0.7,13.3-3.7c2.1,1.2,4.5,2,7.1,2.2
			c8.9,0.6,16.7-6.2,17.3-15.1c0-0.7,0-1.3,0-1.9C999.6-298,1003.9-302.5,1004.3-308.1z"/>
		<path class="st7" d="M1004.3-308.1c0.4-5.8-3.6-10.9-9.2-12.1c0.6-1.5,0.9-3,1-4.7c0.6-8.9-6.2-16.7-15.1-17.3
			c-8-0.5-15,4.9-16.8,12.4c-2.9-4.3-7.8-7.3-13.4-7.6c-2-0.1-4,0.1-5.8,0.6c-1.6-6.7-7.4-11.9-14.7-12.4c-7-0.5-13.2,3.6-15.9,9.6
			c-1.8-1.6-4.2-2.7-6.8-2.8c-6.2-0.4-11.6,4.1-12.3,10.3c-3.1,2.4-5.7,5.5-7.5,9.1c-6.6,0.2-12.1,5.4-12.5,12.1
			c-0.5,7.1,4.9,13.3,12.1,13.8c0.6,0,1.2,0,1.8,0c3.4,5.4,8.6,9.4,14.9,11.3c0.9,7.6,7.1,13.7,15,14.2c6.6,0.4,12.5-3.1,15.4-8.6
			c0.5,0.1,1,0.1,1.4,0.2c4.3,0.3,8.3-1.1,11.4-3.7c2.3,2.5,5.5,4.3,9.2,5c4.9,0.8,9.7-0.7,13.3-3.7c2.1,1.2,4.5,2,7.1,2.2
			c8.9,0.6,16.7-6.2,17.3-15.1c0-0.7,0-1.3,0-1.9C999.6-298,1003.9-302.5,1004.3-308.1z"/>
		<path class="st8" d="M1003.3-304.2c0.5-1.2,0.9-2.5,1-3.9c0.4-5.8-3.6-10.9-9.2-12.1c0.6-1.5,0.9-3,1-4.7
			c0.6-8.9-6.2-16.7-15.1-17.3c-8-0.5-15,4.9-16.8,12.4c-2.9-4.3-7.8-7.3-13.4-7.6c-2-0.1-4,0.1-5.8,0.6
			c-1.6-6.7-7.4-11.9-14.7-12.4c-7-0.5-13.2,3.6-15.9,9.6c-1.8-1.6-4.2-2.7-6.8-2.8c-6.2-0.4-11.6,4.1-12.3,10.3
			c-3.1,2.4-5.7,5.5-7.5,9.1c-6,0.2-11.1,4.5-12.3,10.4L1003.3-304.2z"/>
		<path class="st9" d="M999.1-318.1c-1.2-0.1-2.4,0.1-3.5,0.4c-1.3-6.2-6.5-11.1-13.2-11.5c-4-0.3-7.7,1.1-10.5,3.6
			c-2-1.2-4.3-2-6.8-2.2c-4.3-0.3-8.3,1.4-11.2,4.2c-1.4-3.4-4.7-6-8.7-6.2c-5.6-0.4-10.5,3.9-10.8,9.5c0,0.6,0,1.2,0,1.8
			c-1.8-2.1-4.3-3.5-7.3-3.7c-2.6-0.2-5.1,0.6-7,2.1c-2-2.6-5-4.3-8.4-4.5c-1.3-0.1-2.5,0-3.6,0.3c-1.9-2.8-5.1-4.7-8.7-5
			c-6.1-0.4-11.3,3.9-12.2,9.8c-7.8-0.4-14.5,5.6-15,13.4c-0.5,8,5.5,14.8,13.4,15.4c0.5,0,1,0,1.5,0c2,4.9,6.7,8.5,12.4,8.9
			c3.8,0.2,7.3-1,10-3.2c1.4,0.7,2.9,1.2,4.6,1.3c6.3,0.4,11.7-4.3,12.3-10.5c1.4,1.8,3.5,3,6,3.2c4.5,0.3,8.5-3.1,8.8-7.7
			c0-0.3,0-0.6,0-0.9c0,0,0.1-0.1,0.1-0.1c1.8,2.1,4.4,3.5,7.4,3.7c3.8,0.3,7.3-1.6,9.4-4.5c0.3,0.2,0.7,0.3,1,0.5
			c1.3,4,4.9,7,9.3,7.3c5.1,0.3,9.6-3,10.9-7.8c0.4,0.1,0.9,0.1,1.4,0.2c3.9,0.3,7.5-1,10.2-3.3c1.5,2.3,4.1,3.9,7.1,4.1
			c5.1,0.3,9.5-3.5,9.9-8.6C1008.1-313.3,1004.2-317.8,999.1-318.1z"/>
		<path class="st10" d="M959.9-312c0.1,0.8-0.2,1.6-0.6,2.3c-0.5,0.7-1.1,1.4-2,1.9c-1.7,1.1-4.2,1.6-6.6,1.5
			c-2.4-0.2-4.8-1-6.4-2.3c-0.8-0.7-1.4-1.4-1.7-2.2c-0.3-0.8-0.5-1.6-0.3-2.4c0.1,1.6,1,3.1,2.6,4.2c1.5,1.1,3.7,1.9,5.8,2
			c2.2,0.2,4.4-0.3,6-1.2C958.5-309.1,959.6-310.5,959.9-312z"/>
		<path class="st10" d="M916.7-302.1c0.1,1-0.2,1.9-0.7,2.8c-0.5,0.9-1.3,1.7-2.3,2.4c-1.9,1.3-4.7,2-7.5,1.8
			c-2.7-0.2-5.4-1.2-7.2-2.8c-0.9-0.8-1.5-1.7-1.9-2.6c-0.4-1-0.5-1.9-0.3-2.9c0.1,1.9,1.1,3.8,2.9,5.1c1.7,1.4,4.1,2.2,6.6,2.4
			c2.5,0.2,4.9-0.4,6.8-1.5C915-298.5,916.3-300.2,916.7-302.1z"/>
		<path class="st10" d="M988.7-313.6c0,0.9-0.2,1.7-0.5,2.5c-0.4,0.8-0.9,1.5-1.6,2.1c-1.4,1.2-3.3,1.9-5.3,1.7
			c-1.9-0.1-3.8-1-5-2.4c-0.6-0.7-1.1-1.5-1.3-2.3c-0.2-0.8-0.3-1.7-0.2-2.6c0,1.7,0.8,3.4,2,4.5c1.2,1.2,2.9,1.9,4.6,2
			c1.7,0.1,3.5-0.4,4.8-1.4C987.5-310.3,988.4-311.9,988.7-313.6z"/>
	</g>
	<g>
		<g>
			<path class="st7" d="M692.9-113.4c-0.1,0-0.2,0-0.3,0c-1.1-4.2-4.9-7.3-9.5-7.3c-1.8,0-3.4,0.5-4.8,1.3c-0.9-1.6-2.1-3.1-3.5-4.3
				c0.7-1.3,1-2.8,1-4.4c0-5.4-4.4-9.8-9.8-9.8c-1.8,0-3.5,0.5-4.9,1.3c-3-5.2-8.6-8.8-15-8.8c-5.5,0-10.4,2.6-13.6,6.6
				c-2-0.8-4.1-1.2-6.4-1.2c-7.8,0-14.4,5.2-16.5,12.3c-4.7,1.1-8.6,4.2-10.9,8.2c-1.4-0.8-3.1-1.3-4.8-1.3c-3.7,0-6.8,2-8.5,5
				c-0.8-0.4-1.6-0.6-2.6-0.6c-3,0-5.5,2.4-5.5,5.5c0,3,2.4,5.5,5.5,5.5c0.9,0,1.8-0.2,2.6-0.6c1.7,3,4.9,5,8.5,5
				c1.8,0,3.4-0.5,4.8-1.3c3,5.2,8.6,8.7,15,8.7c5,0,9.5-2.2,12.7-5.6c3.1,3.4,7.6,5.6,12.7,5.6c4.7,0,9-1.9,12.2-5
				c3.1,3.1,7.4,5,12.2,5c6.4,0,12-3.5,15-8.7c1.4,0.8,3.1,1.3,4.8,1.3c2.9,0,5.5-1.3,7.3-3.2c0.7,0.5,1.6,0.7,2.5,0.7
				c2.7,0,4.9-2.2,4.9-4.9C697.8-111.2,695.6-113.4,692.9-113.4z"/>
			<path class="st8" d="M692.6-113.4c-1.1-4.2-4.9-7.3-9.5-7.3c-1.8,0-3.4,0.5-4.8,1.3c-0.9-1.6-2.1-3.1-3.5-4.3
				c0.7-1.3,1-2.8,1-4.4c0-5.4-4.4-9.8-9.8-9.8c-1.8,0-3.5,0.5-4.9,1.3c-3-5.2-8.6-8.8-15-8.8c-5.5,0-10.4,2.6-13.6,6.6
				c-2-0.8-4.1-1.2-6.4-1.2c-7.8,0-14.4,5.2-16.5,12.3c-4.7,1.1-8.6,4.2-10.9,8.2c-1.4-0.8-3.1-1.3-4.8-1.3c-3.7,0-6.8,2-8.5,5
				c-0.8-0.4-1.6-0.6-2.6-0.6"/>
			<path class="st9" d="M693.8-110.4c-0.1,0-0.1,0-0.2,0c-0.7-2.7-3.1-4.7-6-4.7c-1.1,0-2.2,0.3-3.1,0.8c-0.6-1-1.3-2-2.2-2.8
				c0.4-0.8,0.7-1.8,0.7-2.8c0-3.4-2.8-6.2-6.2-6.2c-1.1,0-2.2,0.3-3.1,0.9c-1.9-3.3-5.4-5.6-9.5-5.6c-3.5,0-6.6,1.7-8.6,4.2
				c-1.3-0.5-2.6-0.8-4.1-0.8c-5,0-9.2,3.3-10.5,7.8c-0.5,0.1-0.9,0.3-1.3,0.4c-1.4-2.5-4.1-4.3-7.2-4.3c-3.2,0-6,1.9-7.3,4.6
				c0,0,0,0,0,0c0.3-0.6,0.5-1.3,0.5-2.1c0-2.6-2.1-4.7-4.7-4.7c-0.9,0-1.7,0.2-2.4,0.6c-1.4-2.5-4.1-4.2-7.2-4.2
				c-2.6,0-5,1.2-6.5,3.2c-0.9-0.4-2-0.6-3.1-0.6c-3.7,0-6.9,2.5-7.9,5.9c-2.2,0.5-4.1,2-5.2,3.9c-0.7-0.4-1.5-0.6-2.3-0.6
				c-1.7,0-3.3,1-4.1,2.4c-0.4-0.2-0.8-0.3-1.2-0.3c-1.4,0-2.6,1.2-2.6,2.6s1.2,2.6,2.6,2.6c0.4,0,0.9-0.1,1.2-0.3
				c0.8,1.4,2.3,2.4,4.1,2.4c0.8,0,1.6-0.2,2.3-0.6c1.4,2.5,4.1,4.2,7.2,4.2c2.4,0,4.5-1,6.1-2.7c1.5,1.6,3.7,2.7,6.1,2.7
				c2.3,0,4.3-0.9,5.8-2.4c1.5,1.5,3.5,2.4,5.8,2.4c1.4,0,2.8-0.4,3.9-1c0.1,0,0.2,0,0.4,0c0.6,0,1.1-0.1,1.6-0.4
				c1.1,1.9,3.1,3.2,5.4,3.2c1.1,0,2.2-0.3,3.1-0.8c1.9,3.3,5.4,5.5,9.5,5.5c3.2,0,6.1-1.4,8.1-3.5c2,2.2,4.9,3.5,8.1,3.5
				c3,0,5.8-1.2,7.7-3.2c2,2,4.7,3.2,7.7,3.2c4.1,0,7.6-2.2,9.5-5.5c0.9,0.5,2,0.8,3.1,0.8c1.8,0,3.5-0.8,4.6-2.1
				c0.5,0.3,1,0.5,1.6,0.5c1.7,0,3.1-1.4,3.1-3.1C697-109,695.6-110.4,693.8-110.4z"/>
		</g>
		<path class="st10" d="M628.1-117c0.1,0.7-0.1,1.3-0.3,2c-0.3,0.6-0.8,1.2-1.4,1.7c-1.3,1-3.1,1.6-5,1.6c-1.9,0-3.8-0.6-5-1.6
			c-0.6-0.5-1.1-1.1-1.4-1.7c-0.3-0.6-0.4-1.3-0.3-2c0.2,1.3,1,2.5,2.2,3.4c1.3,0.8,2.9,1.3,4.6,1.3c1.7,0,3.4-0.5,4.6-1.3
			C627.2-114.4,628-115.7,628.1-117z"/>
		<path class="st10" d="M669.8-120.7c0.1,0.7-0.1,1.3-0.3,2c-0.3,0.6-0.8,1.2-1.4,1.7c-1.3,1-3.1,1.6-5,1.6c-1.9,0-3.8-0.6-5-1.6
			c-0.6-0.5-1.1-1.1-1.4-1.7c-0.3-0.6-0.4-1.3-0.3-2c0.2,1.3,1,2.5,2.2,3.4c1.3,0.8,2.9,1.3,4.6,1.3c1.7,0,3.4-0.5,4.6-1.3
			C668.8-118.2,669.6-119.4,669.8-120.7z"/>
		<path class="st10" d="M652.2-110.9c0.1,0.7-0.1,1.3-0.3,2c-0.3,0.6-0.8,1.2-1.4,1.7c-1.3,1-3.1,1.6-5,1.6c-1.9,0-3.8-0.6-5-1.6
			c-0.6-0.5-1.1-1.1-1.4-1.7c-0.3-0.6-0.4-1.3-0.3-2c0.2,1.3,1,2.5,2.2,3.4c1.3,0.8,2.9,1.3,4.6,1.3c1.7,0,3.4-0.5,4.6-1.3
			C651.3-108.4,652.1-109.6,652.2-110.9z"/>
	</g>
	<g>
		<path class="st7" d="M867.8-242c-1.2,0-2.4,0.3-3.4,0.8c-2.1-2.8-5.5-4.7-9.3-4.7c-1.1,0-2.1,0.2-3,0.4c-1.1-5.2-5.7-9.1-11.3-9.1
			c-1.9,0-3.7,0.5-5.2,1.3c0.3-1.3,0.5-2.7,0.5-4.2c0-10.1-8.2-18.4-18.4-18.4c-1.8,0-3.5,0.3-5.1,0.7c-1.1-9.1-8.8-16.1-18.2-16.1
			c-5.2,0-9.8,2.1-13.1,5.6c-4.9-4.6-11.4-7.4-18.7-7.4c-12.7,0-23.3,8.6-26.4,20.3c-0.6-0.1-1.3-0.1-1.9-0.1
			c-7.3,0-13.5,4.2-16.5,10.3c-1.2-0.5-2.6-0.7-4-0.7c-5.8,0-10.6,4.3-11.4,9.9c-1.7-1-3.7-1.6-5.8-1.6c-5.5,0-10.2,3.9-11.3,9.1
			c-1-0.3-2-0.4-3-0.4c-3.8,0-7.2,1.8-9.3,4.7c-1-0.5-2.2-0.8-3.4-0.8c-4.2,0-7.7,3.4-7.7,7.7c0,4.2,3.4,7.7,7.7,7.7
			c1.2,0,2.4-0.3,3.4-0.8c2.1,2.8,5.5,4.7,9.3,4.7c2.4,0,4.7-0.8,6.5-2c1.9,3.7,5.8,6.3,10.3,6.3c2.9,0,5.6-1.1,7.6-2.9
			c1.9,3.7,5.8,6.3,10.3,6.3c3.9,0,7.4-2,9.5-5c1.5,0.7,3.2,1.2,5.1,1.2c3.7,0,6.9-1.7,9-4.4c0.9,5.4,5.6,9.6,11.3,9.6
			c1.5,0,2.9-0.3,4.2-0.8c4.9,4.7,11.6,7.6,18.9,7.6c10.3,0,19.3-5.7,23.9-14.1c2,1.5,4.4,2.5,7.1,2.5c1.8,0,3.5-0.4,5.1-1.2
			c2.1,3,5.5,5,9.5,5c4.5,0,8.4-2.6,10.3-6.3c2,1.8,4.7,2.9,7.6,2.9c4.5,0,8.3-2.6,10.3-6.3c1.9,1.3,4.1,2,6.5,2
			c3.8,0,7.2-1.8,9.3-4.7c1,0.5,2.2,0.8,3.4,0.8c4.2,0,7.7-3.4,7.7-7.7C875.5-238.6,872-242,867.8-242z"/>
		<path class="st8" d="M875.4-234.8c-0.2-4.1-3.5-7.3-7.6-7.3c-1.2,0-2.4,0.3-3.4,0.8c-2.1-2.8-5.5-4.7-9.3-4.7
			c-1.1,0-2.1,0.2-3,0.4c-1.1-5.2-5.7-9.1-11.3-9.1c-1.9,0-3.7,0.5-5.2,1.3c0.3-1.3,0.5-2.7,0.5-4.2c0-10.1-8.2-18.4-18.4-18.4
			c-1.8,0-3.5,0.3-5.1,0.7c-1.1-9.1-8.8-16.1-18.2-16.1c-5.2,0-9.8,2.1-13.1,5.6c-4.9-4.6-11.4-7.4-18.7-7.4
			c-12.7,0-23.3,8.6-26.4,20.3c-0.6-0.1-1.3-0.1-1.9-0.1c-7.3,0-13.5,4.2-16.5,10.3c-1.2-0.5-2.6-0.7-4-0.7
			c-5.8,0-10.6,4.3-11.4,9.9c-1.7-1-3.7-1.6-5.8-1.6c-5.5,0-10.2,3.9-11.3,9.1c-1-0.3-2-0.4-3-0.4c-3.8,0-7.2,1.8-9.3,4.7
			c-1-0.5-2.2-0.8-3.4-0.8c-4.2,0-7.7,3.4-7.7,7.7c0,0,0,0,0,0H875.4z"/>
		<path class="st9" d="M873.6-238.7c-0.1,0-0.2,0-0.3,0c-1-4-4.6-7-8.9-7c-1.9,0-3.6,0.6-5,1.5c-2.2-5.1-7.2-8.7-13.1-8.7
			c-2.8,0-5.3,0.8-7.5,2.1c-0.7-4-4.2-7-8.3-7c-0.9,0-1.7,0.1-2.5,0.4c-2.2-5.2-7.3-8.8-13.2-8.8c-6.6,0-12.1,4.5-13.8,10.6
			c-0.9-1.4-2.1-2.5-3.5-3.3c0-0.4,0.1-0.8,0.1-1.2c0-6.3-5.1-11.4-11.4-11.4c-5,0-9.3,3.3-10.8,7.9c-2.9,0.1-5.5,1-7.7,2.5
			c-2.4-4.4-7.1-7.4-12.5-7.4c-5.8,0-10.9,3.5-13.1,8.5c-1.6-0.9-3.5-1.4-5.4-1.4c-3.4,0-6.5,1.5-8.5,3.9c-1.6-0.8-3.3-1.3-5.2-1.3
			c-3.7,0-6.9,1.7-9,4.4c-2.4-1.8-5.3-2.8-8.5-2.8c-6.6,0-12.1,4.4-13.8,10.4c-1.2-0.4-2.5-0.7-3.9-0.7c-2.7,0-5.2,1-7.2,2.6
			c-2-1.6-4.5-2.6-7.2-2.6c-6.3,0-11.4,5.1-11.4,11.4c0,6.3,5.1,11.4,11.4,11.4c0,0,0.1,0,0.1,0c0.6,3.3,3.5,5.8,7,5.8
			c3.5,0,6.4-2.5,7-5.8c0,0,0.1,0,0.1,0c1.7,0,3.4-0.4,4.9-1.1c2,3.4,5.6,5.7,9.8,5.7c3.7,0,7-1.8,9.1-4.6c0.7,0.2,1.5,0.4,2.3,0.4
			c3.6,0,6.5-2.6,7.1-6.1c0,0,0.1,0,0.1,0c2.6,3.7,6.8,6,11.7,6c3.3,0,6.4-1.2,8.9-3.1c1.1,2.5,3.6,4.2,6.5,4.2
			c2.3,0,4.3-1.1,5.6-2.7c2.5,4.2,7.1,7,12.3,7c0.8,0,1.6-0.1,2.4-0.2c1.6,4.3,5.8,7.3,10.6,7.3c6.3,0,11.3-5.1,11.3-11.3
			c0-0.2,0-0.4,0-0.6c0.2,0,0.3-0.1,0.5-0.1c2.5,4.1,7,6.8,12.1,6.8c6,0,11.2-3.8,13.3-9.1c1.4,1.1,3.1,1.9,4.9,2.4
			c2,5.6,7.2,9.6,13.5,9.6c6.5,0,12-4.3,13.7-10.2c4-0.5,7.5-2.6,9.8-5.7c1.7,1.7,4,2.8,6.6,2.8c1.6,0,3-0.4,4.3-1.1
			c1.2,1.4,2.9,2.4,4.9,2.4c3.5,0,6.4-2.9,6.4-6.4C880-235.8,877.1-238.7,873.6-238.7z"/>
		<path class="st10" d="M761-250.2c0.1,0.9,0,1.7-0.3,2.6c-0.3,0.8-0.8,1.6-1.4,2.2c-1.2,1.3-3,2.1-4.8,2.1c-1.8,0-3.6-0.8-4.8-2.1
			c-0.6-0.7-1.1-1.4-1.4-2.2c-0.3-0.8-0.4-1.7-0.3-2.6c0.2,1.7,0.9,3.3,2.1,4.4c1.2,1.1,2.8,1.7,4.4,1.7c1.6,0,3.2-0.6,4.4-1.7
			C760.1-246.9,760.8-248.5,761-250.2z"/>
		<path class="st10" d="M786.3-239.6c0.1,1.2-0.1,2.3-0.4,3.5c-0.4,1.1-1,2.1-1.9,3c-1.6,1.8-4.1,2.8-6.5,2.8c-2.4,0-4.9-1-6.5-2.8
			c-0.8-0.9-1.5-1.9-1.9-3c-0.4-1.1-0.6-2.3-0.4-3.5c0.2,2.3,1.2,4.4,2.8,5.9c1.6,1.5,3.8,2.4,5.9,2.3c2.2,0,4.3-0.8,5.9-2.3
			C785-235.2,786.1-237.3,786.3-239.6z"/>
		<path class="st10" d="M834.7-242.7c0.1,1.2-0.1,2.3-0.4,3.5c-0.4,1.1-1,2.1-1.9,3c-1.6,1.8-4.1,2.8-6.5,2.8c-2.4,0-4.9-1-6.5-2.8
			c-0.8-0.9-1.5-1.9-1.9-3c-0.4-1.1-0.6-2.3-0.4-3.5c0.2,2.3,1.2,4.4,2.8,5.9c1.6,1.5,3.8,2.4,5.9,2.3c2.2,0,4.3-0.8,5.9-2.3
			C833.4-238.3,834.5-240.5,834.7-242.7z"/>
		<path class="st10" d="M719.2-246.1c0.1,0.8,0,1.7-0.3,2.5c-0.3,0.8-0.8,1.6-1.4,2.2c-1.2,1.3-2.9,2-4.7,2c-1.8,0-3.5-0.7-4.7-2
			c-0.6-0.6-1.1-1.4-1.4-2.2c-0.3-0.8-0.4-1.7-0.3-2.5c0.1,1.7,0.9,3.2,2.1,4.3c1.2,1.1,2.7,1.7,4.3,1.7c1.6,0,3.1-0.6,4.3-1.7
			C718.3-242.9,719-244.5,719.2-246.1z"/>
	</g>
	<path class="st11" d="M667.1-247.9C667.1-248,667.1-248,667.1-247.9c-0.1-0.1-0.1-0.1-0.1-0.1c-0.1-0.1-0.1-0.2-0.2-0.2
		c0,0,0,0,0,0c-0.1-0.1-0.1-0.1-0.2-0.2c0,0,0,0,0,0c0,0-0.1-0.1-0.1-0.1c-0.7-1.5-2.1-2.5-3.8-2.5c-0.7,0-1.3,0.2-1.9,0.4
		c-0.2-0.1-0.5-0.2-0.7-0.3c-1.1-1.9-3.1-3.3-5.4-3.4c-0.2-0.1-0.4-0.3-0.6-0.4c-0.3-0.1-0.6-0.2-0.8-0.3c-0.4-0.1-0.9-0.2-1.4-0.2
		l0,0l0,0c-0.6,0-1.1,0.1-1.6,0.3c-0.2-0.2-0.4-0.5-0.6-0.7c0-0.1,0-0.3,0-0.4c0-0.2,0-0.3,0-0.5c0-4.7-3.8-8.4-8.4-8.4
		c-0.2,0-0.4,0-0.6,0c-0.6,0-1.2,0.2-1.7,0.3c-0.5-4.2-4.1-7.4-8.4-7.4c-0.9,0-1.7,0.1-2.5,0.4c-0.3,0.1-0.5,0.2-0.8,0.3
		c-1,0.4-1.9,1.1-2.7,1.9c-0.4-0.4-0.9-0.8-1.3-1.1c-0.6-0.4-1.3-0.8-2-1.2c-1.2-0.6-2.6-0.9-4-1.1c-0.2,0-0.4,0-0.6,0
		c-0.2,0-0.4,0-0.6,0l0,0h0c-1.5,0-2.8,0.2-4.1,0.7c-0.6,0.2-1.3,0.5-1.9,0.8c-0.3,0.2-0.6,0.3-0.9,0.5c-0.4,0.3-0.8,0.6-1.2,0.9
		c-0.5,0.4-1,0.9-1.4,1.4c-0.5,0.6-1,1.3-1.4,2c-0.5,0.9-0.9,1.8-1.2,2.9c-0.3,0-0.6,0-0.9,0l0,0l0,0c-0.6,0-1.2,0.1-1.8,0.2
		c-0.2,0-0.4,0.1-0.6,0.1c-0.4,0.1-0.7,0.3-1.1,0.4c-0.2,0.1-0.4,0.2-0.5,0.3c-1.5,0.8-2.8,2.1-3.6,3.7c-0.3-0.1-0.6-0.2-0.9-0.2
		s-0.6-0.1-0.9-0.1l0,0l0,0c-0.3,0-0.7,0-1,0.1c-0.9,0.2-1.8,0.6-2.5,1.2c-0.2,0.1-0.3,0.3-0.5,0.5c-0.1,0.1-0.2,0.3-0.3,0.4
		c-0.2,0.2-0.3,0.5-0.5,0.8c-0.9,0.1-1.8,0.4-2.6,0.9c-0.2,0-0.4,0-0.6,0c-2.2,0-4.1,1.4-4.9,3.3c0,0.1-0.1,0.2-0.1,0.3
		c-0.4,0.1-0.8,0.2-1.2,0.4c-0.1,0-0.2,0-0.4,0c-0.5,0-1.1,0.1-1.6,0.2c-0.8-0.4-1.6-0.7-2.6-0.7c-2.9,0-5.2,2.3-5.2,5.2
		c0,0.1,0,0.2,0,0.3c0,0.1,0,0.2,0,0.3l0,0l0,0c0,0,0,0,0,0c0,0,0,0,0,0l0,0c0,0.8,0.3,1.5,0.7,2.1c0.9,1.6,2.6,2.6,4.5,2.6
		c0,0,0,0,0.1,0c0.3,1.5,1.6,2.7,3.2,2.7c1.6,0,2.9-1.1,3.2-2.7c0,0,0,0,0,0c0,0,0,0,0,0c0.2,0,0.5,0,0.7-0.1
		c0.9,1.5,2.6,2.6,4.5,2.6c0.8,0,1.6-0.2,2.2-0.5c0.5-0.1,1-0.2,1.5-0.5c0.9,1.5,2.6,2.5,4.5,2.5c1.8,0,3.4-0.9,4.4-2.3
		c0.7,0.3,1.5,0.5,2.3,0.5c1.7,0,3.2-0.8,4.1-2c0.4,2.5,2.6,4.4,5.2,4.4c0.7,0,1.3-0.1,1.9-0.4c2.3,2.2,5.3,3.5,8.7,3.5
		c4.1,0,7.7-2,10-5c0.8,0.4,1.7,0.6,2.7,0.6c1.5,0,2.9-0.5,4-1.3c1,1.3,2.5,2.2,4.3,2.2c0.9,0,1.8-0.2,2.6-0.7
		c1.1,0.8,2.4,1.2,3.8,1.2c2.8,0,5.2-1.8,6.1-4.3c0.1-0.2,0.2-0.3,0.3-0.5c0.1,0,0.3,0,0.4-0.1c0.8,0.5,1.7,0.8,2.7,0.8
		c1.7,0,3.2-0.8,4.1-2c0,0,0.1,0,0.1,0c0.1,0,0.2,0,0.3,0c0.4,0.2,0.8,0.2,1.3,0.2c0.4,0,0.7-0.1,1-0.1c0.5,0.3,1,0.5,1.6,0.5
		c1.6,0,2.9-1.3,2.9-2.9C669.8-246.5,668.6-247.8,667.1-247.9z"/>
	<path class="st11" d="M917.5-232.8C917.4-232.8,917.4-232.8,917.5-232.8c-0.1-0.1-0.1-0.1-0.1-0.1c-0.1-0.1-0.1-0.2-0.2-0.2
		c0,0,0,0,0,0c-0.1-0.1-0.1-0.1-0.2-0.2c0,0,0,0,0,0c0,0-0.1-0.1-0.1-0.1c-0.7-1.5-2.1-2.5-3.8-2.5c-0.7,0-1.3,0.2-1.9,0.4
		c-0.2-0.1-0.5-0.2-0.7-0.3c-1.1-1.9-3.1-3.3-5.4-3.4c-0.2-0.1-0.4-0.3-0.6-0.4c-0.3-0.1-0.6-0.2-0.8-0.3c-0.4-0.1-0.9-0.2-1.4-0.2
		l0,0l0,0c-0.6,0-1.1,0.1-1.6,0.3c-0.2-0.2-0.4-0.5-0.6-0.7c0-0.1,0-0.3,0-0.4c0-0.2,0-0.3,0-0.5c0-4.7-3.8-8.4-8.4-8.4
		c-0.2,0-0.4,0-0.6,0c-0.6,0-1.2,0.2-1.7,0.3c-0.5-4.2-4.1-7.4-8.4-7.4c-0.9,0-1.7,0.1-2.5,0.4c-0.3,0.1-0.5,0.2-0.8,0.3
		c-1,0.4-1.9,1.1-2.7,1.9c-0.4-0.4-0.9-0.8-1.3-1.1c-0.6-0.4-1.3-0.8-2-1.2c-1.2-0.6-2.6-0.9-4-1.1c-0.2,0-0.4,0-0.6,0s-0.4,0-0.6,0
		l0,0h0c-1.5,0-2.8,0.2-4.1,0.7c-0.6,0.2-1.3,0.5-1.9,0.8c-0.3,0.2-0.6,0.3-0.9,0.5c-0.4,0.3-0.8,0.6-1.2,0.9
		c-0.5,0.4-1,0.9-1.4,1.4c-0.5,0.6-1,1.3-1.4,2c-0.5,0.9-0.9,1.8-1.2,2.9c-0.3,0-0.6,0-0.9,0l0,0l0,0c-0.6,0-1.2,0.1-1.8,0.2
		c-0.2,0-0.4,0.1-0.6,0.1c-0.4,0.1-0.7,0.3-1.1,0.4c-0.2,0.1-0.4,0.2-0.5,0.3c-1.5,0.8-2.8,2.1-3.6,3.7c-0.3-0.1-0.6-0.2-0.9-0.2
		c-0.3-0.1-0.6-0.1-0.9-0.1h0l0,0c-0.3,0-0.7,0-1,0.1c-0.9,0.2-1.8,0.6-2.5,1.2c-0.2,0.1-0.3,0.3-0.5,0.5c-0.1,0.1-0.2,0.3-0.3,0.4
		c-0.2,0.2-0.3,0.5-0.5,0.8c-0.9,0.1-1.8,0.4-2.6,0.9c-0.2,0-0.4,0-0.6,0c-2.2,0-4.1,1.4-4.9,3.3c0,0.1-0.1,0.2-0.1,0.3
		c-0.4,0.1-0.8,0.2-1.2,0.4c-0.1,0-0.2,0-0.4,0c-0.5,0-1.1,0.1-1.6,0.2c-0.8-0.4-1.6-0.7-2.6-0.7c-2.9,0-5.2,2.3-5.2,5.2
		c0,0.1,0,0.2,0,0.3c0,0.1,0,0.2,0,0.3l0,0l0,0c0,0,0,0,0,0c0,0,0,0,0,0l0,0c0,0.8,0.3,1.5,0.7,2.1c0.9,1.6,2.6,2.6,4.5,2.6
		c0,0,0,0,0.1,0c0.3,1.5,1.6,2.7,3.2,2.7c1.6,0,2.9-1.1,3.2-2.6c0,0,0,0,0,0c0,0,0,0,0,0c0.2,0,0.5,0,0.7-0.1
		c0.9,1.5,2.6,2.6,4.5,2.6c0.8,0,1.6-0.2,2.2-0.5c0.5-0.1,1-0.2,1.5-0.5c0.9,1.5,2.6,2.5,4.5,2.5c1.8,0,3.4-0.9,4.4-2.3
		c0.7,0.3,1.5,0.5,2.3,0.5c1.7,0,3.2-0.8,4.1-2c0.4,2.5,2.6,4.4,5.2,4.4c0.7,0,1.3-0.1,1.9-0.4c2.3,2.2,5.3,3.5,8.7,3.5
		c4.1,0,7.7-2,10-5c0.8,0.4,1.7,0.6,2.7,0.6c1.5,0,2.9-0.5,4-1.3c1,1.3,2.5,2.2,4.3,2.2c0.9,0,1.8-0.2,2.6-0.7
		c1.1,0.8,2.4,1.2,3.8,1.2c2.8,0,5.2-1.8,6.1-4.3c0.1-0.2,0.2-0.3,0.3-0.5c0.1,0,0.3,0,0.4-0.1c0.8,0.5,1.7,0.8,2.7,0.8
		c1.7,0,3.2-0.8,4.1-2c0,0,0.1,0,0.1,0c0.1,0,0.2,0,0.3,0c0.4,0.2,0.8,0.2,1.3,0.2c0.4,0,0.7-0.1,1-0.1c0.5,0.3,1,0.5,1.6,0.5
		c1.6,0,2.9-1.3,2.9-2.9C920.1-231.4,919-232.6,917.5-232.8z"/>
	<g>
		<path class="st7" d="M650.2-200.1c0-3.6-2.9-6.6-6.6-6.6c-0.6,0-1.3,0.1-1.9,0.3c0.1-0.5,0.1-0.9,0.1-1.4
			c0-5.7-4.6-10.3-10.3-10.3c-4.4,0-8.1,2.7-9.6,6.6c-1.2-0.3-2.5-0.4-3.7-0.4c-6.3,0-11.8,3.7-14.4,9.1c-2.8,0.5-5.3,2.1-6.9,4.4
			c-0.9-0.5-2-0.8-3.1-0.8c-3.6,0-6.6,2.9-6.6,6.6c0,3.6,2.9,6.6,6.6,6.6c1.1,0,2.2-0.3,3.1-0.8c1.9,2.7,5,4.5,8.5,4.5
			c1.2,0,2.4-0.2,3.5-0.6c2.6,1.8,5.8,2.9,9.2,2.9c3.9,0,7.5-1.4,10.3-3.8c1.9,1.8,4.4,2.9,7.2,2.9c5.7,0,10.3-4.6,10.3-10.3
			c0-0.9-0.1-1.7-0.3-2.5C648.3-194.7,650.2-197.2,650.2-200.1z"/>
		<path class="st8" d="M647.7-194.9c1.6-1.2,2.6-3.1,2.6-5.2c0-3.6-2.9-6.6-6.6-6.6c-0.6,0-1.3,0.1-1.9,0.3c0.1-0.5,0.1-0.9,0.1-1.4
			c0-5.7-4.6-10.3-10.3-10.3c-4.4,0-8.1,2.7-9.6,6.6c-1.2-0.3-2.5-0.4-3.7-0.4c-6.3,0-11.8,3.7-14.4,9.1c-2.8,0.5-5.3,2.1-6.9,4.4
			c-0.9-0.5-2-0.8-3.1-0.8c-2.9,0-5.3,1.9-6.2,4.5H647.7z"/>
		<path class="st9" d="M648-201C648-201,648-201,648-201c0-0.1,0-0.3,0-0.4c0-3.9-3.2-7.1-7.1-7.1c-2.9,0-5.4,1.8-6.5,4.3
			c-0.8-0.8-1.9-1.3-3.2-1.3c-0.5,0-1.1,0.1-1.5,0.3c-1-2.3-3.2-3.8-5.9-3.8c-2.5,0-4.7,1.5-5.8,3.7c-1.7-2.2-4.4-3.7-7.5-3.7
			c-4.9,0-8.9,3.7-9.5,8.4c-0.9-0.4-1.8-0.7-2.8-0.7c-2.4,0-4.5,1.3-5.6,3.3c-0.8-0.9-2.1-1.5-3.4-1.5c-2.5,0-4.6,2.1-4.6,4.6
			c0,2.5,2.1,4.6,4.6,4.6c1.4,0,2.6-0.6,3.4-1.5c1.1,2,3.2,3.3,5.6,3.3c2,0,3.7-0.9,4.9-2.3c0.4,3.2,3.1,5.7,6.4,5.7
			c2.4,0,4.5-1.3,5.6-3.3c1.7,2.4,4.5,4,7.7,4c2.6,0,4.9-1,6.6-2.7c1.7,2.5,4.6,4.2,7.9,4.2c5,0,9.2-3.9,9.5-8.9
			c0.4,0.1,0.7,0.1,1.1,0.1c2.5,0,4.6-2.1,4.6-4.6S650.5-201,648-201z"/>
		<path class="st10" d="M620.8-200.8c0,0.4,0,0.8-0.2,1.2c-0.1,0.4-0.4,0.8-0.7,1.1c-0.6,0.6-1.5,1-2.3,1c-0.9,0-1.7-0.4-2.3-1
			c-0.3-0.3-0.5-0.7-0.7-1.1c-0.1-0.4-0.2-0.8-0.2-1.2c0.1,0.8,0.4,1.6,1,2.1c0.6,0.5,1.3,0.8,2.1,0.8c0.8,0,1.5-0.3,2.1-0.8
			C620.4-199.2,620.7-200,620.8-200.8z"/>
		<path class="st10" d="M638.8-197.5c0.1,0.7,0,1.3-0.3,2c-0.2,0.6-0.6,1.2-1.1,1.7c-0.9,1-2.3,1.6-3.7,1.6c-1.4,0-2.8-0.6-3.7-1.6
			c-0.5-0.5-0.8-1.1-1.1-1.7c-0.2-0.6-0.3-1.3-0.3-2c0.1,1.3,0.7,2.6,1.6,3.4c0.9,0.9,2.2,1.4,3.4,1.4c1.3,0,2.5-0.5,3.4-1.4
			C638.1-194.9,638.7-196.2,638.8-197.5z"/>
		<path class="st10" d="M606.4-198c0,0.5,0,1-0.2,1.5c-0.2,0.5-0.5,1-0.8,1.4c-0.7,0.8-1.8,1.3-2.9,1.3c-1.1,0-2.2-0.5-2.9-1.3
			c-0.4-0.4-0.7-0.9-0.8-1.4c-0.2-0.5-0.2-1-0.2-1.5c0.1,1,0.6,2,1.3,2.7c0.7,0.7,1.7,1.1,2.7,1.1c1,0,1.9-0.4,2.7-1.1
			C605.9-196,606.3-196.9,606.4-198z"/>
	</g>
	<g>
		<path class="st7" d="M665-328.3c-1.7,0-3.3,0.3-4.9,0.9c-4.2-5.3-10.6-8.7-17.8-8.7c-0.5,0-1,0-1.5,0.1c-4-12.2-15.4-21-29-21
			c-14.6,0-26.9,10.3-29.8,24.1c-0.2,0-0.5,0-0.7,0c-8,0-14.5,6.5-14.5,14.5c0,1.9,0.4,3.7,1,5.3c-4,1.1-7,4.8-7,9.1
			c0,5.2,4.3,9.5,9.5,9.5c1.3,0,2.5-0.3,3.6-0.7c2,5.1,6.9,8.7,12.7,8.7c6.9,0,12.5-5.1,13.5-11.7c3.6,1.5,7.5,2.3,11.7,2.3
			c4.7,0,9.1-1.1,13-3c4.2,5,10.4,8.2,17.5,8.2c7.5,0,14.2-3.7,18.3-9.3c1.4,0.4,2.9,0.7,4.4,0.7c8,0,14.5-6.5,14.5-14.5
			C679.4-321.8,673-328.3,665-328.3z"/>
		<path class="st8" d="M567.9-313.2h111.6c0-0.2,0-0.4,0-0.6c0-8-6.5-14.5-14.5-14.5c-1.7,0-3.3,0.3-4.9,0.9
			c-4.2-5.3-10.6-8.7-17.8-8.7c-0.5,0-1,0-1.5,0.1c-4-12.2-15.4-21-29-21c-14.6,0-26.9,10.3-29.8,24.1c-0.2,0-0.5,0-0.7,0
			c-8,0-14.5,6.5-14.5,14.5C566.9-316.6,567.2-314.9,567.9-313.2C567.9-313.2,567.9-313.2,567.9-313.2z"/>
		<circle class="st9" cx="594.8" cy="-315.9" r="8.1"/>
		<path class="st9" d="M677-322c-1.9,0-3.6,0.6-5,1.5c-2-1.6-4.5-2.6-7.3-2.6c-1.9,0-3.6,0.5-5.2,1.2c-1.9-3.6-5.7-6-10.1-6
			c-0.9,0-1.8,0.1-2.7,0.3c-3.3-4.1-8.3-6.8-14-6.8c-4.2,0-8.1,1.5-11.1,3.9c-3.1-4.7-8.5-7.9-14.6-7.9c-8.5,0-15.6,6.1-17.1,14.2
			c-2.1-2.3-5.1-3.8-8.5-3.8c-4.4,0-8.2,2.4-10.1,6c-1.6-1.3-3.5-2-5.7-2c-5,0-9,4.1-9,9c0,5,4.1,9,9,9c1,0,2-0.2,3-0.5
			c0,0.2,0,0.3,0,0.5c0,5,4.1,9,9,9c3.4,0,6.3-1.9,7.9-4.6c0.8,0.4,1.7,0.6,2.6,0.6c1.1,0,2.1-0.3,3-0.8c1.7,4.3,5.8,7.3,10.7,7.3
			c6,0,10.9-4.5,11.4-10.4c1.5-0.6,2.9-1.4,4.2-2.3c3.2,5.1,8.8,8.5,15.2,8.5c2.9,0,5.6-0.7,8-1.9c1.6,2.7,4.5,4.5,7.8,4.5
			c4.3,0,7.9-3,8.8-7c2,1.7,4.6,2.7,7.4,2.7c3.7,0,6.9-1.7,9-4.4c1,0.4,2.1,0.6,3.3,0.6c5,0,9-4.1,9-9C686.1-318,682-322,677-322z
			 M591.9-311.6C591.9-311.6,591.9-311.6,591.9-311.6c0-0.2,0.1-0.3,0.2-0.5c0,0,0,0.1,0.1,0.1C592.1-311.9,592-311.7,591.9-311.6z"
			/>
		<path class="st10" d="M645.4-320.3c0.1,1-0.1,2-0.4,2.9c-0.3,0.9-0.9,1.8-1.6,2.6c-1.4,1.5-3.4,2.4-5.5,2.4
			c-2.1,0-4.1-0.9-5.5-2.4c-0.7-0.7-1.2-1.6-1.6-2.6c-0.3-0.9-0.5-1.9-0.4-2.9c0.2,1.9,1,3.8,2.4,5c1.4,1.3,3.2,2,5,2
			c1.8,0,3.7-0.7,5-2C644.4-316.5,645.2-318.3,645.4-320.3z"/>
		<path class="st10" d="M610.5-321.3c0.1,1.3-0.1,2.7-0.5,4c-0.5,1.3-1.2,2.5-2.2,3.5c-1.9,2.1-4.7,3.3-7.6,3.3
			c-2.8,0-5.7-1.2-7.6-3.3c-1-1-1.7-2.2-2.2-3.5c-0.4-1.3-0.6-2.7-0.5-4c0.2,2.7,1.4,5.2,3.3,6.9c1.9,1.7,4.4,2.8,6.9,2.7
			c2.5,0,5.1-1,6.9-2.7C609-316.1,610.2-318.6,610.5-321.3z"/>
	</g>
	<g>
		<path class="st7" d="M977.9-170.4c-1.4-6.6-7.2-11.5-14.2-11.5c-1.5,0-2.9,0.2-4.3,0.6c-2.1-4.9-7-8.4-12.7-8.4
			c-4.4,0-8.3,2.1-10.8,5.2c-3.3-2.3-7.4-3.7-11.7-3.7c-10.3,0-18.8,7.6-20.4,17.4c-1-0.2-1.9-0.3-3-0.3c-7.6,0-13.8,6.2-13.8,13.8
			c0,7.6,6.2,13.8,13.8,13.8c1.1,0,2.2-0.1,3.2-0.4c1.9,5.4,7,9.2,13,9.2c4.3,0,8.1-1.9,10.6-5c2.5,3,6.3,5,10.6,5
			c4.8,0,9-2.4,11.4-6.1c1.5,0.5,3,0.8,4.7,0.8c4.7,0,8.8-2.3,11.3-5.9c1.9,1,4.1,1.6,6.4,1.6c7.6,0,13.8-6.2,13.8-13.8
			C985.8-163.4,982.6-168.2,977.9-170.4z"/>
		<path class="st8" d="M985.8-158.5c-0.2-5.3-3.4-9.8-7.9-11.9c-1.4-6.6-7.2-11.5-14.2-11.5c-1.5,0-2.9,0.2-4.3,0.6
			c-2.1-4.9-7-8.4-12.7-8.4c-4.4,0-8.3,2.1-10.8,5.2c-3.3-2.3-7.4-3.7-11.7-3.7c-10.3,0-18.8,7.6-20.4,17.4c-1-0.2-1.9-0.3-3-0.3
			c-7.2,0-13,5.5-13.7,12.5H985.8z"/>
		<path class="st9" d="M983.9-163.3c-1.7-2.1-4.3-3.5-7.2-3.5c-1.6,0-3.1,0.4-4.4,1.1c-2.1-2.1-4.9-3.4-8.1-3.4
			c-0.4,0-0.9,0-1.3,0.1c-2.3-4.6-7.1-7.8-12.6-7.8c-4,0-7.6,1.7-10.2,4.4c-0.5-0.1-1.1-0.2-1.6-0.2c-1.7,0-3.3,0.5-4.7,1.3
			c-1.9-2.3-4.8-3.8-8.1-3.8c-5.5,0-9.9,4.2-10.4,9.6c-2.1-2.2-5-3.6-8.3-3.6c-4.3,0-8,2.3-9.9,5.8c-1.4-0.8-3-1.3-4.7-1.3
			c-5.1,0-9.2,4.1-9.2,9.2s4.1,9.2,9.2,9.2c2.7,0,5.1-1.2,6.8-3.1c2,1.9,4.8,3.1,7.8,3.1c2.3,0,4.3-0.7,6.1-1.8
			c0.9,4.1,4.6,7.2,9,7.2c3.5,0,6.6-2,8.1-4.9c1.5,1.1,3.3,1.7,5.3,1.7c2.3,0,4.4-0.9,6-2.3c1.2,3.6,4.7,6.2,8.7,6.2
			c4.4,0,8.1-3.1,9-7.3c1.5,0.7,3.2,1.1,4.9,1.1c3.2,0,6-1.3,8.1-3.4c1.2,0.6,2.5,1,3.9,1.1c1.7,2.1,4.2,3.4,7.1,3.4
			c5,0,9.1-4.1,9.1-9.1C992.4-159,988.6-162.9,983.9-163.3z"/>
		<path class="st10" d="M935.6-164c0.1,1-0.1,2-0.4,2.9c-0.3,0.9-0.9,1.8-1.6,2.5c-1.4,1.5-3.4,2.4-5.4,2.4c-2,0-4.1-0.9-5.4-2.4
			c-0.7-0.7-1.2-1.6-1.6-2.5c-0.3-0.9-0.5-1.9-0.4-2.9c0.2,1.9,1,3.7,2.4,5c1.4,1.3,3.2,2,5,2c1.8,0,3.6-0.7,5-2
			C934.6-160.3,935.4-162.1,935.6-164z"/>
		<path class="st10" d="M953.3-164c0,0.5,0,1-0.2,1.5c-0.2,0.5-0.4,0.9-0.8,1.3c-0.7,0.7-1.7,1.2-2.7,1.2c-1,0-2-0.4-2.7-1.2
			c-0.3-0.4-0.6-0.8-0.8-1.3c-0.2-0.5-0.2-1-0.2-1.5c0.1,1,0.5,1.9,1.2,2.5c0.7,0.6,1.6,1,2.5,1c0.9,0,1.8-0.4,2.5-1
			C952.8-162.1,953.2-163,953.3-164z"/>
		<path class="st10" d="M966.9-160.6c0.1,1-0.1,2-0.4,2.9c-0.3,0.9-0.9,1.8-1.6,2.5c-1.4,1.5-3.4,2.4-5.4,2.4c-2,0-4.1-0.9-5.4-2.4
			c-0.7-0.7-1.2-1.6-1.6-2.5c-0.3-0.9-0.5-1.9-0.4-2.9c0.2,1.9,1,3.7,2.4,5c1.4,1.3,3.2,2,5,2c1.8,0,3.6-0.7,5-2
			C965.9-156.9,966.7-158.7,966.9-160.6z"/>
	</g>
	<g>
		<path class="st7" d="M836.5-133.5c-0.2,0-0.5,0-0.7,0.1c-1.5-3.7-5.1-6.3-9.4-6.3c-0.1,0-0.1,0-0.2,0c0.1-0.7,0.2-1.4,0.2-2.2
			c0-7.8-6.3-14-14-14c-2.6,0-5,0.7-7.1,1.9c-3-5.7-8.9-9.6-15.8-9.6c-9.9,0-17.9,8-17.9,17.9c-4.7,0-8.8,2.4-11.2,6.1
			c-0.4,0-0.8-0.1-1.2-0.1c-5.6,0-10.1,4.5-10.1,10.1c0,5.6,4.5,10.1,10.1,10.1c1.9,0,3.6-0.5,5.1-1.4c0.4,0.2,0.8,0.5,1.2,0.7
			c0,0.2,0,0.4,0,0.6c0,5.4,4.4,9.8,9.8,9.8c3.4,0,6.5-1.8,8.2-4.5c3.2,2.8,7.4,4.5,12,4.5c5.1,0,9.7-2.1,13-5.4
			c1.8,2.3,4.7,3.8,7.8,3.8c4.9,0,8.9-3.4,9.9-8c0.1,0,0.1,0,0.2,0c3.4,0,6.3-1.6,8.1-4.2c0.6,0.2,1.2,0.4,1.9,0.4c2.8,0,5-2.3,5-5
			C841.5-131.2,839.3-133.5,836.5-133.5z"/>
		<path class="st8" d="M840.8-131c-0.9-1.5-2.5-2.4-4.3-2.4c-0.2,0-0.5,0-0.7,0.1c-1.5-3.7-5.1-6.3-9.4-6.3c-0.1,0-0.1,0-0.2,0
			c0.1-0.7,0.2-1.4,0.2-2.2c0-7.8-6.3-14-14-14c-2.6,0-5,0.7-7.1,1.9c-3-5.7-8.9-9.6-15.8-9.6c-9.9,0-17.9,8-17.9,17.9
			c-4.7,0-8.8,2.4-11.2,6.1c-0.4,0-0.8-0.1-1.2-0.1c-5.1,0-9.3,3.8-10,8.7H840.8z"/>
		<path class="st9" d="M835.8-134.2c-0.4,0-0.8,0-1.1,0.1c-1-2.3-3.2-3.9-5.9-3.9c-0.4,0-0.7,0-1.1,0.1c-0.8-4.1-4.5-7.2-8.8-7.2
			c-3.3,0-6.1,1.8-7.7,4.4c-1.3-3.5-4.7-6-8.7-6c-2,0-3.9,0.7-5.5,1.8c-1.3-3.5-4.7-6-8.7-6c-4.1,0-7.6,2.7-8.8,6.3
			c-2.1-1.4-4.6-2.2-7.4-2.2c-5.3,0-9.9,3-12.1,7.4c-1.6-0.9-3.4-1.5-5.4-1.5c-5.9,0-10.7,4.8-10.7,10.7c0,5.9,4.8,10.7,10.7,10.7
			c3.3,0,6.2-1.5,8.1-3.8c2.4,2.3,5.8,3.8,9.4,3.8c0.3,0,0.7,0,1,0c0.7,3,3.4,5.2,6.6,5.2c2.6,0,4.8-1.4,6-3.5
			c1.5,0.6,3.1,0.9,4.7,0.9c3.4,0,6.6-1.3,8.9-3.5c2,2.5,5,4.1,8.5,4.1c3.3,0,6.3-1.5,8.3-3.9c1.6,1.4,3.7,2.3,6.1,2.3
			c4.1,0,7.6-2.7,8.8-6.4c1.1,1.3,2.7,2.1,4.6,2.1c3.3,0,6-2.7,6-6S839.1-134.2,835.8-134.2z"/>
		<path class="st10" d="M783.4-133.2c0.1,0.6,0,1.1-0.2,1.7c-0.2,0.5-0.5,1-0.9,1.4c-0.8,0.8-1.9,1.3-3.1,1.3
			c-1.2,0-2.3-0.5-3.1-1.3c-0.4-0.4-0.7-0.9-0.9-1.4c-0.2-0.5-0.3-1.1-0.2-1.7c0.1,1.1,0.6,2.1,1.4,2.8c0.8,0.7,1.8,1.1,2.8,1.1
			c1,0,2.1-0.4,2.8-1.1C782.8-131.1,783.3-132.1,783.4-133.2z"/>
		<path class="st10" d="M801.4-137.7c0.1,0.6,0,1.1-0.2,1.7c-0.2,0.5-0.5,1-0.9,1.4c-0.8,0.8-1.9,1.3-3.1,1.3
			c-1.2,0-2.3-0.5-3.1-1.3c-0.4-0.4-0.7-0.9-0.9-1.4c-0.2-0.5-0.3-1.1-0.2-1.7c0.1,1.1,0.6,2.1,1.4,2.8c0.8,0.7,1.8,1.1,2.8,1.1
			c1,0,2.1-0.4,2.8-1.1C800.8-135.6,801.3-136.6,801.4-137.7z"/>
		<path class="st10" d="M818.3-131.8c0.1,1.1-0.1,2.2-0.4,3.3c-0.4,1.1-1,2.1-1.8,2.9c-1.6,1.7-3.9,2.7-6.2,2.7
			c-2.3,0-4.7-1-6.2-2.7c-0.8-0.9-1.4-1.8-1.8-2.9c-0.4-1.1-0.5-2.2-0.4-3.3c0.2,2.2,1.2,4.3,2.7,5.7c1.6,1.4,3.6,2.3,5.7,2.3
			c2.1,0,4.2-0.8,5.7-2.3C817.2-127.5,818.2-129.6,818.3-131.8z"/>
	</g>
	<g>
		<path class="st12" d="M106.5,11.8c-0.3,0-0.5,0-0.8,0.1c-0.7-1.6-2.3-2.8-4.1-2.8c-0.3,0-0.5,0-0.7,0.1c-0.6-2.9-3.1-5.1-6.2-5.1
			c-2.3,0-4.3,1.2-5.4,3.1c-0.9-2.5-3.3-4.2-6.1-4.2c-1.4,0-2.8,0.5-3.8,1.3C78.4,1.7,76,0,73.2,0c-2.9,0-5.3,1.9-6.2,4.5
			c-1.5-1-3.3-1.5-5.2-1.5c-3.7,0-6.9,2.1-8.5,5.2c-1.1-0.7-2.4-1.1-3.8-1.1c-4.2,0-7.5,3.4-7.5,7.5s3.4,7.5,7.5,7.5
			c2.3,0,4.4-1,5.7-2.7c1.7,1.6,4,2.7,6.6,2.7c0.2,0,0.5,0,0.7,0c0.5,2.1,2.4,3.7,4.7,3.7c1.8,0,3.4-1,4.2-2.5
			c1,0.4,2.2,0.6,3.3,0.6c2.4,0,4.6-0.9,6.3-2.4c1.4,1.8,3.6,2.9,6,2.9c2.3,0,4.4-1.1,5.8-2.7c1.1,1,2.6,1.6,4.3,1.6
			c2.9,0,5.3-1.9,6.2-4.5c0.8,0.9,1.9,1.5,3.2,1.5c2.3,0,4.2-1.9,4.2-4.2S108.9,11.8,106.5,11.8z"/>
	</g>
</g>
<g id="_x32_" class="st0">
	<path class="st13" d="M124.5,19.2c0,0-0.1,0-0.1,0c-0.5-1.9-2.2-3.4-4.3-3.4c-0.9,0-1.7,0.3-2.4,0.7c-1.1-2.5-3.5-4.2-6.4-4.2
		c-1.3,0-2.6,0.4-3.6,1c-0.3-1.9-2-3.4-4-3.4c-0.4,0-0.8,0.1-1.2,0.2C101.3,7.8,98.9,6,96,6c-3.2,0-5.9,2.2-6.7,5.1
		c-0.4-0.7-1-1.2-1.7-1.6c0-0.2,0-0.4,0-0.6c0-3-2.5-5.5-5.5-5.5c-2.4,0-4.5,1.6-5.2,3.8c-1.4,0-2.7,0.5-3.7,1.2
		c-1.2-2.1-3.5-3.6-6.1-3.6c-2.8,0-5.2,1.7-6.3,4.1c-0.8-0.4-1.7-0.7-2.6-0.7c-1.6,0-3.1,0.7-4.1,1.9c-0.8-0.4-1.6-0.6-2.5-0.6
		c-1.8,0-3.3,0.8-4.3,2.2c-1.2-0.9-2.6-1.4-4.1-1.4c-3.2,0-5.8,2.1-6.7,5c-0.6-0.2-1.2-0.3-1.9-0.3c-1.3,0-2.5,0.5-3.5,1.2
		c-0.9-0.8-2.2-1.2-3.5-1.2c-3,0-5.5,2.5-5.5,5.5c0,3,2.5,5.5,5.5,5.5c0,0,0,0,0.1,0c0.3,1.6,1.7,2.8,3.4,2.8c1.7,0,3.1-1.2,3.4-2.8
		c0,0,0,0,0.1,0c0.8,0,1.6-0.2,2.3-0.5c1,1.6,2.7,2.7,4.7,2.7c1.8,0,3.4-0.9,4.4-2.2c0.3,0.1,0.7,0.2,1.1,0.2c1.7,0,3.2-1.3,3.4-2.9
		c0,0,0,0,0.1,0c1.3,1.8,3.3,2.9,5.6,2.9c1.6,0,3.1-0.6,4.3-1.5c0.5,1.2,1.7,2,3.2,2c1.1,0,2.1-0.5,2.7-1.3c1.2,2,3.4,3.4,5.9,3.4
		c0.4,0,0.8,0,1.1-0.1c0.8,2.1,2.8,3.5,5.1,3.5c3,0,5.5-2.5,5.5-5.5c0-0.1,0-0.2,0-0.3c0.1,0,0.2,0,0.2-0.1c1.2,2,3.4,3.3,5.9,3.3
		c2.9,0,5.4-1.8,6.4-4.4c0.7,0.5,1.5,0.9,2.4,1.2c0.9,2.7,3.5,4.6,6.5,4.6c3.1,0,5.8-2.1,6.6-5c1.9-0.2,3.6-1.3,4.7-2.8
		c0.8,0.8,1.9,1.4,3.2,1.4c0.8,0,1.5-0.2,2.1-0.5c0.6,0.7,1.4,1.1,2.4,1.1c1.7,0,3.1-1.4,3.1-3.1C127.6,20.6,126.2,19.2,124.5,19.2z
		"/>
	<g class="st2">
		<path class="st12" d="M106.5,11.8c-0.3,0-0.5,0-0.8,0.1c-0.7-1.6-2.3-2.8-4.1-2.8c-0.3,0-0.5,0-0.7,0.1c-0.6-2.9-3.1-5.1-6.2-5.1
			c-2.3,0-4.3,1.2-5.4,3.1c-0.9-2.5-3.3-4.2-6.1-4.2c-1.4,0-2.8,0.5-3.8,1.3C78.4,1.7,76,0,73.2,0c-2.9,0-5.3,1.9-6.2,4.5
			c-1.5-1-3.3-1.5-5.2-1.5c-3.7,0-6.9,2.1-8.5,5.2c-1.1-0.7-2.4-1.1-3.8-1.1c-4.2,0-7.5,3.4-7.5,7.5s3.4,7.5,7.5,7.5
			c2.3,0,4.4-1,5.7-2.7c1.7,1.6,4,2.7,6.6,2.7c0.2,0,0.5,0,0.7,0c0.5,2.1,2.4,3.7,4.7,3.7c1.8,0,3.4-1,4.2-2.5
			c1,0.4,2.2,0.6,3.3,0.6c2.4,0,4.6-0.9,6.3-2.4c1.4,1.8,3.6,2.9,6,2.9c2.3,0,4.4-1.1,5.8-2.7c1.1,1,2.6,1.6,4.3,1.6
			c2.9,0,5.3-1.9,6.2-4.5c0.8,0.9,1.9,1.5,3.2,1.5c2.3,0,4.2-1.9,4.2-4.2S108.9,11.8,106.5,11.8z"/>
	</g>
</g>
<g id="_x33_" class="st0">
	<path class="st13" d="M121.4,14.2c-1.7-2.1-4.3-3.5-7.2-3.5c-1.6,0-3.1,0.4-4.4,1.1c-2.1-2.1-4.9-3.4-8.1-3.4c-0.4,0-0.9,0-1.3,0.1
		C98,3.9,93.2,0.8,87.7,0.8c-4,0-7.6,1.7-10.2,4.4C77,5,76.4,5,75.9,5c-1.7,0-3.3,0.5-4.7,1.3c-1.9-2.3-4.8-3.8-8.1-3.8
		c-5.5,0-9.9,4.2-10.4,9.6c-2.1-2.2-5-3.6-8.3-3.6c-4.3,0-8,2.3-9.9,5.8c-1.4-0.8-3-1.3-4.7-1.3c-5.1,0-9.2,4.1-9.2,9.2
		s4.1,9.2,9.2,9.2c2.7,0,5.1-1.2,6.8-3.1c2,1.9,4.8,3.1,7.8,3.1c2.3,0,4.3-0.7,6.1-1.8c0.9,4.1,4.6,7.2,9,7.2c3.5,0,6.6-2,8.1-4.9
		c1.5,1.1,3.3,1.7,5.3,1.7c2.3,0,4.4-0.9,6-2.3c1.2,3.6,4.7,6.2,8.7,6.2c4.4,0,8.1-3.1,9-7.3c1.5,0.7,3.2,1.1,4.9,1.1
		c3.2,0,6-1.3,8.1-3.4c1.2,0.6,2.5,1,3.9,1.1c1.7,2.1,4.2,3.4,7.1,3.4c5,0,9.1-4.1,9.1-9.1C129.9,18.5,126.1,14.6,121.4,14.2z"/>
	<path class="st13" d="M124.5,19.2c0,0-0.1,0-0.1,0c-0.5-1.9-2.2-3.4-4.3-3.4c-0.9,0-1.7,0.3-2.4,0.7c-1.1-2.5-3.5-4.2-6.4-4.2
		c-1.3,0-2.6,0.4-3.6,1c-0.3-1.9-2-3.4-4-3.4c-0.4,0-0.8,0.1-1.2,0.2C101.3,7.8,98.9,6,96,6c-3.2,0-5.9,2.2-6.7,5.1
		c-0.4-0.7-1-1.2-1.7-1.6c0-0.2,0-0.4,0-0.6c0-3-2.5-5.5-5.5-5.5c-2.4,0-4.5,1.6-5.2,3.8c-1.4,0-2.7,0.5-3.7,1.2
		c-1.2-2.1-3.5-3.6-6.1-3.6c-2.8,0-5.2,1.7-6.3,4.1c-0.8-0.4-1.7-0.7-2.6-0.7c-1.6,0-3.1,0.7-4.1,1.9c-0.8-0.4-1.6-0.6-2.5-0.6
		c-1.8,0-3.3,0.8-4.3,2.2c-1.2-0.9-2.6-1.4-4.1-1.4c-3.2,0-5.8,2.1-6.7,5c-0.6-0.2-1.2-0.3-1.9-0.3c-1.3,0-2.5,0.5-3.5,1.2
		c-0.9-0.8-2.2-1.2-3.5-1.2c-3,0-5.5,2.5-5.5,5.5c0,3,2.5,5.5,5.5,5.5c0,0,0,0,0.1,0c0.3,1.6,1.7,2.8,3.4,2.8c1.7,0,3.1-1.2,3.4-2.8
		c0,0,0,0,0.1,0c0.8,0,1.6-0.2,2.3-0.5c1,1.6,2.7,2.7,4.7,2.7c1.8,0,3.4-0.9,4.4-2.2c0.3,0.1,0.7,0.2,1.1,0.2c1.7,0,3.2-1.3,3.4-2.9
		c0,0,0,0,0.1,0c1.3,1.8,3.3,2.9,5.6,2.9c1.6,0,3.1-0.6,4.3-1.5c0.5,1.2,1.7,2,3.2,2c1.1,0,2.1-0.5,2.7-1.3c1.2,2,3.4,3.4,5.9,3.4
		c0.4,0,0.8,0,1.1-0.1c0.8,2.1,2.8,3.5,5.1,3.5c3,0,5.5-2.5,5.5-5.5c0-0.1,0-0.2,0-0.3c0.1,0,0.2,0,0.2-0.1c1.2,2,3.4,3.3,5.9,3.3
		c2.9,0,5.4-1.8,6.4-4.4c0.7,0.5,1.5,0.9,2.4,1.2c0.9,2.7,3.5,4.6,6.5,4.6c3.1,0,5.8-2.1,6.6-5c1.9-0.2,3.6-1.3,4.7-2.8
		c0.8,0.8,1.9,1.4,3.2,1.4c0.8,0,1.5-0.2,2.1-0.5c0.6,0.7,1.4,1.1,2.4,1.1c1.7,0,3.1-1.4,3.1-3.1C127.6,20.6,126.2,19.2,124.5,19.2z
		"/>
	<g class="st2">
		<path class="st12" d="M106.5,11.8c-0.3,0-0.5,0-0.8,0.1c-0.7-1.6-2.3-2.8-4.1-2.8c-0.3,0-0.5,0-0.7,0.1c-0.6-2.9-3.1-5.1-6.2-5.1
			c-2.3,0-4.3,1.2-5.4,3.1c-0.9-2.5-3.3-4.2-6.1-4.2c-1.4,0-2.8,0.5-3.8,1.3C78.4,1.7,76,0,73.2,0c-2.9,0-5.3,1.9-6.2,4.5
			c-1.5-1-3.3-1.5-5.2-1.5c-3.7,0-6.9,2.1-8.5,5.2c-1.1-0.7-2.4-1.1-3.8-1.1c-4.2,0-7.5,3.4-7.5,7.5s3.4,7.5,7.5,7.5
			c2.3,0,4.4-1,5.7-2.7c1.7,1.6,4,2.7,6.6,2.7c0.2,0,0.5,0,0.7,0c0.5,2.1,2.4,3.7,4.7,3.7c1.8,0,3.4-1,4.2-2.5
			c1,0.4,2.2,0.6,3.3,0.6c2.4,0,4.6-0.9,6.3-2.4c1.4,1.8,3.6,2.9,6,2.9c2.3,0,4.4-1.1,5.8-2.7c1.1,1,2.6,1.6,4.3,1.6
			c2.9,0,5.3-1.9,6.2-4.5c0.8,0.9,1.9,1.5,3.2,1.5c2.3,0,4.2-1.9,4.2-4.2S108.9,11.8,106.5,11.8z"/>
	</g>
</g>
<g id="_x34_" class="st0">
	<path class="st13" d="M121.4,14.2c-1.7-2.1-4.3-3.5-7.2-3.5c-1.6,0-3.1,0.4-4.4,1.1c-2.1-2.1-4.9-3.4-8.1-3.4c-0.4,0-0.9,0-1.3,0.1
		C98,3.9,93.2,0.8,87.7,0.8c-4,0-7.6,1.7-10.2,4.4C77,5,76.4,5,75.9,5c-1.7,0-3.3,0.5-4.7,1.3c-1.9-2.3-4.8-3.8-8.1-3.8
		c-5.5,0-9.9,4.2-10.4,9.6c-2.1-2.2-5-3.6-8.3-3.6c-4.3,0-8,2.3-9.9,5.8c-1.4-0.8-3-1.3-4.7-1.3c-5.1,0-9.2,4.1-9.2,9.2
		s4.1,9.2,9.2,9.2c2.7,0,5.1-1.2,6.8-3.1c2,1.9,4.8,3.1,7.8,3.1c2.3,0,4.3-0.7,6.1-1.8c0.9,4.1,4.6,7.2,9,7.2c3.5,0,6.6-2,8.1-4.9
		c1.5,1.1,3.3,1.7,5.3,1.7c2.3,0,4.4-0.9,6-2.3c1.2,3.6,4.7,6.2,8.7,6.2c4.4,0,8.1-3.1,9-7.3c1.5,0.7,3.2,1.1,4.9,1.1
		c3.2,0,6-1.3,8.1-3.4c1.2,0.6,2.5,1,3.9,1.1c1.7,2.1,4.2,3.4,7.1,3.4c5,0,9.1-4.1,9.1-9.1C129.9,18.5,126.1,14.6,121.4,14.2z"/>
	<path class="st13" d="M124.5,19.2c0,0-0.1,0-0.1,0c-0.5-1.9-2.2-3.4-4.3-3.4c-0.9,0-1.7,0.3-2.4,0.7c-1.1-2.5-3.5-4.2-6.4-4.2
		c-1.3,0-2.6,0.4-3.6,1c-0.3-1.9-2-3.4-4-3.4c-0.4,0-0.8,0.1-1.2,0.2C101.3,7.8,98.9,6,96,6c-3.2,0-5.9,2.2-6.7,5.1
		c-0.4-0.7-1-1.2-1.7-1.6c0-0.2,0-0.4,0-0.6c0-3-2.5-5.5-5.5-5.5c-2.4,0-4.5,1.6-5.2,3.8c-1.4,0-2.7,0.5-3.7,1.2
		c-1.2-2.1-3.5-3.6-6.1-3.6c-2.8,0-5.2,1.7-6.3,4.1c-0.8-0.4-1.7-0.7-2.6-0.7c-1.6,0-3.1,0.7-4.1,1.9c-0.8-0.4-1.6-0.6-2.5-0.6
		c-1.8,0-3.3,0.8-4.3,2.2c-1.2-0.9-2.6-1.4-4.1-1.4c-3.2,0-5.8,2.1-6.7,5c-0.6-0.2-1.2-0.3-1.9-0.3c-1.3,0-2.5,0.5-3.5,1.2
		c-0.9-0.8-2.2-1.2-3.5-1.2c-3,0-5.5,2.5-5.5,5.5c0,3,2.5,5.5,5.5,5.5c0,0,0,0,0.1,0c0.3,1.6,1.7,2.8,3.4,2.8c1.7,0,3.1-1.2,3.4-2.8
		c0,0,0,0,0.1,0c0.8,0,1.6-0.2,2.3-0.5c1,1.6,2.7,2.7,4.7,2.7c1.8,0,3.4-0.9,4.4-2.2c0.3,0.1,0.7,0.2,1.1,0.2c1.7,0,3.2-1.3,3.4-2.9
		c0,0,0,0,0.1,0c1.3,1.8,3.3,2.9,5.6,2.9c1.6,0,3.1-0.6,4.3-1.5c0.5,1.2,1.7,2,3.2,2c1.1,0,2.1-0.5,2.7-1.3c1.2,2,3.4,3.4,5.9,3.4
		c0.4,0,0.8,0,1.1-0.1c0.8,2.1,2.8,3.5,5.1,3.5c3,0,5.5-2.5,5.5-5.5c0-0.1,0-0.2,0-0.3c0.1,0,0.2,0,0.2-0.1c1.2,2,3.4,3.3,5.9,3.3
		c2.9,0,5.4-1.8,6.4-4.4c0.7,0.5,1.5,0.9,2.4,1.2c0.9,2.7,3.5,4.6,6.5,4.6c3.1,0,5.8-2.1,6.6-5c1.9-0.2,3.6-1.3,4.7-2.8
		c0.8,0.8,1.9,1.4,3.2,1.4c0.8,0,1.5-0.2,2.1-0.5c0.6,0.7,1.4,1.1,2.4,1.1c1.7,0,3.1-1.4,3.1-3.1C127.6,20.6,126.2,19.2,124.5,19.2z
		"/>
	<g class="st2">
		<path class="st12" d="M106.5,11.8c-0.3,0-0.5,0-0.8,0.1c-0.7-1.6-2.3-2.8-4.1-2.8c-0.3,0-0.5,0-0.7,0.1c-0.6-2.9-3.1-5.1-6.2-5.1
			c-2.3,0-4.3,1.2-5.4,3.1c-0.9-2.5-3.3-4.2-6.1-4.2c-1.4,0-2.8,0.5-3.8,1.3C78.4,1.7,76,0,73.2,0c-2.9,0-5.3,1.9-6.2,4.5
			c-1.5-1-3.3-1.5-5.2-1.5c-3.7,0-6.9,2.1-8.5,5.2c-1.1-0.7-2.4-1.1-3.8-1.1c-4.2,0-7.5,3.4-7.5,7.5s3.4,7.5,7.5,7.5
			c2.3,0,4.4-1,5.7-2.7c1.7,1.6,4,2.7,6.6,2.7c0.2,0,0.5,0,0.7,0c0.5,2.1,2.4,3.7,4.7,3.7c1.8,0,3.4-1,4.2-2.5
			c1,0.4,2.2,0.6,3.3,0.6c2.4,0,4.6-0.9,6.3-2.4c1.4,1.8,3.6,2.9,6,2.9c2.3,0,4.4-1.1,5.8-2.7c1.1,1,2.6,1.6,4.3,1.6
			c2.9,0,5.3-1.9,6.2-4.5c0.8,0.9,1.9,1.5,3.2,1.5c2.3,0,4.2-1.9,4.2-4.2S108.9,11.8,106.5,11.8z"/>
	</g>
	<circle class="st13" cx="114.7" cy="31.8" r="12.5"/>
	<circle class="st13" cx="34.9" cy="28.3" r="9.2"/>
	<circle class="st13" cx="24" cy="28.9" r="6.9"/>
	<circle class="st13" cx="127.8" cy="32.9" r="6.9"/>
	<circle class="st13" cx="67.5" cy="36.2" r="6.9"/>
	<circle class="st13" cx="80.2" cy="35.4" r="9.1"/>
</g>
<g id="_x35_" class="st0">
	<path class="st13" d="M121.4,14.2c-1.7-2.1-4.3-3.5-7.2-3.5c-1.6,0-3.1,0.4-4.4,1.1c-2.1-2.1-4.9-3.4-8.1-3.4c-0.4,0-0.9,0-1.3,0.1
		C98,3.9,93.2,0.8,87.7,0.8c-4,0-7.6,1.7-10.2,4.4C77,5,76.4,5,75.9,5c-1.7,0-3.3,0.5-4.7,1.3c-1.9-2.3-4.8-3.8-8.1-3.8
		c-5.5,0-9.9,4.2-10.4,9.6c-2.1-2.2-5-3.6-8.3-3.6c-4.3,0-8,2.3-9.9,5.8c-1.4-0.8-3-1.3-4.7-1.3c-5.1,0-9.2,4.1-9.2,9.2
		s4.1,9.2,9.2,9.2c2.7,0,5.1-1.2,6.8-3.1c2,1.9,4.8,3.1,7.8,3.1c2.3,0,4.3-0.7,6.1-1.8c0.9,4.1,4.6,7.2,9,7.2c3.5,0,6.6-2,8.1-4.9
		c1.5,1.1,3.3,1.7,5.3,1.7c2.3,0,4.4-0.9,6-2.3c1.2,3.6,4.7,6.2,8.7,6.2c4.4,0,8.1-3.1,9-7.3c1.5,0.7,3.2,1.1,4.9,1.1
		c3.2,0,6-1.3,8.1-3.4c1.2,0.6,2.5,1,3.9,1.1c1.7,2.1,4.2,3.4,7.1,3.4c5,0,9.1-4.1,9.1-9.1C129.9,18.5,126.1,14.6,121.4,14.2z"/>
	<path class="st13" d="M124.5,19.2c0,0-0.1,0-0.1,0c-0.5-1.9-2.2-3.4-4.3-3.4c-0.9,0-1.7,0.3-2.4,0.7c-1.1-2.5-3.5-4.2-6.4-4.2
		c-1.3,0-2.6,0.4-3.6,1c-0.3-1.9-2-3.4-4-3.4c-0.4,0-0.8,0.1-1.2,0.2C101.3,7.8,98.9,6,96,6c-3.2,0-5.9,2.2-6.7,5.1
		c-0.4-0.7-1-1.2-1.7-1.6c0-0.2,0-0.4,0-0.6c0-3-2.5-5.5-5.5-5.5c-2.4,0-4.5,1.6-5.2,3.8c-1.4,0-2.7,0.5-3.7,1.2
		c-1.2-2.1-3.5-3.6-6.1-3.6c-2.8,0-5.2,1.7-6.3,4.1c-0.8-0.4-1.7-0.7-2.6-0.7c-1.6,0-3.1,0.7-4.1,1.9c-0.8-0.4-1.6-0.6-2.5-0.6
		c-1.8,0-3.3,0.8-4.3,2.2c-1.2-0.9-2.6-1.4-4.1-1.4c-3.2,0-5.8,2.1-6.7,5c-0.6-0.2-1.2-0.3-1.9-0.3c-1.3,0-2.5,0.5-3.5,1.2
		c-0.9-0.8-2.2-1.2-3.5-1.2c-3,0-5.5,2.5-5.5,5.5c0,3,2.5,5.5,5.5,5.5c0,0,0,0,0.1,0c0.3,1.6,1.7,2.8,3.4,2.8c1.7,0,3.1-1.2,3.4-2.8
		c0,0,0,0,0.1,0c0.8,0,1.6-0.2,2.3-0.5c1,1.6,2.7,2.7,4.7,2.7c1.8,0,3.4-0.9,4.4-2.2c0.3,0.1,0.7,0.2,1.1,0.2c1.7,0,3.2-1.3,3.4-2.9
		c0,0,0,0,0.1,0c1.3,1.8,3.3,2.9,5.6,2.9c1.6,0,3.1-0.6,4.3-1.5c0.5,1.2,1.7,2,3.2,2c1.1,0,2.1-0.5,2.7-1.3c1.2,2,3.4,3.4,5.9,3.4
		c0.4,0,0.8,0,1.1-0.1c0.8,2.1,2.8,3.5,5.1,3.5c3,0,5.5-2.5,5.5-5.5c0-0.1,0-0.2,0-0.3c0.1,0,0.2,0,0.2-0.1c1.2,2,3.4,3.3,5.9,3.3
		c2.9,0,5.4-1.8,6.4-4.4c0.7,0.5,1.5,0.9,2.4,1.2c0.9,2.7,3.5,4.6,6.5,4.6c3.1,0,5.8-2.1,6.6-5c1.9-0.2,3.6-1.3,4.7-2.8
		c0.8,0.8,1.9,1.4,3.2,1.4c0.8,0,1.5-0.2,2.1-0.5c0.6,0.7,1.4,1.1,2.4,1.1c1.7,0,3.1-1.4,3.1-3.1C127.6,20.6,126.2,19.2,124.5,19.2z
		"/>
	<g class="st2">
		<path class="st12" d="M106.5,11.8c-0.3,0-0.5,0-0.8,0.1c-0.7-1.6-2.3-2.8-4.1-2.8c-0.3,0-0.5,0-0.7,0.1c-0.6-2.9-3.1-5.1-6.2-5.1
			c-2.3,0-4.3,1.2-5.4,3.1c-0.9-2.5-3.3-4.2-6.1-4.2c-1.4,0-2.8,0.5-3.8,1.3C78.4,1.7,76,0,73.2,0c-2.9,0-5.3,1.9-6.2,4.5
			c-1.5-1-3.3-1.5-5.2-1.5c-3.7,0-6.9,2.1-8.5,5.2c-1.1-0.7-2.4-1.1-3.8-1.1c-4.2,0-7.5,3.4-7.5,7.5s3.4,7.5,7.5,7.5
			c2.3,0,4.4-1,5.7-2.7c1.7,1.6,4,2.7,6.6,2.7c0.2,0,0.5,0,0.7,0c0.5,2.1,2.4,3.7,4.7,3.7c1.8,0,3.4-1,4.2-2.5
			c1,0.4,2.2,0.6,3.3,0.6c2.4,0,4.6-0.9,6.3-2.4c1.4,1.8,3.6,2.9,6,2.9c2.3,0,4.4-1.1,5.8-2.7c1.1,1,2.6,1.6,4.3,1.6
			c2.9,0,5.3-1.9,6.2-4.5c0.8,0.9,1.9,1.5,3.2,1.5c2.3,0,4.2-1.9,4.2-4.2S108.9,11.8,106.5,11.8z"/>
	</g>
	<circle class="st13" cx="114.7" cy="31.8" r="12.5"/>
	<circle class="st13" cx="34.9" cy="28.3" r="9.2"/>
	<circle class="st13" cx="24" cy="28.9" r="6.9"/>
	<circle class="st13" cx="131" cy="34.4" r="6.9"/>
	<circle class="st13" cx="67.5" cy="36.2" r="6.9"/>
	<circle class="st13" cx="80.2" cy="35.4" r="9.1"/>
	<circle class="st13" cx="27.6" cy="39.3" r="5.5"/>
	<circle class="st13" cx="53" cy="39.5" r="10.6"/>
	<circle class="st14" cx="125.6" cy="43.8" r="5.5"/>
	<circle class="st13" cx="97" cy="37" r="10.6"/>
	<circle class="st13" cx="43" cy="40.5" r="10.6"/>
	<circle class="st13" cx="112" cy="41.7" r="10.6"/>
	<circle class="st13" cx="86.2" cy="42" r="13.2"/>
	<circle class="st13" cx="99.5" cy="43" r="7.9"/>
	<circle class="st13" cx="122.8" cy="37" r="7.9"/>
	<circle class="st13" cx="67.8" cy="43.2" r="7.9"/>
	<circle class="st13" cx="55" cy="49.5" r="7.9"/>
	<circle class="st13" cx="27.8" cy="43.5" r="7.9"/>
	<circle class="st13" cx="21.2" cy="35.8" r="9.6"/>
</g>
<g id="_x36_" class="st0">
	<g class="st2">
		<path class="st15" d="M82.7,35c-0.4,0.1-0.7,0.3-1,0.4c-1.5-1.8-4-2.7-6.5-1.9c-0.3,0.1-0.6,0.2-0.9,0.4c-1.9-3.5-6.1-5.3-10-4.1
			c-3,0.9-5.1,3.3-5.8,6.1c-2.2-2.8-6-4.1-9.6-3c-1.9,0.6-3.4,1.7-4.4,3.2c-2.2-2.8-6-4.1-9.6-3c-3.7,1.2-6.1,4.6-6.2,8.3
			c-2.3-0.6-4.8-0.7-7.3,0.1c-4.8,1.5-8.1,5.5-8.9,10.2c-1.7-0.4-3.6-0.4-5.4,0.2c-5.4,1.7-8.4,7.4-6.7,12.7s7.4,8.4,12.7,6.7
			c3-0.9,5.2-3.1,6.3-5.7c2.9,1.4,6.3,1.8,9.6,0.8c0.3-0.1,0.6-0.2,0.9-0.3c1.5,2.5,4.6,3.8,7.5,2.9c2.3-0.7,4-2.7,4.4-4.9
			c1.5,0.1,3-0.1,4.6-0.5c3.1-1,5.6-3.1,7.1-5.7c2.5,1.7,5.7,2.3,8.9,1.3c3-0.9,5.3-3.1,6.4-5.9c1.9,0.8,4.1,1,6.2,0.3
			c3.7-1.2,6.1-4.6,6.2-8.3c1.4,0.9,3.1,1.1,4.7,0.6c3-0.9,4.7-4.2,3.8-7.2C88.9,35.7,85.7,34,82.7,35z"/>
	</g>
	<g class="st2">
		<path class="st15" d="M143.1,56.9c-0.4-0.1-0.7-0.1-1.1-0.2c-0.3-2.4-2-4.4-4.5-5c-0.3-0.1-0.7-0.1-1-0.2c0.2-4-2.4-7.7-6.4-8.7
			c-3-0.8-6.1,0.2-8.1,2.2c-0.4-3.5-2.9-6.6-6.6-7.5c-1.9-0.5-3.8-0.3-5.4,0.4c-0.4-3.5-2.9-6.6-6.6-7.5c-3.8-1-7.6,0.7-9.6,3.8
			c-1.6-1.8-3.8-3.1-6.3-3.7c-4.9-1.2-9.8,0.5-12.9,4c-1.2-1.2-2.8-2.2-4.7-2.7c-5.4-1.4-11,1.9-12.4,7.3c-1.4,5.4,1.9,11,7.3,12.4
			c3,0.8,6,0.1,8.4-1.6c1.7,2.7,4.4,4.8,7.8,5.7c0.3,0.1,0.6,0.1,0.9,0.2c0,2.9,1.9,5.6,4.9,6.4c2.4,0.6,4.8-0.2,6.4-1.9
			c1.2,0.9,2.6,1.5,4.2,1.9c3.2,0.8,6.4,0.3,9-1.1c1.2,2.8,3.7,5,6.9,5.8c3.1,0.8,6.2,0.1,8.6-1.6c1.2,1.7,2.9,3,5.1,3.5
			c3.8,1,7.6-0.7,9.6-3.8c0.7,1.4,2,2.6,3.7,3c3.1,0.8,6.2-1.1,7-4.1C148,60.8,146.1,57.7,143.1,56.9z"/>
	</g>
	<path class="st13" d="M121.4,14.2c-1.7-2.1-4.3-3.5-7.2-3.5c-1.6,0-3.1,0.4-4.4,1.1c-2.1-2.1-4.9-3.4-8.1-3.4c-0.4,0-0.9,0-1.3,0.1
		C98,3.9,93.2,0.8,87.7,0.8c-4,0-7.6,1.7-10.2,4.4C77,5,76.4,5,75.9,5c-1.7,0-3.3,0.5-4.7,1.3c-1.9-2.3-4.8-3.8-8.1-3.8
		c-5.5,0-9.9,4.2-10.4,9.6c-2.1-2.2-5-3.6-8.3-3.6c-4.3,0-8,2.3-9.9,5.8c-1.4-0.8-3-1.3-4.7-1.3c-5.1,0-9.2,4.1-9.2,9.2
		s4.1,9.2,9.2,9.2c2.7,0,5.1-1.2,6.8-3.1c2,1.9,4.8,3.1,7.8,3.1c2.3,0,4.3-0.7,6.1-1.8c0.9,4.1,4.6,7.2,9,7.2c3.5,0,6.6-2,8.1-4.9
		c1.5,1.1,3.3,1.7,5.3,1.7c2.3,0,4.4-0.9,6-2.3c1.2,3.6,4.7,6.2,8.7,6.2c4.4,0,8.1-3.1,9-7.3c1.5,0.7,3.2,1.1,4.9,1.1
		c3.2,0,6-1.3,8.1-3.4c1.2,0.6,2.5,1,3.9,1.1c1.7,2.1,4.2,3.4,7.1,3.4c5,0,9.1-4.1,9.1-9.1C129.9,18.5,126.1,14.6,121.4,14.2z"/>
	<path class="st13" d="M124.5,19.2c0,0-0.1,0-0.1,0c-0.5-1.9-2.2-3.4-4.3-3.4c-0.9,0-1.7,0.3-2.4,0.7c-1.1-2.5-3.5-4.2-6.4-4.2
		c-1.3,0-2.6,0.4-3.6,1c-0.3-1.9-2-3.4-4-3.4c-0.4,0-0.8,0.1-1.2,0.2C101.3,7.8,98.9,6,96,6c-3.2,0-5.9,2.2-6.7,5.1
		c-0.4-0.7-1-1.2-1.7-1.6c0-0.2,0-0.4,0-0.6c0-3-2.5-5.5-5.5-5.5c-2.4,0-4.5,1.6-5.2,3.8c-1.4,0-2.7,0.5-3.7,1.2
		c-1.2-2.1-3.5-3.6-6.1-3.6c-2.8,0-5.2,1.7-6.3,4.1c-0.8-0.4-1.7-0.7-2.6-0.7c-1.6,0-3.1,0.7-4.1,1.9c-0.8-0.4-1.6-0.6-2.5-0.6
		c-1.8,0-3.3,0.8-4.3,2.2c-1.2-0.9-2.6-1.4-4.1-1.4c-3.2,0-5.8,2.1-6.7,5c-0.6-0.2-1.2-0.3-1.9-0.3c-1.3,0-2.5,0.5-3.5,1.2
		c-0.9-0.8-2.2-1.2-3.5-1.2c-3,0-5.5,2.5-5.5,5.5c0,3,2.5,5.5,5.5,5.5c0,0,0,0,0.1,0c0.3,1.6,1.7,2.8,3.4,2.8c1.7,0,3.1-1.2,3.4-2.8
		c0,0,0,0,0.1,0c0.8,0,1.6-0.2,2.3-0.5c1,1.6,2.7,2.7,4.7,2.7c1.8,0,3.4-0.9,4.4-2.2c0.3,0.1,0.7,0.2,1.1,0.2c1.7,0,3.2-1.3,3.4-2.9
		c0,0,0,0,0.1,0c1.3,1.8,3.3,2.9,5.6,2.9c1.6,0,3.1-0.6,4.3-1.5c0.5,1.2,1.7,2,3.2,2c1.1,0,2.1-0.5,2.7-1.3c1.2,2,3.4,3.4,5.9,3.4
		c0.4,0,0.8,0,1.1-0.1c0.8,2.1,2.8,3.5,5.1,3.5c3,0,5.5-2.5,5.5-5.5c0-0.1,0-0.2,0-0.3c0.1,0,0.2,0,0.2-0.1c1.2,2,3.4,3.3,5.9,3.3
		c2.9,0,5.4-1.8,6.4-4.4c0.7,0.5,1.5,0.9,2.4,1.2c0.9,2.7,3.5,4.6,6.5,4.6c3.1,0,5.8-2.1,6.6-5c1.9-0.2,3.6-1.3,4.7-2.8
		c0.8,0.8,1.9,1.4,3.2,1.4c0.8,0,1.5-0.2,2.1-0.5c0.6,0.7,1.4,1.1,2.4,1.1c1.7,0,3.1-1.4,3.1-3.1C127.6,20.6,126.2,19.2,124.5,19.2z
		"/>
	<g class="st2">
		<path class="st12" d="M106.5,11.8c-0.3,0-0.5,0-0.8,0.1c-0.7-1.6-2.3-2.8-4.1-2.8c-0.3,0-0.5,0-0.7,0.1c-0.6-2.9-3.1-5.1-6.2-5.1
			c-2.3,0-4.3,1.2-5.4,3.1c-0.9-2.5-3.3-4.2-6.1-4.2c-1.4,0-2.8,0.5-3.8,1.3C78.4,1.7,76,0,73.2,0c-2.9,0-5.3,1.9-6.2,4.5
			c-1.5-1-3.3-1.5-5.2-1.5c-3.7,0-6.9,2.1-8.5,5.2c-1.1-0.7-2.4-1.1-3.8-1.1c-4.2,0-7.5,3.4-7.5,7.5s3.4,7.5,7.5,7.5
			c2.3,0,4.4-1,5.7-2.7c1.7,1.6,4,2.7,6.6,2.7c0.2,0,0.5,0,0.7,0c0.5,2.1,2.4,3.7,4.7,3.7c1.8,0,3.4-1,4.2-2.5
			c1,0.4,2.2,0.6,3.3,0.6c2.4,0,4.6-0.9,6.3-2.4c1.4,1.8,3.6,2.9,6,2.9c2.3,0,4.4-1.1,5.8-2.7c1.1,1,2.6,1.6,4.3,1.6
			c2.9,0,5.3-1.9,6.2-4.5c0.8,0.9,1.9,1.5,3.2,1.5c2.3,0,4.2-1.9,4.2-4.2S108.9,11.8,106.5,11.8z"/>
	</g>
	<circle class="st13" cx="114.7" cy="31.8" r="12.5"/>
	<circle class="st13" cx="34.9" cy="28.3" r="9.2"/>
	<circle class="st13" cx="24" cy="28.9" r="6.9"/>
	<circle class="st14" cx="131" cy="34.4" r="6.9"/>
	<circle class="st13" cx="67.5" cy="36.2" r="6.9"/>
	<circle class="st13" cx="80.2" cy="35.4" r="9.1"/>
	<circle class="st13" cx="27.6" cy="39.3" r="5.5"/>
	<circle class="st13" cx="53" cy="39.5" r="10.6"/>
	<circle class="st13" cx="125.6" cy="43.8" r="5.5"/>
	<circle class="st13" cx="97" cy="37" r="10.6"/>
	<circle class="st13" cx="43" cy="40.5" r="10.6"/>
	<circle class="st13" cx="112" cy="41.7" r="10.6"/>
	<circle class="st13" cx="86.2" cy="42" r="13.2"/>
	<circle class="st13" cx="99.5" cy="43" r="7.9"/>
	<circle class="st13" cx="122.8" cy="37" r="7.9"/>
	<circle class="st13" cx="67.8" cy="43.2" r="7.9"/>
	<circle class="st13" cx="55" cy="49.5" r="7.9"/>
	<circle class="st13" cx="27.8" cy="43.5" r="7.9"/>
	<circle class="st13" cx="21.2" cy="35.8" r="9.6"/>
	<circle class="st13" cx="123.3" cy="50.4" r="6.3"/>
	<circle class="st13" cx="132.2" cy="44.6" r="6.3"/>
	<circle class="st13" cx="31.2" cy="50.5" r="6.3"/>
	<circle class="st13" cx="22.3" cy="47.5" r="6.3"/>
	<circle class="st13" cx="24.1" cy="2.9" r="2.7"/>
	<circle class="st13" cx="145.9" cy="48.7" r="2.2"/>
	<circle class="st13" cx="120.2" cy="52.6" r="8.8"/>
	<circle class="st13" cx="131.9" cy="54.6" r="8.8"/>
	<circle class="st13" cx="23.2" cy="56.1" r="6.5"/>
	<circle class="st13" cx="16.6" cy="48.2" r="10.9"/>
	<circle class="st13" cx="109.2" cy="50.1" r="6.5"/>
	<circle class="st13" cx="146.4" cy="74.8" r="4.1"/>
	<circle class="st13" cx="108.8" cy="50.4" r="4.1"/>
	<circle class="st13" cx="13.7" cy="79.4" r="3.2"/>
</g>
<g id="Layer_5" class="st0">
	<g class="st2">
		<g>
			<polygon class="st6" points="94.1,-2.2 59.8,-2.3 58.8,1.4 95.1,1.5 			"/>
			<polygon class="st16" points="58.8,1.4 56,11.2 97.5,11.3 95.1,1.5 			"/>
		</g>
		<path class="st6" d="M53.5,14.2c-0.8,0-1.5-0.7-1.5-1.5l0,0c0-0.8,0.7-1.5,1.5-1.5l46.5,0.1c0.8,0,1.5,0.7,1.5,1.5l0,0
			c0,0.8-0.7,1.5-1.5,1.5"/>
		<g>
			<g>
				<path class="st17" d="M97.8-116.1L77-116.2v17l-0.2,97l25.1,0.1c4,0,7.2-3.2,7.2-7.2l0.2-69.3C109.3-92,105.3-105,97.8-116.1
					L97.8-116.1z"/>
				<path class="st12" d="M56.3-116.2L56.3-116.2c-7.5,11.1-11.6,24.1-11.6,37.5L44.5-9.4c0,4,3.2,7.2,7.2,7.2l25.1,0.1l0.2-97v-17
					L56.3-116.2z"/>
				<path class="st6" d="M97.8-116.1l-9.2-13.8c-2.8-4.1-7.1-6.1-11.5-6.1L77-116.2L97.8-116.1z"/>
				<path class="st16" d="M77.1-136c-4.3,0-8.7,2-11.5,6.1l-9.3,13.7l20.7,0.1L77.1-136z"/>
			</g>
			<g>
				<circle class="st6" cx="76.9" cy="-67.4" r="19.9"/>
				<g>
					<g>
						<path class="st18" d="M92.9-67.4c0-4.2-1.6-8-4.3-10.9c0,0.3,0,0.6,0,0.9c0,10.2-4.3,19.4-11.2,25.9
							C86-51.8,92.8-58.8,92.9-67.4z"/>
						<path class="st18" d="M88.6-77.3c0-0.3,0-0.6,0-0.9c-2.2-2.4-5.1-4.1-8.5-4.8c0,0.4,0.1,0.9,0.1,1.3c0,9.7-7.9,17.6-17.7,17.6
							c-0.4,0-0.9,0-1.3-0.1c1.5,7.3,7.9,12.8,15.6,12.8c0.2,0,0.4,0,0.6,0C84.3-58,88.6-67.1,88.6-77.3z"/>
					</g>
					<path class="st19" d="M80.2-81.8c0-0.4,0-0.9-0.1-1.3c-1-0.2-2.1-0.3-3.2-0.3c-8.8,0-16,7.1-16,15.9c0,1.1,0.1,2.2,0.3,3.2
						c0.4,0,0.9,0.1,1.3,0.1C72.3-64.1,80.2-72,80.2-81.8z"/>
				</g>
			</g>
		</g>
		<polygon class="st20" points="109.1,-45.1 109.1,-13.4 115.5,-13.4 115.6,-41.7 		"/>
		<path class="st12" d="M139.3-23.4c0-3.6-2-6.8-5.1-8.5l-18.6-9.8l-0.1,28.3h18.4c2.9,0,5.3-2.4,5.3-5.3"/>
		<g>
			<polygon class="st20" points="44.6,-45.3 44.6,-13.6 38.1,-13.6 38.2,-41.9 			"/>
			<path class="st12" d="M14.4-23.7c0-3.6,2-6.8,5.1-8.5l18.6-9.7L38-13.6H19.6c-2.8-0.1-5.2-2.4-5.2-5.4V-23.7z"/>
		</g>
		<path class="st21" d="M72.7-49.8c4.8,0.5,12.2-1.3,13.9-2.8c0.4-0.3,0.8-0.7,1.2-1.2v-1.8c0-4.1-3.3-7.4-7.4-7.4h-7.5
			c-4.1,0-7.4,3.3-7.4,7.4v1.5C67.2-52.3,69.8-50.1,72.7-49.8z"/>
		<g class="st22">
			<path class="st16" d="M86.9-70.4c0,1.8-0.9,3.2-2,3.2s-2-1.4-2-3.2s0.9-3.2,2-3.2C86-73.7,86.9-72.2,86.9-70.4z"/>
			<path class="st21" d="M85.8-70.1c0-4.8-3.9-8.8-8.8-8.8c-4.8,0-8.8,3.9-8.8,8.8c0,3.1,1.6,5.8,4,7.4c1.9,0,6.6,0.3,9,0.3
				C84-64,85.8-66.8,85.8-70.1z"/>
			<path class="st6" d="M83-61.8H70.7c-0.6,0-1-0.4-1-1l0,0c0-0.6,0.4-1,1-1H83c0.6,0,1,0.4,1,1l0,0C84-62.3,83.5-61.8,83-61.8z"/>
			<path class="st23" d="M77.2-64.9c-2.7,0-4.9-2.2-4.9-4.9v-1.4c0-2.7,2.2-4.9,4.9-4.9h4.1c2.7,0,4.9,2.2,4.9,4.9v1.4
				c0,2.7-2.2,4.9-4.9,4.9H77.2z"/>
			<path class="st4" d="M81.3-65.8h-4.1c-2.2,0-4-1.8-4-4v-1.4c0-2.2,1.8-4,4-4h4.1c2.2,0,4,1.8,4,4v1.4
				C85.3-67.5,83.5-65.8,81.3-65.8z"/>
			<path class="st3" d="M77.2-75.1c-2.2,0-4,1.8-4,4v1.4c0,0.4,0.1,0.7,0.1,1c0.9,0.6,2,0.9,3.1,0.9c3.3,0,6-2.7,6-6
				c0-0.4,0-0.8-0.1-1.1C82-75,81.6-75,81.3-75h-4.1V-75.1z"/>
			<path class="st24" d="M72.5-70.4"/>
			<path class="st24" d="M70.5-73.7"/>
			<ellipse class="st21" cx="70" cy="-70.6" rx="2" ry="3.2"/>
			<path class="st16" d="M71.5-70.4c0,1.8-0.9,3.2-2,3.2s-2-1.4-2-3.2s0.9-3.2,2-3.2C70.6-73.7,71.5-72.2,71.5-70.4z"/>
		</g>
		<circle class="st25" cx="77.4" cy="-67.6" r="17.2"/>
		<path class="st23" d="M83-61.8H70.7c-0.6,0-1-0.4-1-1l0,0c0-0.6,0.4-1,1-1H83c0.6,0,1,0.4,1,1l0,0C84-62.3,83.5-61.8,83-61.8z"/>
	</g>
</g>
</svg>
