<svg xmlns="http://www.w3.org/2000/svg" viewBox="0 0 151 83"><style><![CDATA[.S{font-family:MyriadPro-Regular}.T{font-size:12px}]]></style><path d="M-87-183h309v310H-87z" fill="#0b1a38"/><path d="M25 33l-2 5h-4l-1 1v3l1 2h1l-2 5h-4l-1 2v2l1 2h1l-2 6-1-1h-2l-2 2v3l2 1h1l-3 6H5l-2 1v3l2 1h1l-3 6H0l-2 2v2l2 2h1l-4 8h8l25-62-5-2zm99 0l2 5h3l2 1v3l-2 2h-1l3 5h3l2 2v2l-2 2h-1l3 6v-1h3l2 2v3l-2 1h-1l3 6h3l2 1v3l-2 1h-1l3 6h3l2 1v3l-2 2h-1l3 8h-7l-26-62 6-2zM27 16h95c2 0 4 1 4 3v10c0 2-2 3-4 3H27c-2 0-4-1-4-3V19c0-2 2-3 4-3z"/><path d="M27 15h95c2 0 4 1 4 3v2c0 2-2 4-4 4H27c-2 0-4-2-4-4v-2c0-2 2-3 4-3zm97 13H75v80h2v-9l14 8v1h6V36h26c3 0 5-2 5-4s-2-4-4-4zm-47 8h13l-13 7v-7zm0 11l13 7-13 7V47zm0 18l11 6-11 6V65zm0 16l13 7-13 7V81zm14 21l-9-5 9-5v10zm0-17l-9-6 9-5v11zm0-17l-9-5 9-5v10zm0-18l-9-5 9-5v10z"/><path d="M25 28c-2 0-4 2-4 4s2 4 4 4h25v72h6l15-9v9h4V28H25zm31 12l10 5-10 6V40zm0 18l10 5-10 6V58zm0 16l10 5-10 6V74zm0 29V92l10 5-10 6zm15-8l-12-7 12-7v14zm0-18l-11-6 11-6v12zm0-16l-12-7 12-7v14zM59 36h12v7l-12-7zm38-20H50"/><text transform="translate(-271 -148)"><tspan x="0" y="0" class="S T">Get Started Clicked --&gt; rocket appears</tspan><tspan y="14" x="0" class="S T">Question 1 --&gt; person in rocket</tspan><tspan y="29" x="0" class="S T">Question 2 --&gt; smoke</tspan><tspan y="43" x="0" class="S T">Question 3 --&gt; smoke</tspan><tspan y="72" x="0" class="S T">Question 4 --&gt; smoke</tspan><tspan y="86" x="0" class="S T">Question 5 --&gt; smoke</tspan><tspan y="101" x="0" class="S T">Question 6 --&gt; smoke</tspan><tspan y="115" x="0" class="S T">Question 7 --&gt; LOTS OF SMOKE</tspan><tspan y="130" x="0" class="S T">Question 8 --&gt; Fire</tspan><tspan y="144" x="0" class="S T">launch ---&gt; ROCKET TAKES OFF</tspan></text><path d="M828-348h-1c-1-3-3-6-6-7a16 16 0 0 0-22-13 12 12 0 0 0-19-7c-3-4-7-6-12-6-8 0-14 5-16 11l-4-1a12 12 0 0 0-10 19c-5 1-9 5-10 10-3 0-5 2-5 5s2 5 5 5h2a12 12 0 0 0 12 4 25 25 0 0 0 41 1 16 16 0 0 0 28-6h5c4 0 8-2 10-5h2c2 0 5-2 5-5s-2-5-5-5z"/><path d="M729-344h104c-1-2-3-4-5-4h-1c-1-3-3-6-6-7a16 16 0 0 0-22-13 12 12 0 0 0-19-7c-3-4-7-6-12-6-7 0-13 5-15 11l-5-1a12 12 0 0 0-10 19c-4 1-8 4-9 8z"/><path d="M785-348a7 7 0 1 1-13 0 7 7 0 0 1 13 0z"/><circle cx="773" cy="-340" transform="rotate(-23 773 -340)" r="8"/><path d="M828-350l-4-2-6 2a10 10 0 0 0-12-4c-1-2-3-3-6-3s-6 2-7 5l-3-1a8 8 0 0 0-15-3 10 10 0 0 0-9-2 14 14 0 0 0-22-2c-1-2-3-3-6-3a8 8 0 0 0-6 13l-5 5c-3 1-6 4-6 8s3 8 8 8h1c1 3 4 6 8 6 3 0 6-2 7-5h1l4-1c2 4 6 7 10 7a12 12 0 0 0 11-17l2-1a14 14 0 0 0 27 0v-1h1c2 3 5 5 9 5 3 0 5-1 7-3 1 2 3 3 6 3l4 2c5 0 8-4 8-8s-3-8-7-8z"/><path d="M768-345c-1 2-1 4-3 5l-4 2-5-2-2-4v-1a6 6 0 0 0 2-4l-2 4-4 2-4-2-2-4v2l1 2a6 6 0 0 0 9 1v2l2 2a7 7 0 0 0 12-5zm26-1v2l-1 3a7 7 0 0 1-10 0l-2-3v-2l2 4c2 2 3 2 5 2l4-2 2-4zm200 109l-1-1-2-1a7 7 0 0 0-10-6 5 5 0 0 0-8-2c-1-2-3-3-5-3-3 0-5 2-6 5l-2-1c-2 0-4 2-5 3a3 3 0 0 0-2 6l-5 5c0 2 2 4 4 4 1 1 2 3 4 3l2-2a11 11 0 0 0 17 0c1 2 3 3 5 3 3 0 6-3 6-6l2 1 4-2 1 1c2 0 4-2 4-4s-2-3-3-3zm10-71c1-6-3-11-9-12l1-5c1-9-6-17-15-17-8-1-15 5-17 12a17 17 0 0 0-19-7 16 16 0 0 0-31-3l-6-2c-7-1-12 4-13 10-3 2-5 5-7 9-7 0-12 5-13 12 0 7 5 13 12 14h2c4 5 9 9 15 11 1 8 7 14 15 14 7 1 13-3 16-8h1c4 0 8-1 11-4 3 3 6 5 9 5 5 1 10 0 14-3l7 2c9 0 17-6 17-15v-2c6-1 10-5 10-11z"/><path d="M1003-304l1-4c1-6-3-11-9-12l1-5c1-9-6-17-15-17-8-1-15 5-17 12a17 17 0 0 0-19-7 16 16 0 0 0-31-3l-6-2c-7-1-12 4-13 10-3 2-5 5-7 9-6 0-11 5-12 10l127 9z"/><path d="M999-318h-3a14 14 0 0 0-24-8l-7-2c-4 0-8 2-11 4-2-3-5-6-9-6-5 0-10 4-11 10v1a10 10 0 0 0-14-1 11 11 0 0 0-12-4c-2-3-5-5-9-5-6-1-11 4-12 10-8-1-14 5-15 13 0 8 6 15 14 15h1a14 14 0 0 0 22 6l5 1c6 1 12-4 12-10l6 3c5 0 9-3 9-8v-1a11 11 0 0 0 17 0h1c1 4 5 7 9 7 5 1 10-3 11-7h2c4 0 7-1 10-4 1 3 4 4 7 4 5 1 9-3 10-8 0-5-4-10-9-10z"/><path d="M960-312l-1 2-2 2-6 2c-3-1-5-1-7-3l-2-4 3 4 6 2 6-1c2-1 3-2 3-4zm-43 10l-1 3-2 2-8 2c-2 0-5-1-7-3l-2-3v-2l3 5 6 2 7-1 4-5zm72-12l-1 3-1 2-6 2c-2 0-3-1-5-3l-1-2v-3l2 5 4 2 5-2c2 0 2-2 3-4zM693-113a10 10 0 0 0-15-6l-3-5 1-4a10 10 0 0 0-15-9c-3-5-8-8-15-8-5 0-10 2-13 6l-7-1c-8 0-14 5-16 12-5 1-9 4-11 8l-5-1c-4 0-7 2-9 5h-2c-3 0-6 2-6 5s3 6 6 6l2-1c2 3 5 5 9 5l5-1a17 17 0 0 0 27 3c4 3 8 5 13 5s9-1 12-5c3 4 8 5 13 5 6 0 12-3 15-8l4 1c3 0 6-1 8-3l2 1c3 0 5-3 5-5 0-3-2-5-5-5z"/><path d="M693-113a10 10 0 0 0-15-6l-3-5 1-4a10 10 0 0 0-15-9c-3-5-8-8-15-8-5 0-10 2-13 6l-7-1c-8 0-14 5-16 12-5 1-9 4-11 8l-5-1c-4 0-7 2-9 5h-2"/><path d="M694-110a6 6 0 0 0-10-4l-2-3 1-3c0-3-3-6-6-6l-3 1c-2-4-6-6-10-6-3 0-6 2-8 4h-5c-5 0-9 3-10 7l-1 1c-2-3-4-5-8-5-3 1-6 2-7 5l1-2c0-3-2-5-5-5l-2 1a8 8 0 0 0-14-1l-3-1c-4 0-7 3-8 6l-5 4h-3l-4 2h-1l-3 2 3 3h1a5 5 0 0 0 7 1 8 8 0 0 0 13 2l6 3 6-3a8 8 0 0 0 10 2l2-1a6 6 0 0 0 8 3c2 3 5 5 10 5 3 0 6-1 8-3 2 2 5 3 8 3s6-1 7-3c2 2 5 3 8 3 4 0 8-2 10-5h3c2 0 3 0 4-2l2 1c2 0 3-2 3-3 0-2-1-3-3-3z"/><path d="M628-117v2l-2 2-5 1-5-1-1-2v-2l2 3a9 9 0 0 0 9 0l2-3zm42-4l-2 4-5 2-5-2-2-4 3 4a9 9 0 0 0 9 0l2-4zm-18 10v2l-1 2-5 1-5-1-2-2v-2l2 3a9 9 0 0 0 9 1l2-4zm216-131l-4 1a12 12 0 0 0-12-4 11 11 0 0 0-16-8v-4a18 18 0 0 0-23-18 18 18 0 0 0-32-11c-5-4-11-7-18-7-13 0-24 9-27 20h-2c-7 0-13 4-16 10h-4c-6 0-11 4-12 10a11 11 0 0 0-17 7h-3c-3 0-7 2-9 4h-3a8 8 0 1 0 3 14c2 3 6 5 9 5l7-2a11 11 0 0 0 18 3 12 12 0 0 0 20 2l5 1c3 0 7-2 9-5a11 11 0 0 0 15 9 27 27 0 0 0 43-6l7 2 5-1a12 12 0 0 0 20-1c2 2 5 3 7 3 5 0 9-3 11-7 2 2 4 2 6 2 4 0 7-1 10-4h3c4 0 8-3 8-7 0-5-4-8-8-8z"/><path d="M875-235a8 8 0 0 0-11-6 12 12 0 0 0-12-5 11 11 0 0 0-16-7v-5a18 18 0 0 0-23-17 18 18 0 0 0-32-11c-5-4-11-7-18-7-13 0-24 8-27 20h-2c-7 0-13 4-16 10h-4c-6 0-11 4-12 10a11 11 0 0 0-17 7h-3c-3 0-7 1-9 4h-3c-5 0-8 3-8 7h213z"/><path d="M874-239h-1a9 9 0 0 0-14-5 14 14 0 0 0-20-7 8 8 0 0 0-11-6c-2-6-7-9-13-9-7 0-12 4-14 10l-3-3v-1a11 11 0 0 0-23-4c-2 1-5 1-7 3-3-4-7-7-13-7s-11 3-13 8a11 11 0 0 0-14 3l-5-2c-4 0-7 2-9 5-2-2-5-3-8-3-7 0-13 4-14 10h-4l-7 2-8-2a11 11 0 1 0 0 22h1c0 4 3 6 7 6 3 0 6-2 7-6l5-1a11 11 0 0 0 18 1l3 1c3 0 6-3 7-6 3 3 7 6 12 6l9-3c1 2 3 4 6 4l6-3a14 14 0 0 0 14 7 11 11 0 0 0 22-4v-1h1c2 4 7 7 12 7 6 0 11-4 13-9l5 2a14 14 0 0 0 27 0c4-1 8-3 10-6 2 2 4 3 7 3l4-1 5 2c3 0 6-3 6-6 0-4-3-7-6-7z"/><path d="M761-250a6 6 0 0 1-2 5l-4 2a7 7 0 0 1-7-5v-2l2 4a7 7 0 0 0 9 0l2-4zm25 10v4l-2 3-6 3a10 10 0 0 1-8-6l-1-4c0 3 1 5 3 6 1 2 3 3 5 3 3 0 5-1 6-3 2-1 3-3 3-6zm49-3l-1 4-2 3c-1 2-4 3-6 3s-5-1-7-3l-1-3-1-4c0 3 1 5 3 6l6 3 6-3c1-1 3-3 3-6zm-116-3v2l-1 3-5 2-5-2-1-3-1-2 3 4a6 6 0 0 0 8 0l2-4z"/><path d="M667-248h-1c0-2-2-3-3-3h-3c-1-2-3-3-5-3l-1-1h-4v-1a8.96 8.96 0 0 0-9-9h-2a8 8 0 0 0-11-7l-3 3-2-1-2-2-4-1h-1l-4 1-2 1h-1l-2 2a14 14 0 0 0-3 5h-1l-2 1h-2l-4 4h-2l-3 1v1h-1v1l-3 1c-3 0-4 1-5 3l-2 1h-2l-2-1c-3 0-5 2-5 5v3c1 2 3 3 5 3l3 2c2 0 3-1 3-2h1l5 2h2l1-1c1 2 3 3 5 3s3-1 4-3l3 1 4-2c0 2 2 4 5 4h2c2 2 5 3 8 3 5 0 8-2 10-5l3 1 4-1 4 2 3-1 4 1c3 0 5-1 6-4l1-1 2 1 4-2h3l2 1c1 0 3-1 3-3 0-1-1-3-3-3zm251 15c-1 0-1 0 0 0h-1c-1-2-2-3-4-3l-2 1-1-1c-1-2-3-3-5-3l-1-1h-4v-1c0-5-4-9-8-9h-1l-2 1a8 8 0 0 0-11-7l-3 2-3-3-4-1h-2l-4 1-4 2-1 2a14 14 0 0 0-3 5h-4l-4 4h-3l-2 1-2 2-2 1h-1c-2 0-4 1-5 3l-1 1h-2l-3-1c-3 0-5 3-5 6l1 2c1 2 2 3 4 3 1 1 2 3 4 3l3-3 5 2h2l2-1c1 2 2 3 4 3l5-2h2l4-2c0 3 3 5 5 5l2-1c2 2 5 4 9 4s8-2 10-5h3l4-1 4 2 2-1 4 2c3 0 5-2 6-5h1l3 1 4-2h4c2 0 3-1 3-3l-2-3zm-268 33a7 7 0 0 0-8-6v-2a10 10 0 0 0-20-3l-4-1c-6 0-12 4-14 9-3 1-5 2-7 5l-3-1a7 7 0 1 0 3 12 10 10 0 0 0 12 4l9 3c4 0 8-1 10-4 2 2 5 3 8 3a10 10 0 0 0 10-13c2-1 4-3 4-6z"/><path d="M648-195l2-5a7 7 0 0 0-8-6v-2a10 10 0 0 0-20-3l-4-1c-6 0-11 4-14 9-3 1-5 2-7 5a6 6 0 0 0-9 3h60z"/><path d="M648-201c0-4-3-8-7-8-3 1-6 2-7 5a4 4 0 0 0-4-1c-1-2-4-4-6-4-3 0-5 2-6 4-2-3-4-4-7-4-5 0-9 4-10 8h-3c-2 0-4 1-5 3l-4-1c-2 0-4 2-4 4 0 3 2 5 4 5l4-2a6 6 0 0 0 10 1c1 3 3 6 7 6 2 0 4-1 5-3a9 9 0 0 0 14 1c2 2 5 4 8 4 5 0 10-4 10-9h1a5 5 0 0 0 0-9z"/><path d="M621-201v1l-1 1-2 1a3 3 0 0 1-3-2l-1-1 1 2 2 1 3-1 1-2zm18 4l-1 2-1 1a5 5 0 0 1-7 0l-1-2v-1l1 3 4 1 3-1 2-3zm-33-1v2l-1 1-3 1-2-1-1-1v-2l1 3 3 1 2-1 1-3zm59-130l-5 1c-4-6-10-9-18-9h-1a30 30 0 0 0-59 3h-1a15 15 0 0 0-13 20c-4 1-7 5-7 9a10 10 0 0 0 13 9 14 14 0 0 0 26-3 30 30 0 0 0 25-1 23 23 0 0 0 36-1l4 1a15 15 0 0 0 0-29z"/><path d="M568-313h111l1-1a15 15 0 0 0-20-13c-4-6-10-9-18-9h-1a30 30 0 0 0-59 3h-1c-8 0-14 7-14 15l1 5z"/><circle cx="595" cy="-316" r="8"/><path d="M677-322l-5 2a12 12 0 0 0-12-2 11 11 0 0 0-13-6 18 18 0 0 0-25-3c-4-4-9-7-15-7-9 0-16 6-17 14a11 11 0 0 0-19 2l-5-2c-5 0-9 4-9 9a9 9 0 0 0 12 8v1a9 9 0 0 0 16 4l3 1 3-1c2 4 6 7 11 7 6 0 11-4 11-10l4-2a18 18 0 0 0 24 6c1 3 4 5 7 5 5 0 8-3 9-7a11 11 0 0 0 17-2l3 1c5 0 9-4 9-9s-4-9-9-9zm-85 10z"/><path d="M645-320v3l-2 2c-1 2-3 3-5 3a8 8 0 0 1-8-8l3 5 5 2 5-2 2-5zm-34-1l-1 4-2 3c-2 2-5 3-8 3a10 10 0 0 1-10-6v-4a10 10 0 0 0 10 9l7-2 4-7zm367 151a14 14 0 0 0-19-11 14 14 0 0 0-23-4 21 21 0 0 0-32 14h-3a14 14 0 0 0 0 28l3-1a14 14 0 0 0 24 4 14 14 0 0 0 22-1l4 1c5 0 9-2 12-6a14 14 0 0 0 20-12c0-5-3-10-8-12z"/><path d="M986-158c0-6-4-10-8-12a14 14 0 0 0-19-11 14 14 0 0 0-23-4 21 21 0 0 0-32 14h-3c-7 0-13 5-14 12h99z"/><path d="M984-163a9 9 0 0 0-12-3 11 11 0 0 0-9-3 14 14 0 0 0-23-3l-2-1-4 2a10 10 0 0 0-19 5 11 11 0 0 0-18 3l-5-2c-5 0-9 4-9 10s4 9 9 9c3 0 5-1 7-3a11 11 0 0 0 14 1 9 9 0 0 0 17 2l5 2 6-2a9 9 0 0 0 18-1l5 1c3 0 6-2 8-4l4 1c2 2 4 4 7 4 5 0 9-4 9-9s-3-9-8-9z"/><path d="M936-164a7 7 0 0 1-2 5l-6 3c-2 0-4-1-5-3l-2-2v-3l2 5 5 2 5-2c2-1 2-3 3-5zm17 0v2l-1 1-2 1-3-1-1-1v-2l1 3 3 1 2-1 1-3zm14 3a7 7 0 0 1-2 6l-6 2-5-2-2-6c0 2 1 4 3 5 1 2 3 2 5 2 1 0 3 0 5-2l2-5zm-130 28h-1c-2-4-5-7-10-7v-2a14 14 0 0 0-21-12 18 18 0 0 0-33 8c-5 0-9 3-12 6h-1c-5 0-10 5-10 10a10 10 0 0 0 15 9l1 1h1c0 6 4 10 9 10 4 0 7-2 8-4a18 18 0 0 0 26-1 10 10 0 0 0 17-4c4 0 7-2 8-5l2 1c3 0 5-3 5-5 1-3-2-5-4-5z"/><path d="M841-131l-5-2c-2-4-5-7-10-7v-2a14 14 0 0 0-21-12 18 18 0 0 0-33 8c-5 0-9 3-12 7l-1-1c-5 0-9 4-10 9h92z"/><path d="M836-134h-1a6 6 0 0 0-7-4c-1-4-5-7-9-7-3 0-6 2-8 4a9 9 0 0 0-14-4c-1-3-5-6-9-6s-7 3-9 6l-7-2c-5 0-10 3-12 8l-5-2a11 11 0 0 0 0 22c3 0 6-2 8-4 2 2 5 4 9 4h1c1 3 3 5 7 5 2 0 4-2 6-4l4 1c4 0 7-1 9-3a11 11 0 0 0 17 0l6 2c4 0 8-3 9-6l5 2c3 0 6-3 6-6s-3-6-6-6z"/><path d="M783-133v2l-1 1-3 1-3-1-1-1v-2l1 3 3 1 3-1 1-3zm18-5v2l-1 1-3 2-3-2-1-1v-2l1 3 3 1 3-1 1-3zm17 6v3l-2 3c-1 2-4 3-6 3a8 8 0 0 1-8-5l-1-4 3 6 6 2 6-2 2-6z"/><circle cx="115" cy="32" r="13"/><circle cx="35" cy="28" r="9"/><circle cx="24" cy="29" r="7"/><circle cx="128" cy="33" r="7"/><circle cx="68" cy="36" r="7"/><circle cx="80" cy="35" r="9"/><circle cx="115" cy="32" r="13"/><circle cx="35" cy="28" r="9"/><circle cx="24" cy="29" r="7"/><circle cx="131" cy="34" r="7"/><circle cx="68" cy="36" r="7"/><circle cx="80" cy="35" r="9"/><circle cx="28" cy="39" r="6"/><circle cx="53" cy="40" r="11"/><circle cx="126" cy="44" r="6"/><circle cx="97" cy="37" r="11"/><circle cx="43" cy="41" r="11"/><circle cx="112" cy="42" r="11"/><circle cx="86" cy="42" r="13"/><circle cx="100" cy="43" r="8"/><circle cx="123" cy="37" r="8"/><circle cx="68" cy="43" r="8"/><circle cx="55" cy="50" r="8"/><circle cx="28" cy="44" r="8"/><circle cx="21" cy="36" r="10"/><path d="M83 35h-1l-7-2-1 1c-2-4-6-5-10-4-3 1-5 3-6 6-2-3-5-4-9-3-2 0-4 2-5 3-2-3-5-4-9-3s-6 5-6 8a13 13 0 0 0-17 11H7c-5 2-8 7-7 13s8 8 13 6c3-1 5-3 6-5h11c1 3 4 4 7 3s4-3 5-5h4c3-1 6-3 7-6 3 2 6 2 9 1s6-3 7-6l6 1c4-2 6-5 6-9l5 1c3-1 5-4 4-7s-4-5-7-4z"/><path d="M143 57h-1c0-3-2-5-4-5l-1-1a9 9 0 0 0-15-6 9 9 0 0 0-12-7c0-4-3-7-7-8-3-1-7 1-9 4l-6-4c-5-1-10 1-13 4l-5-2c-5-2-11 2-12 7-2 6 1 11 7 13 3 0 6 0 8-2 2 3 5 5 8 6h1c0 3 2 5 5 6 2 1 5 0 6-2l4 2c4 1 7 1 9-1 2 3 4 5 7 6s7 0 9-2l5 4c4 1 8-1 10-4l3 3c3 1 7-1 7-4 1-3-1-6-4-7z"/><path d="M121 14a9 9 0 0 0-11-2 11 11 0 0 0-10-4c-2-4-7-7-12-7-4 0-8 1-10 4h-2l-5 1a10 10 0 0 0-18 6 11 11 0 0 0-18 2l-5-1c-5 0-9 4-9 9s4 9 9 9c3 0 5-1 7-3a11 11 0 0 0 14 2 9 9 0 0 0 17 2l5 2 6-3a9 9 0 0 0 18-1l5 1c3 0 6-1 8-3l4 1c1 2 4 3 7 3 5 0 9-4 9-9 0-4-4-8-9-9z"/><path d="M125 19h-1c0-2-2-3-4-3h-2a7 7 0 0 0-10-3c-1-2-2-3-4-3h-1c-2-2-4-4-7-4s-6 2-7 5l-1-2c0-3-3-6-6-6-2 0-4 2-5 4l-4 1c-1-2-3-3-6-3s-5 2-6 4l-3-1-4 2h-2c-2 0-4 0-5 2l-4-2c-3 0-6 2-7 5a6 6 0 0 0-5 1l-3-1c-3 0-6 3-6 6s3 5 6 5c0 2 1 3 3 3s3-1 3-3h3l5 2 4-2h1c2 0 3-1 3-3h1a7 7 0 0 0 9 2l4 2 2-2c2 2 4 4 6 4h1c1 2 3 3 5 3 3 0 6-2 6-5v-1c1 2 4 4 6 4 3 0 5-2 6-5l3 1c1 3 3 5 6 5 4 0 6-2 7-5 2 0 4-1 5-3a5 5 0 0 0 5 1l2 1c2 0 4-1 4-3l-3-3z"/><path d="M107 12h-1l-4-3h-1c-1-3-3-5-6-5s-5 1-6 3a6 6 0 0 0-10-3c-1-2-3-4-6-4s-5 2-6 5l-5-2c-4 0-7 2-9 5l-4-1a7 7 0 1 0 1 15c2 0 4-1 5-3 2 2 4 3 7 3h1c0 2 2 4 4 4s4-1 4-3l4 1 6-2a8 8 0 0 0 12 0l4 1c3 0 5-2 6-4l3 1c3 0 5-2 5-4s-2-4-4-4z"/><circle cx="115" cy="32" r="13"/><circle cx="35" cy="28" r="9"/><circle cx="24" cy="29" r="7"/><circle cx="131" cy="34" r="7"/><circle cx="68" cy="36" r="7"/><circle cx="80" cy="35" r="9"/><circle cx="28" cy="39" r="6"/><circle cx="53" cy="40" r="11"/><circle cx="126" cy="44" r="6"/><circle cx="97" cy="37" r="11"/><circle cx="43" cy="41" r="11"/><circle cx="112" cy="42" r="11"/><circle cx="86" cy="42" r="13"/><circle cx="100" cy="43" r="8"/><circle cx="123" cy="37" r="8"/><circle cx="68" cy="43" r="8"/><circle cx="55" cy="50" r="8"/><circle cx="28" cy="44" r="8"/><circle cx="21" cy="36" r="10"/><circle cx="123" cy="50" r="6"/><circle cx="132" cy="45" r="6"/><circle cx="31" cy="51" r="6"/><circle cx="22" cy="48" r="6"/><circle cx="24" cy="3" r="3"/><circle cx="146" cy="49" r="2"/><circle cx="120" cy="53" r="9"/><circle cx="132" cy="55" r="9"/><circle cx="23" cy="56" r="7"/><circle cx="17" cy="48" r="11"/><circle cx="109" cy="50" r="7"/><circle cx="146" cy="75" r="4"/><circle cx="109" cy="50" r="4"/><circle cx="14" cy="79" r="3"/><path d="M94-2H60l-1 3 36 1z"/><path d="M59 1l-3 10h42l-3-9z"/><path d="M54 14l-2-1 2-2h46l2 2-2 1"/><path d="M98-116H77V-2h25c4 0 7-3 7-7v-70c0-13-4-26-11-37z" fill="#e9edf2"/><path d="M56-116c-7 11-11 24-11 37v70c0 4 3 7 7 7h25v-114H56zm42 0l-9-14c-3-4-8-6-12-6v20h21z"/><path d="M77-136c-4 0-9 2-11 6l-10 14h21v-20z"/><circle cx="77" cy="-67" r="20"/><path d="M93-67c0-5-2-8-4-11v1c0 10-5 19-12 25 9 0 16-7 16-15z"/><path d="M89-77v-1c-3-3-6-4-9-5v1c0 10-8 18-18 18h-1c2 7 8 13 16 13 7-7 12-16 12-26z"/><path d="M80-82v-1h-3a16 16 0 0 0-16 19h2c9 0 17-8 17-18z" fill="#7b7bff"/><path d="M109-45v32h7v-29z"/><path d="M139-23c0-4-2-7-5-9l-18-10v29h18c3 0 5-3 5-6M45-45v31h-7v-28z"/><path d="M14-24c0-3 2-6 6-8l18-10v28H20c-3 0-6-2-6-5v-5zm59-26c5 1 12-1 14-3l1-1v-2c0-4-3-7-8-7h-7c-4 0-7 3-7 7v2c1 2 4 4 7 4zm14-20l-2 3-2-3 2-4 2 4z"/><path d="M86-70a9 9 0 1 0-14 7l9 1c3-2 5-5 5-8z"/><path d="M77-65c-2 0-5-2-5-5v-1c0-3 2-5 5-5h4c3 0 5 2 5 5v1c0 3-2 5-5 5h-4z"/><path d="M81-66h-4c-2 0-4-2-4-4v-1c0-2 2-4 4-4h4c2 0 4 2 4 4v1c0 3-1 4-4 4z"/><path d="M77-75c-2 0-4 2-4 4v2l3 1c4 0 6-2 6-6v-1h-5z"/><ellipse cx="70" cy="-71" rx="2" ry="3"/><path d="M72-70l-2 3-2-3c0-1 0-4 2-4l2 4z"/><circle cx="77" cy="-68" r="17" fill="none" stroke="#364760" stroke-width="3"/><path d="M83-62H71l-1-1 1-1h12l1 1-1 1z"/></svg>