<svg xmlns="http://www.w3.org/2000/svg" width="2533" height="1111" version="1" viewBox="0 0 1900 833">
  <g fill="#97a4b1">
    <path d="M1058 9c17-3 34-2 51-2 6 0 11 2 17 3l25 6 23 5 32 5c6 0 11-1 17 1l-17 4-28 3-179 16c-6 1-13-1-19-1h-15l-23-1-23-1-22-1-22-1-23-1c-8-1-16 0-24-2l-22-1c-7 0-14 1-21-1 6-3 12-2 18-3l188-14 16-3 51-11zM452 12c18-3 37-2 55-2 5 0 10 2 15 4l17 8 26 8-2 2-23-1-19-1-31-1-29-2h-20c-16-2-31 1-46 1l-16 2h-15l14-3 74-15zM958 75c7 0 14-1 20 2 3 1 7 3 7 7-1 4-5 6-8 7-9 2-18 2-26-2-2-2-4-5-2-8s6-5 9-6zM1325 83c12-1 24-1 35 4 4 1 8 4 10 8 2 3 1 6-2 8-6 6-14 8-22 9-11 1-23 0-33-4-4-1-7-3-10-6-2-3-1-7 1-10 5-6 14-7 21-9zM424 88c12-3 25-4 38-2 9 0 19 2 26 8 2 2 4 6 2 9-7 7-18 9-27 10l-14 1c-9 0-17-1-26-4l-11-5c-2-2-3-6-1-9 3-4 8-7 13-8zM1563 94c6-4 14-3 21-3 6 0 13 0 19 3 1 1 3 4 1 5-7 5-15 5-22 5s-16 0-22-5c0-2 1-4 3-5zM678 137c13-3 27-2 41-1 13 1 28 4 38 14 4 3 7 8 5 12-2 6-7 10-12 13-9 4-18 6-27 7l-29 2c-13-1-26-3-37-9-6-2-11-6-14-11-2-5 1-10 3-14 9-8 21-11 32-13zM148 145c18-1 36 0 53 3 16 2 31 6 45 13 5 4 11 8 13 14 2 5 0 11-4 15-7 8-18 12-28 15-15 5-31 7-47 8l-26 1-36-4c-12-2-23-6-34-11-7-4-14-8-16-16-3-7 2-14 7-18 13-9 29-14 45-16l28-4zM978 195c13-1 26-1 37 5 4 2 9 5 9 10-1 5-5 8-9 10-11 4-23 4-34 4-8-1-17-3-24-9-2-3-3-7 0-10 5-7 14-8 21-10zM1454 219l33 1c10 1 21 3 29 9 2 2 5 5 5 9 0 3-3 5-5 7-6 5-15 8-23 9-15 3-31 3-46 0-8-2-16-4-22-9-2-2-5-4-5-7 0-4 3-7 6-9 8-6 19-8 28-10zM90 387c11-10 27-13 41-15l31 1c13 1 27 4 38 13 4 3 7 8 5 13-2 6-8 11-14 13-8 4-16 6-25 7l-15 2c-17 1-33-2-49-7-6-3-12-7-16-13-2-5 1-11 4-14zM1155 380l6-1c22-1 43 0 65 2 13 1 25 2 38 5 20 4 40 9 59 18 10 5 19 10 27 17 5 4 9 9 12 14 3 6 4 13 2 20s-6 14-12 19c-8 7-17 13-27 18l-13 5c-37 14-77 19-117 21-13 0-25 1-38-1-26-1-51-4-76-11-22-5-42-12-61-24-5-4-11-9-15-15-7-8-9-19-5-29 5-12 16-20 26-27l22-10a285 285 0 0 1 107-21zM1672 405c18-7 37-7 56-5 14 1 29 4 40 15 3 3 5 7 3 11-2 6-8 11-14 13-8 4-16 6-25 7l-29 2c-13-1-26-3-37-9-6-2-11-6-14-11-2-5 1-10 3-14 5-4 11-7 17-9zM775 545c13-3 27-2 41-1 13 1 28 4 38 14 4 3 7 8 5 12-2 6-7 10-13 13-8 4-17 6-26 7l-29 2c-13-1-26-3-37-9-6-2-11-6-14-11-2-5 1-10 4-14 8-8 20-11 31-13z"/>
  </g>
  <path fill="#adb8c1" d="M1335 11c15 0 30-2 45-1l24 1 18 1 21 1 20 1 21 1 20 1 20 1 21 2 93 14 62 7 114 12h24c6 0 11 3 17 3l18-2 16-2 11-1v783H0V50h20c4 0 7 3 11 4l12 2h10c8-3 16 1 23-1 8-2 16 1 23-1 5-2 10-1 14-1l50-7 35-5 13-2 9-1h11c5-2 11 1 17-1l12-1 18-1 86-5h15l16-2c15 0 30-3 46-1h20l29 2 31 1 19 1 23 1 31 1 25 1c9 1 18-1 27 1 9 1 18-1 28 1l28 1c9 1 18-1 27 1l22 1 23 1h11c7 2 14 1 21 1l22 1c8 2 16 1 24 2l23 1 22 1 22 1 23 1 23 1h15c6 0 13 2 19 1l179-16 28-3 17-4 71-13 18-1 23-2M958 75c-3 1-7 3-9 6s0 6 2 8c8 4 17 4 26 2 3-1 7-3 8-7 0-4-4-6-7-7-6-3-13-2-20-2m367 8c-7 2-16 3-21 9-2 3-3 7-1 10 3 3 6 5 10 6 10 4 22 5 33 4 8-1 16-3 22-9 3-2 4-5 2-8-2-4-6-7-10-8-11-5-23-5-35-4m-901 5c-5 1-10 4-13 8-2 3-1 7 1 9l11 5c9 3 17 4 26 4l14-1h6c7-1 15-1 21-5 4-1 7-3 9-7 0-3-1-6-4-7-7-6-16-7-25-9l-8 1c-13-2-26-1-38 2m1139 6c-2 1-3 3-3 5 6 5 15 5 22 5s15 0 22-5c2-1 0-4-1-5-6-3-13-3-19-3-7 0-15-1-21 3m-885 43c-11 2-23 5-32 13-2 4-5 9-3 14 3 5 8 9 14 11 11 6 24 8 37 9l29-2 3 1c10-1 21-3 31-7 7-3 16-7 18-15 1-6-4-10-8-13-12-8-25-11-38-12-3 0-7-2-10 0-14-1-28-2-41 1m-522 7h-11v1h3l-28 4c-16 2-32 7-45 16-5 4-10 11-7 18 2 8 9 12 16 16 11 5 22 9 34 11l36 4h-6l4 1 17 1 40-1c17-1 33-4 49-9 8-3 16-6 23-11 5-3 9-8 11-13 1-7-4-13-9-17-16-11-35-16-53-19-25-4-49-4-74-2m822 51c-7 2-16 3-21 10-3 3-2 7 0 10 7 6 16 8 24 9 11 0 23 0 34-4 4-2 8-5 9-10 0-5-5-8-9-10-11-6-24-6-37-5m476 24c-9 2-20 4-28 10-3 2-6 5-6 9 0 3 3 5 5 7 6 5 14 7 22 9 15 3 31 3 46 0 8-1 17-4 23-9 2-2 5-4 5-7 0-4-3-7-5-9-8-6-19-8-29-9l-33-1M90 387c-3 3-6 9-4 14 4 6 10 10 16 13 16 5 32 8 49 7l15-2c3 2 6 1 9 0 13-1 27-4 37-13 4-3 8-9 5-14s-9-9-14-11c-10-5-20-7-31-8-3 0-7-2-10 0l-31-1c-14 2-30 5-41 15m1077-9l-6 1-6 1a313 313 0 0 0-107 21l-22 10c-10 7-21 15-26 27-4 10-2 21 5 29 4 6 10 11 15 15 19 12 39 19 61 24 25 7 50 10 76 11 13 2 25 1 38 1 40-2 80-7 117-21l13-5c9-1 18-5 27-7 18-7 37-13 50-28 6-5 9-13 8-21-1-6-5-12-9-16-12-12-29-19-45-25a507 507 0 0 0-189-17m505 27c-6 2-12 5-17 9-2 4-5 9-3 14 3 5 8 9 14 11 11 6 24 8 37 9l29-2c2 2 5 1 8 1 13-2 26-5 37-13 4-3 9-9 6-14-3-6-9-10-15-13-9-4-19-6-29-7-4 0-8-2-11 0-19-2-38-2-56 5M775 545c-11 2-23 5-31 13-3 4-6 9-4 14 3 5 8 9 14 11 11 6 24 8 37 9l29-2c3 2 6 0 9 0 8-1 16-2 23-5 8-3 17-7 20-15 1-6-4-11-8-14-12-8-25-11-38-12-3 0-7-2-10 0-14-1-28-2-41 1z"/>
  <g fill="#d0d7dc">
    <path d="M462 86l8-1c9 2 18 3 25 9 3 1 4 4 4 7-2 4-5 6-9 7-6 4-14 4-21 5h-6c9-1 20-3 27-10 2-3 0-7-2-9-7-6-17-8-26-8zM719 136c3-2 7 0 10 0 13 1 26 4 38 12 4 3 9 7 8 13-2 8-11 12-18 15-10 4-21 6-31 7l-3-1c9-1 18-3 27-7 5-3 10-7 12-13 2-4-1-9-5-12-10-10-25-13-38-14zM156 144c25-2 49-2 74 2 18 3 37 8 53 19 5 4 10 10 9 17-2 5-6 10-11 13-7 5-15 8-23 11-16 5-32 8-49 9l-40 1-17-1-4-1h6l26-1c16-1 32-3 47-8 10-3 21-7 28-15 4-4 6-10 4-15-2-6-8-10-13-14-14-7-29-11-45-13-17-3-35-4-53-3h-3v-1h11zM162 373c3-2 7 0 10 0 11 1 21 3 31 8 5 2 11 6 14 11s-1 11-5 14c-10 9-24 12-37 13-3 1-6 2-9 0 9-1 17-3 25-7 6-2 12-7 14-13 2-5-1-10-5-13-11-9-25-12-38-13zM1167 378a438 438 0 0 1 121 2c23 3 46 7 68 15 16 6 33 13 45 25 4 4 8 10 9 16 1 8-2 16-8 21-13 15-32 21-50 28-9 2-18 6-27 7 10-5 19-11 27-18 6-5 10-12 12-19s1-14-2-20c-3-5-7-10-12-14-8-7-17-12-27-17-19-9-39-14-59-18a472 472 0 0 0-103-7l6-1zM1728 400c3-2 7 0 11 0 10 1 20 3 29 7 6 3 12 7 15 13 3 5-2 11-6 14-11 8-24 11-37 13-3 0-6 1-8-1 9-1 17-3 25-7 6-2 12-7 14-13 2-4 0-8-3-11-11-11-26-14-40-15zM816 544c3-2 7 0 10 0 13 1 26 4 38 12 4 3 9 8 8 14-3 8-12 12-20 15-7 3-15 4-23 5-3 0-6 2-9 0 9-1 18-3 26-7 6-3 11-7 13-13 2-4-1-9-5-12-10-10-25-13-38-14z"/>
  </g>
</svg>
