<?xml version="1.0" encoding="UTF-8" ?>
<!DOCTYPE svg PUBLIC "-//W3C//DTD SVG 1.1//EN" "http://www.w3.org/Graphics/SVG/1.1/DTD/svg11.dtd">
<svg width="1900pt" height="833pt" viewBox="0 0 1900 833" version="1.1" xmlns="http://www.w3.org/2000/svg">
<g id="#97a4b1ff">
<path fill="#97a4b1" opacity="1.00" d=" M 1057.59 8.65 C 1074.63 6.21 1091.87 7.27 1109.02 6.95 C 1114.85 6.71 1120.41 8.65 1125.99 10.03 C 1134.25 12.10 1142.53 14.13 1150.78 16.25 C 1158.54 18.29 1166.54 19.15 1174.42 20.59 C 1185.08 22.28 1195.68 24.37 1206.41 25.62 C 1211.75 26.34 1217.24 25.43 1222.50 26.89 C 1217.06 28.97 1211.23 29.37 1205.58 30.53 C 1196.45 32.31 1187.14 32.82 1177.90 33.71 C 1118.29 39.16 1058.67 44.50 999.06 50.01 C 992.69 50.50 986.40 48.93 980.04 49.04 C 975.15 49.10 970.26 49.14 965.41 48.53 C 957.77 47.55 950.04 48.56 942.41 47.53 C 934.77 46.56 927.04 47.56 919.41 46.52 C 912.10 45.59 904.71 46.51 897.40 45.53 C 890.04 44.55 882.60 45.55 875.24 44.61 C 867.65 43.55 859.97 44.58 852.39 43.56 C 844.20 42.52 835.91 43.61 827.74 42.38 C 820.37 41.63 812.94 42.48 805.59 41.45 C 798.88 40.53 791.97 42.05 785.39 40.05 C 790.88 37.15 797.23 38.34 803.14 37.33 C 865.75 32.45 928.33 27.11 990.98 22.87 C 996.35 22.47 1001.50 20.80 1006.76 19.74 C 1023.71 16.05 1040.67 12.44 1057.59 8.65 Z" />
<path fill="#97a4b1" opacity="1.00" d=" M 451.57 11.59 C 469.96 9.16 488.54 10.32 507.04 9.93 C 512.34 9.50 516.93 12.45 521.64 14.38 C 527.48 16.85 533.30 19.36 539.13 21.87 C 547.43 25.45 556.23 27.59 564.85 30.24 C 564.20 30.88 563.55 31.51 562.88 32.12 C 555.22 32.49 547.65 30.84 539.99 31.11 C 533.65 31.30 527.35 30.55 521.04 30.16 C 510.66 30.10 500.33 28.92 489.95 28.97 C 480.31 27.90 470.60 28.40 460.96 27.41 C 454.17 26.94 447.34 27.33 440.57 26.59 C 425.35 25.02 410.18 27.80 394.97 28.11 C 389.58 28.08 384.42 30.03 379.04 30.00 C 373.95 30.04 368.87 29.66 363.78 29.76 C 368.57 29.29 373.25 28.12 377.91 26.96 C 402.43 21.68 427.05 16.90 451.57 11.59 Z" />
<path fill="#97a4b1" opacity="1.00" d=" M 958.37 75.48 C 964.95 74.60 971.99 74.35 978.30 76.76 C 981.20 78.10 984.92 80.21 984.80 83.89 C 984.14 87.80 979.95 89.50 976.63 90.60 C 968.38 92.94 959.08 92.54 951.39 88.59 C 948.52 87.26 947.03 83.54 948.77 80.78 C 951.14 77.88 954.80 76.33 958.37 75.48 Z" />
<path fill="#97a4b1" opacity="1.00" d=" M 1325.39 83.46 C 1337.06 82.31 1349.23 82.44 1360.32 86.71 C 1364.27 88.33 1368.36 90.67 1370.32 94.65 C 1371.71 97.58 1370.62 101.17 1368.23 103.23 C 1362.17 108.89 1353.73 110.64 1345.77 111.64 C 1334.67 112.52 1323.24 112.11 1312.69 108.26 C 1309.23 106.66 1305.70 104.73 1303.35 101.65 C 1301.24 98.82 1301.82 94.70 1304.24 92.25 C 1309.48 86.14 1317.94 84.96 1325.39 83.46 Z" />
<path fill="#97a4b1" opacity="1.00" d=" M 423.97 88.03 C 436.24 84.57 449.17 84.45 461.78 85.70 C 470.94 86.22 480.67 87.97 487.81 94.19 C 490.11 96.20 492.30 100.05 489.82 102.77 C 483.18 110.44 472.34 111.89 462.84 113.06 C 458.22 113.26 453.62 113.91 449.00 113.96 C 440.34 114.16 431.77 112.56 423.41 110.49 C 419.33 109.43 415.47 107.46 412.30 104.69 C 409.97 102.62 409.19 98.71 411.17 96.15 C 414.35 92.09 419.07 89.46 423.97 88.03 Z" />
<path fill="#97a4b1" opacity="1.00" d=" M 1562.99 94.00 C 1569.36 90.37 1576.94 91.03 1584.00 90.91 C 1590.29 90.93 1597.14 90.84 1602.61 94.44 C 1604.24 95.46 1605.54 98.13 1603.52 99.47 C 1597.41 104.07 1589.29 103.96 1582.01 103.96 C 1574.53 104.06 1566.30 103.63 1560.25 98.70 C 1560.25 96.78 1561.24 94.89 1562.99 94.00 Z" />
<path fill="#97a4b1" opacity="1.00" d=" M 677.88 136.87 C 691.32 134.04 705.18 134.83 718.78 135.85 C 732.41 137.17 746.98 140.01 757.38 149.62 C 760.91 152.66 764.25 157.50 762.34 162.32 C 759.94 167.89 755.05 172.07 749.71 174.74 C 741.37 178.95 732.13 181.08 722.92 182.32 C 713.27 182.89 703.65 184.48 693.96 183.81 C 681.21 182.89 668.41 180.52 656.64 175.38 C 651.10 173.05 646.30 168.92 643.27 163.73 C 640.64 159.26 643.54 154.00 646.46 150.46 C 654.95 142.42 666.53 138.65 677.88 136.87 Z" />
<path fill="#97a4b1" opacity="1.00" d=" M 148.20 145.33 C 165.97 144.15 183.85 144.95 201.45 147.57 C 216.65 150.23 232.07 153.66 245.56 161.44 C 251.06 164.73 256.81 168.73 258.95 175.08 C 261.26 180.27 258.76 186.21 255.11 190.09 C 247.54 197.75 237.35 201.82 227.37 205.33 C 212.19 210.31 196.25 212.38 180.36 213.41 C 171.67 214.28 162.93 213.98 154.21 213.74 C 142.16 212.10 129.90 212.39 117.92 210.06 C 106.26 207.64 94.64 204.45 83.99 199.01 C 77.36 195.34 70.20 190.97 67.69 183.35 C 65.12 176.37 70.07 169.48 75.32 165.32 C 88.32 156.01 103.96 151.32 119.57 148.64 C 129.02 146.71 138.70 146.79 148.20 145.33 Z" />
<path fill="#97a4b1" opacity="1.00" d=" M 978.38 195.47 C 990.77 194.26 1003.84 194.40 1015.38 199.62 C 1019.41 201.60 1024.08 204.93 1023.92 209.95 C 1023.49 214.89 1018.55 217.51 1014.67 219.62 C 1004.18 224.32 992.34 224.33 981.09 223.72 C 972.66 222.53 963.50 221.08 957.24 214.75 C 954.53 212.16 954.31 207.60 956.80 204.79 C 961.94 198.24 970.73 196.99 978.38 195.47 Z" />
<path fill="#97a4b1" opacity="1.00" d=" M 1454.41 219.49 C 1465.37 218.67 1476.46 218.56 1487.42 219.60 C 1497.20 221.38 1507.58 223.11 1515.70 229.30 C 1518.31 231.42 1521.20 234.27 1520.91 237.94 C 1520.72 241.01 1518.45 243.39 1516.17 245.18 C 1509.52 250.24 1501.35 252.72 1493.25 254.24 C 1477.93 256.66 1462.21 256.61 1446.91 254.08 C 1439.12 252.48 1431.17 250.13 1424.76 245.25 C 1422.64 243.31 1419.78 241.22 1419.98 238.01 C 1420.10 234.21 1422.54 230.72 1425.66 228.67 C 1434.08 222.82 1444.52 221.26 1454.41 219.49 Z" />
<path fill="#97a4b1" opacity="1.00" d=" M 89.95 386.97 C 101.02 376.63 116.69 374.28 131.09 372.28 C 141.31 371.74 151.58 371.91 161.78 372.85 C 175.24 374.13 189.41 377.00 199.95 386.09 C 203.68 389.18 207.27 394.30 205.35 399.32 C 202.73 405.37 197.24 409.70 191.37 412.40 C 183.37 416.13 174.66 418.16 165.94 419.32 C 160.88 419.73 155.81 419.96 150.77 420.60 C 134.40 421.96 117.77 419.28 102.41 413.54 C 95.81 411.19 89.76 406.88 86.26 400.73 C 83.59 396.04 86.72 390.49 89.95 386.97 Z" />
<path fill="#97a4b1" opacity="1.00" d=" M 1155.05 379.93 C 1157.00 379.79 1158.94 379.42 1160.91 379.21 C 1182.62 378.47 1204.41 378.56 1226.05 380.82 C 1238.66 382.24 1251.34 383.48 1263.75 386.27 C 1283.95 390.11 1304.19 395.05 1322.66 404.33 C 1332.51 408.51 1341.79 414.09 1349.87 421.13 C 1354.59 425.12 1358.67 429.91 1361.65 435.34 C 1364.84 441.28 1365.71 448.43 1363.92 454.94 C 1361.90 462.26 1357.50 468.77 1351.94 473.88 C 1344.03 481.41 1334.55 487.12 1324.65 491.63 C 1320.39 493.19 1316.42 495.38 1312.30 497.24 C 1274.90 511.45 1234.73 516.30 1195.00 517.94 C 1182.30 517.62 1169.56 518.57 1156.91 517.28 C 1131.23 516.01 1105.51 512.92 1080.60 506.39 C 1059.36 501.43 1038.62 493.57 1020.19 481.79 C 1014.55 477.51 1008.83 473.12 1004.74 467.25 C 998.28 459.18 995.83 447.65 1000.01 437.99 C 1004.92 426.02 1015.55 417.74 1026.39 411.37 C 1032.94 406.79 1040.63 404.36 1047.71 400.76 C 1068.70 391.87 1091.18 387.21 1113.59 383.57 C 1127.33 381.70 1141.16 379.96 1155.05 379.93 Z" />
<path fill="#97a4b1" opacity="1.00" d=" M 1671.68 404.69 C 1689.65 398.40 1709.00 398.11 1727.78 399.84 C 1742.07 401.20 1757.49 404.36 1767.88 415.08 C 1770.75 417.92 1772.97 422.28 1771.34 426.32 C 1768.74 432.38 1763.22 436.69 1757.37 439.40 C 1749.37 443.16 1740.65 445.15 1731.93 446.32 C 1722.27 446.89 1712.65 448.47 1702.96 447.81 C 1690.20 446.89 1677.41 444.52 1665.64 439.37 C 1660.10 437.05 1655.29 432.92 1652.27 427.73 C 1649.64 423.26 1652.54 417.99 1655.45 414.46 C 1660.03 410.05 1665.77 406.94 1671.68 404.69 Z" />
<path fill="#97a4b1" opacity="1.00" d=" M 774.88 544.87 C 788.32 542.04 802.18 542.84 815.78 543.85 C 829.42 545.17 843.98 548.01 854.38 557.62 C 857.90 560.66 861.25 565.50 859.34 570.32 C 856.84 576.13 851.64 580.39 846.04 583.08 C 837.87 587.05 828.90 589.12 819.93 590.32 C 810.28 590.89 800.65 592.47 790.96 591.81 C 778.21 590.89 765.41 588.52 753.64 583.38 C 748.10 581.05 743.29 576.93 740.26 571.73 C 737.58 567.03 740.73 561.50 743.94 557.95 C 752.46 550.30 763.74 546.60 774.88 544.87 Z" />
</g>
<g id="#adb8c1ff">
<path fill="#adb8c1" opacity="1.00" d=" M 1335.04 11.28 C 1350.03 10.94 1364.99 8.99 1380.00 10.02 C 1388.03 9.71 1395.98 11.28 1404.01 11.06 C 1410.03 10.96 1415.98 12.23 1422.01 12.04 C 1429.03 11.78 1435.97 13.28 1443.01 13.04 C 1449.70 12.86 1456.31 14.31 1463.01 14.05 C 1470.04 13.79 1476.98 15.28 1484.01 15.06 C 1490.70 14.89 1497.31 16.29 1504.01 16.05 C 1510.70 15.87 1517.31 17.30 1524.02 17.04 C 1531.00 16.78 1537.81 18.48 1544.70 19.36 C 1575.78 23.90 1606.86 28.50 1637.94 33.11 C 1658.51 36.36 1679.30 37.90 1700.00 40.15 C 1738.00 44.10 1776.03 47.83 1814.02 51.88 C 1822.00 52.31 1830.01 51.72 1838.01 52.06 C 1843.81 52.23 1849.12 55.33 1854.98 55.12 C 1861.08 55.40 1866.90 53.11 1872.98 52.99 C 1878.34 52.75 1883.76 52.36 1888.96 50.90 C 1892.53 49.82 1896.29 49.91 1900.00 49.94 L 1900.00 833.00 L 0.00 833.00 L 0.00 50.00 C 6.68 50.10 13.36 49.84 20.04 50.01 C 24.08 50.10 27.26 53.06 31.14 53.78 C 35.22 54.52 39.37 54.77 43.45 55.55 C 46.54 56.03 49.75 57.06 52.83 55.94 C 60.55 53.44 68.69 56.97 76.42 54.59 C 84.05 52.60 91.95 56.11 99.45 53.59 C 103.99 52.40 108.67 53.44 113.27 53.33 C 129.83 50.44 146.55 48.47 163.19 46.00 C 174.61 43.83 186.24 42.97 197.60 40.60 C 202.20 40.94 206.56 39.19 211.14 39.43 C 214.14 39.34 216.95 37.88 219.98 38.03 C 223.61 37.96 227.34 39.43 230.85 37.94 C 236.34 35.73 242.26 38.65 247.83 36.90 C 251.85 35.71 256.04 36.32 260.15 36.48 C 266.12 36.31 272.00 34.96 277.99 35.05 C 306.59 33.38 335.16 31.20 363.78 29.76 C 368.87 29.66 373.95 30.04 379.04 30.00 C 384.42 30.03 389.58 28.08 394.97 28.11 C 410.18 27.80 425.35 25.02 440.57 26.59 C 447.34 27.33 454.17 26.94 460.96 27.41 C 470.60 28.40 480.31 27.90 489.95 28.97 C 500.33 28.92 510.66 30.10 521.04 30.16 C 527.35 30.55 533.65 31.30 539.99 31.11 C 547.65 30.84 555.22 32.49 562.88 32.12 C 573.26 31.97 583.68 31.71 594.02 32.86 C 602.19 33.37 610.40 32.64 618.55 33.55 C 627.51 34.62 636.58 33.49 645.55 34.54 C 654.85 35.64 664.25 34.47 673.55 35.54 C 682.84 36.63 692.24 35.50 701.54 36.54 C 710.51 37.62 719.58 36.49 728.55 37.54 C 735.85 38.50 743.24 37.61 750.54 38.54 C 758.18 39.54 765.91 38.57 773.55 39.54 C 777.47 40.02 781.44 40.10 785.39 40.05 C 791.97 42.05 798.88 40.53 805.59 41.45 C 812.94 42.48 820.37 41.63 827.74 42.38 C 835.91 43.61 844.20 42.52 852.39 43.56 C 859.97 44.58 867.65 43.55 875.24 44.61 C 882.60 45.55 890.04 44.55 897.40 45.53 C 904.71 46.51 912.10 45.59 919.41 46.52 C 927.04 47.56 934.77 46.56 942.41 47.53 C 950.04 48.56 957.77 47.55 965.41 48.53 C 970.26 49.14 975.15 49.10 980.04 49.04 C 986.40 48.93 992.69 50.50 999.06 50.01 C 1058.67 44.50 1118.29 39.16 1177.90 33.71 C 1187.14 32.82 1196.45 32.31 1205.58 30.53 C 1211.23 29.37 1217.06 28.97 1222.50 26.89 C 1246.33 22.58 1270.17 18.28 1294.02 14.00 C 1299.86 12.78 1305.86 13.25 1311.77 12.70 C 1319.49 11.67 1327.32 12.41 1335.04 11.28 M 958.37 75.48 C 954.80 76.33 951.14 77.88 948.77 80.78 C 947.03 83.54 948.52 87.26 951.39 88.59 C 959.08 92.54 968.38 92.94 976.63 90.60 C 979.95 89.50 984.14 87.80 984.80 83.89 C 984.92 80.21 981.20 78.10 978.30 76.76 C 971.99 74.35 964.95 74.60 958.37 75.48 M 1325.39 83.46 C 1317.94 84.96 1309.48 86.14 1304.24 92.25 C 1301.82 94.70 1301.24 98.82 1303.35 101.65 C 1305.70 104.73 1309.23 106.66 1312.69 108.26 C 1323.24 112.11 1334.67 112.52 1345.77 111.64 C 1353.73 110.64 1362.17 108.89 1368.23 103.23 C 1370.62 101.17 1371.71 97.58 1370.32 94.65 C 1368.36 90.67 1364.27 88.33 1360.32 86.71 C 1349.23 82.44 1337.06 82.31 1325.39 83.46 M 423.97 88.03 C 419.07 89.46 414.35 92.09 411.17 96.15 C 409.19 98.71 409.97 102.62 412.30 104.69 C 415.47 107.46 419.33 109.43 423.41 110.49 C 431.77 112.56 440.34 114.16 449.00 113.96 C 453.62 113.91 458.22 113.26 462.84 113.06 C 464.53 114.28 466.63 113.67 468.52 113.45 C 475.88 112.21 483.51 111.59 490.33 108.34 C 493.84 106.81 497.36 104.50 498.83 100.80 C 499.13 97.98 497.66 95.21 495.30 93.69 C 488.04 88.07 478.74 86.57 469.89 85.40 C 467.19 85.19 464.35 84.61 461.78 85.70 C 449.17 84.45 436.24 84.57 423.97 88.03 M 1562.99 94.00 C 1561.24 94.89 1560.25 96.78 1560.25 98.70 C 1566.30 103.63 1574.53 104.06 1582.01 103.96 C 1589.29 103.96 1597.41 104.07 1603.52 99.47 C 1605.54 98.13 1604.24 95.46 1602.61 94.44 C 1597.14 90.84 1590.29 90.93 1584.00 90.91 C 1576.94 91.03 1569.36 90.37 1562.99 94.00 M 677.88 136.87 C 666.53 138.65 654.95 142.42 646.46 150.46 C 643.54 154.00 640.64 159.26 643.27 163.73 C 646.30 168.92 651.10 173.05 656.64 175.38 C 668.41 180.52 681.21 182.89 693.96 183.81 C 703.65 184.48 713.27 182.89 722.92 182.32 C 723.80 182.77 724.68 183.44 725.75 183.23 C 736.43 181.86 747.23 180.28 757.30 176.28 C 764.44 173.11 772.56 168.93 774.81 160.79 C 775.66 154.98 770.69 150.67 766.52 147.53 C 755.49 140.14 742.10 137.33 729.09 135.94 C 725.68 135.69 722.05 134.33 718.78 135.85 C 705.18 134.83 691.32 134.04 677.88 136.87 M 156.30 143.68 C 152.69 144.23 149.03 144.17 145.38 144.24 L 145.17 145.01 C 145.93 145.09 147.45 145.25 148.20 145.33 C 138.70 146.79 129.02 146.71 119.57 148.64 C 103.96 151.32 88.32 156.01 75.32 165.32 C 70.07 169.48 65.12 176.37 67.69 183.35 C 70.20 190.97 77.36 195.34 83.99 199.01 C 94.64 204.45 106.26 207.64 117.92 210.06 C 129.90 212.39 142.16 212.10 154.21 213.74 C 152.13 213.78 150.05 213.99 148.00 214.37 C 149.24 214.93 150.61 214.76 151.92 214.79 C 157.64 214.61 163.27 215.99 169.00 215.79 C 182.32 215.76 195.70 216.43 208.97 214.97 C 225.61 213.83 242.09 210.64 258.10 205.99 C 266.05 202.99 274.17 200.10 281.20 195.20 C 286.17 192.17 290.01 187.32 291.79 181.79 C 292.79 174.99 288.12 168.91 282.98 165.04 C 267.40 153.92 248.32 149.43 229.73 146.35 C 205.49 142.19 180.77 142.04 156.30 143.68 M 978.38 195.47 C 970.73 196.99 961.94 198.24 956.80 204.79 C 954.31 207.60 954.53 212.16 957.24 214.75 C 963.50 221.08 972.66 222.53 981.09 223.72 C 992.34 224.33 1004.18 224.32 1014.67 219.62 C 1018.55 217.51 1023.49 214.89 1023.92 209.95 C 1024.08 204.93 1019.41 201.60 1015.38 199.62 C 1003.84 194.40 990.77 194.26 978.38 195.47 M 1454.41 219.49 C 1444.52 221.26 1434.08 222.82 1425.66 228.67 C 1422.54 230.72 1420.10 234.21 1419.98 238.01 C 1419.78 241.22 1422.64 243.31 1424.76 245.25 C 1431.17 250.13 1439.12 252.48 1446.91 254.08 C 1462.21 256.61 1477.93 256.66 1493.25 254.24 C 1501.35 252.72 1509.52 250.24 1516.17 245.18 C 1518.45 243.39 1520.72 241.01 1520.91 237.94 C 1521.20 234.27 1518.31 231.42 1515.70 229.30 C 1507.58 223.11 1497.20 221.38 1487.42 219.60 C 1476.46 218.56 1465.37 218.67 1454.41 219.49 M 89.95 386.97 C 86.72 390.49 83.59 396.04 86.26 400.73 C 89.76 406.88 95.81 411.19 102.41 413.54 C 117.77 419.28 134.40 421.96 150.77 420.60 C 155.81 419.96 160.88 419.73 165.94 419.32 C 168.50 421.21 171.72 419.65 174.54 419.40 C 187.75 417.52 201.55 414.72 212.30 406.29 C 216.36 403.08 219.60 397.15 216.84 392.12 C 213.66 386.71 208.09 383.21 202.56 380.54 C 192.96 376.19 182.52 373.86 172.03 373.05 C 168.63 372.90 165.04 371.30 161.78 372.85 C 151.58 371.91 141.31 371.74 131.09 372.28 C 116.69 374.28 101.02 376.63 89.95 386.97 M 1166.99 378.04 C 1164.99 378.43 1162.52 377.75 1160.91 379.21 C 1158.94 379.42 1157.00 379.79 1155.05 379.93 C 1141.16 379.96 1127.33 381.70 1113.59 383.57 C 1091.18 387.21 1068.70 391.87 1047.71 400.76 C 1040.63 404.36 1032.94 406.79 1026.39 411.37 C 1015.55 417.74 1004.92 426.02 1000.01 437.99 C 995.83 447.65 998.28 459.18 1004.74 467.25 C 1008.83 473.12 1014.55 477.51 1020.19 481.79 C 1038.62 493.57 1059.36 501.43 1080.60 506.39 C 1105.51 512.92 1131.23 516.01 1156.91 517.28 C 1169.56 518.57 1182.30 517.62 1195.00 517.94 C 1234.73 516.30 1274.90 511.45 1312.30 497.24 C 1316.42 495.38 1320.39 493.19 1324.65 491.63 C 1334.10 491.10 1343.05 487.49 1352.09 484.97 C 1369.95 478.35 1389.12 471.79 1402.17 457.17 C 1407.50 451.63 1410.89 443.82 1409.82 436.05 C 1408.76 429.92 1405.36 424.38 1400.78 420.23 C 1388.60 407.69 1371.95 401.23 1355.97 395.03 C 1333.99 387.45 1311.00 383.30 1288.04 380.01 C 1264.75 377.10 1241.30 375.36 1217.83 375.70 C 1200.84 375.43 1183.88 376.34 1166.99 378.04 M 1671.68 404.69 C 1665.77 406.94 1660.03 410.05 1655.45 414.46 C 1652.54 417.99 1649.64 423.26 1652.27 427.73 C 1655.29 432.92 1660.10 437.05 1665.64 439.37 C 1677.41 444.52 1690.20 446.89 1702.96 447.81 C 1712.65 448.47 1722.27 446.89 1731.93 446.32 C 1734.22 448.09 1737.13 446.79 1739.71 446.54 C 1752.75 444.78 1766.34 442.13 1777.20 434.21 C 1781.24 430.82 1785.71 425.39 1783.15 419.82 C 1780.03 413.77 1773.84 410.01 1767.85 407.23 C 1758.75 403.19 1748.91 401.05 1739.04 400.07 C 1735.31 399.82 1731.38 398.29 1727.78 399.84 C 1709.00 398.11 1689.65 398.40 1671.68 404.69 M 774.88 544.87 C 763.74 546.60 752.46 550.30 743.94 557.95 C 740.73 561.50 737.58 567.03 740.26 571.73 C 743.29 576.93 748.10 581.05 753.64 583.38 C 765.41 588.52 778.21 590.89 790.96 591.81 C 800.65 592.47 810.28 590.89 819.93 590.32 C 822.75 592.35 826.26 590.43 829.36 590.27 C 837.16 589.44 844.79 587.51 852.25 585.13 C 859.87 581.89 868.61 577.99 871.61 569.59 C 873.20 563.54 867.88 558.76 863.52 555.53 C 852.49 548.13 839.10 545.34 826.09 543.94 C 822.68 543.67 819.06 542.35 815.78 543.85 C 802.18 542.84 788.32 542.04 774.88 544.87 Z" />
</g>
<g id="#d0d7dcff">
<path fill="#d0d7dc" opacity="1.00" d=" M 461.78 85.70 C 464.35 84.61 467.19 85.19 469.89 85.40 C 478.74 86.57 488.04 88.07 495.30 93.69 C 497.66 95.21 499.13 97.98 498.83 100.80 C 497.36 104.50 493.84 106.81 490.33 108.34 C 483.51 111.59 475.88 112.21 468.52 113.45 C 466.63 113.67 464.53 114.28 462.84 113.06 C 472.34 111.89 483.18 110.44 489.82 102.77 C 492.30 100.05 490.11 96.20 487.81 94.19 C 480.67 87.97 470.94 86.22 461.78 85.70 Z" />
<path fill="#d0d7dc" opacity="1.00" d=" M 718.78 135.85 C 722.05 134.33 725.68 135.69 729.09 135.94 C 742.10 137.33 755.49 140.14 766.52 147.53 C 770.69 150.67 775.66 154.98 774.81 160.79 C 772.56 168.93 764.44 173.11 757.30 176.28 C 747.23 180.28 736.43 181.86 725.75 183.23 C 724.68 183.44 723.80 182.77 722.92 182.32 C 732.13 181.08 741.37 178.95 749.71 174.74 C 755.05 172.07 759.94 167.89 762.34 162.32 C 764.25 157.50 760.91 152.66 757.38 149.62 C 746.98 140.01 732.41 137.17 718.78 135.85 Z" />
<path fill="#d0d7dc" opacity="1.00" d=" M 156.30 143.68 C 180.77 142.04 205.49 142.19 229.73 146.35 C 248.32 149.43 267.40 153.92 282.98 165.04 C 288.12 168.91 292.79 174.99 291.79 181.79 C 290.01 187.32 286.17 192.17 281.20 195.20 C 274.17 200.10 266.05 202.99 258.10 205.99 C 242.09 210.64 225.61 213.83 208.97 214.97 C 195.70 216.43 182.32 215.76 169.00 215.79 C 163.27 215.99 157.64 214.61 151.92 214.79 C 150.61 214.76 149.24 214.93 148.00 214.37 C 150.05 213.99 152.13 213.78 154.21 213.74 C 162.93 213.98 171.67 214.28 180.36 213.41 C 196.25 212.38 212.19 210.31 227.37 205.33 C 237.35 201.82 247.54 197.75 255.11 190.09 C 258.76 186.21 261.26 180.27 258.95 175.08 C 256.81 168.73 251.06 164.73 245.56 161.44 C 232.07 153.66 216.65 150.23 201.45 147.57 C 183.85 144.95 165.97 144.15 148.20 145.33 C 147.45 145.25 145.93 145.09 145.17 145.01 L 145.38 144.24 C 149.03 144.17 152.69 144.23 156.30 143.68 Z" />
<path fill="#d0d7dc" opacity="1.00" d=" M 161.78 372.85 C 165.04 371.30 168.63 372.90 172.03 373.05 C 182.52 373.86 192.96 376.19 202.56 380.54 C 208.09 383.21 213.66 386.71 216.84 392.12 C 219.60 397.15 216.36 403.08 212.30 406.29 C 201.55 414.72 187.75 417.52 174.54 419.40 C 171.72 419.65 168.50 421.21 165.94 419.32 C 174.66 418.16 183.37 416.13 191.37 412.40 C 197.24 409.70 202.73 405.37 205.35 399.32 C 207.27 394.30 203.68 389.18 199.95 386.09 C 189.41 377.00 175.24 374.13 161.78 372.85 Z" />
<path fill="#d0d7dc" opacity="1.00" d=" M 1166.99 378.04 C 1183.88 376.34 1200.84 375.43 1217.83 375.70 C 1241.30 375.36 1264.75 377.10 1288.04 380.01 C 1311.00 383.30 1333.99 387.45 1355.97 395.03 C 1371.95 401.23 1388.60 407.69 1400.78 420.23 C 1405.36 424.38 1408.76 429.92 1409.82 436.05 C 1410.89 443.82 1407.50 451.63 1402.17 457.17 C 1389.12 471.79 1369.95 478.35 1352.09 484.97 C 1343.05 487.49 1334.10 491.10 1324.65 491.63 C 1334.55 487.12 1344.03 481.41 1351.94 473.88 C 1357.50 468.77 1361.90 462.26 1363.92 454.94 C 1365.71 448.43 1364.84 441.28 1361.65 435.34 C 1358.67 429.91 1354.59 425.12 1349.87 421.13 C 1341.79 414.09 1332.51 408.51 1322.66 404.33 C 1304.19 395.05 1283.95 390.11 1263.75 386.27 C 1251.34 383.48 1238.66 382.24 1226.05 380.82 C 1204.41 378.56 1182.62 378.47 1160.91 379.21 C 1162.52 377.75 1164.99 378.43 1166.99 378.04 Z" />
<path fill="#d0d7dc" opacity="1.00" d=" M 1727.78 399.84 C 1731.38 398.29 1735.31 399.82 1739.04 400.07 C 1748.91 401.05 1758.75 403.19 1767.85 407.23 C 1773.84 410.01 1780.03 413.77 1783.15 419.82 C 1785.71 425.39 1781.24 430.82 1777.20 434.21 C 1766.34 442.13 1752.75 444.78 1739.71 446.54 C 1737.13 446.79 1734.22 448.09 1731.93 446.32 C 1740.65 445.15 1749.37 443.16 1757.37 439.40 C 1763.22 436.69 1768.74 432.38 1771.34 426.32 C 1772.97 422.28 1770.75 417.92 1767.88 415.08 C 1757.49 404.36 1742.07 401.20 1727.78 399.84 Z" />
<path fill="#d0d7dc" opacity="1.00" d=" M 815.78 543.85 C 819.06 542.35 822.68 543.67 826.09 543.94 C 839.10 545.34 852.49 548.13 863.52 555.53 C 867.88 558.76 873.20 563.54 871.61 569.59 C 868.61 577.99 859.87 581.89 852.25 585.13 C 844.79 587.51 837.16 589.44 829.36 590.27 C 826.26 590.43 822.75 592.35 819.93 590.32 C 828.90 589.12 837.87 587.05 846.04 583.08 C 851.64 580.39 856.84 576.13 859.34 570.32 C 861.25 565.50 857.90 560.66 854.38 557.62 C 843.98 548.01 829.42 545.17 815.78 543.85 Z" />
</g>
</svg>
