<?xml version="1.0" encoding="UTF-8" ?>
<!DOCTYPE svg PUBLIC "-//W3C//DTD SVG 1.1//EN" "http://www.w3.org/Graphics/SVG/1.1/DTD/svg11.dtd">
<svg width="800pt" height="189pt" viewBox="0 0 800 189" version="1.1" xmlns="http://www.w3.org/2000/svg">
<g id="#000000ff">
<path fill="#000000" opacity="1.00" d=" M 459.33 1.25 C 463.34 0.20 467.65 0.25 471.67 1.27 C 478.79 3.50 484.39 10.42 484.42 17.99 C 485.28 28.41 475.10 37.34 465.01 36.82 C 455.85 36.91 447.39 29.21 446.75 20.04 C 445.98 11.90 451.53 3.67 459.33 1.25 Z" />
<path fill="#000000" opacity="1.00" d=" M 603.32 1.14 C 608.51 0.37 613.78 0.93 619.00 0.79 C 624.21 0.94 629.48 0.35 634.66 1.20 C 634.65 51.68 634.71 102.16 634.63 152.64 C 624.21 152.64 613.79 152.64 603.38 152.64 C 603.22 102.15 603.33 51.63 603.32 1.14 Z" />
<path fill="#000000" opacity="1.00" d=" M 648.37 2.36 C 658.78 2.32 669.21 2.32 679.63 2.36 C 679.71 52.81 679.65 103.29 679.67 153.74 C 669.24 154.21 658.74 154.15 648.32 153.77 C 648.35 103.30 648.25 52.82 648.37 2.36 Z" />
<path fill="#000000" opacity="1.00" d=" M 23.37 20.36 C 24.02 17.87 26.62 16.78 28.99 16.75 C 34.63 16.49 40.31 16.39 45.94 16.95 C 46.74 26.92 45.80 36.95 46.30 46.93 C 54.77 47.99 63.34 46.87 71.85 47.37 C 72.52 54.41 72.53 61.58 71.81 68.62 C 63.32 69.13 54.76 68.02 46.30 69.06 C 46.05 85.71 46.33 102.39 46.18 119.06 C 46.15 122.62 46.55 127.20 50.29 128.85 C 54.50 130.63 58.47 126.89 62.65 127.28 C 65.43 128.85 66.76 131.99 68.50 134.53 C 70.43 137.99 73.25 141.02 74.57 144.77 C 65.98 151.45 54.66 154.00 43.93 153.77 C 34.30 153.77 24.10 149.34 19.20 140.72 C 15.61 134.82 14.70 127.78 14.75 120.99 C 14.69 103.68 14.89 86.36 14.69 69.05 C 11.27 68.55 7.81 68.83 4.38 68.46 C 2.33 68.25 1.27 66.20 0.00 64.84 L 0.00 50.23 C 5.50 48.97 11.28 48.74 16.56 46.64 C 19.58 38.10 20.46 28.94 23.37 20.36 Z" />
<path fill="#000000" opacity="1.00" d=" M 219.45 45.57 C 229.31 44.75 239.80 44.51 248.85 49.15 C 264.03 55.79 271.60 73.10 270.69 89.00 C 270.61 109.91 270.70 130.83 270.66 151.75 C 264.25 152.24 257.71 152.40 251.32 151.60 C 246.02 150.51 246.00 144.16 243.12 140.66 C 236.78 145.45 230.30 150.48 222.40 152.38 C 211.81 154.90 199.82 154.54 190.35 148.67 C 176.94 140.19 174.78 118.98 185.58 107.57 C 193.65 99.24 205.14 95.52 216.22 93.23 C 223.99 91.44 231.98 91.37 239.89 90.89 C 240.29 84.80 240.33 77.80 236.07 72.93 C 231.40 68.14 224.01 68.72 217.98 69.89 C 210.69 71.31 204.86 77.77 197.05 76.81 C 191.72 76.53 189.08 71.27 186.72 67.24 C 185.82 65.31 184.06 63.48 184.17 61.28 C 193.82 52.40 206.58 47.42 219.45 45.57 M 225.01 110.93 C 220.26 111.92 215.14 113.07 211.52 116.53 C 206.70 120.82 207.88 130.66 214.63 132.31 C 222.10 134.11 230.48 132.42 236.36 127.36 C 237.94 125.92 240.23 124.48 240.01 122.04 C 240.16 117.99 240.16 113.92 239.90 109.87 C 234.92 109.22 229.92 110.16 225.01 110.93 Z" />
<path fill="#000000" opacity="1.00" d=" M 115.34 46.38 C 129.53 44.14 145.23 46.00 156.74 55.24 C 169.44 65.26 174.37 82.38 173.10 98.04 C 172.82 100.28 172.46 102.99 170.40 104.34 C 168.44 105.36 166.15 105.24 164.00 105.34 C 144.71 105.32 125.41 105.28 106.12 105.34 C 105.73 110.64 107.85 116.00 110.44 120.57 C 116.07 129.49 127.94 131.82 137.64 129.52 C 143.37 128.30 148.31 125.01 153.60 122.66 C 157.07 121.00 161.73 121.63 163.97 124.97 C 166.63 128.66 170.15 131.80 172.20 135.89 C 164.78 145.26 153.16 150.45 141.63 152.58 C 125.83 155.47 108.35 153.62 95.11 143.91 C 80.76 133.56 73.93 115.28 74.26 98.00 C 73.98 88.60 76.32 79.15 80.87 70.93 C 87.81 58.06 101.00 48.91 115.34 46.38 M 113.52 71.56 C 109.26 75.48 106.91 81.14 106.19 86.80 C 119.10 87.16 132.06 87.05 144.98 86.87 C 145.51 79.13 141.40 70.77 133.72 68.20 C 127.04 66.21 118.91 66.70 113.52 71.56 Z" />
<path fill="#000000" opacity="1.00" d=" M 322.82 49.84 C 331.85 44.98 343.58 44.13 352.64 49.35 C 358.02 52.40 361.07 57.90 364.12 63.03 C 366.52 60.77 368.05 57.75 370.56 55.59 C 378.41 48.30 389.49 45.41 400.01 45.91 C 409.40 46.16 419.16 49.29 425.57 56.45 C 433.58 65.20 435.30 77.60 435.18 89.01 C 435.06 110.03 435.50 131.08 434.97 152.10 C 424.65 152.56 414.26 152.54 403.94 152.11 C 403.45 148.09 403.69 144.04 403.68 140.00 C 403.66 121.32 403.69 102.64 403.68 83.97 C 403.53 78.80 401.54 72.80 396.38 70.66 C 390.61 68.58 383.23 69.15 378.90 73.89 C 375.90 77.12 374.97 81.67 374.97 85.96 C 374.85 108.00 375.13 130.05 374.85 152.09 C 369.92 152.70 364.95 152.24 360.00 152.36 C 354.64 152.25 349.25 152.68 343.91 152.11 C 343.29 132.76 343.84 113.36 343.65 94.00 C 343.46 87.78 344.60 81.11 341.64 75.35 C 339.47 71.15 334.50 69.38 330.00 69.56 C 324.10 69.35 318.55 72.36 314.54 76.49 C 314.12 79.31 314.36 82.17 314.34 85.00 C 314.39 105.67 314.30 126.33 314.39 147.00 C 314.37 148.70 314.31 150.42 314.10 152.11 C 303.80 152.52 293.42 152.56 283.13 152.10 C 282.83 122.74 283.09 93.37 283.01 64.00 C 283.13 58.45 282.68 52.87 283.29 47.34 C 289.20 47.25 295.13 47.45 301.05 47.31 C 304.09 47.13 307.59 47.95 309.19 50.80 C 310.27 53.11 311.01 55.56 312.02 57.90 C 315.60 55.19 318.75 51.86 322.82 49.84 Z" />
<path fill="#000000" opacity="1.00" d=" M 498.91 72.94 C 505.95 58.32 520.96 48.32 536.92 46.26 C 547.69 45.09 559.00 46.15 568.73 51.21 C 581.19 57.31 589.36 70.25 591.32 83.77 C 592.14 89.85 592.87 96.21 591.19 102.20 C 590.61 104.52 588.21 105.71 585.97 105.65 C 565.60 105.84 545.19 105.34 524.83 105.88 C 524.97 111.80 526.99 117.71 530.51 122.47 C 535.24 128.69 543.49 131.20 551.06 130.73 C 558.45 130.57 564.97 126.68 571.37 123.43 C 574.56 121.94 579.23 121.15 581.76 124.21 C 585.07 128.02 588.34 131.91 591.23 136.04 C 584.60 144.86 573.96 149.89 563.42 152.37 C 547.41 155.73 529.51 154.78 515.59 145.41 C 502.99 137.31 495.78 122.87 493.72 108.35 C 492.38 96.40 493.16 83.74 498.91 72.94 M 537.79 68.77 C 530.11 71.32 526.09 79.49 525.11 87.04 C 530.38 87.69 535.70 87.21 541.00 87.34 C 548.65 87.14 556.33 87.76 563.96 87.04 C 563.99 81.75 562.56 76.13 558.61 72.38 C 553.29 66.96 544.67 66.61 537.79 68.77 Z" />
<path fill="#000000" opacity="1.00" d=" M 450.28 47.34 C 460.45 47.36 470.62 47.32 480.79 47.36 C 481.28 48.85 481.34 50.42 481.36 51.97 C 481.28 80.65 481.34 109.32 481.33 138.00 C 481.11 148.02 482.30 158.35 479.00 168.02 C 476.43 176.50 469.44 183.25 461.15 186.16 C 454.79 188.79 447.79 188.47 441.06 188.40 C 437.66 188.31 434.19 188.12 431.00 186.86 C 430.17 182.58 431.31 178.23 431.23 173.92 C 431.44 171.61 430.85 168.55 433.23 167.14 C 437.57 165.30 443.12 167.30 446.93 163.96 C 450.13 160.90 449.76 156.06 449.96 152.01 C 449.99 118.66 449.98 85.32 449.96 51.97 C 449.99 50.42 450.05 48.87 450.28 47.34 Z" />
<path fill="#000000" opacity="1.00" d=" M 739.45 47.57 C 754.08 46.15 769.70 49.34 781.31 58.71 C 791.95 67.26 798.19 80.56 799.28 94.04 C 799.47 101.96 799.90 110.05 797.74 117.77 C 794.48 131.33 785.41 143.63 772.74 149.76 C 758.48 156.89 741.43 157.48 726.36 152.63 C 714.16 148.58 703.55 139.67 698.05 127.97 C 694.02 119.61 692.26 110.26 692.58 101.00 C 692.11 86.15 697.40 70.72 708.60 60.64 C 717.00 52.87 728.20 48.81 739.45 47.57 M 740.31 71.32 C 735.47 72.37 731.19 75.52 728.96 79.97 C 724.94 87.60 724.60 96.54 724.81 104.99 C 725.26 112.72 726.42 121.16 731.89 127.10 C 736.97 132.34 745.00 133.20 751.84 131.78 C 757.20 130.72 761.64 126.68 763.81 121.74 C 767.27 114.03 767.55 105.35 767.22 97.03 C 766.77 89.81 765.52 82.03 760.65 76.36 C 755.65 70.77 747.30 69.64 740.31 71.32 Z" />
</g>
</svg>
