<svg xmlns="http://www.w3.org/2000/svg" fill='#fff' version="1" viewBox="0 0 800 189">
  <path d="M459 1h13c7 3 12 9 12 17 1 10-9 19-19 19-9 0-18-8-18-17-1-8 5-16 12-19zM603 1h32v152h-32V1zM648 2h32v152h-32V2zM23 20c1-2 4-3 6-3h17v30h26v22H46v50c0 4 1 8 4 10 5 2 8-2 13-2l6 8 6 10c-9 6-20 9-31 9-10 0-20-5-25-13-3-6-4-13-4-20V69L4 68c-2 0-3-2-4-3V50l17-3 6-27zM219 46c10-1 21-1 30 3 15 7 23 24 22 40v63h-20c-5-1-5-8-8-11-6 4-13 9-21 11-10 3-22 3-32-3-13-9-15-30-4-41 8-9 19-12 30-15 8-2 16-2 24-2 0-6 0-13-4-18-5-5-12-4-18-3-7 1-13 8-21 7-5 0-8-6-10-10l-3-6c10-9 23-14 35-15m6 65c-5 1-10 2-13 6-5 4-4 14 3 15 7 2 15 0 21-5 2-1 4-3 4-5v-12c-5-1-10 0-15 1z"/>
  <path d="M115 46c15-2 30 0 42 9 12 10 17 27 16 43 0 2-1 5-3 6l-6 1h-58c0 6 2 11 4 16 6 8 18 11 28 9l16-7c3-2 8-1 10 2l8 11a60 60 0 0 1-77 8 55 55 0 0 1-21-46c0-9 2-19 7-27 7-13 20-22 34-25m-1 26c-5 3-7 9-8 15h39c1-8-4-16-11-19-7-2-15-1-20 4zM323 50c9-5 21-6 30-1 5 3 8 9 11 14l7-7c7-8 18-11 29-10 9 0 19 3 26 10 8 9 9 22 9 33v63h-31v-12-56c0-5-2-11-8-13-5-2-13-2-17 3-3 3-4 8-4 12v66h-31V94c-1-6 1-13-2-19-3-4-7-6-12-5-6-1-11 2-15 6l-1 9v67h-31V64 47h18c3 0 7 1 8 4l3 7 11-8zM499 73c7-15 22-25 38-27 11-1 22 0 32 5 12 6 20 19 22 33 1 6 2 12 0 18 0 3-3 4-5 4h-61c0 6 2 12 6 16 4 7 12 9 20 9 7 0 14-4 20-8 4-1 8-2 11 1l9 12c-6 9-17 14-28 16-16 4-33 3-47-7-13-8-20-22-22-37-2-12-1-24 5-35m39-4c-8 2-12 10-13 18h39c0-5-1-11-5-15-6-5-14-5-21-3z"/>
  <path d="M450 47h31v91c0 10 1 20-2 30-3 9-10 15-18 18-6 3-13 2-20 2l-10-1v-13c0-2 0-5 2-7 5-2 10 0 14-3 3-3 3-8 3-12a66720 66720 0 0 0 0-105zM739 48c15-2 31 1 42 11 11 8 17 22 18 35 0 8 1 16-1 24-4 13-13 26-25 32-15 7-32 7-47 3-12-4-22-13-28-25-4-8-6-18-5-27-1-15 4-30 16-40 8-8 19-12 30-13m1 23c-5 1-9 5-11 9-4 8-4 17-4 25s1 16 7 22c5 5 13 6 20 5 5-1 10-5 12-10 3-8 4-17 3-25 0-7-1-15-6-21-5-5-14-6-21-5z"/>
</svg>
