<?xml version="1.0" encoding="UTF-8" ?>
<!DOCTYPE svg PUBLIC "-//W3C//DTD SVG 1.1//EN" "http://www.w3.org/Graphics/SVG/1.1/DTD/svg11.dtd">
<svg width="250pt" height="91pt" viewBox="0 0 250 91" version="1.1" xmlns="http://www.w3.org/2000/svg">
<g id="#e56565ff">
<path fill="#e56565" opacity="1.00" d=" M 11.60 9.61 C 17.58 3.14 27.35 0.45 35.77 3.11 C 43.72 5.31 50.19 12.04 52.12 20.06 C 54.21 27.59 52.05 36.05 46.84 41.83 C 44.33 44.87 40.73 46.62 37.33 48.47 C 36.45 61.91 37.39 75.44 36.91 88.91 C 31.64 89.11 26.36 89.11 21.09 88.91 C 20.61 75.44 21.55 61.91 20.67 48.47 C 14.72 45.75 9.30 41.34 6.91 35.07 C 3.29 26.63 5.25 16.22 11.60 9.61 M 26.34 18.35 C 20.58 20.07 19.02 28.55 23.81 32.19 C 28.31 36.36 36.67 33.13 36.99 26.94 C 37.97 21.23 31.70 16.31 26.34 18.35 Z" />
<path fill="#e56565" opacity="1.00" d=" M 75.61 9.60 C 81.59 3.15 91.35 0.46 99.77 3.11 C 107.72 5.31 114.19 12.04 116.12 20.06 C 118.21 27.59 116.06 36.05 110.84 41.82 C 108.33 44.87 104.73 46.62 101.34 48.47 C 100.44 61.91 101.39 75.44 100.91 88.91 C 95.64 89.11 90.36 89.11 85.09 88.91 C 84.61 75.44 85.55 61.91 84.67 48.47 C 78.71 45.76 73.30 41.33 70.91 35.07 C 67.29 26.63 69.25 16.21 75.61 9.60 M 90.35 18.35 C 84.57 20.07 83.03 28.54 87.81 32.19 C 92.30 36.35 100.67 33.13 100.99 26.94 C 101.97 21.23 95.70 16.31 90.35 18.35 Z" />
<path fill="#e56565" opacity="1.00" d=" M 139.60 9.60 C 145.58 3.15 155.35 0.45 163.77 3.11 C 171.71 5.31 178.19 12.03 180.12 20.06 C 182.21 27.58 180.06 36.05 174.84 41.83 C 172.33 44.87 168.73 46.62 165.33 48.47 C 164.45 61.91 165.39 75.44 164.91 88.91 C 159.64 89.11 154.36 89.11 149.09 88.91 C 148.61 75.44 149.56 61.91 148.66 48.47 C 142.71 45.75 137.30 41.33 134.91 35.07 C 131.29 26.63 133.25 16.21 139.60 9.60 M 154.34 18.35 C 148.58 20.07 147.02 28.55 151.81 32.19 C 156.31 36.36 164.67 33.13 164.99 26.94 C 165.96 21.23 159.70 16.30 154.34 18.35 Z" />
<path fill="#e56565" opacity="1.00" d=" M 204.10 9.10 C 210.50 2.57 220.82 0.29 229.35 3.62 C 237.60 6.66 244.74 14.79 244.07 23.97 C 244.04 28.62 244.55 33.69 241.81 37.74 C 239.11 42.75 234.35 46.07 229.33 48.47 C 228.45 61.91 229.38 75.44 228.91 88.91 C 223.64 89.11 218.36 89.11 213.09 88.90 C 212.61 75.44 213.56 61.91 212.67 48.47 C 206.71 45.75 201.30 41.34 198.91 35.07 C 195.18 26.41 197.38 15.68 204.10 9.10 M 218.34 18.35 C 212.58 20.07 211.02 28.54 215.81 32.18 C 220.29 36.37 228.67 33.13 228.99 26.94 C 229.97 21.23 223.69 16.31 218.34 18.35 Z" />
</g>
</svg>
